<svg width="243" height="243" viewBox="0 0 243 243" fill="none" xmlns="http://www.w3.org/2000/svg">
<path fill-rule="evenodd" clip-rule="evenodd" d="M115.504 72.3392C114.775 70.176 115.421 67.7869 117.141 66.286C118.86 64.785 121.315 64.4677 123.359 65.4819L184.026 95.5752C186.819 96.9602 187.959 100.346 186.574 103.139L156.481 163.806C155.467 165.85 153.321 167.083 151.043 166.928C148.766 166.774 146.806 165.262 146.077 163.099L115.504 72.3392Z" fill="black"/>
<path opacity="0.5" d="M62.3084 146.744C59.3547 147.739 56.1541 146.151 55.1591 143.198C54.1641 140.244 55.7517 137.043 58.7055 136.048L128.991 112.371L132.594 123.068L62.3084 146.744Z" fill="black"/>
</svg>
