<svg width="352" height="470" viewBox="0 0 352 470" fill="none" xmlns="http://www.w3.org/2000/svg">
<path d="M337.333 124.667H14.666V220H337.333V124.667Z" fill="#2442E2"/>
<path d="M337.333 14.667H14.666V110H337.333V14.667Z" fill="#2442E2"/>
<path d="M337.333 234.667H14.666V330H337.333V234.667Z" fill="#2442E2"/>
<path d="M183.334 198H95.334V220H183.334V198Z" fill="#EAC9E1"/>
<path d="M176 154H88V176H176V154Z" fill="#D160B4"/>
<path d="M198 176H110V198H198V176Z" fill="#9800A8"/>
<path d="M22 454.667V462.02C22 466.043 25.3 469.334 29.3333 469.334H51.3333C55.3667 469.334 60.1416 466.39 61.9465 462.792L66.0202 454.667H22Z" fill="#2442E2"/>
<path d="M285.98 454.667L290.054 462.792C291.858 466.39 296.634 469.334 300.667 469.334H322.667C326.701 469.334 330.001 466.043 330.001 462.02V454.667H285.98Z" fill="#2442E2"/>
<path d="M14.666 14.667V29.3337V110H29.3327V58.667C29.3327 51.2777 32.1569 44.6081 36.666 39.45V22.3477H102.666V29.3337H337.333V14.667H14.666Z" fill="#130552"/>
<path d="M14.666 124.667V139.334V220H29.3327V168.667C29.3327 152.467 42.4658 139.334 58.666 139.334H271.333V132H315.333V139.334H337.333V124.667H14.666Z" fill="#2442E2"/>
<path d="M14.666 124.667V139.334V220H29.3327V168.667C29.3327 152.467 42.4658 139.334 58.666 139.334H271.333V132H315.333V139.334H337.333V124.667H14.666Z" fill="#130552"/>
<path d="M337.333 344.667H14.666V440H337.333V344.667Z" fill="#2442E2"/>
<path d="M14.666 344.667V359.334V440H29.3327V388.667C29.3327 372.467 42.4658 359.334 58.666 359.334H337.333V344.667H14.666Z" fill="#130552"/>
<path d="M14.666 234.667V249.334V330H29.3327V278.667C29.3327 271.278 32.1569 264.608 36.666 259.45V242H80.666V249.334H84.2098L100.576 241.305L104.514 249.334H337.333V234.667H14.666Z" fill="#130552"/>
<path d="M337.333 0H176H14.6667C6.6 0 0 6.6 0 14.6667V440C0 448.067 6.6 454.667 14.6667 454.667H176H337.333C345.4 454.667 352 448.067 352 440V14.6667C352 6.6 345.4 0 337.333 0ZM337.333 440H220H183.333H168.667H154H14.6667V344.667H154H168.667H183.333H220H337.333V440ZM337.333 330H14.6667V234.667H337.333V330ZM337.333 220H14.6667V124.667H337.333V220ZM337.333 110H14.6667V14.6667H337.333V110Z" fill="#6F85FD"/>
<path d="M271.334 396H183.334V418H271.334V396Z" fill="#D160B4"/>
<path d="M293.334 418H205.334V440H293.334V418Z" fill="#9800A8"/>
<path d="M315.334 132H293.334V220H315.334V132Z" fill="#991FA6"/>
<path d="M234.666 22H256.666V110H234.666V22Z" fill="#991FA6"/>
<path d="M293.334 132H271.334V220H293.334V132Z" fill="#D160B4"/>
<path d="M256.666 22H278.666V110H256.666V22Z" fill="#D160B4"/>
<path d="M102.666 22.3477H80.666V110.348H102.666V22.3477Z" fill="#EAC9E1"/>
<path d="M80.666 22.3477H58.666V110.348H80.666V22.3477Z" fill="#D160B4"/>
<path d="M58.666 22.3477H36.666V110.348H58.666V22.3477Z" fill="#9800A8"/>
<path d="M80.666 242H58.666V330H80.666V242Z" fill="#EAC9E1"/>
<path d="M58.666 242H36.666V330H58.666V242Z" fill="#D160B4"/>
<path d="M119.586 329.993L139.338 320.304L100.583 241.297L80.8311 250.986L119.586 329.993Z" fill="#D160B4"/>
<path d="M195.752 110.695L176 101.006L214.755 21.9995L234.507 31.6883L195.752 110.695Z" fill="#D160B4"/>
<g filter="url(#filter0_d_350_142)">
<mask id="path-29-outside-1_350_142" maskUnits="userSpaceOnUse" x="194" y="260" width="126" height="65" fill="black">
<rect fill="white" x="194" y="260" width="126" height="65"/>
<path d="M199.232 313.237C199.232 309.445 199.838 306.209 201.052 303.53C202.265 300.8 204.439 297.792 207.573 294.506C210.657 291.22 212.78 288.414 213.943 286.088C215.157 283.763 215.763 281.336 215.763 278.808C215.763 276.533 215.384 274.966 214.626 274.107C213.918 273.197 212.856 272.742 211.441 272.742C208.559 272.742 207.118 274.486 207.118 277.974V283.662H199.232V278.505C199.232 274.208 200.293 270.922 202.417 268.647C204.54 266.321 207.624 265.158 211.668 265.158C215.713 265.158 218.797 266.321 220.92 268.647C223.043 270.922 224.105 274.208 224.105 278.505C224.105 281.741 223.321 284.9 221.754 287.984C220.237 291.068 217.583 294.607 213.792 298.601C211.314 301.23 209.646 303.378 208.787 305.047C207.927 306.664 207.497 308.409 207.497 310.279V311.417H223.347V319H199.232V313.237ZM241.804 319.758C237.709 319.758 234.574 318.596 232.4 316.27C230.226 313.944 229.14 310.658 229.14 306.412V278.505C229.14 274.258 230.226 270.972 232.4 268.647C234.574 266.321 237.709 265.158 241.804 265.158C245.899 265.158 249.033 266.321 251.207 268.647C253.381 270.972 254.468 274.258 254.468 278.505V306.412C254.468 310.658 253.381 313.944 251.207 316.27C249.033 318.596 245.899 319.758 241.804 319.758ZM241.804 312.175C244.685 312.175 246.126 310.431 246.126 306.943V277.974C246.126 274.486 244.685 272.742 241.804 272.742C238.922 272.742 237.481 274.486 237.481 277.974V306.943C237.481 310.431 238.922 312.175 241.804 312.175ZM259.957 313.237C259.957 309.445 260.564 306.209 261.777 303.53C262.991 300.8 265.165 297.792 268.299 294.506C271.383 291.22 273.506 288.414 274.669 286.088C275.882 283.763 276.489 281.336 276.489 278.808C276.489 276.533 276.11 274.966 275.352 274.107C274.644 273.197 273.582 272.742 272.167 272.742C269.285 272.742 267.844 274.486 267.844 277.974V283.662H259.957V278.505C259.957 274.208 261.019 270.922 263.142 268.647C265.266 266.321 268.35 265.158 272.394 265.158C276.439 265.158 279.523 266.321 281.646 268.647C283.769 270.922 284.831 274.208 284.831 278.505C284.831 281.741 284.047 284.9 282.48 287.984C280.963 291.068 278.309 294.607 274.517 298.601C272.04 301.23 270.372 303.378 269.512 305.047C268.653 306.664 268.223 308.409 268.223 310.279V311.417H284.072V319H259.957V313.237ZM302.302 319.758C298.207 319.758 295.098 318.621 292.975 316.346C290.902 314.071 289.865 310.81 289.865 306.563V302.241H297.752V306.943C297.752 310.431 299.193 312.175 302.075 312.175C303.49 312.175 304.552 311.745 305.26 310.886C306.018 309.976 306.397 308.409 306.397 306.184V301.862C306.397 299.435 305.967 297.716 305.108 296.705C304.249 295.643 302.858 295.112 300.937 295.112H298.131V287.529H301.165C302.833 287.529 304.072 287.099 304.88 286.24C305.74 285.381 306.17 283.94 306.17 281.918V278.05C306.17 276.23 305.79 274.89 305.032 274.031C304.274 273.171 303.263 272.742 301.999 272.742C299.319 272.742 297.98 274.385 297.98 277.671V281.159H290.093V278.353C290.093 274.107 291.129 270.846 293.202 268.571C295.325 266.296 298.359 265.158 302.302 265.158C306.296 265.158 309.329 266.296 311.402 268.571C313.475 270.795 314.511 274.031 314.511 278.278V280.173C314.511 283.055 314.031 285.381 313.07 287.15C312.11 288.869 310.619 290.108 308.596 290.866V291.018C310.77 291.826 312.337 293.141 313.298 294.961C314.259 296.781 314.739 299.106 314.739 301.938V306.639C314.739 310.886 313.677 314.147 311.554 316.422C309.481 318.646 306.397 319.758 302.302 319.758Z"/>
</mask>
<path d="M199.232 313.237C199.232 309.445 199.838 306.209 201.052 303.53C202.265 300.8 204.439 297.792 207.573 294.506C210.657 291.22 212.78 288.414 213.943 286.088C215.157 283.763 215.763 281.336 215.763 278.808C215.763 276.533 215.384 274.966 214.626 274.107C213.918 273.197 212.856 272.742 211.441 272.742C208.559 272.742 207.118 274.486 207.118 277.974V283.662H199.232V278.505C199.232 274.208 200.293 270.922 202.417 268.647C204.54 266.321 207.624 265.158 211.668 265.158C215.713 265.158 218.797 266.321 220.92 268.647C223.043 270.922 224.105 274.208 224.105 278.505C224.105 281.741 223.321 284.9 221.754 287.984C220.237 291.068 217.583 294.607 213.792 298.601C211.314 301.23 209.646 303.378 208.787 305.047C207.927 306.664 207.497 308.409 207.497 310.279V311.417H223.347V319H199.232V313.237ZM241.804 319.758C237.709 319.758 234.574 318.596 232.4 316.27C230.226 313.944 229.14 310.658 229.14 306.412V278.505C229.14 274.258 230.226 270.972 232.4 268.647C234.574 266.321 237.709 265.158 241.804 265.158C245.899 265.158 249.033 266.321 251.207 268.647C253.381 270.972 254.468 274.258 254.468 278.505V306.412C254.468 310.658 253.381 313.944 251.207 316.27C249.033 318.596 245.899 319.758 241.804 319.758ZM241.804 312.175C244.685 312.175 246.126 310.431 246.126 306.943V277.974C246.126 274.486 244.685 272.742 241.804 272.742C238.922 272.742 237.481 274.486 237.481 277.974V306.943C237.481 310.431 238.922 312.175 241.804 312.175ZM259.957 313.237C259.957 309.445 260.564 306.209 261.777 303.53C262.991 300.8 265.165 297.792 268.299 294.506C271.383 291.22 273.506 288.414 274.669 286.088C275.882 283.763 276.489 281.336 276.489 278.808C276.489 276.533 276.11 274.966 275.352 274.107C274.644 273.197 273.582 272.742 272.167 272.742C269.285 272.742 267.844 274.486 267.844 277.974V283.662H259.957V278.505C259.957 274.208 261.019 270.922 263.142 268.647C265.266 266.321 268.35 265.158 272.394 265.158C276.439 265.158 279.523 266.321 281.646 268.647C283.769 270.922 284.831 274.208 284.831 278.505C284.831 281.741 284.047 284.9 282.48 287.984C280.963 291.068 278.309 294.607 274.517 298.601C272.04 301.23 270.372 303.378 269.512 305.047C268.653 306.664 268.223 308.409 268.223 310.279V311.417H284.072V319H259.957V313.237ZM302.302 319.758C298.207 319.758 295.098 318.621 292.975 316.346C290.902 314.071 289.865 310.81 289.865 306.563V302.241H297.752V306.943C297.752 310.431 299.193 312.175 302.075 312.175C303.49 312.175 304.552 311.745 305.26 310.886C306.018 309.976 306.397 308.409 306.397 306.184V301.862C306.397 299.435 305.967 297.716 305.108 296.705C304.249 295.643 302.858 295.112 300.937 295.112H298.131V287.529H301.165C302.833 287.529 304.072 287.099 304.88 286.24C305.74 285.381 306.17 283.94 306.17 281.918V278.05C306.17 276.23 305.79 274.89 305.032 274.031C304.274 273.171 303.263 272.742 301.999 272.742C299.319 272.742 297.98 274.385 297.98 277.671V281.159H290.093V278.353C290.093 274.107 291.129 270.846 293.202 268.571C295.325 266.296 298.359 265.158 302.302 265.158C306.296 265.158 309.329 266.296 311.402 268.571C313.475 270.795 314.511 274.031 314.511 278.278V280.173C314.511 283.055 314.031 285.381 313.07 287.15C312.11 288.869 310.619 290.108 308.596 290.866V291.018C310.77 291.826 312.337 293.141 313.298 294.961C314.259 296.781 314.739 299.106 314.739 301.938V306.639C314.739 310.886 313.677 314.147 311.554 316.422C309.481 318.646 306.397 319.758 302.302 319.758Z" fill="black"/>
<path d="M201.052 303.53L205.192 305.405L205.198 305.39L205.205 305.376L201.052 303.53ZM207.573 294.506L210.862 297.643L210.875 297.629L210.887 297.616L207.573 294.506ZM213.943 286.088L209.914 283.986L209.896 284.021L209.878 284.056L213.943 286.088ZM214.626 274.107L211.038 276.897L211.125 277.008L211.218 277.114L214.626 274.107ZM207.118 283.662V288.206H211.663V283.662H207.118ZM199.232 283.662H194.687V288.206H199.232V283.662ZM202.417 268.647L205.739 271.748L205.756 271.729L205.773 271.711L202.417 268.647ZM220.92 268.647L217.564 271.711L217.581 271.729L217.598 271.748L220.92 268.647ZM221.754 287.984L217.703 285.925L217.689 285.952L217.676 285.979L221.754 287.984ZM213.792 298.601L210.496 295.472L210.49 295.478L210.484 295.484L213.792 298.601ZM208.787 305.047L212.8 307.179L212.814 307.153L212.827 307.128L208.787 305.047ZM207.497 311.417H202.953V315.961H207.497V311.417ZM223.347 311.417H227.891V306.872H223.347V311.417ZM223.347 319V323.545H227.891V319H223.347ZM199.232 319H194.687V323.545H199.232V319ZM203.776 313.237C203.776 309.912 204.31 307.351 205.192 305.405L196.912 301.655C195.366 305.068 194.687 308.978 194.687 313.237H203.776ZM205.205 305.376C206.126 303.303 207.92 300.727 210.862 297.643L204.285 291.369C200.958 294.857 198.404 298.297 196.899 301.684L205.205 305.376ZM210.887 297.616C214.086 294.207 216.556 291.026 218.008 288.121L209.878 284.056C209.005 285.802 207.228 288.232 204.259 291.396L210.887 297.616ZM217.973 288.191C219.511 285.241 220.308 282.096 220.308 278.808H211.219C211.219 280.576 210.802 282.284 209.914 283.986L217.973 288.191ZM220.308 278.808C220.308 276.36 219.968 273.292 218.034 271.1L211.218 277.114C210.95 276.81 210.979 276.655 211.062 276.995C211.14 277.319 211.219 277.896 211.219 278.808H220.308ZM218.213 271.317C216.448 269.047 213.905 268.197 211.441 268.197V277.286C211.668 277.286 211.656 277.323 211.508 277.26C211.434 277.228 211.344 277.179 211.253 277.108C211.161 277.037 211.089 276.962 211.038 276.897L218.213 271.317ZM211.441 268.197C209.046 268.197 206.506 268.963 204.695 271.155C203.022 273.181 202.574 275.718 202.574 277.974H211.663C211.663 277.4 211.724 277.059 211.77 276.891C211.813 276.734 211.824 276.797 211.703 276.944C211.643 277.016 211.567 277.09 211.477 277.155C211.389 277.219 211.308 277.26 211.25 277.283C211.139 277.328 211.17 277.286 211.441 277.286V268.197ZM202.574 277.974V283.662H211.663V277.974H202.574ZM207.118 279.117H199.232V288.206H207.118V279.117ZM203.776 283.662V278.505H194.687V283.662H203.776ZM203.776 278.505C203.776 274.916 204.658 272.905 205.739 271.748L199.094 265.546C195.928 268.938 194.687 273.499 194.687 278.505H203.776ZM205.773 271.711C206.805 270.58 208.515 269.703 211.668 269.703V260.614C206.732 260.614 202.274 262.062 199.06 265.582L205.773 271.711ZM211.668 269.703C214.821 269.703 216.531 270.58 217.564 271.711L224.276 265.582C221.062 262.062 216.604 260.614 211.668 260.614V269.703ZM217.598 271.748C218.678 272.905 219.56 274.916 219.56 278.505H228.65C228.65 273.499 227.408 268.938 224.242 265.546L217.598 271.748ZM219.56 278.505C219.56 280.976 218.969 283.434 217.703 285.925L225.806 290.043C227.674 286.367 228.65 282.505 228.65 278.505H219.56ZM217.676 285.979C216.446 288.479 214.137 291.636 210.496 295.472L217.088 301.73C221.029 297.578 224.029 293.657 225.832 289.99L217.676 285.979ZM210.484 295.484C207.932 298.193 205.906 300.715 204.746 302.965L212.827 307.128C213.387 306.041 214.697 304.267 217.099 301.718L210.484 295.484ZM204.773 302.915C203.557 305.203 202.953 307.681 202.953 310.279H212.042C212.042 309.136 212.297 308.126 212.8 307.179L204.773 302.915ZM202.953 310.279V311.417H212.042V310.279H202.953ZM207.497 315.961H223.347V306.872H207.497V315.961ZM218.802 311.417V319H227.891V311.417H218.802ZM223.347 314.455H199.232V323.545H223.347V314.455ZM203.776 319V313.237H194.687V319H203.776ZM232.4 316.27L235.72 313.167L235.72 313.167L232.4 316.27ZM232.4 268.647L235.72 271.75L235.72 271.75L232.4 268.647ZM251.207 268.647L247.887 271.75L247.887 271.75L251.207 268.647ZM251.207 316.27L247.887 313.167L247.887 313.167L251.207 316.27ZM241.804 315.214C238.586 315.214 236.805 314.327 235.72 313.167L229.08 319.373C232.343 322.864 236.831 324.303 241.804 324.303V315.214ZM235.72 313.167C234.566 311.932 233.684 309.9 233.684 306.412H224.595C224.595 311.417 225.887 315.957 229.08 319.373L235.72 313.167ZM233.684 306.412V278.505H224.595V306.412H233.684ZM233.684 278.505C233.684 275.017 234.566 272.985 235.72 271.75L229.08 265.543C225.887 268.96 224.595 273.5 224.595 278.505H233.684ZM235.72 271.75C236.805 270.59 238.586 269.703 241.804 269.703V260.614C236.831 260.614 232.343 262.053 229.08 265.543L235.72 271.75ZM241.804 269.703C245.021 269.703 246.802 270.59 247.887 271.75L254.527 265.543C251.264 262.053 246.776 260.614 241.804 260.614V269.703ZM247.887 271.75C249.041 272.985 249.923 275.017 249.923 278.505H259.013C259.013 273.5 257.721 268.96 254.527 265.543L247.887 271.75ZM249.923 278.505V306.412H259.013V278.505H249.923ZM249.923 306.412C249.923 309.9 249.041 311.932 247.887 313.167L254.527 319.373C257.721 315.957 259.013 311.417 259.013 306.412H249.923ZM247.887 313.167C246.802 314.327 245.021 315.214 241.804 315.214V324.303C246.776 324.303 251.264 322.864 254.527 319.373L247.887 313.167ZM241.804 316.72C244.198 316.72 246.739 315.953 248.549 313.761C250.223 311.736 250.671 309.198 250.671 306.943H241.582C241.582 307.517 241.521 307.857 241.474 308.025C241.431 308.182 241.42 308.119 241.542 307.972C241.601 307.9 241.678 307.827 241.767 307.762C241.856 307.697 241.936 307.657 241.994 307.633C242.106 307.588 242.075 307.63 241.804 307.63V316.72ZM250.671 306.943V277.974H241.582V306.943H250.671ZM250.671 277.974C250.671 275.718 250.223 273.181 248.549 271.155C246.739 268.963 244.198 268.197 241.804 268.197V277.286C242.075 277.286 242.106 277.328 241.994 277.283C241.936 277.26 241.856 277.219 241.767 277.155C241.678 277.09 241.601 277.016 241.542 276.944C241.42 276.797 241.431 276.734 241.474 276.891C241.521 277.059 241.582 277.4 241.582 277.974H250.671ZM241.804 268.197C239.409 268.197 236.869 268.963 235.058 271.155C233.385 273.181 232.937 275.718 232.937 277.974H242.026C242.026 277.4 242.087 277.059 242.133 276.891C242.176 276.734 242.187 276.797 242.066 276.944C242.006 277.016 241.93 277.09 241.84 277.155C241.752 277.219 241.671 277.26 241.613 277.283C241.502 277.328 241.533 277.286 241.804 277.286V268.197ZM232.937 277.974V306.943H242.026V277.974H232.937ZM232.937 306.943C232.937 309.198 233.385 311.736 235.058 313.761C236.869 315.953 239.409 316.72 241.804 316.72V307.63C241.533 307.63 241.502 307.588 241.613 307.633C241.671 307.657 241.752 307.697 241.84 307.762C241.93 307.827 242.006 307.9 242.066 307.972C242.187 308.119 242.176 308.182 242.133 308.025C242.087 307.857 242.026 307.517 242.026 306.943H232.937ZM261.777 303.53L265.917 305.405L265.924 305.39L265.93 305.376L261.777 303.53ZM268.299 294.506L271.588 297.643L271.6 297.629L271.613 297.616L268.299 294.506ZM274.669 286.088L270.64 283.986L270.622 284.021L270.604 284.056L274.669 286.088ZM275.352 274.107L271.764 276.897L271.851 277.008L271.944 277.114L275.352 274.107ZM267.844 283.662V288.206H272.389V283.662H267.844ZM259.957 283.662H255.413V288.206H259.957V283.662ZM263.142 268.647L266.465 271.748L266.482 271.729L266.499 271.711L263.142 268.647ZM281.646 268.647L278.29 271.711L278.306 271.729L278.323 271.748L281.646 268.647ZM282.48 287.984L278.428 285.925L278.415 285.952L278.402 285.979L282.48 287.984ZM274.517 298.601L271.222 295.472L271.216 295.478L271.21 295.484L274.517 298.601ZM269.512 305.047L273.526 307.179L273.539 307.153L273.553 307.128L269.512 305.047ZM268.223 311.417H263.679V315.961H268.223V311.417ZM284.072 311.417H288.617V306.872H284.072V311.417ZM284.072 319V323.545H288.617V319H284.072ZM259.957 319H255.413V323.545H259.957V319ZM264.502 313.237C264.502 309.912 265.036 307.351 265.917 305.405L257.638 301.655C256.092 305.068 255.413 308.978 255.413 313.237H264.502ZM265.93 305.376C266.852 303.303 268.646 300.727 271.588 297.643L265.011 291.369C261.684 294.857 259.13 298.297 257.625 301.684L265.93 305.376ZM271.613 297.616C274.812 294.207 277.282 291.026 278.734 288.121L270.604 284.056C269.731 285.802 267.954 288.232 264.985 291.396L271.613 297.616ZM278.698 288.191C280.237 285.241 281.034 282.096 281.034 278.808H271.944C271.944 280.576 271.528 282.284 270.64 283.986L278.698 288.191ZM281.034 278.808C281.034 276.36 280.694 273.292 278.759 271.1L271.944 277.114C271.676 276.81 271.705 276.655 271.788 276.995C271.866 277.319 271.944 277.896 271.944 278.808H281.034ZM278.939 271.317C277.174 269.047 274.63 268.197 272.167 268.197V277.286C272.394 277.286 272.381 277.323 272.234 277.26C272.16 277.228 272.07 277.179 271.979 277.108C271.887 277.037 271.815 276.962 271.764 276.897L278.939 271.317ZM272.167 268.197C269.772 268.197 267.232 268.963 265.421 271.155C263.748 273.181 263.299 275.718 263.299 277.974H272.389C272.389 277.4 272.45 277.059 272.496 276.891C272.539 276.734 272.55 276.797 272.429 276.944C272.369 277.016 272.293 277.09 272.203 277.155C272.115 277.219 272.034 277.26 271.976 277.283C271.865 277.328 271.896 277.286 272.167 277.286V268.197ZM263.299 277.974V283.662H272.389V277.974H263.299ZM267.844 279.117H259.957V288.206H267.844V279.117ZM264.502 283.662V278.505H255.413V283.662H264.502ZM264.502 278.505C264.502 274.916 265.384 272.905 266.465 271.748L259.82 265.546C256.654 268.938 255.413 273.499 255.413 278.505H264.502ZM266.499 271.711C267.531 270.58 269.241 269.703 272.394 269.703V260.614C267.458 260.614 263 262.062 259.786 265.582L266.499 271.711ZM272.394 269.703C275.547 269.703 277.257 270.58 278.29 271.711L285.002 265.582C281.788 262.062 277.33 260.614 272.394 260.614V269.703ZM278.323 271.748C279.404 272.905 280.286 274.916 280.286 278.505H289.376C289.376 273.499 288.134 268.938 284.968 265.546L278.323 271.748ZM280.286 278.505C280.286 280.976 279.694 283.434 278.428 285.925L286.532 290.043C288.4 286.367 289.376 282.505 289.376 278.505H280.286ZM278.402 285.979C277.172 288.479 274.863 291.636 271.222 295.472L277.813 301.73C281.755 297.578 284.755 293.657 286.558 289.99L278.402 285.979ZM271.21 295.484C268.658 298.193 266.631 300.715 265.472 302.965L273.553 307.128C274.112 306.041 275.423 304.267 277.825 301.718L271.21 295.484ZM265.499 302.915C264.283 305.203 263.679 307.681 263.679 310.279H272.768C272.768 309.136 273.023 308.126 273.526 307.179L265.499 302.915ZM263.679 310.279V311.417H272.768V310.279H263.679ZM268.223 315.961H284.072V306.872H268.223V315.961ZM279.528 311.417V319H288.617V311.417H279.528ZM284.072 314.455H259.957V323.545H284.072V314.455ZM264.502 319V313.237H255.413V319H264.502ZM292.975 316.346L289.615 319.407L289.634 319.427L289.652 319.447L292.975 316.346ZM289.865 302.241V297.696H285.321V302.241H289.865ZM297.752 302.241H302.297V297.696H297.752V302.241ZM305.26 310.886L301.768 307.976L301.76 307.987L301.751 307.997L305.26 310.886ZM305.108 296.705L301.576 299.565L301.61 299.607L301.645 299.648L305.108 296.705ZM298.131 295.112H293.587V299.657H298.131V295.112ZM298.131 287.529V282.984H293.587V287.529H298.131ZM304.88 286.24L301.667 283.026L301.618 283.075L301.571 283.125L304.88 286.24ZM305.032 274.031L308.44 271.024L308.44 271.024L305.032 274.031ZM297.98 281.159V285.704H302.524V281.159H297.98ZM290.093 281.159H285.548V285.704H290.093V281.159ZM293.202 268.571L289.88 265.47L289.861 265.49L289.843 265.51L293.202 268.571ZM311.402 268.571L308.043 271.632L308.06 271.65L308.077 271.669L311.402 268.571ZM313.07 287.15L317.038 289.367L317.051 289.343L317.065 289.318L313.07 287.15ZM308.596 290.866L307.001 286.611L304.052 287.716V290.866H308.596ZM308.596 291.018H304.052V294.176L307.011 295.277L308.596 291.018ZM313.298 294.961L309.279 297.082L309.279 297.082L313.298 294.961ZM311.554 316.422L308.231 313.321L308.229 313.323L311.554 316.422ZM302.302 315.214C299.049 315.214 297.312 314.333 296.297 313.245L289.652 319.447C292.884 322.909 297.365 324.303 302.302 324.303V315.214ZM296.334 313.285C295.272 312.12 294.41 310.111 294.41 306.563H285.321C285.321 311.509 286.531 316.022 289.615 319.407L296.334 313.285ZM294.41 306.563V302.241H285.321V306.563H294.41ZM289.865 306.786H297.752V297.696H289.865V306.786ZM293.207 302.241V306.943H302.297V302.241H293.207ZM293.207 306.943C293.207 309.198 293.656 311.736 295.329 313.761C297.14 315.953 299.68 316.72 302.075 316.72V307.63C301.804 307.63 301.773 307.588 301.884 307.633C301.942 307.657 302.022 307.697 302.111 307.762C302.201 307.827 302.277 307.9 302.337 307.972C302.458 308.119 302.447 308.182 302.404 308.025C302.358 307.857 302.297 307.517 302.297 306.943H293.207ZM302.075 316.72C304.448 316.72 306.971 315.956 308.768 313.775L301.751 307.997C301.814 307.921 301.893 307.845 301.986 307.777C302.079 307.709 302.164 307.666 302.227 307.64C302.35 307.591 302.331 307.63 302.075 307.63V316.72ZM308.751 313.795C310.574 311.608 310.942 308.657 310.942 306.184H301.852C301.852 307.062 301.775 307.629 301.695 307.959C301.614 308.298 301.571 308.213 301.768 307.976L308.751 313.795ZM310.942 306.184V301.862H301.852V306.184H310.942ZM310.942 301.862C310.942 299.149 310.511 296.044 308.571 293.762L301.645 299.648C301.497 299.473 301.566 299.457 301.666 299.855C301.764 300.249 301.852 300.894 301.852 301.862H310.942ZM308.64 293.845C306.607 291.334 303.645 290.568 300.937 290.568V299.657C301.497 299.657 301.748 299.737 301.8 299.756C301.819 299.764 301.792 299.756 301.738 299.718C301.683 299.678 301.625 299.625 301.576 299.565L308.64 293.845ZM300.937 290.568H298.131V299.657H300.937V290.568ZM302.676 295.112V287.529H293.587V295.112H302.676ZM298.131 292.074H301.165V282.984H298.131V292.074ZM301.165 292.074C303.557 292.074 306.217 291.451 308.19 289.355L301.571 283.125C301.639 283.053 301.71 282.997 301.772 282.958C301.832 282.92 301.865 282.91 301.855 282.913C301.825 282.924 301.623 282.984 301.165 282.984V292.074ZM308.094 289.454C310.223 287.325 310.714 284.388 310.714 281.918H301.625C301.625 282.63 301.547 283.034 301.492 283.216C301.443 283.382 301.451 283.242 301.667 283.026L308.094 289.454ZM310.714 281.918V278.05H301.625V281.918H310.714ZM310.714 278.05C310.714 275.74 310.256 273.082 308.44 271.024L301.624 277.038C301.467 276.86 301.469 276.764 301.512 276.918C301.559 277.084 301.625 277.438 301.625 278.05H310.714ZM308.44 271.024C306.724 269.08 304.417 268.197 301.999 268.197V277.286C302.111 277.286 302.062 277.304 301.927 277.247C301.863 277.219 301.799 277.183 301.74 277.14C301.681 277.097 301.643 277.059 301.624 277.038L308.44 271.024ZM301.999 268.197C299.686 268.197 297.216 268.951 295.462 271.102C293.853 273.075 293.435 275.527 293.435 277.671H302.524C302.524 277.143 302.58 276.841 302.616 276.706C302.65 276.581 302.648 276.673 302.507 276.846C302.437 276.931 302.348 277.018 302.243 277.095C302.139 277.172 302.039 277.224 301.96 277.256C301.805 277.32 301.785 277.286 301.999 277.286V268.197ZM293.435 277.671V281.159H302.524V277.671H293.435ZM297.98 276.614H290.093V285.704H297.98V276.614ZM294.638 281.159V278.353H285.548V281.159H294.638ZM294.638 278.353C294.638 274.806 295.5 272.797 296.562 271.632L289.843 265.51C286.759 268.895 285.548 273.407 285.548 278.353H294.638ZM296.525 271.672C297.571 270.55 299.261 269.703 302.302 269.703V260.614C297.457 260.614 293.08 262.042 289.88 265.47L296.525 271.672ZM302.302 269.703C305.42 269.703 307.07 270.564 308.043 271.632L314.762 265.51C311.589 262.028 307.172 260.614 302.302 260.614V269.703ZM308.077 271.669C309.101 272.768 309.967 274.722 309.967 278.278H319.056C319.056 273.339 317.849 268.823 314.727 265.473L308.077 271.669ZM309.967 278.278V280.173H319.056V278.278H309.967ZM309.967 280.173C309.967 282.604 309.553 284.103 309.076 284.982L317.065 289.318C318.509 286.658 319.056 283.506 319.056 280.173H309.967ZM309.103 284.933C308.719 285.62 308.121 286.19 307.001 286.611L310.192 295.121C313.116 294.025 315.501 292.118 317.038 289.367L309.103 284.933ZM304.052 290.866V291.018H313.141V290.866H304.052ZM307.011 295.277C308.281 295.749 308.906 296.377 309.279 297.082L317.317 292.84C315.768 289.905 313.259 287.903 310.181 286.758L307.011 295.277ZM309.279 297.082C309.789 298.049 310.194 299.582 310.194 301.938H319.283C319.283 298.631 318.728 295.512 317.317 292.84L309.279 297.082ZM310.194 301.938V306.639H319.283V301.938H310.194ZM310.194 306.639C310.194 310.16 309.32 312.154 308.231 313.321L314.876 319.523C318.034 316.139 319.283 311.611 319.283 306.639H310.194ZM308.229 313.323C307.283 314.338 305.591 315.214 302.302 315.214V324.303C307.203 324.303 311.679 322.954 314.879 319.52L308.229 313.323Z" fill="white" mask="url(#path-29-outside-1_350_142)"/>
</g>
<defs>
<filter id="filter0_d_350_142" x="194.688" y="265.158" width="120.051" height="60.6602" filterUnits="userSpaceOnUse" color-interpolation-filters="sRGB">
<feFlood flood-opacity="0" result="BackgroundImageFix"/>
<feColorMatrix in="SourceAlpha" type="matrix" values="0 0 0 0 0 0 0 0 0 0 0 0 0 0 0 0 0 0 127 0" result="hardAlpha"/>
<feOffset dx="-4.54468" dy="6.05958"/>
<feComposite in2="hardAlpha" operator="out"/>
<feColorMatrix type="matrix" values="0 0 0 0 0 0 0 0 0 0 0 0 0 0 0 0 0 0 1 0"/>
<feBlend mode="normal" in2="BackgroundImageFix" result="effect1_dropShadow_350_142"/>
<feBlend mode="normal" in="SourceGraphic" in2="effect1_dropShadow_350_142" result="shape"/>
</filter>
</defs>
</svg>
