<svg width="251" height="334" viewBox="0 0 251 334" fill="none" xmlns="http://www.w3.org/2000/svg">
<path d="M240.062 88.7188H10.4375V156.562H240.062V88.7188Z" fill="#2442E2"/>
<path d="M240.062 10.4375H10.4375V78.2812H240.062V10.4375Z" fill="#2442E2"/>
<path d="M240.062 167H10.4375V234.844H240.062V167Z" fill="#2442E2"/>
<path d="M192.844 219.312H130.219V234.969H192.844V219.312Z" fill="#EAC9E1"/>
<path d="M187.625 188H125V203.656H187.625V188Z" fill="#D160B4"/>
<path d="M203.281 203.656H140.656V219.312H203.281V203.656Z" fill="#9800A8"/>
<path d="M15.6562 323.562V328.796C15.6562 331.658 18.0047 334 20.875 334H36.5312C39.4016 334 42.7996 331.905 44.0841 329.345L46.9831 323.562H15.6562Z" fill="#2442E2"/>
<path d="M203.518 323.562L206.417 329.345C207.7 331.905 211.099 334 213.969 334H229.626C232.496 334 234.844 331.658 234.844 328.796V323.562H203.518Z" fill="#2442E2"/>
<path d="M10.4375 10.4375V20.875V78.2812H20.875V41.75C20.875 36.4915 22.8849 31.745 26.0937 28.0743V15.9035H73.0625V20.875H240.062V10.4375H10.4375Z" fill="#130552"/>
<path d="M10.4375 88.7188V99.1562V156.562H20.875V120.031C20.875 108.502 30.2211 99.1562 41.75 99.1562H193.094V93.9375H224.406V99.1562H240.062V88.7188H10.4375Z" fill="#2442E2"/>
<path d="M10.4375 88.7188V99.1562V156.562H20.875V120.031C20.875 108.502 30.2211 99.1562 41.75 99.1562H193.094V93.9375H224.406V99.1562H240.062V88.7188H10.4375Z" fill="#130552"/>
<path d="M240.062 245.281H10.4375V313.125H240.062V245.281Z" fill="#2442E2"/>
<path d="M10.4375 245.281V255.719V313.125H20.875V276.594C20.875 265.065 30.2211 255.719 41.75 255.719H240.062V245.281H10.4375Z" fill="#130552"/>
<path d="M10.4375 167V177.437V234.844H20.875V198.312C20.875 193.054 22.8849 188.308 26.0937 184.637V172.219H57.4062V177.437H59.9282L71.5752 171.724L74.3776 177.437H240.062V167H10.4375Z" fill="#130552"/>
<path d="M240.062 0H125.25H10.4375C4.69687 0 0 4.69687 0 10.4375V313.125C0 318.866 4.69687 323.562 10.4375 323.562H125.25H240.062C245.803 323.562 250.5 318.866 250.5 313.125V10.4375C250.5 4.69687 245.803 0 240.062 0ZM240.062 313.125H156.562H130.469H120.031H109.594H10.4375V245.281H109.594H120.031H130.469H156.562H240.062V313.125ZM240.062 234.844H10.4375V167H240.062V234.844ZM240.062 156.562H10.4375V88.7187H240.062V156.562ZM240.062 78.2812H10.4375V10.4375H240.062V78.2812Z" fill="#6F85FD"/>
<path d="M193.094 281.812H130.469V297.469H193.094V281.812Z" fill="#D160B4"/>
<path d="M208.75 297.469H146.125V313.125H208.75V297.469Z" fill="#9800A8"/>
<path d="M224.406 93.9375H208.75V156.562H224.406V93.9375Z" fill="#991FA6"/>
<path d="M167 15.6562H182.656V78.2812H167V15.6562Z" fill="#991FA6"/>
<path d="M208.75 93.9375H193.094V156.562H208.75V93.9375Z" fill="#D160B4"/>
<path d="M182.656 15.6562H198.312V78.2812H182.656V15.6562Z" fill="#D160B4"/>
<path d="M73.0625 15.9033H57.4062V78.5283H73.0625V15.9033Z" fill="#EAC9E1"/>
<path d="M57.4062 15.9033H41.75V78.5283H57.4062V15.9033Z" fill="#D160B4"/>
<path d="M41.75 15.9033H26.0938V78.5283H41.75V15.9033Z" fill="#9800A8"/>
<path d="M57.4062 172.219H41.75V234.844H57.4062V172.219Z" fill="#EAC9E1"/>
<path d="M41.75 172.219H26.0938V234.844H41.75V172.219Z" fill="#D160B4"/>
<path d="M85.104 234.838L99.1602 227.943L71.5801 171.719L57.5239 178.614L85.104 234.838Z" fill="#D160B4"/>
<path d="M139.306 78.7759L125.25 71.8809L152.83 15.6561L166.886 22.5512L139.306 78.7759Z" fill="#D160B4"/>
<g filter="url(#filter0_d_350_141)">
<mask id="path-29-outside-1_350_141" maskUnits="userSpaceOnUse" x="40" y="101" width="95" height="48" fill="black">
<rect fill="white" x="40" y="101" width="95" height="48"/>
<path d="M44.3324 140.693C44.3324 137.86 44.7857 135.442 45.6924 133.44C46.5991 131.4 48.2235 129.152 50.5657 126.697C52.8702 124.241 54.4568 122.144 55.3257 120.407C56.2324 118.669 56.6857 116.856 56.6857 114.967C56.6857 113.267 56.4024 112.096 55.8357 111.453C55.3068 110.773 54.5135 110.433 53.4557 110.433C51.3024 110.433 50.2257 111.737 50.2257 114.343V118.593H44.3324V114.74C44.3324 111.529 45.1257 109.073 46.7124 107.373C48.2991 105.636 50.6035 104.767 53.6257 104.767C56.648 104.767 58.9524 105.636 60.5391 107.373C62.1257 109.073 62.9191 111.529 62.9191 114.74C62.9191 117.158 62.3335 119.519 61.1624 121.823C60.0291 124.128 58.0457 126.772 55.2124 129.757C53.3613 131.721 52.1146 133.327 51.4724 134.573C50.8302 135.782 50.5091 137.086 50.5091 138.483V139.333H62.3524V145H44.3324V140.693ZM76.1445 145.567C73.0845 145.567 70.7423 144.698 69.1179 142.96C67.4934 141.222 66.6812 138.767 66.6812 135.593V114.74C66.6812 111.567 67.4934 109.111 69.1179 107.373C70.7423 105.636 73.0845 104.767 76.1445 104.767C79.2045 104.767 81.5468 105.636 83.1712 107.373C84.7956 109.111 85.6079 111.567 85.6079 114.74V135.593C85.6079 138.767 84.7956 141.222 83.1712 142.96C81.5468 144.698 79.2045 145.567 76.1445 145.567ZM76.1445 139.9C78.2979 139.9 79.3745 138.597 79.3745 135.99V114.343C79.3745 111.737 78.2979 110.433 76.1445 110.433C73.9912 110.433 72.9145 111.737 72.9145 114.343V135.99C72.9145 138.597 73.9912 139.9 76.1445 139.9ZM89.71 140.693C89.71 137.86 90.1633 135.442 91.07 133.44C91.9767 131.4 93.6011 129.152 95.9433 126.697C98.2478 124.241 99.8344 122.144 100.703 120.407C101.61 118.669 102.063 116.856 102.063 114.967C102.063 113.267 101.78 112.096 101.213 111.453C100.684 110.773 99.8911 110.433 98.8333 110.433C96.68 110.433 95.6033 111.737 95.6033 114.343V118.593H89.71V114.74C89.71 111.529 90.5033 109.073 92.09 107.373C93.6767 105.636 95.9811 104.767 99.0033 104.767C102.026 104.767 104.33 105.636 105.917 107.373C107.503 109.073 108.297 111.529 108.297 114.74C108.297 117.158 107.711 119.519 106.54 121.823C105.407 124.128 103.423 126.772 100.59 129.757C98.7389 131.721 97.4922 133.327 96.85 134.573C96.2078 135.782 95.8867 137.086 95.8867 138.483V139.333H107.73V145H89.71V140.693ZM112.399 140.693C112.399 137.86 112.852 135.442 113.759 133.44C114.665 131.4 116.29 129.152 118.632 126.697C120.937 124.241 122.523 122.144 123.392 120.407C124.299 118.669 124.752 116.856 124.752 114.967C124.752 113.267 124.469 112.096 123.902 111.453C123.373 110.773 122.58 110.433 121.522 110.433C119.369 110.433 118.292 111.737 118.292 114.343V118.593H112.399V114.74C112.399 111.529 113.192 109.073 114.779 107.373C116.365 105.636 118.67 104.767 121.692 104.767C124.714 104.767 127.019 105.636 128.605 107.373C130.192 109.073 130.985 111.529 130.985 114.74C130.985 117.158 130.4 119.519 129.229 121.823C128.095 124.128 126.112 126.772 123.279 129.757C121.428 131.721 120.181 133.327 119.539 134.573C118.897 135.782 118.575 137.086 118.575 138.483V139.333H130.419V145H112.399V140.693Z"/>
</mask>
<path d="M44.3324 140.693C44.3324 137.86 44.7857 135.442 45.6924 133.44C46.5991 131.4 48.2235 129.152 50.5657 126.697C52.8702 124.241 54.4568 122.144 55.3257 120.407C56.2324 118.669 56.6857 116.856 56.6857 114.967C56.6857 113.267 56.4024 112.096 55.8357 111.453C55.3068 110.773 54.5135 110.433 53.4557 110.433C51.3024 110.433 50.2257 111.737 50.2257 114.343V118.593H44.3324V114.74C44.3324 111.529 45.1257 109.073 46.7124 107.373C48.2991 105.636 50.6035 104.767 53.6257 104.767C56.648 104.767 58.9524 105.636 60.5391 107.373C62.1257 109.073 62.9191 111.529 62.9191 114.74C62.9191 117.158 62.3335 119.519 61.1624 121.823C60.0291 124.128 58.0457 126.772 55.2124 129.757C53.3613 131.721 52.1146 133.327 51.4724 134.573C50.8302 135.782 50.5091 137.086 50.5091 138.483V139.333H62.3524V145H44.3324V140.693ZM76.1445 145.567C73.0845 145.567 70.7423 144.698 69.1179 142.96C67.4934 141.222 66.6812 138.767 66.6812 135.593V114.74C66.6812 111.567 67.4934 109.111 69.1179 107.373C70.7423 105.636 73.0845 104.767 76.1445 104.767C79.2045 104.767 81.5468 105.636 83.1712 107.373C84.7956 109.111 85.6079 111.567 85.6079 114.74V135.593C85.6079 138.767 84.7956 141.222 83.1712 142.96C81.5468 144.698 79.2045 145.567 76.1445 145.567ZM76.1445 139.9C78.2979 139.9 79.3745 138.597 79.3745 135.99V114.343C79.3745 111.737 78.2979 110.433 76.1445 110.433C73.9912 110.433 72.9145 111.737 72.9145 114.343V135.99C72.9145 138.597 73.9912 139.9 76.1445 139.9ZM89.71 140.693C89.71 137.86 90.1633 135.442 91.07 133.44C91.9767 131.4 93.6011 129.152 95.9433 126.697C98.2478 124.241 99.8344 122.144 100.703 120.407C101.61 118.669 102.063 116.856 102.063 114.967C102.063 113.267 101.78 112.096 101.213 111.453C100.684 110.773 99.8911 110.433 98.8333 110.433C96.68 110.433 95.6033 111.737 95.6033 114.343V118.593H89.71V114.74C89.71 111.529 90.5033 109.073 92.09 107.373C93.6767 105.636 95.9811 104.767 99.0033 104.767C102.026 104.767 104.33 105.636 105.917 107.373C107.503 109.073 108.297 111.529 108.297 114.74C108.297 117.158 107.711 119.519 106.54 121.823C105.407 124.128 103.423 126.772 100.59 129.757C98.7389 131.721 97.4922 133.327 96.85 134.573C96.2078 135.782 95.8867 137.086 95.8867 138.483V139.333H107.73V145H89.71V140.693ZM112.399 140.693C112.399 137.86 112.852 135.442 113.759 133.44C114.665 131.4 116.29 129.152 118.632 126.697C120.937 124.241 122.523 122.144 123.392 120.407C124.299 118.669 124.752 116.856 124.752 114.967C124.752 113.267 124.469 112.096 123.902 111.453C123.373 110.773 122.58 110.433 121.522 110.433C119.369 110.433 118.292 111.737 118.292 114.343V118.593H112.399V114.74C112.399 111.529 113.192 109.073 114.779 107.373C116.365 105.636 118.67 104.767 121.692 104.767C124.714 104.767 127.019 105.636 128.605 107.373C130.192 109.073 130.985 111.529 130.985 114.74C130.985 117.158 130.4 119.519 129.229 121.823C128.095 124.128 126.112 126.772 123.279 129.757C121.428 131.721 120.181 133.327 119.539 134.573C118.897 135.782 118.575 137.086 118.575 138.483V139.333H130.419V145H112.399V140.693Z" fill="black"/>
<path d="M45.6924 133.44L48.786 134.841L48.7909 134.83L48.7957 134.819L45.6924 133.44ZM50.5657 126.697L53.0231 129.041L53.0326 129.031L53.0421 129.021L50.5657 126.697ZM55.3257 120.407L52.3149 118.836L52.3013 118.862L52.2882 118.888L55.3257 120.407ZM55.8357 111.453L53.1551 113.538L53.2197 113.621L53.2893 113.7L55.8357 111.453ZM50.2257 118.593V121.989H53.6218V118.593H50.2257ZM44.3324 118.593H40.9364V121.989H44.3324V118.593ZM46.7124 107.373L49.1951 109.691L49.2078 109.677L49.2203 109.663L46.7124 107.373ZM60.5391 107.373L58.0311 109.663L58.0437 109.677L58.0564 109.691L60.5391 107.373ZM61.1624 121.823L58.1349 120.285L58.1248 120.305L58.115 120.325L61.1624 121.823ZM55.2124 129.757L52.7495 127.418L52.7408 127.428L55.2124 129.757ZM51.4724 134.573L54.4715 136.167L54.4816 136.148L54.4914 136.129L51.4724 134.573ZM50.5091 139.333H47.113V142.729H50.5091V139.333ZM62.3524 139.333H65.7484V135.937H62.3524V139.333ZM62.3524 145V148.396H65.7484V145H62.3524ZM44.3324 145H40.9364V148.396H44.3324V145ZM47.7284 140.693C47.7284 138.209 48.1274 136.295 48.786 134.841L42.5988 132.039C41.444 134.589 40.9364 137.511 40.9364 140.693H47.7284ZM48.7957 134.819C49.4842 133.27 50.8248 131.345 53.0231 129.041L48.1083 124.353C45.6222 126.959 43.714 129.53 42.5891 132.061L48.7957 134.819ZM53.0421 129.021C55.4325 126.473 57.2779 124.096 58.3632 121.925L52.2882 118.888C51.6358 120.193 50.3078 122.009 48.0894 124.373L53.0421 129.021ZM58.3366 121.978C59.4864 119.774 60.0818 117.424 60.0818 114.967H53.2897C53.2897 116.288 52.9784 117.564 52.3149 118.836L58.3366 121.978ZM60.0818 114.967C60.0818 113.137 59.8277 110.845 58.3822 109.206L53.2893 113.7C53.0889 113.473 53.1109 113.358 53.1724 113.612C53.2309 113.854 53.2897 114.285 53.2897 114.967H60.0818ZM58.5164 109.368C57.1974 107.673 55.2968 107.037 53.4557 107.037V113.829C53.6257 113.829 53.6162 113.857 53.5063 113.81C53.4508 113.786 53.3838 113.749 53.3152 113.696C53.2466 113.643 53.1931 113.587 53.1551 113.538L58.5164 109.368ZM53.4557 107.037C51.6665 107.037 49.7681 107.61 48.415 109.248C47.1646 110.762 46.8297 112.658 46.8297 114.343H53.6218C53.6218 113.914 53.6673 113.66 53.7018 113.534C53.7341 113.417 53.7421 113.464 53.6514 113.574C53.607 113.628 53.55 113.682 53.4832 113.731C53.4168 113.779 53.3566 113.81 53.3134 113.827C53.2301 113.861 53.2532 113.829 53.4557 113.829V107.037ZM46.8297 114.343V118.593H53.6218V114.343H46.8297ZM50.2257 115.197H44.3324V121.989H50.2257V115.197ZM47.7284 118.593V114.74H40.9364V118.593H47.7284ZM47.7284 114.74C47.7284 112.058 48.3876 110.556 49.1951 109.691L44.2297 105.056C41.8638 107.591 40.9364 110.999 40.9364 114.74H47.7284ZM49.2203 109.663C49.992 108.818 51.2696 108.163 53.6257 108.163V101.371C49.9374 101.371 46.6061 102.453 44.2045 105.083L49.2203 109.663ZM53.6257 108.163C55.9819 108.163 57.2595 108.818 58.0311 109.663L63.047 105.083C60.6453 102.453 57.3141 101.371 53.6257 101.371V108.163ZM58.0564 109.691C58.8638 110.556 59.523 112.058 59.523 114.74H66.3151C66.3151 110.999 65.3876 107.591 63.0217 105.056L58.0564 109.691ZM59.523 114.74C59.523 116.586 59.0809 118.423 58.1349 120.285L64.1899 123.362C65.5861 120.615 66.3151 117.729 66.3151 114.74H59.523ZM58.115 120.325C57.196 122.193 55.4707 124.552 52.7495 127.418L57.6753 132.095C60.6207 128.992 62.8622 126.062 64.2098 123.322L58.115 120.325ZM52.7408 127.428C50.8336 129.452 49.3195 131.337 48.4534 133.018L54.4914 136.129C54.9097 135.317 55.889 133.991 57.684 132.086L52.7408 127.428ZM48.4733 132.98C47.5648 134.69 47.113 136.542 47.113 138.483H53.9051C53.9051 137.629 54.0956 136.874 54.4715 136.167L48.4733 132.98ZM47.113 138.483V139.333H53.9051V138.483H47.113ZM50.5091 142.729H62.3524V135.937H50.5091V142.729ZM58.9564 139.333V145H65.7484V139.333H58.9564ZM62.3524 141.604H44.3324V148.396H62.3524V141.604ZM47.7284 145V140.693H40.9364V145H47.7284ZM69.1179 142.96L71.5988 140.641L71.5988 140.641L69.1179 142.96ZM69.1179 107.373L71.5988 109.692L71.5988 109.692L69.1179 107.373ZM83.1712 107.373L80.6903 109.692L80.6903 109.692L83.1712 107.373ZM83.1712 142.96L80.6903 140.641L80.6903 140.641L83.1712 142.96ZM76.1445 142.171C73.7402 142.171 72.4095 141.508 71.5988 140.641L66.637 145.279C69.0752 147.887 72.4289 148.963 76.1445 148.963V142.171ZM71.5988 140.641C70.7364 139.718 70.0772 138.2 70.0772 135.593H63.2852C63.2852 139.334 64.2505 142.726 66.637 145.279L71.5988 140.641ZM70.0772 135.593V114.74H63.2852V135.593H70.0772ZM70.0772 114.74C70.0772 112.134 70.7364 110.615 71.5988 109.692L66.637 105.054C64.2505 107.607 63.2852 111 63.2852 114.74H70.0772ZM71.5988 109.692C72.4095 108.825 73.7402 108.163 76.1445 108.163V101.371C72.4289 101.371 69.0752 102.446 66.637 105.054L71.5988 109.692ZM76.1445 108.163C78.5489 108.163 79.8796 108.825 80.6903 109.692L85.6521 105.054C83.2139 102.446 79.8602 101.371 76.1445 101.371V108.163ZM80.6903 109.692C81.5527 110.615 82.2118 112.134 82.2118 114.74H89.0039C89.0039 111 88.0386 107.607 85.6521 105.054L80.6903 109.692ZM82.2118 114.74V135.593H89.0039V114.74H82.2118ZM82.2118 135.593C82.2118 138.2 81.5527 139.718 80.6903 140.641L85.6521 145.279C88.0386 142.726 89.0039 139.334 89.0039 135.593H82.2118ZM80.6903 140.641C79.8796 141.508 78.5489 142.171 76.1445 142.171V148.963C79.8602 148.963 83.2139 147.887 85.6521 145.279L80.6903 140.641ZM76.1445 143.296C77.9337 143.296 79.8321 142.723 81.1852 141.085C82.4357 139.572 82.7706 137.676 82.7706 135.99H75.9785C75.9785 136.419 75.933 136.674 75.8985 136.799C75.8662 136.916 75.8582 136.869 75.9488 136.76C75.9933 136.706 76.0503 136.651 76.1171 136.602C76.1835 136.554 76.2437 136.524 76.2869 136.506C76.3701 136.473 76.347 136.504 76.1445 136.504V143.296ZM82.7706 135.99V114.343H75.9785V135.99H82.7706ZM82.7706 114.343C82.7706 112.658 82.4357 110.762 81.1852 109.248C79.8321 107.61 77.9337 107.037 76.1445 107.037V113.829C76.347 113.829 76.3701 113.861 76.2869 113.827C76.2437 113.81 76.1835 113.779 76.1171 113.731C76.0503 113.682 75.9933 113.628 75.9488 113.574C75.8582 113.464 75.8662 113.417 75.8985 113.534C75.933 113.66 75.9785 113.914 75.9785 114.343H82.7706ZM76.1445 107.037C74.3553 107.037 72.4569 107.61 71.1038 109.248C69.8534 110.762 69.5185 112.658 69.5185 114.343H76.3106C76.3106 113.914 76.3561 113.66 76.3906 113.534C76.4229 113.417 76.4309 113.464 76.3402 113.574C76.2958 113.628 76.2388 113.682 76.172 113.731C76.1056 113.779 76.0454 113.81 76.0022 113.827C75.9189 113.861 75.942 113.829 76.1445 113.829V107.037ZM69.5185 114.343V135.99H76.3106V114.343H69.5185ZM69.5185 135.99C69.5185 137.676 69.8534 139.572 71.1038 141.085C72.4569 142.723 74.3553 143.296 76.1445 143.296V136.504C75.942 136.504 75.9189 136.473 76.0022 136.506C76.0454 136.524 76.1056 136.554 76.172 136.602C76.2388 136.651 76.2958 136.706 76.3402 136.76C76.4309 136.869 76.4229 136.916 76.3906 136.799C76.3561 136.674 76.3106 136.419 76.3106 135.99H69.5185ZM91.07 133.44L94.1636 134.841L94.1685 134.83L94.1733 134.819L91.07 133.44ZM95.9433 126.697L98.4007 129.041L98.4102 129.031L98.4197 129.021L95.9433 126.697ZM100.703 120.407L97.6925 118.836L97.6789 118.862L97.6658 118.888L100.703 120.407ZM101.213 111.453L98.5327 113.538L98.5973 113.621L98.6669 113.7L101.213 111.453ZM95.6033 118.593V121.989H98.9994V118.593H95.6033ZM89.71 118.593H86.314V121.989H89.71V118.593ZM92.09 107.373L94.5727 109.691L94.5854 109.677L94.5979 109.663L92.09 107.373ZM105.917 107.373L103.409 109.663L103.421 109.677L103.434 109.691L105.917 107.373ZM106.54 121.823L103.512 120.285L103.502 120.305L103.493 120.325L106.54 121.823ZM100.59 129.757L98.1271 127.418L98.1184 127.428L100.59 129.757ZM96.85 134.573L99.8491 136.167L99.8592 136.148L99.869 136.129L96.85 134.573ZM95.8867 139.333H92.4906V142.729H95.8867V139.333ZM107.73 139.333H111.126V135.937H107.73V139.333ZM107.73 145V148.396H111.126V145H107.73ZM89.71 145H86.314V148.396H89.71V145ZM93.106 140.693C93.106 138.209 93.5051 136.295 94.1636 134.841L87.9764 132.039C86.8216 134.589 86.314 137.511 86.314 140.693H93.106ZM94.1733 134.819C94.8618 133.27 96.2024 131.345 98.4007 129.041L93.4859 124.353C90.9998 126.959 89.0916 129.53 87.9667 132.061L94.1733 134.819ZM98.4197 129.021C100.81 126.473 102.655 124.096 103.741 121.925L97.6658 118.888C97.0134 120.193 95.6854 122.009 93.467 124.373L98.4197 129.021ZM103.714 121.978C104.864 119.774 105.459 117.424 105.459 114.967H98.6673C98.6673 116.288 98.356 117.564 97.6925 118.836L103.714 121.978ZM105.459 114.967C105.459 113.137 105.205 110.845 103.76 109.206L98.6669 113.7C98.4665 113.473 98.4885 113.358 98.55 113.612C98.6085 113.854 98.6673 114.285 98.6673 114.967H105.459ZM103.894 109.368C102.575 107.673 100.674 107.037 98.8333 107.037V113.829C99.0033 113.829 98.9938 113.857 98.8839 113.81C98.8284 113.786 98.7614 113.749 98.6928 113.696C98.6242 113.643 98.5707 113.587 98.5327 113.538L103.894 109.368ZM98.8333 107.037C97.0441 107.037 95.1457 107.61 93.7926 109.248C92.5422 110.762 92.2073 112.658 92.2073 114.343H98.9994C98.9994 113.914 99.0449 113.66 99.0794 113.534C99.1117 113.417 99.1197 113.464 99.029 113.574C98.9846 113.628 98.9276 113.682 98.8608 113.731C98.7944 113.779 98.7342 113.81 98.691 113.827C98.6077 113.861 98.6308 113.829 98.8333 113.829V107.037ZM92.2073 114.343V118.593H98.9994V114.343H92.2073ZM95.6033 115.197H89.71V121.989H95.6033V115.197ZM93.106 118.593V114.74H86.314V118.593H93.106ZM93.106 114.74C93.106 112.058 93.7652 110.556 94.5727 109.691L89.6073 105.056C87.2414 107.591 86.314 110.999 86.314 114.74H93.106ZM94.5979 109.663C95.3696 108.818 96.6472 108.163 99.0033 108.163V101.371C95.315 101.371 91.9837 102.453 89.5821 105.083L94.5979 109.663ZM99.0033 108.163C101.359 108.163 102.637 108.818 103.409 109.663L108.425 105.083C106.023 102.453 102.692 101.371 99.0033 101.371V108.163ZM103.434 109.691C104.241 110.556 104.901 112.058 104.901 114.74H111.693C111.693 110.999 110.765 107.591 108.399 105.056L103.434 109.691ZM104.901 114.74C104.901 116.586 104.459 118.423 103.512 120.285L109.568 123.362C110.964 120.615 111.693 117.729 111.693 114.74H104.901ZM103.493 120.325C102.574 122.193 100.848 124.552 98.1271 127.418L103.053 132.095C105.998 128.992 108.24 126.062 109.587 123.322L103.493 120.325ZM98.1184 127.428C96.2112 129.452 94.6971 131.337 93.831 133.018L99.869 136.129C100.287 135.317 101.267 133.991 103.062 132.086L98.1184 127.428ZM93.8509 132.98C92.9424 134.69 92.4906 136.542 92.4906 138.483H99.2827C99.2827 137.629 99.4732 136.874 99.8491 136.167L93.8509 132.98ZM92.4906 138.483V139.333H99.2827V138.483H92.4906ZM95.8867 142.729H107.73V135.937H95.8867V142.729ZM104.334 139.333V145H111.126V139.333H104.334ZM107.73 141.604H89.71V148.396H107.73V141.604ZM93.106 145V140.693H86.314V145H93.106ZM113.759 133.44L116.852 134.841L116.857 134.83L116.862 134.819L113.759 133.44ZM118.632 126.697L121.09 129.041L121.099 129.031L121.108 129.021L118.632 126.697ZM123.392 120.407L120.381 118.836L120.368 118.862L120.355 118.888L123.392 120.407ZM123.902 111.453L121.221 113.538L121.286 113.621L121.356 113.7L123.902 111.453ZM118.292 118.593V121.989H121.688V118.593H118.292ZM112.399 118.593H109.003V121.989H112.399V118.593ZM114.779 107.373L117.261 109.691L117.274 109.677L117.287 109.663L114.779 107.373ZM128.605 107.373L126.098 109.663L126.11 109.677L126.123 109.691L128.605 107.373ZM129.229 121.823L126.201 120.285L126.191 120.305L126.181 120.325L129.229 121.823ZM123.279 129.757L120.816 127.418L120.807 127.428L123.279 129.757ZM119.539 134.573L122.538 136.167L122.548 136.148L122.558 136.129L119.539 134.573ZM118.575 139.333H115.179V142.729H118.575V139.333ZM130.419 139.333H133.815V135.937H130.419V139.333ZM130.419 145V148.396H133.815V145H130.419ZM112.399 145H109.003V148.396H112.399V145ZM115.795 140.693C115.795 138.209 116.194 136.295 116.852 134.841L110.665 132.039C109.51 134.589 109.003 137.511 109.003 140.693H115.795ZM116.862 134.819C117.551 133.27 118.891 131.345 121.09 129.041L116.175 124.353C113.689 126.959 111.78 129.53 110.655 132.061L116.862 134.819ZM121.108 129.021C123.499 126.473 125.344 124.096 126.43 121.925L120.355 118.888C119.702 120.193 118.374 122.009 116.156 124.373L121.108 129.021ZM126.403 121.978C127.553 119.774 128.148 117.424 128.148 114.967H121.356C121.356 116.288 121.045 117.564 120.381 118.836L126.403 121.978ZM128.148 114.967C128.148 113.137 127.894 110.845 126.449 109.206L121.356 113.7C121.155 113.473 121.177 113.358 121.239 113.612C121.297 113.854 121.356 114.285 121.356 114.967H128.148ZM126.583 109.368C125.264 107.673 123.363 107.037 121.522 107.037V113.829C121.692 113.829 121.683 113.857 121.573 113.81C121.517 113.786 121.45 113.749 121.382 113.696C121.313 113.643 121.259 113.587 121.221 113.538L126.583 109.368ZM121.522 107.037C119.733 107.037 117.835 107.61 116.481 109.248C115.231 110.762 114.896 112.658 114.896 114.343H121.688C121.688 113.914 121.734 113.66 121.768 113.534C121.8 113.417 121.809 113.464 121.718 113.574C121.673 113.628 121.616 113.682 121.55 113.731C121.483 113.779 121.423 113.81 121.38 113.827C121.297 113.861 121.32 113.829 121.522 113.829V107.037ZM114.896 114.343V118.593H121.688V114.343H114.896ZM118.292 115.197H112.399V121.989H118.292V115.197ZM115.795 118.593V114.74H109.003V118.593H115.795ZM115.795 114.74C115.795 112.058 116.454 110.556 117.261 109.691L112.296 105.056C109.93 107.591 109.003 110.999 109.003 114.74H115.795ZM117.287 109.663C118.058 108.818 119.336 108.163 121.692 108.163V101.371C118.004 101.371 114.673 102.453 112.271 105.083L117.287 109.663ZM121.692 108.163C124.048 108.163 125.326 108.818 126.098 109.663L131.113 105.083C128.712 102.453 125.38 101.371 121.692 101.371V108.163ZM126.123 109.691C126.93 110.556 127.589 112.058 127.589 114.74H134.381C134.381 110.999 133.454 107.591 131.088 105.056L126.123 109.691ZM127.589 114.74C127.589 116.586 127.147 118.423 126.201 120.285L132.256 123.362C133.653 120.615 134.381 117.729 134.381 114.74H127.589ZM126.181 120.325C125.262 122.193 123.537 124.552 120.816 127.418L125.742 132.095C128.687 128.992 130.929 126.062 132.276 123.322L126.181 120.325ZM120.807 127.428C118.9 129.452 117.386 131.337 116.52 133.018L122.558 136.129C122.976 135.317 123.955 133.991 125.75 132.086L120.807 127.428ZM116.54 132.98C115.631 134.69 115.179 136.542 115.179 138.483H121.971C121.971 137.629 122.162 136.874 122.538 136.167L116.54 132.98ZM115.179 138.483V139.333H121.971V138.483H115.179ZM118.575 142.729H130.419V135.937H118.575V142.729ZM127.023 139.333V145H133.815V139.333H127.023ZM130.419 141.604H112.399V148.396H130.419V141.604ZM115.795 145V140.693H109.003V145H115.795Z" fill="white" mask="url(#path-29-outside-1_350_141)"/>
</g>
<defs>
<filter id="filter0_d_350_141" x="40.936" y="104.767" width="90.0503" height="45.3278" filterUnits="userSpaceOnUse" color-interpolation-filters="sRGB">
<feFlood flood-opacity="0" result="BackgroundImageFix"/>
<feColorMatrix in="SourceAlpha" type="matrix" values="0 0 0 0 0 0 0 0 0 0 0 0 0 0 0 0 0 0 127 0" result="hardAlpha"/>
<feOffset dx="-3.39603" dy="4.52804"/>
<feComposite in2="hardAlpha" operator="out"/>
<feColorMatrix type="matrix" values="0 0 0 0 0 0 0 0 0 0 0 0 0 0 0 0 0 0 1 0"/>
<feBlend mode="normal" in2="BackgroundImageFix" result="effect1_dropShadow_350_141"/>
<feBlend mode="normal" in="SourceGraphic" in2="effect1_dropShadow_350_141" result="shape"/>
</filter>
</defs>
</svg>
