<svg width="305" height="406" viewBox="0 0 305 406" fill="none" xmlns="http://www.w3.org/2000/svg">
<path d="M291.812 107.844H12.6875V190.312H291.812V107.844Z" fill="#A25425"/>
<path d="M291.812 12.6875H12.6875V95.1562H291.812V12.6875Z" fill="#A25425"/>
<path d="M291.812 203H12.6875V285.469H291.812V203Z" fill="#A25425"/>
<path d="M158.594 171.281H82.4688V190.312H158.594V171.281Z" fill="#EAC9E1"/>
<path d="M152.25 133.219H76.125V152.25H152.25V133.219Z" fill="#D160B4"/>
<path d="M171.281 152.25H95.1562V171.281H171.281V152.25Z" fill="#9800A8"/>
<path d="M19.0312 393.312V399.674C19.0312 403.153 21.8859 406 25.375 406H44.4062C47.8953 406 52.0259 403.454 53.5872 400.341L57.1112 393.312H19.0312Z" fill="#73371B"/>
<path d="M247.389 393.312L250.913 400.341C252.473 403.454 256.605 406 260.094 406H279.125C282.614 406 285.469 403.153 285.469 399.674V393.312H247.389Z" fill="#73371B"/>
<path d="M12.6875 12.6875V25.375V95.1562H25.375V50.75C25.375 44.3579 27.8181 38.5882 31.7188 34.1262V19.3318H88.8125V25.375H291.812V12.6875H12.6875Z" fill="#7F4122"/>
<path d="M12.6875 107.844V120.531V190.312H25.375V145.906C25.375 131.892 36.7359 120.531 50.75 120.531H234.719V114.188H272.781V120.531H291.812V107.844H12.6875Z" fill="#673D17"/>
<path d="M12.6875 107.844V120.531V190.312H25.375V145.906C25.375 131.892 36.7359 120.531 50.75 120.531H234.719V114.188H272.781V120.531H291.812V107.844H12.6875Z" fill="#7F4122"/>
<path d="M291.812 298.156H12.6875V380.625H291.812V298.156Z" fill="#A25425"/>
<path d="M12.6875 298.156V310.844V380.625H25.375V336.219C25.375 322.205 36.7359 310.844 50.75 310.844H291.812V298.156H12.6875Z" fill="#7F4122"/>
<path d="M12.6875 203V215.688V285.469H25.375V241.062C25.375 234.67 27.8181 228.901 31.7188 224.439V209.344H69.7812V215.688H72.8469L87.0045 208.743L90.4111 215.688H291.812V203H12.6875Z" fill="#7F4122"/>
<path d="M291.812 0H152.25H12.6875C5.70937 0 0 5.70937 0 12.6875V380.625C0 387.603 5.70937 393.312 12.6875 393.312H152.25H291.812C298.791 393.312 304.5 387.603 304.5 380.625V12.6875C304.5 5.70937 298.791 0 291.812 0ZM291.812 380.625H190.312H158.594H145.906H133.219H12.6875V298.156H133.219H145.906H158.594H190.312H291.812V380.625ZM291.812 285.469H12.6875V203H291.812V285.469ZM291.812 190.312H12.6875V107.844H291.812V190.312ZM291.812 95.1562H12.6875V12.6875H291.812V95.1562Z" fill="#C87629"/>
<path d="M234.719 342.562H158.594V361.594H234.719V342.562Z" fill="#D160B4"/>
<path d="M253.75 361.594H177.625V380.625H253.75V361.594Z" fill="#9800A8"/>
<path d="M272.781 114.188H253.75V190.312H272.781V114.188Z" fill="#130552"/>
<path d="M253.75 114.188H234.719V190.312H253.75V114.188Z" fill="#D160B4"/>
<path d="M88.8125 19.332H69.7812V95.457H88.8125V19.332Z" fill="#EAC9E1"/>
<path d="M69.7812 19.332H50.75V95.457H69.7812V19.332Z" fill="#D160B4"/>
<path d="M50.75 19.332H31.7188V95.457H50.75V19.332Z" fill="#9800A8"/>
<path d="M69.7812 209.344H50.75V285.469H69.7812V209.344Z" fill="#EAC9E1"/>
<path d="M50.75 209.344H31.7188V285.469H50.75V209.344Z" fill="#D160B4"/>
<path d="M103.449 285.462L120.535 277.081L87.0097 208.736L69.9234 217.117L103.449 285.462Z" fill="#D160B4"/>
</svg>
