<svg width="156" height="509" viewBox="0 0 316 709" fill="none" xmlns="http://www.w3.org/2000/svg">
<path d="M134.056 0.923462H1.11108V133.868H134.056V0.923462Z" fill="#FEF3F4" stroke="black" stroke-width="1.6195" stroke-miterlimit="10"/>
<path d="M173.844 74.022C171.884 74.022 170.215 73.4886 168.836 72.4219C167.457 71.3465 166.403 69.7897 165.675 67.7517C164.946 65.7049 164.582 63.2332 164.582 60.3366C164.582 57.4573 164.946 54.9986 165.675 52.9605C166.412 50.9138 167.47 49.3527 168.849 48.2773C170.237 47.1932 171.902 46.6512 173.844 46.6512C175.787 46.6512 177.448 47.1932 178.827 48.2773C180.214 49.3527 181.272 50.9138 182.001 52.9605C182.738 54.9986 183.107 57.4573 183.107 60.3366C183.107 63.2332 182.742 65.7049 182.014 67.7517C181.285 69.7897 180.232 71.3465 178.853 72.4219C177.474 73.4886 175.804 74.022 173.844 74.022ZM173.844 71.16C175.787 71.16 177.296 70.2234 178.371 68.3501C179.447 66.4768 179.985 63.8056 179.985 60.3366C179.985 58.0297 179.737 56.0653 179.243 54.4435C178.757 52.8218 178.055 51.5859 177.136 50.736C176.225 49.8861 175.128 49.4611 173.844 49.4611C171.919 49.4611 170.414 50.4108 169.33 52.3101C168.246 54.2007 167.704 56.8762 167.704 60.3366C167.704 62.6435 167.947 64.6035 168.433 66.2166C168.918 67.8297 169.616 69.0569 170.527 69.8981C171.446 70.7394 172.552 71.16 173.844 71.16ZM209.853 58.9056V61.7676H198.197V58.9056H209.853ZM234.508 74.022C232.791 74.022 231.26 73.7271 229.916 73.1374C228.58 72.5476 227.518 71.7281 226.729 70.6787C225.948 69.6206 225.523 68.3934 225.454 66.9971H228.732C228.802 67.8557 229.096 68.5972 229.617 69.2217C230.137 69.8374 230.818 70.3144 231.659 70.6527C232.5 70.9909 233.433 71.16 234.456 71.16C235.601 71.16 236.616 70.9605 237.5 70.5616C238.385 70.1627 239.079 69.6076 239.582 68.8965C240.085 68.1853 240.336 67.3614 240.336 66.4248C240.336 65.4448 240.093 64.5818 239.608 63.836C239.122 63.0815 238.411 62.4917 237.474 62.0668C236.538 61.6418 235.393 61.4293 234.04 61.4293H231.906V58.5674H234.04C235.098 58.5674 236.026 58.3766 236.824 57.995C237.63 57.6134 238.259 57.0757 238.71 56.3819C239.17 55.6881 239.4 54.8728 239.4 53.9362C239.4 53.0342 239.2 52.2494 238.801 51.5816C238.402 50.9138 237.838 50.3934 237.11 50.0205C236.39 49.6476 235.54 49.4611 234.56 49.4611C233.641 49.4611 232.774 49.6302 231.958 49.9685C231.152 50.298 230.493 50.7794 229.981 51.4125C229.469 52.0369 229.192 52.7914 229.148 53.676H226.026C226.078 52.2797 226.499 51.0569 227.288 50.0075C228.077 48.9494 229.109 48.1255 230.384 47.5358C231.668 46.9461 233.077 46.6512 234.612 46.6512C236.26 46.6512 237.674 46.9851 238.853 47.6529C240.033 48.312 240.939 49.1836 241.572 50.2677C242.205 51.3518 242.522 52.5226 242.522 53.7801C242.522 55.2805 242.127 56.5597 241.338 57.6177C240.557 58.6758 239.495 59.4086 238.151 59.8162V60.0244C239.833 60.3019 241.147 61.0174 242.092 62.1708C243.038 63.3156 243.51 64.7336 243.51 66.4248C243.51 67.8731 243.116 69.174 242.327 70.3274C241.546 71.4722 240.479 72.3742 239.126 73.0333C237.773 73.6924 236.234 74.022 234.508 74.022ZM262.412 68.6623V67.2573C262.412 66.286 262.612 65.3971 263.011 64.5905C263.418 63.7753 264.008 63.1248 264.78 62.6392C265.56 62.1448 266.506 61.8977 267.616 61.8977C268.743 61.8977 269.689 62.1448 270.452 62.6392C271.215 63.1248 271.792 63.7753 272.182 64.5905C272.572 65.3971 272.767 66.286 272.767 67.2573V68.6623C272.767 69.6336 272.568 70.5269 272.169 71.3421C271.779 72.1487 271.198 72.7991 270.426 73.2935C269.663 73.7791 268.726 74.022 267.616 74.022C266.488 74.022 265.539 73.7791 264.767 73.2935C263.995 72.7991 263.41 72.1487 263.011 71.3421C262.612 70.5269 262.412 69.6336 262.412 68.6623ZM265.066 67.2573V68.6623C265.066 69.4688 265.257 70.193 265.639 70.8348C266.02 71.4679 266.679 71.7844 267.616 71.7844C268.526 71.7844 269.168 71.4679 269.541 70.8348C269.923 70.193 270.114 69.4688 270.114 68.6623V67.2573C270.114 66.4508 269.931 65.7309 269.567 65.0978C269.203 64.4561 268.552 64.1352 267.616 64.1352C266.705 64.1352 266.05 64.4561 265.652 65.0978C265.261 65.7309 265.066 66.4508 265.066 67.2573ZM249.143 53.4158V52.0109C249.143 51.0395 249.343 50.1506 249.742 49.344C250.149 48.5288 250.739 47.8784 251.511 47.3927C252.291 46.8984 253.237 46.6512 254.347 46.6512C255.474 46.6512 256.42 46.8984 257.183 47.3927C257.946 47.8784 258.523 48.5288 258.913 49.344C259.303 50.1506 259.498 51.0395 259.498 52.0109V53.4158C259.498 54.3872 259.299 55.2805 258.9 56.0957C258.51 56.9022 257.929 57.5527 257.157 58.047C256.393 58.5327 255.457 58.7755 254.347 58.7755C253.219 58.7755 252.27 58.5327 251.498 58.047C250.726 57.5527 250.141 56.9022 249.742 56.0957C249.343 55.2805 249.143 54.3872 249.143 53.4158ZM251.797 52.0109V53.4158C251.797 54.2224 251.988 54.9466 252.369 55.5883C252.751 56.2214 253.41 56.538 254.347 56.538C255.257 56.538 255.899 56.2214 256.272 55.5883C256.654 54.9466 256.844 54.2224 256.844 53.4158V52.0109C256.844 51.2043 256.662 50.4845 256.298 49.8514C255.934 49.2096 255.283 48.8887 254.347 48.8887C253.436 48.8887 252.781 49.2096 252.382 49.8514C251.992 50.4845 251.797 51.2043 251.797 52.0109ZM250.132 73.6577L268.448 47.0155H271.414L253.098 73.6577H250.132Z" fill="black"/>
<path d="M134.056 144.33H1.11084V277.275H134.056V144.33Z" fill="#F7BEBF" stroke="black" stroke-width="1.6195" stroke-miterlimit="10"/>
<path d="M175.469 226.255C173.751 226.255 172.221 225.96 170.876 225.37C169.541 224.781 168.478 223.961 167.689 222.912C166.909 221.854 166.484 220.626 166.414 219.23H169.693C169.762 220.089 170.057 220.83 170.577 221.455C171.098 222.07 171.778 222.547 172.62 222.886C173.461 223.224 174.393 223.393 175.417 223.393C176.561 223.393 177.576 223.194 178.461 222.795C179.345 222.396 180.039 221.841 180.542 221.129C181.045 220.418 181.297 219.594 181.297 218.658C181.297 217.678 181.054 216.815 180.568 216.069C180.082 215.314 179.371 214.725 178.435 214.3C177.498 213.875 176.353 213.662 175 213.662H172.867V210.8H175C176.058 210.8 176.986 210.61 177.784 210.228C178.591 209.846 179.219 209.309 179.67 208.615C180.13 207.921 180.36 207.106 180.36 206.169C180.36 205.267 180.16 204.482 179.762 203.815C179.363 203.147 178.799 202.626 178.07 202.254C177.351 201.881 176.501 201.694 175.521 201.694C174.601 201.694 173.734 201.863 172.919 202.202C172.112 202.531 171.453 203.012 170.941 203.645C170.43 204.27 170.152 205.024 170.109 205.909H166.987C167.039 204.513 167.459 203.29 168.249 202.241C169.038 201.182 170.07 200.359 171.345 199.769C172.628 199.179 174.038 198.884 175.573 198.884C177.22 198.884 178.634 199.218 179.814 199.886C180.993 200.545 181.899 201.417 182.532 202.501C183.166 203.585 183.482 204.756 183.482 206.013C183.482 207.513 183.087 208.793 182.298 209.851C181.518 210.909 180.455 211.642 179.111 212.049V212.257C180.794 212.535 182.107 213.25 183.053 214.404C183.998 215.549 184.471 216.967 184.471 218.658C184.471 220.106 184.076 221.407 183.287 222.56C182.506 223.705 181.44 224.607 180.087 225.266C178.734 225.925 177.194 226.255 175.469 226.255ZM211.594 211.139V214.001H199.938V211.139H211.594ZM236.093 226.255C235.001 226.238 233.908 226.03 232.815 225.631C231.722 225.232 230.725 224.56 229.823 223.614C228.921 222.66 228.197 221.372 227.651 219.751C227.104 218.12 226.831 216.073 226.831 213.61C226.831 211.251 227.052 209.161 227.494 207.34C227.937 205.51 228.579 203.971 229.42 202.722C230.261 201.464 231.276 200.51 232.464 199.86C233.661 199.209 235.009 198.884 236.51 198.884C238.001 198.884 239.328 199.183 240.49 199.782C241.661 200.372 242.615 201.195 243.352 202.254C244.09 203.312 244.567 204.53 244.783 205.909H241.609C241.314 204.712 240.742 203.719 239.892 202.93C239.042 202.141 237.915 201.746 236.51 201.746C234.446 201.746 232.819 202.644 231.631 204.439C230.452 206.234 229.858 208.754 229.849 211.997H230.057C230.543 211.26 231.12 210.631 231.787 210.111C232.464 209.582 233.21 209.174 234.025 208.888C234.84 208.602 235.703 208.459 236.614 208.459C238.14 208.459 239.536 208.84 240.803 209.604C242.069 210.358 243.083 211.403 243.847 212.739C244.61 214.066 244.991 215.588 244.991 217.305C244.991 218.953 244.623 220.462 243.886 221.832C243.149 223.194 242.112 224.278 240.777 225.084C239.45 225.882 237.889 226.272 236.093 226.255ZM236.093 223.393C237.186 223.393 238.166 223.12 239.033 222.573C239.909 222.027 240.599 221.294 241.102 220.375C241.613 219.456 241.869 218.432 241.869 217.305C241.869 216.203 241.622 215.202 241.128 214.3C240.642 213.389 239.97 212.665 239.111 212.127C238.262 211.59 237.29 211.321 236.197 211.321C235.374 211.321 234.606 211.486 233.895 211.815C233.184 212.136 232.559 212.578 232.022 213.142C231.493 213.706 231.076 214.352 230.773 215.08C230.469 215.8 230.317 216.559 230.317 217.357C230.317 218.415 230.565 219.404 231.059 220.323C231.562 221.242 232.247 221.984 233.114 222.547C233.99 223.111 234.983 223.393 236.093 223.393ZM263.689 220.895V219.49C263.689 218.519 263.888 217.63 264.287 216.824C264.695 216.008 265.284 215.358 266.056 214.872C266.837 214.378 267.782 214.131 268.892 214.131C270.02 214.131 270.965 214.378 271.728 214.872C272.491 215.358 273.068 216.008 273.458 216.824C273.848 217.63 274.044 218.519 274.044 219.49V220.895C274.044 221.867 273.844 222.76 273.445 223.575C273.055 224.382 272.474 225.032 271.702 225.526C270.939 226.012 270.002 226.255 268.892 226.255C267.765 226.255 266.815 226.012 266.043 225.526C265.271 225.032 264.686 224.382 264.287 223.575C263.888 222.76 263.689 221.867 263.689 220.895ZM266.342 219.49V220.895C266.342 221.702 266.533 222.426 266.915 223.068C267.296 223.701 267.955 224.017 268.892 224.017C269.803 224.017 270.444 223.701 270.817 223.068C271.199 222.426 271.39 221.702 271.39 220.895V219.49C271.39 218.684 271.208 217.964 270.843 217.331C270.479 216.689 269.829 216.368 268.892 216.368C267.981 216.368 267.327 216.689 266.928 217.331C266.537 217.964 266.342 218.684 266.342 219.49ZM250.419 205.649V204.244C250.419 203.273 250.619 202.384 251.018 201.577C251.425 200.762 252.015 200.111 252.787 199.626C253.568 199.131 254.513 198.884 255.623 198.884C256.75 198.884 257.696 199.131 258.459 199.626C259.222 200.111 259.799 200.762 260.189 201.577C260.579 202.384 260.775 203.273 260.775 204.244V205.649C260.775 206.62 260.575 207.513 260.176 208.329C259.786 209.135 259.205 209.786 258.433 210.28C257.67 210.766 256.733 211.009 255.623 211.009C254.496 211.009 253.546 210.766 252.774 210.28C252.002 209.786 251.417 209.135 251.018 208.329C250.619 207.513 250.419 206.62 250.419 205.649ZM253.073 204.244V205.649C253.073 206.455 253.264 207.18 253.646 207.821C254.027 208.454 254.686 208.771 255.623 208.771C256.534 208.771 257.175 208.454 257.548 207.821C257.93 207.18 258.121 206.455 258.121 205.649V204.244C258.121 203.437 257.939 202.718 257.574 202.084C257.21 201.443 256.56 201.122 255.623 201.122C254.712 201.122 254.058 201.443 253.659 202.084C253.268 202.718 253.073 203.437 253.073 204.244ZM251.408 225.891L269.725 199.248H272.691L254.374 225.891H251.408Z" fill="black"/>
<path d="M134.056 287.737H1.11084V420.682H134.056V287.737Z" fill="#E94C4F" stroke="black" stroke-width="1.6195" stroke-miterlimit="10"/>
<path d="M175.312 360.819C174.22 360.802 173.127 360.594 172.034 360.195C170.941 359.796 169.944 359.124 169.042 358.179C168.14 357.225 167.416 355.937 166.87 354.315C166.323 352.685 166.05 350.638 166.05 348.175C166.05 345.816 166.271 343.726 166.714 341.904C167.156 340.075 167.798 338.535 168.639 337.286C169.48 336.029 170.495 335.075 171.683 334.424C172.88 333.774 174.228 333.449 175.729 333.449C177.22 333.449 178.547 333.748 179.709 334.346C180.88 334.936 181.834 335.76 182.571 336.818C183.309 337.876 183.786 339.095 184.002 340.474H180.828C180.533 339.277 179.961 338.284 179.111 337.494C178.261 336.705 177.134 336.311 175.729 336.311C173.665 336.311 172.039 337.208 170.85 339.003C169.671 340.799 169.077 343.318 169.068 346.562H169.276C169.762 345.825 170.339 345.196 171.006 344.675C171.683 344.146 172.429 343.739 173.244 343.453C174.059 343.166 174.922 343.023 175.833 343.023C177.359 343.023 178.755 343.405 180.022 344.168C181.288 344.923 182.303 345.968 183.066 347.303C183.829 348.63 184.211 350.152 184.211 351.869C184.211 353.517 183.842 355.026 183.105 356.396C182.368 357.758 181.331 358.842 179.996 359.649C178.669 360.447 177.108 360.837 175.312 360.819ZM175.312 357.957C176.405 357.957 177.385 357.684 178.252 357.138C179.128 356.592 179.818 355.859 180.321 354.939C180.833 354.02 181.088 352.997 181.088 351.869C181.088 350.768 180.841 349.766 180.347 348.864C179.861 347.954 179.189 347.229 178.331 346.692C177.481 346.154 176.509 345.885 175.417 345.885C174.593 345.885 173.825 346.05 173.114 346.38C172.403 346.7 171.778 347.143 171.241 347.706C170.712 348.27 170.295 348.916 169.992 349.645C169.688 350.365 169.536 351.123 169.536 351.921C169.536 352.979 169.784 353.968 170.278 354.887C170.781 355.807 171.466 356.548 172.333 357.112C173.209 357.676 174.202 357.957 175.312 357.957ZM211.129 345.703V348.565H199.473V345.703H211.129ZM236.149 333.813V360.455H232.922V337.195H232.766L226.262 341.514V338.236L232.922 333.813H236.149ZM252.501 360.819C250.541 360.819 248.871 360.286 247.492 359.219C246.113 358.144 245.06 356.587 244.331 354.549C243.603 352.502 243.239 350.031 243.239 347.134C243.239 344.255 243.603 341.796 244.331 339.758C245.068 337.711 246.126 336.15 247.505 335.075C248.893 333.991 250.558 333.449 252.501 333.449C254.444 333.449 256.104 333.991 257.483 335.075C258.871 336.15 259.929 337.711 260.657 339.758C261.395 341.796 261.763 344.255 261.763 347.134C261.763 350.031 261.399 352.502 260.67 354.549C259.942 356.587 258.888 358.144 257.509 359.219C256.13 360.286 254.461 360.819 252.501 360.819ZM252.501 357.957C254.444 357.957 255.953 357.021 257.028 355.148C258.103 353.274 258.641 350.603 258.641 347.134C258.641 344.827 258.394 342.863 257.9 341.241C257.414 339.619 256.711 338.383 255.792 337.533C254.881 336.684 253.784 336.259 252.501 336.259C250.576 336.259 249.071 337.208 247.987 339.108C246.903 340.998 246.361 343.674 246.361 347.134C246.361 349.441 246.603 351.401 247.089 353.014C247.575 354.627 248.273 355.854 249.184 356.696C250.103 357.537 251.209 357.957 252.501 357.957ZM280.288 355.46V354.055C280.288 353.083 280.487 352.195 280.886 351.388C281.294 350.573 281.884 349.922 282.656 349.437C283.436 348.942 284.381 348.695 285.491 348.695C286.619 348.695 287.564 348.942 288.327 349.437C289.091 349.922 289.667 350.573 290.058 351.388C290.448 352.195 290.643 353.083 290.643 354.055V355.46C290.643 356.431 290.444 357.324 290.045 358.14C289.654 358.946 289.073 359.597 288.301 360.091C287.538 360.577 286.602 360.819 285.491 360.819C284.364 360.819 283.414 360.577 282.643 360.091C281.871 359.597 281.285 358.946 280.886 358.14C280.487 357.324 280.288 356.431 280.288 355.46ZM282.942 354.055V355.46C282.942 356.266 283.133 356.99 283.514 357.632C283.896 358.265 284.555 358.582 285.491 358.582C286.402 358.582 287.044 358.265 287.417 357.632C287.798 356.99 287.989 356.266 287.989 355.46V354.055C287.989 353.248 287.807 352.528 287.443 351.895C287.079 351.254 286.428 350.933 285.491 350.933C284.581 350.933 283.926 351.254 283.527 351.895C283.137 352.528 282.942 353.248 282.942 354.055ZM267.019 340.213V338.808C267.019 337.837 267.218 336.948 267.617 336.142C268.025 335.326 268.615 334.676 269.386 334.19C270.167 333.696 271.112 333.449 272.222 333.449C273.35 333.449 274.295 333.696 275.058 334.19C275.822 334.676 276.398 335.326 276.789 336.142C277.179 336.948 277.374 337.837 277.374 338.808V340.213C277.374 341.185 277.174 342.078 276.776 342.893C276.385 343.7 275.804 344.35 275.032 344.844C274.269 345.33 273.332 345.573 272.222 345.573C271.095 345.573 270.145 345.33 269.373 344.844C268.602 344.35 268.016 343.7 267.617 342.893C267.218 342.078 267.019 341.185 267.019 340.213ZM269.673 338.808V340.213C269.673 341.02 269.863 341.744 270.245 342.386C270.627 343.019 271.286 343.335 272.222 343.335C273.133 343.335 273.775 343.019 274.148 342.386C274.529 341.744 274.72 341.02 274.72 340.213V338.808C274.72 338.002 274.538 337.282 274.174 336.649C273.809 336.007 273.159 335.686 272.222 335.686C271.312 335.686 270.657 336.007 270.258 336.649C269.868 337.282 269.673 338.002 269.673 338.808ZM268.007 360.455L286.324 333.813H289.29L270.974 360.455H268.007Z" fill="black"/>
<path d="M134.056 431.128H1.11084V564.072H134.056V431.128Z" fill="#B51311" stroke="black" stroke-width="1.6195" stroke-miterlimit="10"/>
<path d="M175.833 477.22V503.862H172.607V480.602H172.45L165.946 484.921V481.643L172.607 477.22H175.833ZM192.185 504.226C190.225 504.226 188.556 503.693 187.177 502.626C185.798 501.551 184.744 499.994 184.015 497.956C183.287 495.909 182.923 493.438 182.923 490.541C182.923 487.662 183.287 485.203 184.015 483.165C184.753 481.118 185.811 479.557 187.19 478.482C188.577 477.398 190.242 476.856 192.185 476.856C194.128 476.856 195.788 477.398 197.167 478.482C198.555 479.557 199.613 481.118 200.342 483.165C201.079 485.203 201.447 487.662 201.447 490.541C201.447 493.438 201.083 495.909 200.355 497.956C199.626 499.994 198.572 501.551 197.193 502.626C195.815 503.693 194.145 504.226 192.185 504.226ZM192.185 501.364C194.128 501.364 195.637 500.428 196.712 498.554C197.788 496.681 198.325 494.01 198.325 490.541C198.325 488.234 198.078 486.27 197.584 484.648C197.098 483.026 196.396 481.79 195.476 480.94C194.566 480.09 193.469 479.665 192.185 479.665C190.26 479.665 188.755 480.615 187.671 482.514C186.587 484.405 186.045 487.081 186.045 490.541C186.045 492.848 186.288 494.808 186.773 496.421C187.259 498.034 187.957 499.261 188.868 500.102C189.787 500.944 190.893 501.364 192.185 501.364ZM228.194 489.11V491.972H216.538V489.11H228.194ZM253.213 477.22V503.862H249.987V480.602H249.831L243.326 484.921V481.643L249.987 477.22H253.213ZM269.201 504.226C267.675 504.226 266.3 503.923 265.077 503.316C263.854 502.709 262.874 501.876 262.137 500.818C261.4 499.76 260.997 498.554 260.927 497.201H264.05C264.171 498.407 264.717 499.404 265.689 500.194C266.669 500.974 267.839 501.364 269.201 501.364C270.294 501.364 271.265 501.109 272.115 500.597C272.974 500.085 273.646 499.383 274.131 498.489C274.626 497.587 274.873 496.568 274.873 495.432C274.873 494.27 274.617 493.234 274.105 492.323C273.602 491.404 272.909 490.68 272.024 490.151C271.139 489.622 270.129 489.353 268.993 489.344C268.178 489.335 267.341 489.461 266.482 489.721C265.624 489.973 264.917 490.298 264.362 490.697L261.344 490.333L262.957 477.22H276.798V480.082H265.663L264.726 487.939H264.882C265.428 487.506 266.114 487.146 266.938 486.859C267.761 486.573 268.62 486.43 269.513 486.43C271.144 486.43 272.596 486.82 273.871 487.601C275.155 488.373 276.161 489.431 276.889 490.775C277.627 492.119 277.995 493.654 277.995 495.38C277.995 497.08 277.613 498.598 276.85 499.933C276.096 501.26 275.055 502.31 273.728 503.082C272.401 503.845 270.892 504.226 269.201 504.226ZM296.744 498.867V497.462C296.744 496.49 296.944 495.601 297.343 494.795C297.75 493.98 298.34 493.329 299.112 492.844C299.892 492.349 300.838 492.102 301.948 492.102C303.075 492.102 304.021 492.349 304.784 492.844C305.547 493.329 306.124 493.98 306.514 494.795C306.904 495.601 307.099 496.49 307.099 497.462V498.867C307.099 499.838 306.9 500.731 306.501 501.546C306.111 502.353 305.53 503.003 304.758 503.498C303.994 503.983 303.058 504.226 301.948 504.226C300.82 504.226 299.871 503.983 299.099 503.498C298.327 503.003 297.742 502.353 297.343 501.546C296.944 500.731 296.744 499.838 296.744 498.867ZM299.398 497.462V498.867C299.398 499.673 299.589 500.397 299.97 501.039C300.352 501.672 301.011 501.989 301.948 501.989C302.858 501.989 303.5 501.672 303.873 501.039C304.255 500.397 304.445 499.673 304.445 498.867V497.462C304.445 496.655 304.263 495.935 303.899 495.302C303.535 494.66 302.884 494.34 301.948 494.34C301.037 494.34 300.382 494.66 299.983 495.302C299.593 495.935 299.398 496.655 299.398 497.462ZM283.475 483.62V482.215C283.475 481.244 283.675 480.355 284.074 479.548C284.481 478.733 285.071 478.083 285.843 477.597C286.623 477.103 287.569 476.856 288.679 476.856C289.806 476.856 290.751 477.103 291.515 477.597C292.278 478.083 292.855 478.733 293.245 479.548C293.635 480.355 293.83 481.244 293.83 482.215V483.62C293.83 484.592 293.631 485.485 293.232 486.3C292.842 487.107 292.26 487.757 291.489 488.251C290.725 488.737 289.789 488.98 288.679 488.98C287.551 488.98 286.602 488.737 285.83 488.251C285.058 487.757 284.472 487.107 284.074 486.3C283.675 485.485 283.475 484.592 283.475 483.62ZM286.129 482.215V483.62C286.129 484.427 286.32 485.151 286.701 485.793C287.083 486.426 287.742 486.742 288.679 486.742C289.589 486.742 290.231 486.426 290.604 485.793C290.986 485.151 291.176 484.427 291.176 483.62V482.215C291.176 481.409 290.994 480.689 290.63 480.056C290.266 479.414 289.615 479.093 288.679 479.093C287.768 479.093 287.113 479.414 286.714 480.056C286.324 480.689 286.129 481.409 286.129 482.215ZM284.464 503.862L302.78 477.22H305.746L287.43 503.862H284.464Z" fill="black"/>
<path d="M134.056 574.534H1.11084V707.479H134.056V574.534Z" fill="#6B140B" stroke="black" stroke-width="1.6195" stroke-miterlimit="10"/>
<path d="M175.833 628.012V654.654H172.607V631.394H172.45L165.946 635.713V632.435L172.607 628.012H175.833ZM191.821 655.018C190.294 655.018 188.92 654.715 187.697 654.107C186.474 653.5 185.494 652.668 184.757 651.61C184.02 650.552 183.616 649.346 183.547 647.993H186.669C186.791 649.199 187.337 650.196 188.308 650.985C189.288 651.766 190.459 652.156 191.821 652.156C192.914 652.156 193.885 651.9 194.735 651.389C195.593 650.877 196.265 650.174 196.751 649.281C197.245 648.379 197.493 647.36 197.493 646.224C197.493 645.062 197.237 644.026 196.725 643.115C196.222 642.196 195.528 641.471 194.644 640.942C193.759 640.413 192.749 640.145 191.613 640.136C190.797 640.127 189.96 640.253 189.102 640.513C188.243 640.765 187.536 641.09 186.981 641.489L183.963 641.125L185.576 628.012H199.418V630.874H188.282L187.346 638.731H187.502C188.048 638.297 188.733 637.937 189.557 637.651C190.381 637.365 191.24 637.222 192.133 637.222C193.763 637.222 195.216 637.612 196.491 638.393C197.775 639.165 198.781 640.223 199.509 641.567C200.246 642.911 200.615 644.446 200.615 646.172C200.615 647.872 200.233 649.39 199.47 650.725C198.715 652.052 197.675 653.101 196.348 653.873C195.021 654.636 193.512 655.018 191.821 655.018ZM227.586 639.902V642.764H215.93V639.902H227.586ZM243.239 654.654V652.312L252.033 642.686C253.065 641.558 253.914 640.578 254.582 639.746C255.25 638.904 255.744 638.115 256.065 637.378C256.395 636.632 256.56 635.852 256.56 635.036C256.56 634.1 256.334 633.289 255.883 632.604C255.441 631.919 254.834 631.39 254.062 631.017C253.29 630.644 252.423 630.457 251.46 630.457C250.437 630.457 249.544 630.67 248.78 631.095C248.026 631.511 247.44 632.096 247.024 632.851C246.616 633.605 246.413 634.49 246.413 635.505H243.343C243.343 633.944 243.702 632.573 244.422 631.394C245.142 630.214 246.122 629.295 247.362 628.636C248.611 627.977 250.012 627.647 251.564 627.647C253.125 627.647 254.509 627.977 255.714 628.636C256.92 629.295 257.865 630.184 258.55 631.303C259.235 632.422 259.578 633.666 259.578 635.036C259.578 636.016 259.4 636.975 259.044 637.911C258.697 638.839 258.09 639.876 257.223 641.02C256.365 642.157 255.172 643.544 253.646 645.183L247.662 651.584V651.792H260.046V654.654H243.239ZM274.109 655.018C272.149 655.018 270.479 654.485 269.1 653.418C267.721 652.343 266.668 650.786 265.939 648.748C265.211 646.701 264.846 644.229 264.846 641.333C264.846 638.453 265.211 635.995 265.939 633.957C266.676 631.91 267.734 630.349 269.113 629.273C270.501 628.189 272.166 627.647 274.109 627.647C276.051 627.647 277.712 628.189 279.091 629.273C280.479 630.349 281.537 631.91 282.265 633.957C283.002 635.995 283.371 638.453 283.371 641.333C283.371 644.229 283.007 646.701 282.278 648.748C281.55 650.786 280.496 652.343 279.117 653.418C277.738 654.485 276.069 655.018 274.109 655.018ZM274.109 652.156C276.051 652.156 277.56 651.219 278.636 649.346C279.711 647.473 280.249 644.802 280.249 641.333C280.249 639.026 280.002 637.061 279.507 635.44C279.022 633.818 278.319 632.582 277.4 631.732C276.489 630.882 275.392 630.457 274.109 630.457C272.183 630.457 270.679 631.407 269.595 633.306C268.511 635.197 267.968 637.872 267.968 641.333C267.968 643.64 268.211 645.6 268.697 647.213C269.183 648.826 269.881 650.053 270.791 650.894C271.711 651.735 272.816 652.156 274.109 652.156ZM301.896 649.658V648.253C301.896 647.282 302.095 646.393 302.494 645.587C302.902 644.771 303.491 644.121 304.263 643.635C305.044 643.141 305.989 642.894 307.099 642.894C308.227 642.894 309.172 643.141 309.935 643.635C310.698 644.121 311.275 644.771 311.665 645.587C312.056 646.393 312.251 647.282 312.251 648.253V649.658C312.251 650.63 312.051 651.523 311.652 652.338C311.262 653.145 310.681 653.795 309.909 654.29C309.146 654.775 308.209 655.018 307.099 655.018C305.972 655.018 305.022 654.775 304.25 654.29C303.478 653.795 302.893 653.145 302.494 652.338C302.095 651.523 301.896 650.63 301.896 649.658ZM304.55 648.253V649.658C304.55 650.465 304.74 651.189 305.122 651.831C305.504 652.464 306.163 652.781 307.099 652.781C308.01 652.781 308.652 652.464 309.025 651.831C309.406 651.189 309.597 650.465 309.597 649.658V648.253C309.597 647.447 309.415 646.727 309.051 646.094C308.686 645.452 308.036 645.131 307.099 645.131C306.189 645.131 305.534 645.452 305.135 646.094C304.745 646.727 304.55 647.447 304.55 648.253ZM288.627 634.412V633.007C288.627 632.036 288.826 631.147 289.225 630.34C289.633 629.525 290.222 628.874 290.994 628.389C291.775 627.894 292.72 627.647 293.83 627.647C294.958 627.647 295.903 627.894 296.666 628.389C297.429 628.874 298.006 629.525 298.396 630.34C298.787 631.147 298.982 632.036 298.982 633.007V634.412C298.982 635.383 298.782 636.277 298.383 637.092C297.993 637.898 297.412 638.549 296.64 639.043C295.877 639.529 294.94 639.772 293.83 639.772C292.703 639.772 291.753 639.529 290.981 639.043C290.209 638.549 289.624 637.898 289.225 637.092C288.826 636.277 288.627 635.383 288.627 634.412ZM291.28 633.007V634.412C291.28 635.218 291.471 635.943 291.853 636.584C292.234 637.218 292.894 637.534 293.83 637.534C294.741 637.534 295.383 637.218 295.756 636.584C296.137 635.943 296.328 635.218 296.328 634.412V633.007C296.328 632.2 296.146 631.481 295.782 630.847C295.417 630.206 294.767 629.885 293.83 629.885C292.92 629.885 292.265 630.206 291.866 630.847C291.476 631.481 291.28 632.2 291.28 633.007ZM289.615 654.654L307.932 628.012H310.898L292.581 654.654H289.615Z" fill="black"/>
</svg>
