<svg width="234" height="359" viewBox="0 0 234 359" fill="none" xmlns="http://www.w3.org/2000/svg">
<path d="M83.3332 1.22559H0.908447V68.2407H83.3332V1.22559Z" fill="#FEF3F4" stroke="black" stroke-width="1.69982" stroke-miterlimit="10"/>
<path d="M109.105 46.5085C107.701 46.5085 106.505 46.1264 105.518 45.3623C104.53 44.592 103.775 43.477 103.253 42.0171C102.731 40.5511 102.47 38.7806 102.47 36.7058C102.47 34.6434 102.731 32.8823 103.253 31.4224C103.781 29.9564 104.539 28.8382 105.527 28.0679C106.521 27.2914 107.713 26.9031 109.105 26.9031C110.496 26.9031 111.686 27.2914 112.674 28.0679C113.668 28.8382 114.426 29.9564 114.947 31.4224C115.475 32.8823 115.739 34.6434 115.739 36.7058C115.739 38.7806 115.479 40.5511 114.957 42.0171C114.435 43.477 113.68 44.592 112.692 45.3623C111.705 46.1264 110.509 46.5085 109.105 46.5085ZM109.105 44.4585C110.496 44.4585 111.577 43.7876 112.348 42.4458C113.118 41.104 113.503 39.1906 113.503 36.7058C113.503 35.0534 113.326 33.6463 112.972 32.4847C112.624 31.323 112.121 30.4378 111.462 29.829C110.81 29.2202 110.024 28.9158 109.105 28.9158C107.726 28.9158 106.648 29.5961 105.872 30.9565C105.095 32.3107 104.707 34.2272 104.707 36.7058C104.707 38.3582 104.881 39.7621 105.229 40.9176C105.577 42.073 106.077 42.952 106.729 43.5546C107.387 44.1572 108.179 44.4585 109.105 44.4585ZM134.898 35.6808V37.7308H126.549V35.6808H134.898ZM152.558 46.5085C151.328 46.5085 150.231 46.2973 149.268 45.8748C148.312 45.4524 147.551 44.8654 146.986 44.1137C146.426 43.3558 146.122 42.4768 146.072 41.4767H148.421C148.47 42.0917 148.681 42.6228 149.054 43.0701C149.427 43.5111 149.915 43.8528 150.517 44.0951C151.12 44.3373 151.787 44.4585 152.52 44.4585C153.34 44.4585 154.067 44.3156 154.701 44.0298C155.335 43.7441 155.832 43.3465 156.192 42.8371C156.552 42.3277 156.732 41.7376 156.732 41.0667C156.732 40.3647 156.558 39.7466 156.21 39.2124C155.863 38.6719 155.353 38.2495 154.682 37.9451C154.011 37.6407 153.191 37.4885 152.222 37.4885H150.694V35.4385H152.222C152.98 35.4385 153.645 35.3019 154.216 35.0285C154.794 34.7552 155.244 34.37 155.568 33.8731C155.897 33.3761 156.061 32.7922 156.061 32.1213C156.061 31.4752 155.918 30.913 155.633 30.4347C155.347 29.9564 154.943 29.5836 154.421 29.3165C153.906 29.0494 153.297 28.9158 152.595 28.9158C151.937 28.9158 151.315 29.037 150.731 29.2792C150.154 29.5153 149.682 29.8601 149.315 30.3136C148.949 30.7608 148.75 31.3013 148.719 31.9349H146.482C146.52 30.9348 146.821 30.0589 147.386 29.3072C147.951 28.5493 148.691 27.9592 149.604 27.5368C150.523 27.1143 151.533 26.9031 152.632 26.9031C153.813 26.9031 154.825 27.1423 155.67 27.6206C156.515 28.0927 157.164 28.7171 157.617 29.4936C158.071 30.2701 158.298 31.1087 158.298 32.0095C158.298 33.0841 158.015 34.0004 157.45 34.7583C156.891 35.5162 156.13 36.0411 155.167 36.3331V36.4822C156.372 36.6809 157.313 37.1934 157.99 38.0197C158.667 38.8396 159.006 39.8553 159.006 41.0667C159.006 42.1041 158.723 43.0359 158.158 43.8621C157.599 44.6821 156.835 45.3282 155.866 45.8003C154.897 46.2724 153.794 46.5085 152.558 46.5085ZM172.545 42.6694V41.663C172.545 40.9673 172.688 40.3305 172.974 39.7528C173.266 39.1689 173.688 38.703 174.241 38.3551C174.8 38.001 175.477 37.824 176.272 37.824C177.08 37.824 177.757 38.001 178.304 38.3551C178.85 38.703 179.264 39.1689 179.543 39.7528C179.823 40.3305 179.962 40.9673 179.962 41.663V42.6694C179.962 43.3652 179.819 44.005 179.534 44.5889C179.254 45.1667 178.838 45.6326 178.285 45.9867C177.738 46.3345 177.068 46.5085 176.272 46.5085C175.465 46.5085 174.785 46.3345 174.232 45.9867C173.679 45.6326 173.26 45.1667 172.974 44.5889C172.688 44.005 172.545 43.3652 172.545 42.6694ZM174.446 41.663V42.6694C174.446 43.2471 174.583 43.7658 174.856 44.2255C175.129 44.679 175.601 44.9057 176.272 44.9057C176.925 44.9057 177.384 44.679 177.651 44.2255C177.925 43.7658 178.061 43.2471 178.061 42.6694V41.663C178.061 41.0853 177.931 40.5697 177.67 40.1162C177.409 39.6565 176.943 39.4267 176.272 39.4267C175.62 39.4267 175.151 39.6565 174.865 40.1162C174.586 40.5697 174.446 41.0853 174.446 41.663ZM163.041 31.7485V30.7422C163.041 30.0464 163.184 29.4097 163.469 28.832C163.761 28.248 164.184 27.7821 164.737 27.4343C165.296 27.0802 165.973 26.9031 166.768 26.9031C167.575 26.9031 168.253 27.0802 168.799 27.4343C169.346 27.7821 169.759 28.248 170.039 28.832C170.318 29.4097 170.458 30.0464 170.458 30.7422V31.7485C170.458 32.4443 170.315 33.0841 170.029 33.6681C169.75 34.2458 169.333 34.7117 168.781 35.0658C168.234 35.4137 167.563 35.5876 166.768 35.5876C165.96 35.5876 165.28 35.4137 164.727 35.0658C164.174 34.7117 163.755 34.2458 163.469 33.6681C163.184 33.0841 163.041 32.4443 163.041 31.7485ZM164.942 30.7422V31.7485C164.942 32.3263 165.078 32.845 165.352 33.3047C165.625 33.7582 166.097 33.9849 166.768 33.9849C167.42 33.9849 167.88 33.7582 168.147 33.3047C168.42 32.845 168.557 32.3263 168.557 31.7485V30.7422C168.557 30.1645 168.427 29.6489 168.166 29.1954C167.905 28.7357 167.439 28.5058 166.768 28.5058C166.116 28.5058 165.647 28.7357 165.361 29.1954C165.081 29.6489 164.942 30.1645 164.942 30.7422ZM163.749 46.2476L176.869 27.164H178.993L165.873 46.2476H163.749Z" fill="black"/>
<path d="M83.3329 73.5146H0.908203V140.53H83.3329V73.5146Z" fill="#BEC8F7" stroke="black" stroke-width="1.69982" stroke-miterlimit="10"/>
<path d="M110.141 123.246C108.911 123.246 107.815 123.035 106.852 122.613C105.895 122.19 105.134 121.603 104.569 120.851C104.01 120.094 103.706 119.215 103.656 118.214H106.004C106.054 118.829 106.265 119.361 106.638 119.808C107.01 120.249 107.498 120.591 108.101 120.833C108.703 121.075 109.371 121.196 110.104 121.196C110.924 121.196 111.651 121.053 112.285 120.768C112.918 120.482 113.415 120.084 113.775 119.575C114.136 119.066 114.316 118.475 114.316 117.804C114.316 117.103 114.142 116.484 113.794 115.95C113.446 115.41 112.937 114.987 112.266 114.683C111.595 114.379 110.775 114.226 109.806 114.226H108.278V112.176H109.806C110.564 112.176 111.228 112.04 111.8 111.766C112.378 111.493 112.828 111.108 113.151 110.611C113.48 110.114 113.645 109.53 113.645 108.859C113.645 108.213 113.502 107.651 113.216 107.172C112.931 106.694 112.527 106.321 112.005 106.054C111.489 105.787 110.881 105.654 110.179 105.654C109.52 105.654 108.899 105.775 108.315 106.017C107.737 106.253 107.265 106.598 106.899 107.051C106.532 107.499 106.333 108.039 106.302 108.673H104.066C104.103 107.673 104.405 106.797 104.97 106.045C105.535 105.287 106.274 104.697 107.188 104.275C108.107 103.852 109.116 103.641 110.216 103.641C111.396 103.641 112.409 103.88 113.254 104.358C114.098 104.831 114.748 105.455 115.201 106.231C115.655 107.008 115.881 107.846 115.881 108.747C115.881 109.822 115.599 110.738 115.033 111.496C114.474 112.254 113.713 112.779 112.75 113.071V113.22C113.956 113.419 114.897 113.931 115.574 114.757C116.251 115.577 116.59 116.593 116.59 117.804C116.59 118.842 116.307 119.774 115.742 120.6C115.182 121.42 114.418 122.066 113.449 122.538C112.48 123.01 111.378 123.246 110.141 123.246ZM136.018 112.419V114.469H127.669V112.419H136.018ZM153.566 123.246C152.783 123.234 152.001 123.085 151.218 122.799C150.435 122.513 149.721 122.032 149.075 121.355C148.429 120.671 147.91 119.749 147.519 118.587C147.127 117.419 146.932 115.953 146.932 114.189C146.932 112.499 147.09 111.002 147.407 109.698C147.724 108.387 148.183 107.284 148.786 106.39C149.389 105.489 150.115 104.806 150.966 104.34C151.824 103.874 152.79 103.641 153.864 103.641C154.933 103.641 155.883 103.855 156.716 104.284C157.554 104.706 158.238 105.296 158.766 106.054C159.294 106.812 159.635 107.685 159.791 108.673H157.517C157.306 107.815 156.896 107.104 156.287 106.539C155.678 105.974 154.871 105.691 153.864 105.691C152.386 105.691 151.221 106.334 150.37 107.62C149.525 108.906 149.1 110.71 149.093 113.034H149.243C149.59 112.506 150.004 112.055 150.482 111.682C150.966 111.304 151.501 111.012 152.085 110.807C152.669 110.602 153.287 110.499 153.939 110.499C155.032 110.499 156.032 110.772 156.939 111.319C157.846 111.86 158.573 112.608 159.12 113.565C159.666 114.515 159.94 115.605 159.94 116.835C159.94 118.016 159.676 119.097 159.148 120.078C158.62 121.053 157.877 121.83 156.921 122.408C155.97 122.979 154.852 123.259 153.566 123.246ZM153.566 121.196C154.349 121.196 155.051 121.001 155.672 120.609C156.299 120.218 156.793 119.693 157.154 119.034C157.52 118.376 157.703 117.643 157.703 116.835C157.703 116.046 157.526 115.329 157.172 114.683C156.824 114.031 156.343 113.512 155.728 113.127C155.119 112.742 154.423 112.549 153.641 112.549C153.051 112.549 152.501 112.667 151.991 112.903C151.482 113.133 151.035 113.45 150.65 113.854C150.271 114.257 149.972 114.72 149.755 115.242C149.538 115.758 149.429 116.301 149.429 116.873C149.429 117.631 149.606 118.339 149.96 118.997C150.32 119.656 150.811 120.187 151.432 120.591C152.06 120.994 152.771 121.196 153.566 121.196ZM173.332 119.407V118.401C173.332 117.705 173.475 117.068 173.761 116.491C174.053 115.907 174.475 115.441 175.028 115.093C175.587 114.739 176.264 114.562 177.06 114.562C177.867 114.562 178.544 114.739 179.091 115.093C179.638 115.441 180.051 115.907 180.33 116.491C180.61 117.068 180.749 117.705 180.749 118.401V119.407C180.749 120.103 180.607 120.743 180.321 121.327C180.041 121.904 179.625 122.37 179.072 122.724C178.526 123.072 177.855 123.246 177.06 123.246C176.252 123.246 175.572 123.072 175.019 122.724C174.466 122.37 174.047 121.904 173.761 121.327C173.475 120.743 173.332 120.103 173.332 119.407ZM175.233 118.401V119.407C175.233 119.985 175.37 120.504 175.643 120.963C175.916 121.417 176.389 121.644 177.06 121.644C177.712 121.644 178.171 121.417 178.439 120.963C178.712 120.504 178.849 119.985 178.849 119.407V118.401C178.849 117.823 178.718 117.308 178.457 116.854C178.196 116.394 177.73 116.164 177.06 116.164C176.407 116.164 175.938 116.394 175.652 116.854C175.373 117.308 175.233 117.823 175.233 118.401ZM163.828 108.486V107.48C163.828 106.784 163.971 106.147 164.256 105.57C164.548 104.986 164.971 104.52 165.524 104.172C166.083 103.818 166.76 103.641 167.555 103.641C168.363 103.641 169.04 103.818 169.586 104.172C170.133 104.52 170.546 104.986 170.826 105.57C171.105 106.147 171.245 106.784 171.245 107.48V108.486C171.245 109.182 171.102 109.822 170.816 110.406C170.537 110.984 170.121 111.45 169.568 111.804C169.021 112.151 168.35 112.325 167.555 112.325C166.747 112.325 166.067 112.151 165.514 111.804C164.961 111.45 164.542 110.984 164.256 110.406C163.971 109.822 163.828 109.182 163.828 108.486ZM165.729 107.48V108.486C165.729 109.064 165.865 109.583 166.139 110.042C166.412 110.496 166.884 110.723 167.555 110.723C168.207 110.723 168.667 110.496 168.934 110.042C169.207 109.583 169.344 109.064 169.344 108.486V107.48C169.344 106.902 169.214 106.387 168.953 105.933C168.692 105.473 168.226 105.244 167.555 105.244C166.903 105.244 166.434 105.473 166.148 105.933C165.868 106.387 165.729 106.902 165.729 107.48ZM164.536 122.985L177.656 103.902H179.78L166.66 122.985H164.536Z" fill="black"/>
<path d="M83.3329 145.804H0.908203V212.819H83.3329V145.804Z" fill="#6F85FD" stroke="black" stroke-width="1.69982" stroke-miterlimit="10"/>
<path d="M110.03 191.078C109.247 191.066 108.464 190.917 107.681 190.631C106.899 190.345 106.184 189.864 105.538 189.187C104.892 188.503 104.373 187.581 103.982 186.419C103.591 185.251 103.395 183.785 103.395 182.021C103.395 180.331 103.553 178.834 103.87 177.53C104.187 176.219 104.647 175.116 105.249 174.222C105.852 173.321 106.579 172.638 107.43 172.172C108.287 171.706 109.253 171.473 110.328 171.473C111.396 171.473 112.347 171.687 113.179 172.116C114.018 172.538 114.701 173.128 115.229 173.886C115.757 174.644 116.099 175.517 116.254 176.505H113.98C113.769 175.647 113.359 174.936 112.75 174.371C112.142 173.806 111.334 173.523 110.328 173.523C108.849 173.523 107.684 174.166 106.833 175.452C105.989 176.738 105.563 178.542 105.557 180.866H105.706C106.054 180.338 106.467 179.887 106.945 179.514C107.43 179.136 107.964 178.844 108.548 178.639C109.132 178.434 109.75 178.331 110.402 178.331C111.496 178.331 112.496 178.604 113.403 179.151C114.31 179.692 115.036 180.44 115.583 181.397C116.13 182.347 116.403 183.437 116.403 184.667C116.403 185.848 116.139 186.929 115.611 187.91C115.083 188.885 114.341 189.662 113.384 190.24C112.434 190.811 111.315 191.091 110.03 191.078ZM110.03 189.028C110.812 189.028 111.514 188.833 112.135 188.441C112.763 188.05 113.257 187.525 113.617 186.866C113.984 186.208 114.167 185.475 114.167 184.667C114.167 183.878 113.99 183.161 113.636 182.515C113.288 181.863 112.806 181.344 112.191 180.959C111.583 180.574 110.887 180.381 110.104 180.381C109.514 180.381 108.964 180.499 108.455 180.735C107.945 180.965 107.498 181.282 107.113 181.686C106.734 182.089 106.436 182.552 106.218 183.074C106.001 183.59 105.892 184.133 105.892 184.705C105.892 185.463 106.069 186.171 106.423 186.829C106.784 187.488 107.274 188.019 107.896 188.423C108.523 188.826 109.234 189.028 110.03 189.028ZM135.685 180.251V182.301H127.336V180.251H135.685ZM153.606 171.734V190.817H151.295V174.157H151.183L146.524 177.25V174.902L151.295 171.734H153.606ZM165.319 191.078C163.915 191.078 162.719 190.696 161.731 189.932C160.743 189.162 159.989 188.047 159.467 186.587C158.945 185.121 158.684 183.35 158.684 181.276C158.684 179.213 158.945 177.452 159.467 175.992C159.995 174.526 160.753 173.408 161.741 172.638C162.734 171.861 163.927 171.473 165.319 171.473C166.71 171.473 167.9 171.861 168.888 172.638C169.881 173.408 170.639 174.526 171.161 175.992C171.689 177.452 171.953 179.213 171.953 181.276C171.953 183.35 171.692 185.121 171.17 186.587C170.649 188.047 169.894 189.162 168.906 189.932C167.918 190.696 166.723 191.078 165.319 191.078ZM165.319 189.028C166.71 189.028 167.791 188.357 168.561 187.016C169.332 185.674 169.717 183.76 169.717 181.276C169.717 179.623 169.54 178.216 169.186 177.055C168.838 175.893 168.335 175.008 167.676 174.399C167.024 173.79 166.238 173.486 165.319 173.486C163.94 173.486 162.862 174.166 162.085 175.526C161.309 176.881 160.921 178.797 160.921 181.276C160.921 182.928 161.094 184.332 161.442 185.487C161.79 186.643 162.29 187.522 162.943 188.124C163.601 188.727 164.393 189.028 165.319 189.028ZM185.222 187.239V186.233C185.222 185.537 185.365 184.9 185.651 184.323C185.943 183.739 186.365 183.273 186.918 182.925C187.477 182.571 188.154 182.394 188.949 182.394C189.757 182.394 190.434 182.571 190.981 182.925C191.527 183.273 191.941 183.739 192.22 184.323C192.5 184.9 192.639 185.537 192.639 186.233V187.239C192.639 187.935 192.497 188.575 192.211 189.159C191.931 189.736 191.515 190.202 190.962 190.556C190.415 190.904 189.745 191.078 188.949 191.078C188.142 191.078 187.462 190.904 186.909 190.556C186.356 190.202 185.937 189.736 185.651 189.159C185.365 188.575 185.222 187.935 185.222 187.239ZM187.123 186.233V187.239C187.123 187.817 187.26 188.336 187.533 188.795C187.806 189.249 188.279 189.476 188.949 189.476C189.602 189.476 190.061 189.249 190.329 188.795C190.602 188.336 190.739 187.817 190.739 187.239V186.233C190.739 185.655 190.608 185.14 190.347 184.686C190.086 184.226 189.62 183.997 188.949 183.997C188.297 183.997 187.828 184.226 187.542 184.686C187.263 185.14 187.123 185.655 187.123 186.233ZM175.718 176.318V175.312C175.718 174.616 175.861 173.98 176.146 173.402C176.438 172.818 176.861 172.352 177.414 172.004C177.973 171.65 178.65 171.473 179.445 171.473C180.253 171.473 180.93 171.65 181.476 172.004C182.023 172.352 182.436 172.818 182.716 173.402C182.995 173.98 183.135 174.616 183.135 175.312V176.318C183.135 177.014 182.992 177.654 182.706 178.238C182.427 178.816 182.011 179.282 181.458 179.636C180.911 179.984 180.24 180.157 179.445 180.157C178.637 180.157 177.957 179.984 177.404 179.636C176.851 179.282 176.432 178.816 176.146 178.238C175.861 177.654 175.718 177.014 175.718 176.318ZM177.619 175.312V176.318C177.619 176.896 177.755 177.415 178.029 177.875C178.302 178.328 178.774 178.555 179.445 178.555C180.097 178.555 180.557 178.328 180.824 177.875C181.097 177.415 181.234 176.896 181.234 176.318V175.312C181.234 174.734 181.104 174.219 180.843 173.765C180.582 173.306 180.116 173.076 179.445 173.076C178.793 173.076 178.324 173.306 178.038 173.765C177.758 174.219 177.619 174.734 177.619 175.312ZM176.426 190.817L189.546 171.734H191.67L178.55 190.817H176.426Z" fill="black"/>
<path d="M83.3329 218.085H0.908203V285.1H83.3329V218.085Z" fill="#2442E2" stroke="black" stroke-width="1.69982" stroke-miterlimit="10"/>
<path d="M110.402 244.023V263.106H108.091V246.446H107.98L103.32 249.539V247.191L108.091 244.023H110.402ZM122.115 263.367C120.711 263.367 119.515 262.985 118.528 262.221C117.54 261.451 116.785 260.336 116.263 258.876C115.742 257.41 115.481 255.64 115.481 253.565C115.481 251.502 115.742 249.741 116.263 248.281C116.791 246.815 117.549 245.697 118.537 244.927C119.531 244.15 120.724 243.762 122.115 243.762C123.507 243.762 124.696 244.15 125.684 244.927C126.678 245.697 127.436 246.815 127.958 248.281C128.486 249.741 128.75 251.502 128.75 253.565C128.75 255.64 128.489 257.41 127.967 258.876C127.445 260.336 126.69 261.451 125.703 262.221C124.715 262.985 123.519 263.367 122.115 263.367ZM122.115 261.317C123.507 261.317 124.588 260.646 125.358 259.305C126.128 257.963 126.513 256.05 126.513 253.565C126.513 251.912 126.336 250.505 125.982 249.344C125.634 248.182 125.131 247.297 124.473 246.688C123.82 246.079 123.035 245.775 122.115 245.775C120.736 245.775 119.658 246.455 118.882 247.815C118.105 249.17 117.717 251.086 117.717 253.565C117.717 255.217 117.891 256.621 118.239 257.776C118.587 258.932 119.087 259.811 119.739 260.414C120.398 261.016 121.19 261.317 122.115 261.317ZM147.908 252.54V254.59H139.559V252.54H147.908ZM165.829 244.023V263.106H163.518V246.446H163.406L158.747 249.539V247.191L163.518 244.023H165.829ZM177.281 263.367C176.187 263.367 175.203 263.15 174.327 262.715C173.451 262.28 172.749 261.684 172.221 260.926C171.693 260.168 171.404 259.305 171.354 258.336H173.591C173.678 259.199 174.069 259.913 174.765 260.479C175.467 261.038 176.306 261.317 177.281 261.317C178.064 261.317 178.759 261.134 179.368 260.768C179.983 260.401 180.465 259.898 180.812 259.258C181.166 258.612 181.344 257.882 181.344 257.068C181.344 256.236 181.16 255.494 180.794 254.841C180.433 254.183 179.936 253.664 179.303 253.285C178.669 252.906 177.946 252.714 177.132 252.707C176.548 252.701 175.948 252.791 175.333 252.978C174.718 253.158 174.212 253.391 173.814 253.676L171.653 253.416L172.808 244.023H182.723V246.073H174.746L174.075 251.701H174.187C174.579 251.39 175.069 251.133 175.659 250.928C176.25 250.723 176.865 250.62 177.504 250.62C178.672 250.62 179.713 250.9 180.626 251.459C181.545 252.012 182.266 252.77 182.788 253.732C183.316 254.695 183.58 255.795 183.58 257.031C183.58 258.249 183.307 259.336 182.76 260.292C182.219 261.243 181.474 261.994 180.524 262.547C179.573 263.094 178.492 263.367 177.281 263.367ZM197.01 259.528V258.522C197.01 257.826 197.153 257.189 197.438 256.612C197.73 256.028 198.153 255.562 198.706 255.214C199.265 254.86 199.942 254.683 200.737 254.683C201.544 254.683 202.222 254.86 202.768 255.214C203.315 255.562 203.728 256.028 204.008 256.612C204.287 257.189 204.427 257.826 204.427 258.522V259.528C204.427 260.224 204.284 260.864 203.998 261.448C203.719 262.026 203.302 262.491 202.75 262.846C202.203 263.193 201.532 263.367 200.737 263.367C199.929 263.367 199.249 263.193 198.696 262.846C198.143 262.491 197.724 262.026 197.438 261.448C197.153 260.864 197.01 260.224 197.01 259.528ZM198.911 258.522V259.528C198.911 260.106 199.047 260.625 199.321 261.084C199.594 261.538 200.066 261.765 200.737 261.765C201.389 261.765 201.849 261.538 202.116 261.084C202.389 260.625 202.526 260.106 202.526 259.528V258.522C202.526 257.944 202.396 257.429 202.135 256.975C201.874 256.515 201.408 256.286 200.737 256.286C200.085 256.286 199.616 256.515 199.33 256.975C199.05 257.429 198.911 257.944 198.911 258.522ZM187.505 248.607V247.601C187.505 246.905 187.648 246.269 187.934 245.691C188.226 245.107 188.648 244.641 189.201 244.293C189.76 243.939 190.437 243.762 191.232 243.762C192.04 243.762 192.717 243.939 193.264 244.293C193.81 244.641 194.224 245.107 194.503 245.691C194.783 246.269 194.922 246.905 194.922 247.601V248.607C194.922 249.303 194.779 249.943 194.494 250.527C194.214 251.105 193.798 251.571 193.245 251.925C192.698 252.273 192.028 252.447 191.232 252.447C190.425 252.447 189.745 252.273 189.192 251.925C188.639 251.571 188.22 251.105 187.934 250.527C187.648 249.943 187.505 249.303 187.505 248.607ZM189.406 247.601V248.607C189.406 249.185 189.543 249.704 189.816 250.164C190.089 250.617 190.561 250.844 191.232 250.844C191.885 250.844 192.344 250.617 192.611 250.164C192.885 249.704 193.021 249.185 193.021 248.607V247.601C193.021 247.023 192.891 246.508 192.63 246.054C192.369 245.595 191.903 245.365 191.232 245.365C190.58 245.365 190.111 245.595 189.825 246.054C189.546 246.508 189.406 247.023 189.406 247.601ZM188.213 263.106L201.333 244.023H203.458L190.338 263.106H188.213Z" fill="black"/>
<path d="M83.3329 290.374H0.908203V357.389H83.3329V290.374Z" fill="#130552" stroke="black" stroke-width="1.69982" stroke-miterlimit="10"/>
<path d="M110.402 320.034V339.118H108.091V322.457H107.98L103.32 325.55V323.202L108.091 320.034H110.402ZM121.854 339.379C120.761 339.379 119.776 339.161 118.9 338.726C118.025 338.291 117.323 337.695 116.795 336.937C116.266 336.179 115.978 335.316 115.928 334.347H118.164C118.251 335.21 118.643 335.925 119.338 336.49C120.04 337.049 120.879 337.329 121.854 337.329C122.637 337.329 123.333 337.145 123.942 336.779C124.557 336.412 125.038 335.909 125.386 335.269C125.74 334.623 125.917 333.893 125.917 333.08C125.917 332.247 125.734 331.505 125.367 330.852C125.007 330.194 124.51 329.675 123.876 329.296C123.243 328.917 122.519 328.725 121.705 328.719C121.121 328.712 120.522 328.803 119.907 328.989C119.292 329.169 118.785 329.402 118.388 329.688L116.226 329.427L117.382 320.034H127.296V322.084H119.32L118.649 327.712H118.761C119.152 327.402 119.643 327.144 120.233 326.939C120.823 326.734 121.438 326.631 122.078 326.631C123.246 326.631 124.286 326.911 125.199 327.47C126.119 328.023 126.839 328.781 127.361 329.744C127.889 330.707 128.153 331.806 128.153 333.042C128.153 334.26 127.88 335.347 127.333 336.304C126.793 337.254 126.047 338.006 125.097 338.559C124.147 339.105 123.066 339.379 121.854 339.379ZM147.472 328.551V330.601H139.123V328.551H147.472ZM158.684 339.118V337.44L164.983 330.545C165.722 329.737 166.331 329.035 166.81 328.439C167.288 327.837 167.642 327.271 167.872 326.743C168.108 326.209 168.226 325.65 168.226 325.066C168.226 324.395 168.064 323.814 167.741 323.323C167.425 322.833 166.99 322.454 166.437 322.187C165.884 321.92 165.263 321.786 164.573 321.786C163.84 321.786 163.2 321.938 162.654 322.243C162.113 322.541 161.694 322.96 161.396 323.5C161.104 324.041 160.958 324.675 160.958 325.401H158.759C158.759 324.283 159.017 323.302 159.532 322.457C160.048 321.612 160.75 320.954 161.638 320.481C162.533 320.009 163.536 319.773 164.648 319.773C165.766 319.773 166.757 320.009 167.62 320.481C168.484 320.954 169.161 321.59 169.652 322.392C170.142 323.193 170.388 324.084 170.388 325.066C170.388 325.768 170.26 326.454 170.006 327.125C169.757 327.79 169.322 328.532 168.701 329.352C168.086 330.166 167.232 331.16 166.139 332.334L161.852 336.919V337.068H170.723V339.118H158.684ZM180.796 339.379C179.392 339.379 178.196 338.997 177.209 338.232C176.221 337.462 175.466 336.347 174.944 334.887C174.422 333.421 174.162 331.651 174.162 329.576C174.162 327.513 174.422 325.752 174.944 324.293C175.472 322.826 176.23 321.708 177.218 320.938C178.212 320.161 179.405 319.773 180.796 319.773C182.188 319.773 183.377 320.161 184.365 320.938C185.359 321.708 186.117 322.826 186.639 324.293C187.167 325.752 187.431 327.513 187.431 329.576C187.431 331.651 187.17 333.421 186.648 334.887C186.126 336.347 185.371 337.462 184.384 338.232C183.396 338.997 182.2 339.379 180.796 339.379ZM180.796 337.329C182.188 337.329 183.268 336.658 184.039 335.316C184.809 333.974 185.194 332.061 185.194 329.576C185.194 327.923 185.017 326.516 184.663 325.355C184.315 324.193 183.812 323.308 183.154 322.699C182.501 322.09 181.715 321.786 180.796 321.786C179.417 321.786 178.339 322.466 177.563 323.827C176.786 325.181 176.398 327.097 176.398 329.576C176.398 331.228 176.572 332.632 176.92 333.788C177.268 334.943 177.768 335.822 178.42 336.425C179.078 337.027 179.87 337.329 180.796 337.329ZM200.7 335.54V334.533C200.7 333.837 200.842 333.201 201.128 332.623C201.42 332.039 201.843 331.573 202.396 331.225C202.955 330.871 203.632 330.694 204.427 330.694C205.234 330.694 205.912 330.871 206.458 331.225C207.005 331.573 207.418 332.039 207.698 332.623C207.977 333.201 208.117 333.837 208.117 334.533V335.54C208.117 336.235 207.974 336.875 207.688 337.459C207.409 338.037 206.992 338.503 206.44 338.857C205.893 339.205 205.222 339.379 204.427 339.379C203.619 339.379 202.939 339.205 202.386 338.857C201.833 338.503 201.414 338.037 201.128 337.459C200.842 336.875 200.7 336.235 200.7 335.54ZM202.601 334.533V335.54C202.601 336.117 202.737 336.636 203.011 337.096C203.284 337.549 203.756 337.776 204.427 337.776C205.079 337.776 205.539 337.549 205.806 337.096C206.079 336.636 206.216 336.117 206.216 335.54V334.533C206.216 333.955 206.085 333.44 205.825 332.986C205.564 332.527 205.098 332.297 204.427 332.297C203.775 332.297 203.306 332.527 203.02 332.986C202.74 333.44 202.601 333.955 202.601 334.533ZM191.195 324.619V323.612C191.195 322.917 191.338 322.28 191.624 321.702C191.916 321.118 192.338 320.652 192.891 320.304C193.45 319.95 194.127 319.773 194.922 319.773C195.73 319.773 196.407 319.95 196.954 320.304C197.5 320.652 197.913 321.118 198.193 321.702C198.473 322.28 198.612 322.917 198.612 323.612V324.619C198.612 325.314 198.469 325.954 198.184 326.538C197.904 327.116 197.488 327.582 196.935 327.936C196.388 328.284 195.718 328.458 194.922 328.458C194.115 328.458 193.435 328.284 192.882 327.936C192.329 327.582 191.91 327.116 191.624 326.538C191.338 325.954 191.195 325.314 191.195 324.619ZM193.096 323.612V324.619C193.096 325.196 193.233 325.715 193.506 326.175C193.779 326.628 194.251 326.855 194.922 326.855C195.575 326.855 196.034 326.628 196.301 326.175C196.575 325.715 196.711 325.196 196.711 324.619V323.612C196.711 323.035 196.581 322.519 196.32 322.065C196.059 321.606 195.593 321.376 194.922 321.376C194.27 321.376 193.801 321.606 193.515 322.065C193.236 322.519 193.096 323.035 193.096 323.612ZM191.903 339.118L205.023 320.034H207.148L194.028 339.118H191.903Z" fill="black"/>
</svg>