<svg width="364" height="381" viewBox="0 0 364 381" fill="none" xmlns="http://www.w3.org/2000/svg">
<g filter="url(#filter0_i_263_139)">
<path d="M192.663 0.49616C191.695 0.870537 188.044 1.76329 184.473 2.43141C180.078 3.1744 176.801 4.29177 174.497 5.78352L171.145 7.94339L170.252 21.421C169.434 32.7387 169.06 35.273 167.867 36.9836C167.05 38.1758 166.376 39.2184 166.376 39.3681C166.376 39.5927 168.236 41.0039 170.471 42.6454L174.566 45.5482V51.5037C174.566 54.7809 174.865 58.5766 175.234 59.9186C175.752 61.5543 175.683 62.9712 175.159 64.1634C174.566 65.5803 174.566 66.2484 175.309 67.1412C176.127 68.1088 176.127 68.6329 175.309 70.1938C174.566 71.4609 174.566 72.2788 175.084 72.7972C176.127 73.8397 180.89 74.8821 184.617 74.957C186.252 74.957 190.422 75.7 193.924 76.5179C197.426 77.4107 202.857 78.1536 206.06 78.2285C211.791 78.3034 211.94 78.3783 214.175 80.9068C220.28 88.0545 220.58 88.2042 223.333 84.0343C224.75 81.7995 225.118 80.6073 224.75 78.7469C224.375 76.9614 224.6 76.1435 225.643 75.3948C226.835 74.502 226.91 74.1277 226.092 72.3422C225.574 71.2997 225.349 70.0325 225.643 69.6639C226.311 68.4717 231.748 66.018 233.608 66.018C235.618 66.018 236.361 63.9331 236.361 58.5708C236.361 56.7104 236.955 55.2187 238.147 53.8824C239.114 52.8399 240.307 50.1617 240.75 48.0767C241.643 44.1313 241.418 43.5323 239.04 42.7145C238.665 42.5647 238.74 41.7468 239.264 40.8541C239.932 39.6618 239.932 38.844 239.339 37.6517C238.821 36.8338 238.671 35.3421 238.89 34.3745C239.264 33.0325 238.815 32.2146 237.029 30.7286C234.351 28.419 232.341 28.2692 229.139 30.2102C226.46 31.9209 225.936 31.6271 225.936 28.4248C225.936 24.9229 224.445 23.5118 220.424 23.0625C217.522 22.6881 216.779 22.2446 215.88 20.5282C215.287 19.4109 214.763 17.251 214.763 15.765C214.763 13.68 214.388 12.937 212.827 12.2631C211.336 11.5202 210.593 11.595 208.807 12.6375C206.423 14.0544 203.894 14.2733 203.22 13.1559C202.921 12.7066 201.435 11.739 199.793 10.9211C197.259 9.57914 196.89 9.06077 196.816 6.60139C196.741 3.09952 195.923 0.271534 195.03 0.0469068C194.581 -0.102844 193.538 0.121782 192.646 0.49616H192.663Z" fill="#6F85FD"/>
</g>
<g filter="url(#filter1_i_263_139)">
<path d="M254.464 38.9938C253.122 40.2609 252.004 41.8218 252.004 42.4957C252.004 44.2063 249.326 45.3236 245.824 45.0299L242.772 44.8053L241.879 48.7506C241.361 50.9854 240.318 53.5139 239.495 54.3375C238.602 55.38 237.859 57.6148 237.559 60.3679C236.966 65.805 235.998 67.7402 234.132 67.1412C233.389 66.9166 231.748 67.2161 230.63 67.8093C226.61 70.0441 226.535 70.0441 227.503 72.204C228.246 73.9146 228.171 74.4387 226.985 75.7807C226.092 76.7484 225.717 78.1652 225.792 79.7261C225.942 81.5116 225.274 83.3028 222.889 86.7989L219.762 91.4873L221.473 94.6148L223.108 97.7423L221.173 100.57C220.131 102.131 219.238 103.773 219.238 104.147C219.238 104.596 220.43 106.082 221.841 107.499C223.402 109.06 224.445 110.851 224.445 111.894C224.445 113.236 225.113 114.054 226.979 114.872C228.764 115.764 229.957 117.181 231.224 119.934L233.009 123.73L236.805 123.505C238.89 123.43 242.835 122.687 245.663 121.944C250.282 120.677 251.025 120.602 254.377 121.57C258.772 122.912 262.418 127.301 262.418 131.327C262.418 133.337 262.792 133.93 264.428 134.604C265.62 135.053 267.106 135.871 267.78 136.539C268.898 137.507 269.491 137.432 274.26 135.122C279.098 132.813 279.472 132.519 279.472 130.284C279.547 128.574 280.066 127.606 281.258 127.007C282.151 126.489 284.535 124.847 286.545 123.286C288.555 121.651 290.64 120.384 291.164 120.384C291.689 120.384 292.95 121.201 293.992 122.244C295.11 123.361 296.746 124.104 298.013 124.104C299.13 124.104 300.472 124.479 300.99 124.997C301.658 125.665 302.258 125.515 303.594 124.254C304.561 123.361 305.529 122.618 305.754 122.618C306.053 122.618 306.946 123.811 307.839 125.222C308.731 126.633 310.891 128.798 312.527 129.985C315.061 131.77 316.029 133.112 317.515 137.133C319.525 142.495 319.974 143.088 322.727 143.837C324.219 144.211 325.187 143.687 327.865 140.934C330.992 137.732 331.067 137.507 330.249 135.347C329.432 133.562 329.506 132.22 330.474 128.05C331.067 125.297 331.367 121.645 331.142 119.934C330.843 117.7 331.142 116.139 332.334 113.829C333.152 112.193 334.345 108.098 334.938 104.821C335.905 99.1592 336.205 98.4911 340.15 93.8776C342.535 91.1245 345.063 87.6226 345.881 86.0617L347.298 83.1589H345.213C344.096 83.1589 342.46 82.6405 341.636 82.0415C340.893 81.4482 339.033 80.9241 337.541 80.9241C335.681 80.9241 333.521 80.1062 330.837 78.2459C326.892 75.6425 326.817 75.6425 324.357 76.7541C321.005 78.3899 319.444 78.2459 315.574 76.0111C312.671 74.3005 311.928 74.1507 310.286 74.8937C307.827 76.0111 306.859 75.1932 304.774 70.1305C303.432 66.9281 302.54 65.8856 299.936 64.6185C297.034 63.1268 296.36 63.0576 292.414 63.8755C288.319 64.6934 287.87 64.6185 284.449 62.7581C282.139 61.5659 279.611 60.8229 277.6 60.8229C274.997 60.8229 273.805 60.3045 271.121 57.9949C269.335 56.434 266.801 54.7176 265.534 54.2741C264.192 53.7558 262.182 53.007 260.99 52.5635C259.054 51.8954 258.605 51.1467 258.012 47.8752C257.563 45.7902 257.119 42.3632 257.044 40.3531L256.82 36.6323L254.435 39.0168L254.464 38.9938Z" fill="#6F85FD"/>
</g>
<g filter="url(#filter2_i_263_139)">
<path d="M160.42 43.0144C157.742 44.5753 153.716 46.4414 151.487 47.1095C149.252 47.7028 144.489 49.6438 140.912 51.3544C135.181 54.0326 134.283 54.7065 133.24 57.235C132.048 60.2876 132.422 61.8542 134.657 63.7895C135.325 64.3079 135.849 64.9817 135.849 65.2064C135.849 66.8421 122.522 71.8357 120.88 70.7932C120.212 70.4189 113.283 69.5261 102.115 68.4836L96.9775 68.0344L94.3741 64.089C91.8399 60.2934 91.8399 60.1436 93.107 58.2833C94.6678 55.8239 94.1495 55.2306 90.5727 55.5301C89.081 55.6799 85.2854 55.8296 82.2327 55.9045C77.0951 55.9794 76.7208 56.0543 77.8381 57.1716C78.5811 57.9146 78.9555 59.1069 78.7309 60.2243C78.1376 63.3517 79.8482 68.0401 82.2327 69.7565C84.9859 71.7666 85.8786 74.7444 86.4776 84.795C86.9269 92.6857 86.9269 92.7606 89.0119 93.6533C91.765 94.7707 91.765 95.7383 88.937 96.7808C86.1839 97.8233 86.109 98.9407 88.6375 100.951C89.9277 101.991 91.1929 102.016 92.4331 101.026C94.5181 99.3899 97.1215 99.5339 104.419 101.544C107.472 102.362 109.182 102.437 111.866 101.918C120.356 100.058 122.216 100.133 124.969 102.512C127.797 105.046 130.556 105.34 133.903 103.629C136.955 101.993 137.998 102.212 138.447 104.522C138.747 105.714 139.19 107.125 139.49 107.724C140.008 108.842 143.734 110.852 146.862 111.819C148.279 112.269 148.498 112.044 148.498 110.109C148.498 108.692 149.241 107.356 150.732 106.014C153.486 103.554 153.56 102.068 151.107 98.7909C150.064 97.3741 149.246 96.1876 149.246 96.1127C149.246 96.1127 151.107 94.7707 153.342 93.2847C156.02 91.5741 158.254 90.6065 159.896 90.6065C163.173 90.6065 165.183 88.3717 166.894 82.8597C167.712 80.1815 168.904 78.0965 169.872 77.3477C170.839 76.7545 171.582 75.9308 171.582 75.4874C171.582 75.0439 172.25 73.2526 173.143 71.542C174.335 69.0077 174.485 68.0401 173.811 66.8536C173.362 65.886 173.293 64.7686 173.662 63.9508C173.961 63.2826 174.111 59.1126 173.961 54.6431L173.662 46.6775L169.417 43.4003L165.172 40.123L160.409 43.0259L160.42 43.0144Z" fill="#BEC8F7"/>
</g>
<g filter="url(#filter3_i_263_139)">
<path d="M173.08 74.8821C173.08 75.7 172.112 77.042 170.92 77.8599C168.092 79.87 167.343 83.5907 169.284 85.6757C170.027 86.5685 170.845 88.6535 171.07 90.439C171.444 93.5665 174.716 99.2225 179.185 104.585C180.377 105.927 181.27 107.488 181.27 108.087C181.27 108.979 182.387 109.204 185.958 109.279C192.363 109.354 195.715 110.621 196.009 113.149C196.234 115.085 196.383 115.159 201.371 115.159C208.444 115.159 208.819 114.935 208.819 110.69C208.819 108.355 209.761 107.015 211.647 106.67C213.138 106.445 215.367 106.22 216.485 106.22C218.195 106.22 218.495 105.921 218.195 104.878C217.896 104.061 218.495 102.344 219.687 100.559L221.697 97.6558L219.987 94.6032C218.57 91.925 218.495 91.2511 219.393 89.84C220.211 88.4231 220.211 88.1293 219.244 87.755C218.65 87.5303 216.49 85.5951 214.48 83.3603L210.834 79.415H206.146C203.612 79.415 198.699 78.7469 195.278 77.9981C191.851 77.1802 186.563 76.2875 183.511 75.988C180.458 75.6885 177.031 75.0204 175.914 74.4962C173.31 73.1542 173.086 73.1542 173.086 74.8706L173.08 74.8821Z" fill="#6F85FD"/>
</g>
<g filter="url(#filter4_i_263_139)">
<path d="M166.825 86.5742C165.932 89.4771 162.73 92.0862 159.977 92.0862C157.223 92.0862 151.487 95.3635 151.487 96.8495C151.487 97.2987 152.005 98.3412 152.604 99.0842C154.465 101.618 154.021 104.965 151.487 106.831L149.327 108.467L149.776 118.149L150.226 127.756L145.387 132.519C141.517 136.315 139.875 137.432 137.497 137.881C134.594 138.331 134.519 138.475 133.995 141.827C133.695 143.762 132.653 146.665 131.685 148.381C130.718 150.017 129.9 152.401 129.9 153.669C129.9 155.529 130.349 156.128 132.952 157.314C135.037 158.207 136.304 159.325 136.823 160.816C137.491 162.901 137.716 162.976 141.068 162.527C144.495 162.078 144.714 162.152 147.023 164.836C148.29 166.397 150.3 169.749 151.567 172.284C152.909 175.112 154.92 177.871 156.705 179.282C158.266 180.549 159.982 182.559 160.426 183.676C161.543 186.355 163.254 186.804 167.648 185.462C169.659 184.869 174.353 184.419 179.116 184.419H187.231L188.867 181.885C189.984 180.249 191.545 179.057 193.337 178.533C195.197 177.94 196.165 177.191 196.165 176.298C196.165 174.662 199.96 171.011 201.677 171.011C204.804 171.011 208.675 169.3 209.124 167.734C210.017 164.307 209.498 160.736 207.263 156.116C205.478 152.321 205.104 150.679 205.403 148.519C205.703 146.659 205.403 144.874 204.585 143.082C203.393 140.548 203.393 140.329 204.66 138.244C205.852 136.234 205.852 135.86 204.81 134.374C203.099 131.989 203.318 131.022 205.777 129.754C208.087 128.487 210.322 124.542 210.322 121.639C210.322 118.212 207.269 116.651 200.496 116.651H194.54L194.84 114.416C195.139 112.556 194.84 112.107 192.979 111.439C191.712 111.064 188.585 110.696 185.981 110.696C181.293 110.696 181.218 110.696 180.176 108.236C179.582 106.819 178.615 105.259 177.941 104.734C175.556 102.724 170.269 93.7162 169.751 90.7385C169.526 89.1027 168.858 87.1617 168.334 86.4187C167.366 85.1516 167.291 85.1516 166.842 86.5685L166.825 86.5742Z" fill="#BEC8F7"/>
</g>
<g filter="url(#filter5_i_263_139)">
<path d="M40.9128 89.4772C40.5384 89.627 38.2346 89.9265 35.925 90.2202C31.755 90.6695 31.6052 90.7386 31.6052 92.8985C31.6052 95.5018 30.413 96.1757 27.6598 95.1332C26.0241 94.4651 25.6497 94.6148 25.2754 95.8013C24.6821 97.6617 24.0082 97.6617 22.2976 95.8013C21.5546 94.9834 20.2126 94.3096 19.245 94.3096C17.5344 94.3096 8.15189 97.8114 3.2389 100.34C0.111409 101.901 -0.337837 102.724 0.186292 106.071L0.560649 108.605L4.80552 108.087C7.85813 107.712 9.79339 107.937 11.7286 108.755C15.8238 110.391 15.1557 111.433 10.018 111.433C5.99779 111.433 5.54853 111.583 5.54853 112.994C5.54853 114.336 5.84803 114.486 7.48377 114.111C8.7509 113.737 10.0871 114.036 11.2045 114.779C14.1823 116.715 13.3644 117.832 8.52627 118.875C6.06689 119.393 3.83789 120.067 3.68814 120.435C3.46351 120.735 4.95526 121.996 6.89051 123.189C9.12526 124.531 10.9108 126.316 11.5098 127.733C12.0281 129 12.7769 130.042 13.1455 130.042C14.3378 130.042 17.016 128.407 17.6899 127.364C18.7324 125.504 22.2343 126.172 23.9449 128.482C25.2869 130.267 26.2545 130.641 29.9752 131.085C33.0279 131.459 34.8134 132.053 35.781 133.095C38.7587 136.372 50.0016 140.467 56.1068 140.467C58.1918 140.467 59.6836 140.986 61.1696 142.253L63.1797 144.038L66.7564 142.028C69.1409 140.686 70.6269 139.2 71.5197 137.265C72.1878 135.773 72.7868 134.512 72.8617 134.512C76.5824 134.287 82.1693 132.577 84.9973 130.866C87.0823 129.599 89.6165 128.556 90.659 128.556C92.1507 128.556 93.1184 127.814 94.5295 125.579C95.7218 123.718 96.9889 122.601 97.8816 122.601C100.116 122.601 100.341 121.184 98.6995 116.646C97.3575 113 97.3575 112.326 98.3251 110.915C99.0681 109.648 99.2179 108.087 98.9184 105.109C98.4691 101.388 98.2502 101.014 96.6087 101.014C95.5662 101.014 93.9305 101.682 92.888 102.506C90.6532 104.216 89.0924 103.698 86.5581 100.271C85.1412 98.2607 84.4731 98.0361 81.0461 98.0361C78.5868 98.0361 76.8762 97.6617 76.2829 96.9187C75.5399 96.0259 75.1655 96.0259 73.6047 96.9936C72.3375 97.8863 71.0013 98.0361 69.0603 97.7366C63.3985 96.6941 61.0198 97.1433 57.1493 99.9713C55.5136 101.164 55.3638 101.089 53.0542 98.6293C51.7122 97.2124 49.4083 94.7588 47.9915 93.0425C45.607 90.2145 42.8538 88.8724 40.9186 89.4657L40.9128 89.4772Z" fill="#6F85FD"/>
</g>
<g filter="url(#filter6_i_263_139)">
<path d="M120.212 101.762C118.277 102.955 106.51 103.398 103.233 102.431C101.522 101.912 99.9554 101.688 99.8056 101.837C99.6559 101.987 99.8056 103.773 100.105 105.858C100.554 108.611 100.405 110.028 99.5867 111.444C98.6191 113.155 98.6191 113.679 100.036 117.25C101.971 122.088 101.971 123.355 100.186 123.355C97.5824 123.355 96.3153 124.248 94.8235 127.151C93.6313 129.61 93.038 130.054 91.0279 130.054C89.7608 130.054 87.1574 130.947 85.297 132.064C83.4367 133.181 80.0097 134.449 77.7749 134.892C74.1982 135.635 73.4552 136.084 72.1132 138.538C71.1456 140.174 69.2852 141.965 67.2751 143.007C65.4896 143.975 63.2548 145.761 62.2872 147.028L60.5017 149.337L63.5543 151.273L66.5321 153.283L68.5422 151.722C70.4775 150.161 73.5301 149.712 75.8397 150.604C77.7749 151.347 77.1817 152.315 74.4228 152.839C71.8194 153.288 70.9209 154.031 70.1031 156.266C69.7287 157.234 70.2528 157.902 71.8137 158.726C73.5243 159.618 74.0484 160.361 74.0484 162.078C74.0484 163.27 73.5301 164.681 72.9311 165.355C71.2953 166.916 71.5142 167.59 74.5668 172.353C76.1277 174.663 78.0687 177.94 78.8865 179.575C80.1537 181.96 81.5648 183.077 86.0343 185.381C89.0869 186.942 93.0323 188.434 94.7487 188.658C97.5018 189.033 98.1008 188.883 99.1433 187.466L100.261 185.83L101.896 187.322C103.457 188.814 103.607 188.814 107.408 187.622C110.835 186.504 111.279 186.13 110.985 184.719C110.761 183.901 110.242 180.774 109.793 177.796C109.344 174.444 108.232 170.873 106.815 168.264C104.356 163.719 104.356 162.083 106.74 162.083C107.558 162.083 109.274 161.116 110.536 159.924C113.07 157.614 117.758 156.571 121.704 157.32C125.35 158.063 128.333 156.427 128.777 153.225C129.076 151.733 130.044 148.83 131.086 146.82C132.054 144.735 132.872 141.832 132.872 140.266C132.872 137.588 132.947 137.513 136.074 137.063C138.608 136.614 140.094 135.647 144.115 131.626L149.103 126.713L148.728 119.94L148.354 113.092L145.969 112.642C140.907 111.675 137.33 108.547 137.33 105.12C137.33 103.704 135.988 103.778 133.609 105.12C130.631 106.831 128.097 106.462 124.526 103.703C122.366 102.068 120.88 101.394 120.206 101.768L120.212 101.762Z" fill="#6F85FD"/>
</g>
<g filter="url(#filter7_i_263_139)">
<path d="M210.31 110.995C210.31 113.006 209.861 114.572 209.193 115.165C208.15 116.058 208.225 116.283 209.567 117.769C211.203 119.554 211.577 123.874 210.235 126.552C209.786 127.445 208.375 129.086 207.183 130.129L204.873 132.064L206.29 134.374C207.632 136.683 207.632 136.758 206.065 138.394C204.648 139.955 204.574 140.254 205.472 141.971C206.065 143.013 206.515 145.548 206.589 147.633C206.589 150.236 207.258 152.92 208.674 155.823C210.235 159.25 210.685 161.335 210.685 165.13C210.685 168.333 211.059 170.568 211.877 171.76C212.919 173.396 213.219 173.47 215.379 172.578C217.688 171.61 220.741 172.059 220.741 173.321C220.741 174.738 222.008 173.914 222.901 171.979L223.868 169.894L225.429 171.904C226.322 173.021 228.033 175.256 229.15 176.967C230.267 178.677 232.203 180.394 233.395 180.762C234.737 181.281 235.779 182.323 236.298 183.815C237.49 187.092 237.34 187.76 235.105 190.369C233.17 192.754 233.17 192.829 234.587 193.871C235.555 194.614 236.897 194.764 238.982 194.39C242.852 193.796 244.344 192.973 244.937 191.112C245.312 189.995 246.055 189.62 247.84 189.62C249.107 189.62 250.668 189.171 251.192 188.653C251.935 187.91 252.459 188.135 253.87 189.845L255.656 191.855L256.698 189.845C257.292 188.653 258.04 186.268 258.334 184.408C258.628 182.548 259.227 180.831 259.601 180.612C259.976 180.388 262.136 180.612 264.439 181.131C267.792 181.874 269.203 182.692 271.662 185.451C273.697 187.635 276.75 188.876 280.82 189.171L286.925 189.62L289.235 185.75C290.427 183.59 291.469 180.987 291.469 180.019C291.469 178.752 292.662 177.041 295.115 174.807C299.285 170.861 300.403 169.001 300.403 165.948C300.403 163.489 301.37 162.446 304.273 161.703C305.615 161.329 307.101 159.843 308.743 157.384C310.085 155.224 312.319 152.246 313.731 150.679L316.19 147.926H314.255C311.87 147.926 311.72 146.365 313.88 143.307C314.923 141.89 315.965 141.222 316.783 141.447C317.901 141.746 317.826 141.222 316.19 136.977C314.629 133.182 313.731 131.914 311.502 130.647C309.941 129.829 308.149 127.969 307.406 126.627C305.771 123.649 305.396 123.574 303.905 125.734C302.862 127.445 302.787 127.445 300.552 126.109C299.285 125.441 297.425 124.842 296.308 124.842C295.04 124.842 293.773 124.173 292.881 123.056L291.464 121.196L285.877 125.066C281.189 128.343 280.365 129.236 280.29 131.171C280.215 133.182 279.697 133.706 274.559 136.234C268.972 138.987 268.897 139.062 267.337 137.651C266.519 136.908 264.658 135.791 263.391 135.267C261.231 134.449 260.932 133.999 260.932 131.69C260.932 127.894 258.472 124.392 254.677 122.975C251.549 121.783 251.1 121.783 245.219 123.2C236.805 125.21 233.902 125.659 232.934 124.986C232.485 124.686 231.223 122.751 230.181 120.666C228.839 118.063 227.578 116.571 226.011 115.903C224.225 115.16 223.701 114.486 223.701 112.925C223.701 109.498 220.724 107.712 215.062 107.712H210.299V110.99L210.31 110.995Z" fill="#6F85FD"/>
</g>
<g filter="url(#filter8_i_263_139)">
<path d="M127.285 157.758C126.467 158.277 123.04 158.651 119.688 158.726C114.101 158.726 113.433 158.876 111.497 160.736C110.38 161.853 108.52 162.896 107.477 163.195L105.542 163.645L108.001 168.264C109.637 171.391 110.68 174.743 111.204 178.539C111.653 181.592 112.171 184.719 112.471 185.387C112.845 186.355 112.321 186.948 110.461 187.697C106.366 189.408 102.495 189.932 101.228 188.889C100.41 188.221 99.8111 188.739 98.2502 191.942C96.3149 195.663 96.315 195.962 97.4323 198.347C99.2178 202.142 98.9932 206.462 96.7642 208.697C94.3048 211.156 95.1285 213.091 100.341 216.662C102.651 218.223 105.628 221.282 107.114 223.367C109.199 226.569 109.793 228.205 110.167 232.599C110.541 236.395 110.466 238.036 109.867 238.036C109.418 238.036 108.75 237.293 108.376 236.326C105.916 230.146 104.799 228.136 101.602 225.008L98.0256 221.431L97.5763 224.709C95.7908 239.972 94.8981 249.429 94.8981 252.856C94.8981 255.091 94.3797 261.271 93.7807 266.633C93.1875 271.995 92.2889 279.218 91.9203 282.714C91.546 286.216 90.1348 292.171 88.7928 296.042C86.7078 301.997 86.0397 303.265 83.9547 304.532C82.6127 305.275 81.4954 306.167 81.4954 306.467C81.4954 307.435 86.7079 309.52 89.0175 309.52C91.3271 309.52 91.3271 309.594 91.0276 312.348C90.803 313.839 90.4344 315.625 90.1349 316.293C89.3919 318.004 91.8455 318.827 92.9628 317.261C93.7807 316.218 94.23 316.293 97.4323 318.303C99.3676 319.57 102.57 320.981 104.655 321.431C107.483 322.099 108.825 322.991 110.61 325.226C112.621 327.829 113.214 328.129 116.197 328.129H119.475V324.483C119.475 321.88 119.993 320.238 121.335 318.378C127.964 309.145 128.707 302.965 123.42 299.763L120.886 298.202L121.11 291.797C121.335 285.842 121.485 285.392 123.42 283.906C125.131 282.639 125.73 282.564 126.922 283.313C128.857 284.505 129.157 284.43 129.157 283.088C129.157 282.42 129.9 281.672 130.867 281.303C133.027 280.485 140.993 278.993 143.452 278.993C144.719 278.993 146.355 277.951 148.44 275.641C151.418 272.439 151.567 272.064 151.118 268.937C150.6 265.809 150.669 265.66 152.679 265.435C154.689 265.21 154.839 264.986 154.614 262.532C154.39 260.372 154.914 259.18 157.292 256.202C158.928 254.192 161.088 251.733 162.205 250.765C163.622 249.423 164.141 248.231 164.141 246.221C164.141 240.709 170.545 238.106 174.116 242.276C175.827 244.211 175.827 244.286 178.511 243.019C179.928 242.35 181.639 241.751 182.307 241.751C183.724 241.751 184.985 239.517 184.985 236.764C184.985 233.411 189.454 226.713 192.657 225.071C194.817 224.029 195.335 223.436 194.966 222.468C194.667 221.8 194.373 219.191 194.298 216.662C194.298 213.46 193.849 211.674 192.956 210.632C191.246 208.772 191.321 208.472 194.298 205.195L196.833 202.367L195.341 196.93C194.523 193.952 193.406 191.343 192.956 191.199C192.438 191.049 190.796 189.638 189.31 188.071C186.557 185.168 186.482 185.168 180.746 185.168C177.543 185.168 172.63 185.687 169.728 186.286C162.205 187.922 161.313 187.778 159.827 185.094C159.159 183.826 157.292 181.517 155.657 180.031C154.096 178.539 151.786 175.342 150.594 172.883C149.327 170.424 147.466 167.296 146.424 166.035C144.713 163.725 144.339 163.576 140.469 163.8C136.598 163.95 136.299 163.8 135.849 162.09C135.625 160.972 134.214 159.555 132.497 158.588C129.07 156.652 129.22 156.652 127.285 157.77V157.758Z" fill="#2442E2"/>
</g>
<g filter="url(#filter9_i_263_139)">
<path d="M203.831 171.679C200.11 172.347 197.65 174.282 197.65 176.667C197.65 178.083 197.057 178.527 194.748 179.201C191.246 180.094 188.343 183.595 189.086 185.905C189.385 186.723 190.796 188.215 192.288 189.257C194.523 190.818 195.266 191.935 196.308 195.737C198.094 202.067 198.019 203.184 195.416 205.638C192.881 208.097 192.663 209.14 194.373 210.551C195.266 211.294 195.491 212.336 195.116 214.721C194.892 216.656 195.116 219.04 195.784 220.976C197.051 224.478 196.977 224.696 193.699 225.814C191.096 226.707 186.477 233.411 186.477 236.389C186.477 237.281 186.027 239.142 185.434 240.558C184.616 242.569 184.616 243.237 185.434 244.803C185.953 245.771 186.477 247.556 186.477 248.824C186.552 253.443 187.145 254.41 190.197 254.41C192.876 254.41 193.175 254.111 195.335 250.39C197.57 246.445 200.023 243.985 201.89 243.985C202.408 243.985 203.675 245.327 204.718 246.963C206.877 250.315 207.845 250.684 208.513 248.23C208.813 247.113 210.598 245.771 214.1 244.06C216.928 242.643 219.387 241.676 219.537 241.826C219.687 241.975 220.355 243.243 221.029 244.504C222.071 246.664 222.521 246.888 224.531 246.439C226.466 246.065 227.209 246.439 229.743 248.898C231.379 250.459 232.646 252.475 232.646 253.368C232.646 255.004 235.624 263.493 237.484 267.07C238.976 269.973 240.687 270.422 242.846 268.412L244.632 266.702L248.877 268.262C252.079 269.455 253.496 269.604 254.389 269.005C255.356 268.412 256.025 268.556 257.142 269.599C259.152 271.459 260.344 270.491 259.745 267.364C259.296 264.979 259.446 264.83 261.237 264.83C263.247 264.83 263.472 265.054 264.215 268.7C264.589 270.336 265.332 270.935 267.792 271.603C269.502 272.052 272.036 273.164 273.453 274.137C278.291 277.415 280.975 273.469 276.506 269.743C273.828 267.433 272.261 263.038 273.678 261.403C274.127 260.809 275.463 260.36 276.656 260.36C278.516 260.36 278.741 260.061 278.965 257.607C279.115 255.522 279.633 254.554 280.901 253.961C281.868 253.512 283.729 252.101 284.996 250.834C287.38 248.524 291.625 246.963 295.421 246.963C296.538 246.963 297.431 246.589 297.431 246.145C297.431 244.51 295.87 242.499 294.528 242.499C292.443 242.499 292.218 241.757 293.56 238.998C294.678 236.613 294.977 236.463 297.431 236.763C298.848 236.988 300.933 237.356 301.975 237.656C303.392 238.03 305.552 237.356 310.39 235.052C317.019 231.85 318.505 230.433 319.398 226.413C319.773 224.328 319.548 223.879 317.238 222.542C315.378 221.425 314.56 220.457 314.56 219.19C314.56 218.223 313.592 216.362 312.325 215.095C309.198 211.818 309.348 209.214 312.844 206.312C315.447 204.077 315.597 203.852 314.704 201.917C314.186 200.8 312.919 199.164 311.876 198.34C310.24 197.073 310.016 196.48 310.384 194.095C310.609 192.534 310.459 190.225 310.01 188.958C309.465 187.418 307.38 186.648 303.755 186.648H298.318L297.799 189.776C296.832 195.656 295.121 197.223 290.502 196.405L287.674 195.956L290.352 191.561C291.769 189.177 292.737 186.942 292.512 186.573C291.694 185.231 290.352 185.98 288.642 188.583C287.081 191.043 286.781 191.118 284.172 190.593C282.68 190.294 279.852 190.075 277.917 190.144C274.715 190.219 274.196 189.994 271.069 186.642C268.609 184.039 266.824 182.922 264.221 182.248C260.35 181.28 259.457 181.729 259.457 185.001C259.457 185.968 259.008 187.829 258.415 189.096C257.822 190.438 257.223 192.074 256.923 192.742C256.33 194.752 255.138 194.378 253.87 191.774C252.978 190.064 252.31 189.614 251.411 189.989C250.743 190.288 249.326 190.732 248.358 190.956C247.316 191.181 245.824 192.074 245.006 192.966C242.697 195.501 237.409 196.543 234.357 195.051C231.454 193.709 231.229 192.223 233.763 190.213C236.891 187.754 235.998 183.14 232.053 181.499C230.786 180.981 228.701 178.821 226.99 176.137L224.087 171.592L223.195 173.902C222.077 176.58 221.409 176.73 220.142 174.72C219.099 173.009 216.94 172.785 214.78 174.127C213.587 174.944 213.069 174.72 211.203 173.009C209.043 170.924 208.893 170.849 203.831 171.667V171.679Z" fill="#130552"/>
</g>
<g filter="url(#filter10_i_263_139)">
<path d="M294.522 239.366C293.779 240.708 294.004 241.077 295.715 241.901C297.949 243.018 299.435 246.888 297.949 247.856C297.431 248.156 295.789 248.449 294.303 248.449C290.658 248.449 287.824 249.567 285.146 252.095C283.953 253.287 282.243 254.555 281.425 254.998C280.307 255.591 279.933 256.559 279.933 258.644C279.933 261.397 279.858 261.472 277.18 261.697C274.721 261.921 274.352 262.146 274.352 263.856C274.352 265.049 275.245 266.609 276.886 268.101C280.163 271.229 280.832 273.464 279.121 275.324C277.485 277.184 276.443 277.109 272.198 274.949C270.338 273.982 267.51 272.64 266.018 271.972C263.633 271.004 263.19 270.48 263.19 268.545C263.19 266.759 262.89 266.31 261.698 266.31C260.356 266.31 260.281 266.535 261.03 267.871C261.698 269.213 261.548 269.731 260.287 270.998C258.795 272.49 258.726 272.49 257.309 271.223C256.491 270.48 255.299 270.031 254.631 270.33C253.214 270.849 253.663 273.308 256.192 278.371C258.427 282.765 258.427 283.284 256.117 283.883C254.7 284.257 254.182 285 253.807 287.085C252.69 293.789 252.465 294.233 249.937 294.457C248.151 294.607 247.259 295.275 246.435 296.842C245.842 298.034 244.649 299.445 243.832 300.044C242.34 301.087 242.415 301.087 244.281 301.905C246.884 303.172 247.184 303.022 248.151 300.937C248.894 299.301 249.269 299.152 250.536 299.82C251.653 300.413 252.028 301.381 252.028 303.915C252.028 307.117 252.102 307.267 254.187 307.267C255.38 307.267 256.722 306.749 257.24 306.15C258.507 304.658 261.71 304.733 263.944 306.299C264.987 307.042 267.147 307.641 268.782 307.641C271.386 307.641 271.76 307.866 271.985 309.502C272.359 312.18 273.102 312.779 277.716 314.415C280.025 315.158 282.404 316.35 283.078 317.093C283.971 318.061 284.495 318.21 285.537 317.467C286.505 316.874 287.398 316.874 288.665 317.467C289.632 317.842 291.049 317.986 291.867 317.617C292.685 317.318 294.401 317.024 295.663 317.024C296.93 316.949 298.416 316.431 299.015 315.757C299.533 315.089 301.175 314.046 302.592 313.372C304.677 312.33 305.345 311.437 306.019 309.052C306.911 305.257 308.328 303.54 310.413 303.54C311.456 303.54 313.391 301.98 315.85 299.146C318.16 296.542 321.656 293.709 324.415 292.148C327.018 290.731 329.034 289.245 328.959 288.945C328.884 288.571 328.66 287.753 328.366 287.085C328.067 286.342 329.034 284.482 330.969 282.022C333.504 278.82 333.872 278.002 333.204 276.735C332.237 275.024 332.311 275.024 328.735 276.067C326.2 276.885 325.607 276.66 320.17 273.757C315.701 271.298 314.215 269.962 313.397 268.095C311.836 264.45 312.13 260.648 314.29 255.885C316.749 250.373 316.524 248.363 313.322 247.545C311.536 247.096 310.269 245.909 308.484 243.076C306.399 239.873 305.656 239.28 303.421 239.055C302.004 238.906 299.625 238.606 298.059 238.387C295.824 237.938 295.231 238.088 294.557 239.355L294.522 239.366Z" fill="#BEC8F7"/>
</g>
<g filter="url(#filter11_i_263_139)">
<path d="M166.226 243.387C165.777 244.354 165.408 245.846 165.558 246.814C165.708 248.006 164.74 249.642 162.505 252.026C156.25 258.8 155.058 260.666 155.951 262.97C156.918 265.429 156.544 266.022 153.716 266.546C151.706 266.996 151.556 267.214 152.224 268.931C153.342 271.759 153.267 271.759 149.172 276.303C146.269 279.506 144.852 280.473 143.216 280.473C140.163 280.473 130.631 282.184 130.631 282.708C130.631 282.933 130.182 283.825 129.589 284.568C128.621 285.91 128.471 285.985 127.129 284.793C125.862 283.676 125.638 283.676 124.077 284.943C122.735 286.06 122.291 287.402 121.917 291.273L121.468 296.26L124.52 299.088C127.498 301.767 127.648 302.141 127.648 306.086C127.648 310.631 126.53 313.384 122.959 317.853C121.399 319.864 120.65 321.724 120.356 324.333C120.156 326.814 121.001 328.451 122.89 329.246C124.382 329.839 126.168 330.807 126.761 331.256C127.878 332.224 141.655 332.892 144.633 332.224C146.125 331.849 146.269 331.481 145.825 329.246C145.376 326.787 145.451 326.643 147.461 326.643C148.653 326.643 151.781 327.685 154.459 328.952C157.661 330.513 160.34 331.262 162.35 331.187C164.884 331.112 165.627 331.487 167.038 333.422C168.38 335.207 169.198 335.657 170.615 335.357C173.218 334.839 177.688 336.325 177.169 337.592C176.945 338.11 176.576 339.084 176.351 339.677C176.052 340.42 176.576 340.869 178.062 341.169C181.19 341.837 182.307 342.585 183.349 344.745L184.317 346.681L187.295 345.12C190.198 343.628 190.347 343.628 193.101 344.895C196.453 346.387 198.762 346.087 204.868 343.259C207.402 342.067 209.556 341.549 210.673 341.842C211.864 342.142 212.111 341.422 211.416 339.683C210.823 338.266 210.299 336.106 210.299 334.844C210.299 333.652 209.925 331.124 209.406 329.332C207.546 322.409 211.192 314.363 217.821 311.017C219.313 310.199 221.323 308.557 222.216 307.371C223.558 305.436 234.95 296.871 236.142 296.871C236.367 296.871 237.484 297.539 238.677 298.432C241.43 300.367 243.515 299.774 245.156 296.422C245.899 294.786 247.017 293.669 248.284 293.444C249.326 293.219 250.444 292.926 250.887 292.851C251.262 292.776 251.93 290.691 252.379 288.306C253.047 284.361 253.571 283.618 256.324 282.201C256.474 282.201 256.025 281.009 255.282 279.598C254.539 278.256 253.571 275.802 253.122 274.161C252.454 271.926 251.561 270.883 249.695 269.916C246.268 268.205 244.632 268.28 242.547 270.215L240.837 271.851L238.826 270.29C236.592 268.654 231.978 258.448 231.903 255.027C231.903 252.349 226.99 246.687 225.274 247.43C221.922 248.772 221.478 248.697 220.361 245.938C219.019 242.886 218.426 242.661 215.523 244.746C214.406 245.564 212.62 246.532 211.503 246.981C210.31 247.43 209.567 248.248 209.567 249.216C209.567 252.861 205.472 251.301 203.088 246.756L201.97 244.596L200.11 246.307C199.068 247.275 197.132 249.809 195.79 251.969C193.331 255.689 193.187 255.764 190.059 255.545C188.274 255.396 186.632 255.246 186.339 255.246C185.964 255.171 185.745 253.754 185.671 251.969C185.596 244.821 182.693 241.693 178.673 244.297C176.213 245.933 175.395 245.789 173.685 243.629C171.749 241.094 167.579 241.025 166.237 243.404L166.226 243.387Z" fill="#2442E2"/>
</g>
<g filter="url(#filter12_i_263_139)">
<path d="M357.366 317.099C357.066 317.323 356.847 320.001 356.847 323.054V328.491H354.538C353.271 328.491 349.994 329.683 347.24 331.094C341.285 334.222 338.526 338.092 339.2 342.262C339.425 343.823 339.2 345.24 338.607 346.133C336.971 348.218 337.265 351.57 339.425 354.323L341.36 356.857L339.649 358.493L337.864 360.129L340.692 360.354C342.183 360.503 343.445 360.728 343.445 360.872C343.445 361.016 342.702 362.433 341.809 363.925C340.248 366.603 340.248 366.753 341.51 367.501C342.253 367.951 343.595 368.843 344.487 369.586C345.979 370.704 345.979 370.853 344.712 372.19C343.151 373.975 343.076 374.649 344.562 374.649C346.198 374.649 352.603 378.001 353.87 379.487C354.688 380.53 354.987 380.155 356.179 376.734C356.922 374.574 357.89 372.19 358.339 371.447C358.789 370.779 359.307 368.095 359.532 365.491C359.756 362.957 360.649 358.718 361.542 356.034C363.402 350.078 363.477 335.858 361.617 330.57C361.023 328.785 360.574 325.358 360.649 322.824C360.724 320.289 360.574 317.911 360.275 317.461C359.681 316.494 358.115 316.269 357.372 317.087L357.366 317.099Z" fill="#FEF3F4"/>
</g>
<path d="M357.366 317.099C357.066 317.323 356.847 320.001 356.847 323.054V328.491H354.538C353.271 328.491 349.994 329.683 347.24 331.094C341.285 334.222 338.526 338.092 339.2 342.262C339.425 343.823 339.2 345.24 338.607 346.133C336.971 348.218 337.265 351.57 339.425 354.323L341.36 356.857L339.649 358.493L337.864 360.129L340.692 360.354C342.183 360.503 343.445 360.728 343.445 360.872C343.445 361.016 342.702 362.433 341.809 363.925C340.248 366.603 340.248 366.753 341.51 367.501C342.253 367.951 343.595 368.843 344.487 369.586C345.979 370.704 345.979 370.853 344.712 372.19C343.151 373.975 343.076 374.649 344.562 374.649C346.198 374.649 352.603 378.001 353.87 379.487C354.688 380.53 354.987 380.155 356.179 376.734C356.922 374.574 357.89 372.19 358.339 371.447C358.789 370.779 359.307 368.095 359.532 365.491C359.756 362.957 360.649 358.718 361.542 356.034C363.402 350.078 363.477 335.858 361.617 330.57C361.023 328.785 360.574 325.358 360.649 322.824C360.724 320.289 360.574 317.911 360.275 317.461C359.681 316.494 358.115 316.269 357.372 317.087L357.366 317.099Z" stroke="black" stroke-width="0.287983" stroke-miterlimit="10"/>
<defs>
<filter id="filter0_i_263_139" x="166.376" y="0" width="74.8569" height="90.8047" filterUnits="userSpaceOnUse" color-interpolation-filters="sRGB">
<feFlood flood-opacity="0" result="BackgroundImageFix"/>
<feBlend mode="normal" in="SourceGraphic" in2="BackgroundImageFix" result="shape"/>
<feColorMatrix in="SourceAlpha" type="matrix" values="0 0 0 0 0 0 0 0 0 0 0 0 0 0 0 0 0 0 127 0" result="hardAlpha"/>
<feOffset dy="8"/>
<feGaussianBlur stdDeviation="2"/>
<feComposite in2="hardAlpha" operator="arithmetic" k2="-1" k3="1"/>
<feColorMatrix type="matrix" values="0 0 0 0 0 0 0 0 0 0 0 0 0 0 0 0 0 0 0.25 0"/>
<feBlend mode="normal" in2="shape" result="effect1_innerShadow_263_139"/>
</filter>
<filter id="filter1_i_263_139" x="219.238" y="36.6323" width="128.06" height="111.312" filterUnits="userSpaceOnUse" color-interpolation-filters="sRGB">
<feFlood flood-opacity="0" result="BackgroundImageFix"/>
<feBlend mode="normal" in="SourceGraphic" in2="BackgroundImageFix" result="shape"/>
<feColorMatrix in="SourceAlpha" type="matrix" values="0 0 0 0 0 0 0 0 0 0 0 0 0 0 0 0 0 0 127 0" result="hardAlpha"/>
<feOffset dy="8"/>
<feGaussianBlur stdDeviation="2"/>
<feComposite in2="hardAlpha" operator="arithmetic" k2="-1" k3="1"/>
<feColorMatrix type="matrix" values="0 0 0 0 0 0 0 0 0 0 0 0 0 0 0 0 0 0 0.25 0"/>
<feBlend mode="normal" in2="shape" result="effect1_innerShadow_263_139"/>
</filter>
<filter id="filter2_i_263_139" x="77.322" y="40.123" width="96.8889" height="75.8926" filterUnits="userSpaceOnUse" color-interpolation-filters="sRGB">
<feFlood flood-opacity="0" result="BackgroundImageFix"/>
<feBlend mode="normal" in="SourceGraphic" in2="BackgroundImageFix" result="shape"/>
<feColorMatrix in="SourceAlpha" type="matrix" values="0 0 0 0 0 0 0 0 0 0 0 0 0 0 0 0 0 0 127 0" result="hardAlpha"/>
<feOffset dy="8"/>
<feGaussianBlur stdDeviation="2"/>
<feComposite in2="hardAlpha" operator="arithmetic" k2="-1" k3="1"/>
<feColorMatrix type="matrix" values="0 0 0 0 0 0 0 0 0 0 0 0 0 0 0 0 0 0 0.25 0"/>
<feBlend mode="normal" in2="shape" result="effect1_innerShadow_263_139"/>
</filter>
<filter id="filter3_i_263_139" x="168.203" y="73.5322" width="53.4939" height="45.6274" filterUnits="userSpaceOnUse" color-interpolation-filters="sRGB">
<feFlood flood-opacity="0" result="BackgroundImageFix"/>
<feBlend mode="normal" in="SourceGraphic" in2="BackgroundImageFix" result="shape"/>
<feColorMatrix in="SourceAlpha" type="matrix" values="0 0 0 0 0 0 0 0 0 0 0 0 0 0 0 0 0 0 127 0" result="hardAlpha"/>
<feOffset dy="8"/>
<feGaussianBlur stdDeviation="2"/>
<feComposite in2="hardAlpha" operator="arithmetic" k2="-1" k3="1"/>
<feColorMatrix type="matrix" values="0 0 0 0 0 0 0 0 0 0 0 0 0 0 0 0 0 0 0.25 0"/>
<feBlend mode="normal" in2="shape" result="effect1_innerShadow_263_139"/>
</filter>
<filter id="filter4_i_263_139" x="129.9" y="85.4863" width="80.4221" height="104.708" filterUnits="userSpaceOnUse" color-interpolation-filters="sRGB">
<feFlood flood-opacity="0" result="BackgroundImageFix"/>
<feBlend mode="normal" in="SourceGraphic" in2="BackgroundImageFix" result="shape"/>
<feColorMatrix in="SourceAlpha" type="matrix" values="0 0 0 0 0 0 0 0 0 0 0 0 0 0 0 0 0 0 127 0" result="hardAlpha"/>
<feOffset dy="8"/>
<feGaussianBlur stdDeviation="2"/>
<feComposite in2="hardAlpha" operator="arithmetic" k2="-1" k3="1"/>
<feColorMatrix type="matrix" values="0 0 0 0 0 0 0 0 0 0 0 0 0 0 0 0 0 0 0.25 0"/>
<feBlend mode="normal" in2="shape" result="effect1_innerShadow_263_139"/>
</filter>
<filter id="filter5_i_263_139" x="-0.000244141" y="89.3276" width="99.7708" height="58.7109" filterUnits="userSpaceOnUse" color-interpolation-filters="sRGB">
<feFlood flood-opacity="0" result="BackgroundImageFix"/>
<feBlend mode="normal" in="SourceGraphic" in2="BackgroundImageFix" result="shape"/>
<feColorMatrix in="SourceAlpha" type="matrix" values="0 0 0 0 0 0 0 0 0 0 0 0 0 0 0 0 0 0 127 0" result="hardAlpha"/>
<feOffset dy="8"/>
<feGaussianBlur stdDeviation="2"/>
<feComposite in2="hardAlpha" operator="arithmetic" k2="-1" k3="1"/>
<feColorMatrix type="matrix" values="0 0 0 0 0 0 0 0 0 0 0 0 0 0 0 0 0 0 0.25 0"/>
<feBlend mode="normal" in2="shape" result="effect1_innerShadow_263_139"/>
</filter>
<filter id="filter6_i_263_139" x="60.5017" y="101.667" width="88.6008" height="91.1665" filterUnits="userSpaceOnUse" color-interpolation-filters="sRGB">
<feFlood flood-opacity="0" result="BackgroundImageFix"/>
<feBlend mode="normal" in="SourceGraphic" in2="BackgroundImageFix" result="shape"/>
<feColorMatrix in="SourceAlpha" type="matrix" values="0 0 0 0 0 0 0 0 0 0 0 0 0 0 0 0 0 0 127 0" result="hardAlpha"/>
<feOffset dy="8"/>
<feGaussianBlur stdDeviation="2"/>
<feComposite in2="hardAlpha" operator="arithmetic" k2="-1" k3="1"/>
<feColorMatrix type="matrix" values="0 0 0 0 0 0 0 0 0 0 0 0 0 0 0 0 0 0 0.25 0"/>
<feBlend mode="normal" in2="shape" result="effect1_innerShadow_263_139"/>
</filter>
<filter id="filter7_i_263_139" x="204.873" y="107.712" width="112.661" height="90.8745" filterUnits="userSpaceOnUse" color-interpolation-filters="sRGB">
<feFlood flood-opacity="0" result="BackgroundImageFix"/>
<feBlend mode="normal" in="SourceGraphic" in2="BackgroundImageFix" result="shape"/>
<feColorMatrix in="SourceAlpha" type="matrix" values="0 0 0 0 0 0 0 0 0 0 0 0 0 0 0 0 0 0 127 0" result="hardAlpha"/>
<feOffset dy="8"/>
<feGaussianBlur stdDeviation="2"/>
<feComposite in2="hardAlpha" operator="arithmetic" k2="-1" k3="1"/>
<feColorMatrix type="matrix" values="0 0 0 0 0 0 0 0 0 0 0 0 0 0 0 0 0 0 0.25 0"/>
<feBlend mode="normal" in2="shape" result="effect1_innerShadow_263_139"/>
</filter>
<filter id="filter8_i_263_139" x="81.4954" y="157.013" width="115.337" height="175.116" filterUnits="userSpaceOnUse" color-interpolation-filters="sRGB">
<feFlood flood-opacity="0" result="BackgroundImageFix"/>
<feBlend mode="normal" in="SourceGraphic" in2="BackgroundImageFix" result="shape"/>
<feColorMatrix in="SourceAlpha" type="matrix" values="0 0 0 0 0 0 0 0 0 0 0 0 0 0 0 0 0 0 127 0" result="hardAlpha"/>
<feOffset dy="8"/>
<feGaussianBlur stdDeviation="2"/>
<feComposite in2="hardAlpha" operator="arithmetic" k2="-1" k3="1"/>
<feColorMatrix type="matrix" values="0 0 0 0 0 0 0 0 0 0 0 0 0 0 0 0 0 0 0.25 0"/>
<feBlend mode="normal" in2="shape" result="effect1_innerShadow_263_139"/>
</filter>
<filter id="filter9_i_263_139" x="184.821" y="171.183" width="134.723" height="108.177" filterUnits="userSpaceOnUse" color-interpolation-filters="sRGB">
<feFlood flood-opacity="0" result="BackgroundImageFix"/>
<feBlend mode="normal" in="SourceGraphic" in2="BackgroundImageFix" result="shape"/>
<feColorMatrix in="SourceAlpha" type="matrix" values="0 0 0 0 0 0 0 0 0 0 0 0 0 0 0 0 0 0 127 0" result="hardAlpha"/>
<feOffset dy="8"/>
<feGaussianBlur stdDeviation="2"/>
<feComposite in2="hardAlpha" operator="arithmetic" k2="-1" k3="1"/>
<feColorMatrix type="matrix" values="0 0 0 0 0 0 0 0 0 0 0 0 0 0 0 0 0 0 0.25 0"/>
<feBlend mode="normal" in2="shape" result="effect1_innerShadow_263_139"/>
</filter>
<filter id="filter10_i_263_139" x="242.789" y="238.157" width="90.7075" height="83.7798" filterUnits="userSpaceOnUse" color-interpolation-filters="sRGB">
<feFlood flood-opacity="0" result="BackgroundImageFix"/>
<feBlend mode="normal" in="SourceGraphic" in2="BackgroundImageFix" result="shape"/>
<feColorMatrix in="SourceAlpha" type="matrix" values="0 0 0 0 0 0 0 0 0 0 0 0 0 0 0 0 0 0 127 0" result="hardAlpha"/>
<feOffset dy="8"/>
<feGaussianBlur stdDeviation="2"/>
<feComposite in2="hardAlpha" operator="arithmetic" k2="-1" k3="1"/>
<feColorMatrix type="matrix" values="0 0 0 0 0 0 0 0 0 0 0 0 0 0 0 0 0 0 0.25 0"/>
<feBlend mode="normal" in2="shape" result="effect1_innerShadow_263_139"/>
</filter>
<filter id="filter11_i_263_139" x="120.327" y="241.672" width="136.026" height="109.008" filterUnits="userSpaceOnUse" color-interpolation-filters="sRGB">
<feFlood flood-opacity="0" result="BackgroundImageFix"/>
<feBlend mode="normal" in="SourceGraphic" in2="BackgroundImageFix" result="shape"/>
<feColorMatrix in="SourceAlpha" type="matrix" values="0 0 0 0 0 0 0 0 0 0 0 0 0 0 0 0 0 0 127 0" result="hardAlpha"/>
<feOffset dy="8"/>
<feGaussianBlur stdDeviation="2"/>
<feComposite in2="hardAlpha" operator="arithmetic" k2="-1" k3="1"/>
<feColorMatrix type="matrix" values="0 0 0 0 0 0 0 0 0 0 0 0 0 0 0 0 0 0 0.25 0"/>
<feBlend mode="normal" in2="shape" result="effect1_innerShadow_263_139"/>
</filter>
<filter id="filter12_i_263_139" x="337.417" y="316.442" width="25.7014" height="67.7012" filterUnits="userSpaceOnUse" color-interpolation-filters="sRGB">
<feFlood flood-opacity="0" result="BackgroundImageFix"/>
<feBlend mode="normal" in="SourceGraphic" in2="BackgroundImageFix" result="shape"/>
<feColorMatrix in="SourceAlpha" type="matrix" values="0 0 0 0 0 0 0 0 0 0 0 0 0 0 0 0 0 0 127 0" result="hardAlpha"/>
<feOffset dy="8"/>
<feGaussianBlur stdDeviation="2"/>
<feComposite in2="hardAlpha" operator="arithmetic" k2="-1" k3="1"/>
<feColorMatrix type="matrix" values="0 0 0 0 0 0 0 0 0 0 0 0 0 0 0 0 0 0 0.25 0"/>
<feBlend mode="normal" in2="shape" result="effect1_innerShadow_263_139"/>
</filter>
</defs>
</svg>
