<svg width="1000" height="1000" viewBox="0 0 1000 1000" fill="none" xmlns="http://www.w3.org/2000/svg">
<path d="M815.902 624.4C799.207 599.939 772.443 576.916 734.8 557.347C599.518 486.945 380.173 486.945 244.891 557.347C207.27 576.916 180.484 599.939 163.789 624.4H143.419V688.727H143.776C145.645 733.543 179.161 778.065 244.891 812.263C380.173 882.646 599.518 882.646 734.8 812.263C800.53 778.065 834.057 733.543 835.915 688.727H836.272V624.4H815.902Z" fill="#D6D6D6"/>
<path d="M244.902 488.198C109.609 566.297 109.609 692.927 244.902 771.047C380.184 849.157 599.529 849.157 734.821 771.047C870.103 692.927 870.103 566.297 734.821 488.198C599.529 410.089 380.184 410.089 244.902 488.198Z" fill="#F4F4F4"/>
<path d="M244.902 488.198C109.609 566.297 109.609 692.927 244.902 771.047C380.184 849.157 599.529 849.157 734.821 771.047C870.103 692.927 870.103 566.297 734.821 488.198C599.529 410.089 380.184 410.089 244.902 488.198Z" stroke="#D6D6D6" stroke-width="5.25"/>
<path d="M284.445 501.995C171.003 567.494 171.003 673.691 284.445 739.19C397.887 804.689 581.815 804.689 695.268 739.19C808.71 673.691 808.71 567.494 695.268 501.995C581.815 436.496 397.887 436.496 284.445 501.995Z" fill="#BAC1E8"/>
<path d="M778.891 457L779 655.862C779.121 688.468 751.424 721.122 696.548 746L696 534.983C696 534.983 779.019 489.611 778.891 457Z" fill="#383C40"/>
<path d="M622 446.83C621.981 446.811 621.955 446.787 621.955 446.768C621.885 444.892 621.59 443.012 621.097 441.136C620.605 439.285 619.907 437.448 618.992 435.615C606.209 409.912 563.68 398.113 530.958 393.668C493.948 388.639 453.884 390.529 418.749 400.963C412.149 402.925 405.863 405.182 400 407.737L400.41 622.455C406.292 619.905 412.565 617.648 419.171 615.686C453.692 605.411 492.93 603.468 529.345 608.126C560.717 612.137 599.801 622.455 616.431 644.77C617.814 646.607 619.44 648.458 620.374 650.338C620.809 651.221 621.43 652.108 622 653V446.83Z" fill="#383C40"/>
<path d="M696 675L584 625.812V493L696 542.193V675Z" fill="#495056"/>
<path d="M400 643L288 593.816V363L400 412.18V643Z" fill="#495057"/>
<path d="M697.209 363.253C803.699 419.839 809.249 492.642 695.885 542L583.601 492.801C634.564 470.61 634.826 434.638 584.202 412.447C533.566 390.261 451.246 390.271 400.258 412.443L288 363.253C401.358 313.891 583.601 302.882 697.209 363.253Z" fill="#F18557"/>
<path d="M321 427V599.481L401 632V459.519L321 427Z" fill="#495057"/>
<path d="M288.541 414L401 459.594C360.142 476.043 350.558 500.004 376.529 520.726L234.14 550C176.351 503.879 197.683 450.59 288.541 414Z" fill="#9584BD"/>
<path d="M202.46 504.163C202.493 504.391 202.693 504.633 202.732 504.871C203.022 506.462 203.442 508.053 203.888 509.64C203.94 509.828 204.024 510.021 204.082 510.218C204.56 511.868 205.168 513.531 205.833 515.185C205.969 515.517 206.111 515.848 206.253 516.184C206.951 517.82 207.733 519.456 208.605 521.102C208.728 521.339 208.883 521.59 209.025 521.832C209.994 523.589 211.054 525.342 212.23 527.094C212.269 527.153 212.295 527.215 212.34 527.269C213.542 529.04 214.86 530.806 216.275 532.558C216.54 532.895 216.792 533.226 217.082 533.562C217.496 534.064 217.929 534.566 218.362 535.064C218.859 535.647 219.363 536.229 219.887 536.817C220.352 537.328 220.837 537.83 221.315 538.336C221.851 538.91 222.394 539.484 222.969 540.062C223.46 540.564 223.983 541.07 224.494 541.572C225.075 542.146 225.676 542.715 226.284 543.289C226.826 543.791 227.369 544.293 227.931 544.795C228.474 545.288 229.043 545.781 229.598 546.27C231.188 547.655 232.835 549.044 234.561 550.416L235 701C233.262 699.619 231.627 698.243 230.031 696.858C229.85 696.688 229.618 696.518 229.417 696.347C229.049 696.025 228.719 695.693 228.364 695.37C227.815 694.873 227.253 694.371 226.71 693.869C226.103 693.299 225.521 692.73 224.927 692.156C224.41 691.65 223.906 691.148 223.389 690.641C222.833 690.068 222.284 689.494 221.748 688.916C221.257 688.409 220.778 687.903 220.326 687.396C219.803 686.818 219.305 686.24 218.795 685.652C218.362 685.15 217.929 684.648 217.509 684.146C217.373 683.981 217.225 683.819 217.095 683.658C216.947 683.496 216.856 683.317 216.714 683.142C215.299 681.39 213.968 679.619 212.766 677.853C212.727 677.795 212.702 677.737 212.663 677.683C211.48 675.926 210.427 674.164 209.452 672.416C209.368 672.25 209.258 672.089 209.167 671.932C209.122 671.847 209.09 671.766 209.051 671.672C208.172 670.036 207.397 668.404 206.699 666.759C206.55 666.432 206.421 666.096 206.292 665.764C205.62 664.115 205.025 662.447 204.534 660.793C204.528 660.744 204.496 660.69 204.483 660.632C204.437 660.498 204.431 660.354 204.399 660.22C203.959 658.633 203.597 657.051 203.313 655.455C203.268 655.222 203.21 654.98 203.178 654.738C202.913 653.093 202.745 651.443 202.661 649.794C202.661 649.632 202.615 649.467 202.615 649.301C202.583 648.727 202.008 648.14 202.002 647.571L201 497.157V497C201 497.744 201.62 498.475 201.659 499.214C201.743 500.864 202.189 502.513 202.46 504.163Z" fill="#495057"/>
<path d="M378 709L235.423 701.412L235 549.415L377.57 520L378 709Z" fill="#383C40"/>
<path d="M251.68 557.64C311.887 608.579 401.423 638.702 478.36 639.503L480.012 639.573V786.478C480.012 786.478 473.518 786.421 470.245 786.299C391.322 783.628 302.133 763.548 242.54 708.331C237.82 703.969 233.465 699.498 229.423 694.842L229 535.915C235.706 543.601 243.271 550.857 251.68 557.64Z" fill="#383C40"/>
<path d="M480.076 535.075V639.573C480.076 639.573 478.558 639.509 478.379 639.509C401.666 639.509 311.605 608.086 251.667 557.64C243.264 550.857 235.706 543.607 229 535.921L371.383 494C393.096 518.8 435.311 533.628 480.076 535.075Z" stroke="#383C40" stroke-width="3.2025"/>
<path d="M478.076 534.075V638.573C478.076 638.573 476.558 638.509 476.379 638.509C399.666 638.509 309.605 607.086 249.667 556.64C241.264 549.857 233.706 542.607 227 534.921L369.383 493C391.096 517.8 433.311 532.628 478.076 534.075Z" fill="#38BDE2"/>
<path d="M491.725 700.393C557.859 702.094 629.975 687.888 688.286 662.225C691.224 660.925 694.181 659.56 697.132 658.156L697.631 745.751C637.524 774.438 566.472 786.413 497.686 787.916C490.848 788.071 485.451 788.076 477.263 787.966V700.393C485.451 700.442 486.96 700.497 491.725 700.393Z" fill="#495057"/>
<path d="M580.204 602L696.976 657.85C694.023 659.241 691.07 660.593 688.117 661.88C630.03 687.407 557.416 701.741 491.454 699.83C486.611 699.945 481.776 699.94 477 699.885V699.83V620.77C500.12 621.394 523.793 619.22 545.902 613.849C559.218 610.635 569.595 607.016 580.204 602Z" fill="#5EBB9C"/>
<path d="M580.204 602L696.976 657.85C694.023 659.241 691.07 660.593 688.117 661.88C630.03 687.407 557.416 701.741 491.454 699.83C486.611 699.945 481.776 699.94 477 699.885V699.83V620.77C500.12 621.394 523.793 619.22 545.902 613.849C559.218 610.635 569.595 607.016 580.204 602Z" stroke="#495057" stroke-width="3.2025"/>
</svg>
