<svg width="185" height="368" viewBox="0 0 185 368" fill="none" xmlns="http://www.w3.org/2000/svg">
<rect x="0.5" y="0.5" width="50.059" height="50.059" fill="#D63027" stroke="black"/>
<path d="M64.2246 32.7081C63.2627 32.7081 62.4434 32.4463 61.7666 31.9228C61.0899 31.395 60.5728 30.631 60.2152 29.6308C59.8577 28.6263 59.6789 27.4132 59.6789 25.9916C59.6789 24.5786 59.8577 23.3719 60.2152 22.3717C60.577 21.3672 61.0963 20.6011 61.773 20.0733C62.454 19.5413 63.2712 19.2752 64.2246 19.2752C65.1781 19.2752 65.9931 19.5413 66.6699 20.0733C67.3509 20.6011 67.8702 21.3672 68.2277 22.3717C68.5895 23.3719 68.7704 24.5786 68.7704 25.9916C68.7704 27.4132 68.5916 28.6263 68.2341 29.6308C67.8765 30.631 67.3594 31.395 66.6827 31.9228C66.0059 32.4463 65.1866 32.7081 64.2246 32.7081ZM64.2246 31.3035C65.1781 31.3035 65.9187 30.8438 66.4464 29.9245C66.9742 29.0051 67.2381 27.6942 67.2381 25.9916C67.2381 24.8595 67.1168 23.8954 66.8742 23.0995C66.6358 22.3036 66.2911 21.6971 65.8399 21.2799C65.393 20.8628 64.8546 20.6543 64.2246 20.6543C63.2798 20.6543 62.5413 21.1203 62.0093 22.0525C61.4772 22.9803 61.2112 24.2934 61.2112 25.9916C61.2112 27.1238 61.3304 28.0857 61.5687 28.8774C61.8071 29.6691 62.1497 30.2713 62.5966 30.6842C63.0478 31.0971 63.5905 31.3035 64.2246 31.3035ZM76.8403 25.2894V26.6939H71.1198V25.2894H76.8403ZM83.6732 32.7081C82.8305 32.7081 82.0792 32.5633 81.4195 32.2739C80.764 31.9845 80.2426 31.5823 79.8553 31.0673C79.4722 30.548 79.2637 29.9457 79.2296 29.2605H80.8385C80.8726 29.6818 81.0173 30.0458 81.2727 30.3522C81.528 30.6544 81.8622 30.8885 82.275 31.0545C82.6879 31.2205 83.1454 31.3035 83.6477 31.3035C84.2095 31.3035 84.7075 31.2056 85.1416 31.0098C85.5758 30.814 85.9163 30.5416 86.1631 30.1926C86.41 29.8436 86.5334 29.4392 86.5334 28.9796C86.5334 28.4986 86.4142 28.0751 86.1759 27.7091C85.9375 27.3388 85.5885 27.0493 85.1288 26.8408C84.6692 26.6322 84.1073 26.5279 83.4434 26.5279H82.3963V25.1234H83.4434C83.9626 25.1234 84.418 25.0297 84.8096 24.8425C85.2055 24.6552 85.514 24.3913 85.7354 24.0508C85.9609 23.7103 86.0737 23.3102 86.0737 22.8505C86.0737 22.4079 85.9758 22.0227 85.7801 21.6949C85.5843 21.3672 85.3076 21.1118 84.9501 20.9288C84.5968 20.7458 84.1797 20.6543 83.6987 20.6543C83.2476 20.6543 82.8219 20.7373 82.4219 20.9033C82.026 21.065 81.7025 21.3012 81.4514 21.6119C81.2003 21.9184 81.0641 22.2887 81.0428 22.7228H79.5106C79.5361 22.0376 79.7425 21.4374 80.1298 20.9224C80.5172 20.4031 81.0237 19.9988 81.6493 19.7094C82.2793 19.4199 82.9709 19.2752 83.7243 19.2752C84.533 19.2752 85.2267 19.4391 85.8056 19.7668C86.3845 20.0903 86.8292 20.5181 87.1399 21.0501C87.4506 21.5821 87.606 22.1567 87.606 22.7739C87.606 23.5102 87.4123 24.138 87.025 24.6573C86.642 25.1766 86.1206 25.5362 85.4608 25.7363V25.8384C86.2866 25.9746 86.9314 26.3258 87.3953 26.8919C87.8593 27.4537 88.0912 28.1496 88.0912 28.9796C88.0912 29.6904 87.8976 30.3288 87.5102 30.8949C87.1272 31.4567 86.6036 31.8994 85.9397 32.2228C85.2757 32.5463 84.5202 32.7081 83.6732 32.7081ZM94.7885 32.7081C94.0394 32.7081 93.3648 32.5591 92.7646 32.2612C92.1645 31.9632 91.6835 31.5546 91.3217 31.0353C90.96 30.5161 90.762 29.9245 90.728 29.2605H92.2602C92.3198 29.8521 92.588 30.3416 93.0647 30.7289C93.5456 31.112 94.1202 31.3035 94.7885 31.3035C95.3248 31.3035 95.8015 31.1779 96.2186 30.9268C96.64 30.6757 96.9698 30.3309 97.2082 29.8925C97.4508 29.4499 97.5721 28.9498 97.5721 28.3922C97.5721 27.8218 97.4465 27.3132 97.1954 26.8663C96.9485 26.4151 96.608 26.0597 96.1739 25.8001C95.7398 25.5405 95.2439 25.4085 94.6863 25.4043C94.2862 25.4 93.8755 25.4617 93.4541 25.5894C93.0328 25.7129 92.6859 25.8725 92.4135 26.0683L90.9323 25.8895L91.724 19.454H98.517V20.8586H93.0519L92.5922 24.7148H92.6688C92.937 24.5019 93.2732 24.3253 93.6776 24.1849C94.0819 24.0444 94.5033 23.9742 94.9417 23.9742C95.7419 23.9742 96.4548 24.1657 97.0805 24.5488C97.7104 24.9276 98.2041 25.4468 98.5617 26.1066C98.9235 26.7663 99.1043 27.5197 99.1043 28.3667C99.1043 29.2009 98.9171 29.9457 98.5425 30.6012C98.1722 31.2524 97.6615 31.7674 97.0103 32.1462C96.359 32.5208 95.6185 32.7081 94.7885 32.7081ZM108.306 30.0777V29.3882C108.306 28.9115 108.404 28.4752 108.6 28.0794C108.8 27.6793 109.089 27.36 109.468 27.1217C109.851 26.8791 110.315 26.7578 110.86 26.7578C111.413 26.7578 111.877 26.8791 112.251 27.1217C112.626 27.36 112.909 27.6793 113.101 28.0794C113.292 28.4752 113.388 28.9115 113.388 29.3882V30.0777C113.388 30.5544 113.29 30.9928 113.094 31.3929C112.903 31.7887 112.618 32.1079 112.239 32.3505C111.864 32.5889 111.404 32.7081 110.86 32.7081C110.306 32.7081 109.84 32.5889 109.461 32.3505C109.083 32.1079 108.795 31.7887 108.6 31.3929C108.404 30.9928 108.306 30.5544 108.306 30.0777ZM109.608 29.3882V30.0777C109.608 30.4735 109.702 30.8289 109.889 31.1439C110.077 31.4546 110.4 31.6099 110.86 31.6099C111.307 31.6099 111.622 31.4546 111.805 31.1439C111.992 30.8289 112.085 30.4735 112.085 30.0777V29.3882C112.085 28.9923 111.996 28.6391 111.817 28.3283C111.639 28.0134 111.319 27.8559 110.86 27.8559C110.413 27.8559 110.091 28.0134 109.896 28.3283C109.704 28.6391 109.608 28.9923 109.608 29.3882ZM101.794 22.5951V21.9056C101.794 21.4289 101.892 20.9926 102.087 20.5968C102.288 20.1967 102.577 19.8775 102.956 19.6391C103.339 19.3965 103.803 19.2752 104.348 19.2752C104.901 19.2752 105.365 19.3965 105.739 19.6391C106.114 19.8775 106.397 20.1967 106.588 20.5968C106.78 20.9926 106.876 21.4289 106.876 21.9056V22.5951C106.876 23.0718 106.778 23.5102 106.582 23.9103C106.391 24.3062 106.105 24.6254 105.727 24.868C105.352 25.1063 104.892 25.2255 104.348 25.2255C103.794 25.2255 103.328 25.1063 102.949 24.868C102.571 24.6254 102.283 24.3062 102.087 23.9103C101.892 23.5102 101.794 23.0718 101.794 22.5951ZM103.096 21.9056V22.5951C103.096 22.991 103.19 23.3464 103.377 23.6613C103.564 23.972 103.888 24.1274 104.348 24.1274C104.794 24.1274 105.109 23.972 105.292 23.6613C105.48 23.3464 105.573 22.991 105.573 22.5951V21.9056C105.573 21.5098 105.484 21.1565 105.305 20.8458C105.126 20.5308 104.807 20.3734 104.348 20.3734C103.901 20.3734 103.579 20.5308 103.384 20.8458C103.192 21.1565 103.096 21.5098 103.096 21.9056ZM102.279 32.5293L111.268 19.454H112.724L103.735 32.5293H102.279Z" fill="black"/>
<rect x="0.5" y="63.7847" width="50.059" height="50.059" fill="#F57E4D" stroke="black"/>
<path d="M63.5842 95.9927C62.7415 95.9927 61.9903 95.848 61.3305 95.5586C60.6751 95.2692 60.1537 94.8669 59.7664 94.3519C59.3833 93.8327 59.1747 93.2304 59.1407 92.5451H60.7496C60.7836 92.9665 60.9283 93.3304 61.1837 93.6369C61.4391 93.9391 61.7732 94.1732 62.1861 94.3392C62.5989 94.5052 63.0565 94.5882 63.5587 94.5882C64.1205 94.5882 64.6185 94.4903 65.0527 94.2945C65.4868 94.0987 65.8273 93.8263 66.0742 93.4773C66.321 93.1283 66.4445 92.7239 66.4445 92.2642C66.4445 91.7833 66.3253 91.3598 66.0869 90.9937C65.8486 90.6234 65.4996 90.334 65.0399 90.1254C64.5802 89.9169 64.0184 89.8126 63.3544 89.8126H62.3074V88.408H63.3544C63.8737 88.408 64.3291 88.3144 64.7207 88.1271C65.1165 87.9398 65.4251 87.676 65.6464 87.3355C65.872 86.9949 65.9848 86.5949 65.9848 86.1352C65.9848 85.6925 65.8869 85.3073 65.6911 84.9796C65.4953 84.6519 65.2187 84.3965 64.8611 84.2135C64.5079 84.0304 64.0907 83.9389 63.6098 83.9389C63.1586 83.9389 62.733 84.0219 62.3329 84.1879C61.9371 84.3497 61.6136 84.5859 61.3625 84.8966C61.1113 85.2031 60.9751 85.5734 60.9539 86.0075H59.4216C59.4471 85.3222 59.6536 84.7221 60.0409 84.2071C60.4282 83.6878 60.9347 83.2835 61.5604 82.994C62.1903 82.7046 62.882 82.5599 63.6353 82.5599C64.444 82.5599 65.1378 82.7238 65.7166 83.0515C66.2955 83.375 66.7403 83.8027 67.051 84.3348C67.3617 84.8668 67.517 85.4414 67.517 86.0586C67.517 86.7949 67.3234 87.4227 66.9361 87.942C66.553 88.4612 66.0316 88.8209 65.3719 89.0209V89.1231C66.1976 89.2593 66.8424 89.6104 67.3064 90.1765C67.7703 90.7383 68.0023 91.4343 68.0023 92.2642C68.0023 92.975 67.8086 93.6135 67.4213 94.1796C67.0382 94.7414 66.5147 95.184 65.8507 95.5075C65.1867 95.831 64.4312 95.9927 63.5842 95.9927ZM74.6995 95.9927C73.9504 95.9927 73.2758 95.8438 72.6757 95.5458C72.0755 95.2479 71.5946 94.8393 71.2328 94.32C70.871 93.8007 70.6731 93.2091 70.639 92.5451H72.1713C72.2309 93.1368 72.499 93.6262 72.9757 94.0136C73.4567 94.3966 74.0313 94.5882 74.6995 94.5882C75.2358 94.5882 75.7125 94.4626 76.1296 94.2115C76.551 93.9604 76.8809 93.6156 77.1192 93.1772C77.3618 92.7345 77.4831 92.2344 77.4831 91.6769C77.4831 91.1065 77.3576 90.5979 77.1064 90.151C76.8596 89.6998 76.5191 89.3444 76.0849 89.0848C75.6508 88.8251 75.1549 88.6932 74.5974 88.6889C74.1973 88.6847 73.7865 88.7464 73.3652 88.8741C72.9438 88.9975 72.5969 89.1571 72.3245 89.3529L70.8433 89.1742L71.635 82.7387H78.428V84.1432H72.963L72.5033 87.9994H72.5799C72.848 87.7866 73.1843 87.61 73.5886 87.4695C73.993 87.3291 74.4143 87.2588 74.8527 87.2588C75.6529 87.2588 76.3659 87.4504 76.9915 87.8334C77.6215 88.2122 78.1152 88.7315 78.4727 89.3912C78.8345 90.051 79.0154 90.8043 79.0154 91.6513C79.0154 92.4856 78.8281 93.2304 78.4536 93.8859C78.0833 94.5371 77.5725 95.0521 76.9213 95.4309C76.2701 95.8055 75.5295 95.9927 74.6995 95.9927ZM87.1954 88.574V89.9786H81.475V88.574H87.1954ZM93.9071 95.9927C93.158 95.9927 92.4833 95.8438 91.8832 95.5458C91.2831 95.2479 90.8021 94.8393 90.4403 94.32C90.0785 93.8007 89.8806 93.2091 89.8466 92.5451H91.3788C91.4384 93.1368 91.7066 93.6262 92.1833 94.0136C92.6642 94.3966 93.2388 94.5882 93.9071 94.5882C94.4433 94.5882 94.9201 94.4626 95.3372 94.2115C95.7585 93.9604 96.0884 93.6156 96.3268 93.1772C96.5694 92.7345 96.6907 92.2344 96.6907 91.6769C96.6907 91.1065 96.5651 90.5979 96.314 90.151C96.0671 89.6998 95.7266 89.3444 95.2925 89.0848C94.8583 88.8251 94.3625 88.6932 93.8049 88.6889C93.4048 88.6847 92.9941 88.7464 92.5727 88.8741C92.1513 88.9975 91.8045 89.1571 91.5321 89.3529L90.0509 89.1742L90.8425 82.7387H97.6356V84.1432H92.1705L91.7108 87.9994H91.7874C92.0556 87.7866 92.3918 87.61 92.7962 87.4695C93.2005 87.3291 93.6219 87.2588 94.0603 87.2588C94.8605 87.2588 95.5734 87.4504 96.1991 87.8334C96.829 88.2122 97.3227 88.7315 97.6802 89.3912C98.042 90.051 98.2229 90.8043 98.2229 91.6513C98.2229 92.4856 98.0356 93.2304 97.6611 93.8859C97.2908 94.5371 96.78 95.0521 96.1288 95.4309C95.4776 95.8055 94.737 95.9927 93.9071 95.9927ZM105.024 95.9927C104.062 95.9927 103.243 95.731 102.566 95.2074C101.889 94.6797 101.372 93.9157 101.015 92.9154C100.657 91.911 100.478 90.6979 100.478 89.2763C100.478 87.8632 100.657 86.6566 101.015 85.6563C101.376 84.6519 101.896 83.8857 102.572 83.358C103.253 82.8259 104.071 82.5599 105.024 82.5599C105.977 82.5599 106.792 82.8259 107.469 83.358C108.15 83.8857 108.669 84.6519 109.027 85.6563C109.389 86.6566 109.57 87.8632 109.57 89.2763C109.57 90.6979 109.391 91.911 109.033 92.9154C108.676 93.9157 108.159 94.6797 107.482 95.2074C106.805 95.731 105.986 95.9927 105.024 95.9927ZM105.024 94.5882C105.977 94.5882 106.718 94.1285 107.246 93.2091C107.773 92.2898 108.037 90.9788 108.037 89.2763C108.037 88.1441 107.916 87.1801 107.673 86.3842C107.435 85.5882 107.09 84.9817 106.639 84.5646C106.192 84.1475 105.654 83.9389 105.024 83.9389C104.079 83.9389 103.341 84.405 102.809 85.3371C102.277 86.265 102.01 87.5781 102.01 89.2763C102.01 90.4085 102.13 91.3704 102.368 92.1621C102.606 92.9537 102.949 93.556 103.396 93.9689C103.847 94.3817 104.39 94.5882 105.024 94.5882ZM118.661 93.3623V92.6728C118.661 92.1961 118.759 91.7599 118.955 91.364C119.155 90.9639 119.444 90.6447 119.823 90.4064C120.206 90.1638 120.67 90.0424 121.215 90.0424C121.768 90.0424 122.232 90.1638 122.607 90.4064C122.981 90.6447 123.264 90.9639 123.456 91.364C123.647 91.7599 123.743 92.1961 123.743 92.6728V93.3623C123.743 93.839 123.645 94.2774 123.449 94.6775C123.258 95.0734 122.973 95.3926 122.594 95.6352C122.219 95.8736 121.76 95.9927 121.215 95.9927C120.662 95.9927 120.195 95.8736 119.817 95.6352C119.438 95.3926 119.151 95.0734 118.955 94.6775C118.759 94.2774 118.661 93.839 118.661 93.3623ZM119.963 92.6728V93.3623C119.963 93.7582 120.057 94.1136 120.244 94.4285C120.432 94.7393 120.755 94.8946 121.215 94.8946C121.662 94.8946 121.977 94.7393 122.16 94.4285C122.347 94.1136 122.441 93.7582 122.441 93.3623V92.6728C122.441 92.277 122.351 91.9237 122.172 91.613C121.994 91.298 121.675 91.1406 121.215 91.1406C120.768 91.1406 120.447 91.298 120.251 91.613C120.059 91.9237 119.963 92.277 119.963 92.6728ZM112.149 85.8798V85.1903C112.149 84.7136 112.247 84.2773 112.443 83.8815C112.643 83.4814 112.932 83.1622 113.311 82.9238C113.694 82.6812 114.158 82.5599 114.703 82.5599C115.256 82.5599 115.72 82.6812 116.095 82.9238C116.469 83.1622 116.752 83.4814 116.944 83.8815C117.135 84.2773 117.231 84.7136 117.231 85.1903V85.8798C117.231 86.3565 117.133 86.7949 116.937 87.195C116.746 87.5908 116.461 87.91 116.082 88.1527C115.707 88.391 115.248 88.5102 114.703 88.5102C114.149 88.5102 113.683 88.391 113.305 88.1527C112.926 87.91 112.638 87.5908 112.443 87.195C112.247 86.7949 112.149 86.3565 112.149 85.8798ZM113.451 85.1903V85.8798C113.451 86.2756 113.545 86.631 113.732 86.946C113.92 87.2567 114.243 87.4121 114.703 87.4121C115.15 87.4121 115.465 87.2567 115.648 86.946C115.835 86.631 115.929 86.2756 115.929 85.8798V85.1903C115.929 84.7945 115.839 84.4412 115.66 84.1305C115.482 83.8155 115.162 83.658 114.703 83.658C114.256 83.658 113.934 83.8155 113.739 84.1305C113.547 84.4412 113.451 84.7945 113.451 85.1903ZM112.634 95.814L121.623 82.7387H123.079L114.09 95.814H112.634Z" fill="black"/>
<rect x="0.5" y="127.069" width="50.059" height="50.059" fill="#FDCF7D" stroke="black"/>
<path d="M63.9364 159.277C63.1873 159.277 62.5126 159.128 61.9125 158.83C61.3124 158.532 60.8314 158.123 60.4696 157.604C60.1078 157.085 59.9099 156.493 59.8759 155.829H61.4081C61.4677 156.421 61.7359 156.91 62.2126 157.298C62.6935 157.681 63.2681 157.872 63.9364 157.872C64.4727 157.872 64.9494 157.747 65.3665 157.496C65.7879 157.245 66.1177 156.9 66.3561 156.461C66.5987 156.019 66.72 155.519 66.72 154.961C66.72 154.391 66.5944 153.882 66.3433 153.435C66.0964 152.984 65.7559 152.629 65.3218 152.369C64.8877 152.109 64.3918 151.977 63.8342 151.973C63.4341 151.969 63.0234 152.031 62.602 152.158C62.1807 152.282 61.8338 152.441 61.5614 152.637L60.0802 152.458L60.8719 146.023H67.6649V147.427H62.1998L61.7401 151.284H61.8167C62.0849 151.071 62.4211 150.894 62.8255 150.754C63.2298 150.613 63.6512 150.543 64.0896 150.543C64.8898 150.543 65.6027 150.735 66.2284 151.118C66.8583 151.496 67.352 152.016 67.7096 152.675C68.0714 153.335 68.2522 154.089 68.2522 154.936C68.2522 155.77 68.065 156.515 67.6904 157.17C67.3201 157.821 66.8094 158.336 66.1582 158.715C65.5069 159.09 64.7663 159.277 63.9364 159.277ZM75.0532 159.277C74.0913 159.277 73.272 159.015 72.5952 158.492C71.9185 157.964 71.4014 157.2 71.0438 156.2C70.6863 155.195 70.5075 153.982 70.5075 152.56C70.5075 151.147 70.6863 149.941 71.0438 148.941C71.4056 147.936 71.9249 147.17 72.6016 146.642C73.2826 146.11 74.0998 145.844 75.0532 145.844C76.0067 145.844 76.8217 146.11 77.4985 146.642C78.1795 147.17 78.6988 147.936 79.0563 148.941C79.4181 149.941 79.599 151.147 79.599 152.56C79.599 153.982 79.4202 155.195 79.0627 156.2C78.7051 157.2 78.188 157.964 77.5113 158.492C76.8345 159.015 76.0152 159.277 75.0532 159.277ZM75.0532 157.872C76.0067 157.872 76.7473 157.413 77.275 156.493C77.8028 155.574 78.0667 154.263 78.0667 152.56C78.0667 151.428 77.9454 150.464 77.7028 149.668C77.4644 148.872 77.1197 148.266 76.6685 147.849C76.2216 147.432 75.6832 147.223 75.0532 147.223C74.1084 147.223 73.3699 147.689 72.8379 148.621C72.3058 149.549 72.0398 150.862 72.0398 152.56C72.0398 153.693 72.159 154.655 72.3973 155.446C72.6357 156.238 72.9783 156.84 73.4252 157.253C73.8764 157.666 74.4191 157.872 75.0532 157.872ZM87.6689 151.858V153.263H81.9484V151.858H87.6689ZM94.6359 159.277C94.0996 159.268 93.5633 159.166 93.027 158.97C92.4907 158.775 92.0012 158.445 91.5586 157.981C91.1159 157.513 90.7605 156.881 90.4924 156.085C90.2242 155.285 90.0902 154.28 90.0902 153.071C90.0902 151.914 90.1987 150.888 90.4158 149.994C90.6328 149.096 90.9478 148.34 91.3607 147.727C91.7735 147.11 92.2715 146.642 92.8546 146.323C93.442 146.004 94.1038 145.844 94.8402 145.844C95.5723 145.844 96.2235 145.991 96.7938 146.285C97.3684 146.574 97.8366 146.978 98.1984 147.498C98.5602 148.017 98.7943 148.615 98.9007 149.292H97.3429C97.1982 148.704 96.9172 148.217 96.5001 147.83C96.083 147.442 95.5297 147.249 94.8402 147.249C93.8272 147.249 93.0291 147.689 92.446 148.57C91.8672 149.451 91.5756 150.688 91.5713 152.28H91.6735C91.9118 151.918 92.1949 151.609 92.5226 151.354C92.8546 151.094 93.2207 150.894 93.6207 150.754C94.0208 150.613 94.4443 150.543 94.8912 150.543C95.6404 150.543 96.3256 150.73 96.947 151.105C97.5684 151.475 98.0664 151.988 98.441 152.643C98.8155 153.295 99.0028 154.042 99.0028 154.884C99.0028 155.693 98.8219 156.434 98.4601 157.106C98.0984 157.774 97.5897 158.306 96.9343 158.702C96.2831 159.094 95.5169 159.285 94.6359 159.277ZM94.6359 157.872C95.1722 157.872 95.6531 157.738 96.0787 157.47C96.5086 157.202 96.847 156.842 97.0939 156.391C97.345 155.94 97.4706 155.438 97.4706 154.884C97.4706 154.344 97.3492 153.852 97.1066 153.41C96.8683 152.963 96.5384 152.607 96.1171 152.343C95.6999 152.08 95.2232 151.948 94.6869 151.948C94.2826 151.948 93.9059 152.028 93.5569 152.19C93.2079 152.348 92.9014 152.565 92.6375 152.841C92.3779 153.118 92.1736 153.435 92.0246 153.793C91.8757 154.146 91.8012 154.518 91.8012 154.91C91.8012 155.429 91.9225 155.914 92.1651 156.366C92.412 156.817 92.7482 157.181 93.1738 157.457C93.6037 157.734 94.0911 157.872 94.6359 157.872ZM105.778 159.277C104.816 159.277 103.997 159.015 103.32 158.492C102.644 157.964 102.126 157.2 101.769 156.2C101.411 155.195 101.233 153.982 101.233 152.56C101.233 151.147 101.411 149.941 101.769 148.941C102.131 147.936 102.65 147.17 103.327 146.642C104.008 146.11 104.825 145.844 105.778 145.844C106.732 145.844 107.547 146.11 108.224 146.642C108.905 147.17 109.424 147.936 109.781 148.941C110.143 149.941 110.324 151.147 110.324 152.56C110.324 153.982 110.145 155.195 109.788 156.2C109.43 157.2 108.913 157.964 108.236 158.492C107.56 159.015 106.74 159.277 105.778 159.277ZM105.778 157.872C106.732 157.872 107.472 157.413 108 156.493C108.528 155.574 108.792 154.263 108.792 152.56C108.792 151.428 108.67 150.464 108.428 149.668C108.189 148.872 107.845 148.266 107.394 147.849C106.947 147.432 106.408 147.223 105.778 147.223C104.833 147.223 104.095 147.689 103.563 148.621C103.031 149.549 102.765 150.862 102.765 152.56C102.765 153.693 102.884 154.655 103.122 155.446C103.361 156.238 103.703 156.84 104.15 157.253C104.601 157.666 105.144 157.872 105.778 157.872ZM119.415 156.647V155.957C119.415 155.48 119.513 155.044 119.709 154.648C119.909 154.248 120.199 153.929 120.577 153.691C120.96 153.448 121.424 153.327 121.969 153.327C122.522 153.327 122.986 153.448 123.361 153.691C123.736 153.929 124.019 154.248 124.21 154.648C124.402 155.044 124.497 155.48 124.497 155.957V156.647C124.497 157.123 124.4 157.562 124.204 157.962C124.012 158.358 123.727 158.677 123.348 158.919C122.974 159.158 122.514 159.277 121.969 159.277C121.416 159.277 120.95 159.158 120.571 158.919C120.192 158.677 119.905 158.358 119.709 157.962C119.513 157.562 119.415 157.123 119.415 156.647ZM120.718 155.957V156.647C120.718 157.042 120.811 157.398 120.999 157.713C121.186 158.023 121.51 158.179 121.969 158.179C122.416 158.179 122.731 158.023 122.914 157.713C123.101 157.398 123.195 157.042 123.195 156.647V155.957C123.195 155.561 123.106 155.208 122.927 154.897C122.748 154.582 122.429 154.425 121.969 154.425C121.522 154.425 121.201 154.582 121.005 154.897C120.814 155.208 120.718 155.561 120.718 155.957ZM112.903 149.164V148.474C112.903 147.998 113.001 147.561 113.197 147.166C113.397 146.766 113.686 146.446 114.065 146.208C114.448 145.965 114.912 145.844 115.457 145.844C116.01 145.844 116.474 145.965 116.849 146.208C117.223 146.446 117.506 146.766 117.698 147.166C117.89 147.561 117.985 147.998 117.985 148.474V149.164C117.985 149.641 117.887 150.079 117.692 150.479C117.5 150.875 117.215 151.194 116.836 151.437C116.462 151.675 116.002 151.794 115.457 151.794C114.904 151.794 114.438 151.675 114.059 151.437C113.68 151.194 113.393 150.875 113.197 150.479C113.001 150.079 112.903 149.641 112.903 149.164ZM114.206 148.474V149.164C114.206 149.56 114.299 149.915 114.487 150.23C114.674 150.541 114.997 150.696 115.457 150.696C115.904 150.696 116.219 150.541 116.402 150.23C116.589 149.915 116.683 149.56 116.683 149.164V148.474C116.683 148.079 116.593 147.725 116.415 147.415C116.236 147.1 115.917 146.942 115.457 146.942C115.01 146.942 114.689 147.1 114.493 147.415C114.301 147.725 114.206 148.079 114.206 148.474ZM113.389 159.098L122.378 146.023H123.833L114.844 159.098H113.389Z" fill="black"/>
<rect x="0.5" y="190.354" width="50.059" height="50.059" fill="#8BFF26" stroke="black"/>
<path d="M60.3032 222.383L66.1513 210.814V210.712H59.4094V209.308H67.7858V210.789L61.9632 222.383H60.3032ZM74.1494 222.562C73.1875 222.562 72.3682 222.3 71.6914 221.776C71.0147 221.249 70.4975 220.485 70.14 219.484C69.7825 218.48 69.6037 217.267 69.6037 215.845C69.6037 214.432 69.7825 213.225 70.14 212.225C70.5018 211.221 71.0211 210.455 71.6978 209.927C72.3788 209.395 73.196 209.129 74.1494 209.129C75.1028 209.129 75.9179 209.395 76.5947 209.927C77.2757 210.455 77.7949 211.221 78.1525 212.225C78.5142 213.225 78.6951 214.432 78.6951 215.845C78.6951 217.267 78.5164 218.48 78.1589 219.484C77.8013 220.485 77.2842 221.249 76.6074 221.776C75.9307 222.3 75.1114 222.562 74.1494 222.562ZM74.1494 221.157C75.1028 221.157 75.8434 220.697 76.3712 219.778C76.899 218.859 77.1629 217.548 77.1629 215.845C77.1629 214.713 77.0416 213.749 76.799 212.953C76.5606 212.157 76.2159 211.551 75.7647 211.133C75.3178 210.716 74.7794 210.508 74.1494 210.508C73.2045 210.508 72.4661 210.974 71.934 211.906C71.402 212.834 71.136 214.147 71.136 215.845C71.136 216.977 71.2552 217.939 71.4935 218.731C71.7319 219.523 72.0745 220.125 72.5214 220.538C72.9726 220.951 73.5152 221.157 74.1494 221.157ZM86.7651 215.143V216.547H81.0446V215.143H86.7651ZM93.5788 222.562C92.702 222.562 91.9274 222.406 91.2549 222.096C90.5867 221.781 90.0653 221.349 89.6907 220.799C89.3162 220.246 89.131 219.616 89.1353 218.91C89.131 218.356 89.2395 217.846 89.4609 217.377C89.6822 216.905 89.9844 216.511 90.3675 216.196C90.7548 215.877 91.1868 215.675 91.6635 215.59V215.513C91.0378 215.351 90.5398 215 90.1695 214.46C89.7992 213.915 89.6162 213.296 89.6205 212.602C89.6162 211.938 89.7844 211.344 90.1249 210.821C90.4654 210.297 90.9335 209.884 91.5294 209.582C92.1296 209.28 92.8127 209.129 93.5788 209.129C94.3364 209.129 95.0132 209.28 95.6091 209.582C96.205 209.884 96.6731 210.297 97.0136 210.821C97.3584 211.344 97.5329 211.938 97.5372 212.602C97.5329 213.296 97.3435 213.915 96.969 214.46C96.5987 215 96.1071 215.351 95.4942 215.513V215.59C95.9666 215.675 96.3922 215.877 96.771 216.196C97.1498 216.511 97.452 216.905 97.6776 217.377C97.9032 217.846 98.0181 218.356 98.0224 218.91C98.0181 219.616 97.8266 220.246 97.4478 220.799C97.0732 221.349 96.5518 221.781 95.8836 222.096C95.2196 222.406 94.4514 222.562 93.5788 222.562ZM93.5788 221.157C94.1704 221.157 94.6812 221.061 95.1111 220.87C95.541 220.678 95.873 220.408 96.1071 220.059C96.3412 219.71 96.4603 219.301 96.4646 218.833C96.4603 218.339 96.3326 217.903 96.0815 217.524C95.8304 217.145 95.4878 216.848 95.0536 216.63C94.6237 216.413 94.1321 216.305 93.5788 216.305C93.0213 216.305 92.5233 216.413 92.0849 216.63C91.6507 216.848 91.3081 217.145 91.057 217.524C90.8101 217.903 90.6888 218.339 90.6931 218.833C90.6888 219.301 90.8016 219.71 91.0314 220.059C91.2655 220.408 91.5997 220.678 92.0338 220.87C92.4679 221.061 92.9829 221.157 93.5788 221.157ZM93.5788 214.951C94.047 214.951 94.462 214.858 94.8238 214.67C95.1898 214.483 95.4771 214.221 95.6857 213.885C95.8942 213.549 96.0007 213.155 96.0049 212.704C96.0007 212.261 95.8964 211.876 95.6921 211.548C95.4878 211.216 95.2047 210.961 94.8429 210.782C94.4812 210.599 94.0598 210.508 93.5788 210.508C93.0894 210.508 92.6616 210.599 92.2956 210.782C91.9295 210.961 91.6465 211.216 91.4464 211.548C91.2464 211.876 91.1485 212.261 91.1527 212.704C91.1485 213.155 91.2485 213.549 91.4528 213.885C91.6614 214.221 91.9487 214.483 92.3147 214.67C92.6808 214.858 93.1021 214.951 93.5788 214.951ZM104.734 222.562C103.772 222.562 102.953 222.3 102.276 221.776C101.599 221.249 101.082 220.485 100.725 219.484C100.367 218.48 100.188 217.267 100.188 215.845C100.188 214.432 100.367 213.225 100.725 212.225C101.086 211.221 101.606 210.455 102.282 209.927C102.963 209.395 103.781 209.129 104.734 209.129C105.687 209.129 106.502 209.395 107.179 209.927C107.86 210.455 108.38 211.221 108.737 212.225C109.099 213.225 109.28 214.432 109.28 215.845C109.28 217.267 109.101 218.48 108.743 219.484C108.386 220.485 107.869 221.249 107.192 221.776C106.515 222.3 105.696 222.562 104.734 222.562ZM104.734 221.157C105.687 221.157 106.428 220.697 106.956 219.778C107.484 218.859 107.747 217.548 107.747 215.845C107.747 214.713 107.626 213.749 107.384 212.953C107.145 212.157 106.8 211.551 106.349 211.133C105.902 210.716 105.364 210.508 104.734 210.508C103.789 210.508 103.051 210.974 102.519 211.906C101.987 212.834 101.721 214.147 101.721 215.845C101.721 216.977 101.84 217.939 102.078 218.731C102.316 219.523 102.659 220.125 103.106 220.538C103.557 220.951 104.1 221.157 104.734 221.157ZM118.371 219.931V219.242C118.371 218.765 118.469 218.329 118.665 217.933C118.865 217.533 119.154 217.214 119.533 216.975C119.916 216.733 120.38 216.611 120.925 216.611C121.478 216.611 121.942 216.733 122.317 216.975C122.691 217.214 122.974 217.533 123.166 217.933C123.357 218.329 123.453 218.765 123.453 219.242V219.931C123.453 220.408 123.355 220.846 123.159 221.246C122.968 221.642 122.683 221.961 122.304 222.204C121.929 222.442 121.47 222.562 120.925 222.562C120.372 222.562 119.906 222.442 119.527 222.204C119.148 221.961 118.861 221.642 118.665 221.246C118.469 220.846 118.371 220.408 118.371 219.931ZM119.674 219.242V219.931C119.674 220.327 119.767 220.682 119.954 220.997C120.142 221.308 120.465 221.463 120.925 221.463C121.372 221.463 121.687 221.308 121.87 220.997C122.057 220.682 122.151 220.327 122.151 219.931V219.242C122.151 218.846 122.061 218.493 121.883 218.182C121.704 217.867 121.385 217.709 120.925 217.709C120.478 217.709 120.157 217.867 119.961 218.182C119.769 218.493 119.674 218.846 119.674 219.242ZM111.859 212.449V211.759C111.859 211.282 111.957 210.846 112.153 210.45C112.353 210.05 112.642 209.731 113.021 209.493C113.404 209.25 113.868 209.129 114.413 209.129C114.966 209.129 115.43 209.25 115.805 209.493C116.179 209.731 116.462 210.05 116.654 210.45C116.845 210.846 116.941 211.282 116.941 211.759V212.449C116.941 212.925 116.843 213.364 116.647 213.764C116.456 214.16 116.171 214.479 115.792 214.722C115.417 214.96 114.958 215.079 114.413 215.079C113.859 215.079 113.393 214.96 113.015 214.722C112.636 214.479 112.348 214.16 112.153 213.764C111.957 213.364 111.859 212.925 111.859 212.449ZM113.161 211.759V212.449C113.161 212.844 113.255 213.2 113.442 213.515C113.63 213.826 113.953 213.981 114.413 213.981C114.86 213.981 115.175 213.826 115.358 213.515C115.545 213.2 115.639 212.844 115.639 212.449V211.759C115.639 211.363 115.549 211.01 115.37 210.699C115.192 210.384 114.872 210.227 114.413 210.227C113.966 210.227 113.645 210.384 113.449 210.699C113.257 211.01 113.161 211.363 113.161 211.759ZM112.344 222.383L121.334 209.308H122.789L113.8 222.383H112.344Z" fill="black"/>
<rect x="0.5" y="253.638" width="50.059" height="50.059" fill="#2FFF1C" stroke="black"/>
<path d="M63.9683 285.846C63.0915 285.846 62.3169 285.69 61.6444 285.38C60.9761 285.065 60.4547 284.633 60.0802 284.084C59.7056 283.53 59.5205 282.9 59.5247 282.194C59.5205 281.641 59.629 281.13 59.8503 280.662C60.0717 280.189 60.3739 279.795 60.7569 279.48C61.1443 279.161 61.5763 278.959 62.053 278.874V278.797C61.4273 278.636 60.9293 278.284 60.559 277.744C60.1887 277.199 60.0057 276.58 60.01 275.886C60.0057 275.222 60.1738 274.628 60.5143 274.105C60.8548 273.581 61.323 273.168 61.9189 272.866C62.519 272.564 63.2022 272.413 63.9683 272.413C64.7259 272.413 65.4027 272.564 65.9985 272.866C66.5944 273.168 67.0626 273.581 67.4031 274.105C67.7479 274.628 67.9224 275.222 67.9266 275.886C67.9224 276.58 67.733 277.199 67.3584 277.744C66.9881 278.284 66.4965 278.636 65.8836 278.797V278.874C66.3561 278.959 66.7817 279.161 67.1605 279.48C67.5393 279.795 67.8415 280.189 68.0671 280.662C68.2927 281.13 68.4076 281.641 68.4119 282.194C68.4076 282.9 68.2161 283.53 67.8373 284.084C67.4627 284.633 66.9413 285.065 66.2731 285.38C65.6091 285.69 64.8408 285.846 63.9683 285.846ZM63.9683 284.441C64.5599 284.441 65.0707 284.345 65.5006 284.154C65.9304 283.962 66.2624 283.692 66.4965 283.343C66.7306 282.994 66.8498 282.585 66.8541 282.117C66.8498 281.624 66.7221 281.187 66.471 280.808C66.2199 280.43 65.8772 280.132 65.4431 279.915C65.0132 279.698 64.5216 279.589 63.9683 279.589C63.4107 279.589 62.9127 279.698 62.4743 279.915C62.0402 280.132 61.6976 280.43 61.4464 280.808C61.1996 281.187 61.0783 281.624 61.0825 282.117C61.0783 282.585 61.1911 282.994 61.4209 283.343C61.655 283.692 61.9891 283.962 62.4233 284.154C62.8574 284.345 63.3724 284.441 63.9683 284.441ZM63.9683 278.236C64.4365 278.236 64.8515 278.142 65.2133 277.955C65.5793 277.767 65.8666 277.506 66.0752 277.169C66.2837 276.833 66.3901 276.439 66.3944 275.988C66.3901 275.546 66.2858 275.16 66.0815 274.833C65.8772 274.501 65.5942 274.245 65.2324 274.066C64.8706 273.883 64.4493 273.792 63.9683 273.792C63.4788 273.792 63.0511 273.883 62.685 274.066C62.319 274.245 62.0359 274.501 61.8359 274.833C61.6359 275.16 61.538 275.546 61.5422 275.988C61.538 276.439 61.638 276.833 61.8423 277.169C62.0508 277.506 62.3381 277.767 62.7042 277.955C63.0702 278.142 63.4916 278.236 63.9683 278.236ZM75.1235 285.846C74.1616 285.846 73.3422 285.584 72.6655 285.06C71.9887 284.533 71.4716 283.769 71.1141 282.768C70.7565 281.764 70.5778 280.551 70.5778 279.129C70.5778 277.716 70.7565 276.51 71.1141 275.509C71.4758 274.505 71.9951 273.739 72.6719 273.211C73.3529 272.679 74.1701 272.413 75.1235 272.413C76.0769 272.413 76.892 272.679 77.5687 273.211C78.2497 273.739 78.769 274.505 79.1265 275.509C79.4883 276.51 79.6692 277.716 79.6692 279.129C79.6692 280.551 79.4904 281.764 79.1329 282.768C78.7754 283.769 78.2582 284.533 77.5815 285.06C76.9047 285.584 76.0854 285.846 75.1235 285.846ZM75.1235 284.441C76.0769 284.441 76.8175 283.982 77.3453 283.062C77.873 282.143 78.1369 280.832 78.1369 279.129C78.1369 277.997 78.0156 277.033 77.773 276.237C77.5347 275.441 77.1899 274.835 76.7387 274.418C76.2918 274.001 75.7534 273.792 75.1235 273.792C74.1786 273.792 73.4401 274.258 72.9081 275.19C72.376 276.118 72.11 277.431 72.11 279.129C72.11 280.262 72.2292 281.223 72.4676 282.015C72.7059 282.807 73.0485 283.409 73.4955 283.822C73.9466 284.235 74.4893 284.441 75.1235 284.441ZM87.7391 278.427V279.832H82.0187V278.427H87.7391ZM94.5273 272.413C95.0636 272.417 95.5999 272.519 96.1362 272.719C96.6725 272.919 97.162 273.251 97.6046 273.715C98.0473 274.175 98.4027 274.803 98.6708 275.599C98.939 276.395 99.073 277.393 99.073 278.593C99.073 279.755 98.9624 280.787 98.7411 281.689C98.524 282.588 98.209 283.345 97.7962 283.962C97.3876 284.58 96.8896 285.048 96.3022 285.367C95.7191 285.686 95.0594 285.846 94.323 285.846C93.591 285.846 92.9376 285.701 92.363 285.412C91.7927 285.118 91.3245 284.711 90.9584 284.192C90.5967 283.669 90.3647 283.062 90.2625 282.373H91.8203C91.9608 282.973 92.2396 283.469 92.6567 283.86C93.0781 284.248 93.6335 284.441 94.323 284.441C95.3318 284.441 96.1277 284.001 96.7108 283.12C97.2982 282.239 97.5919 280.994 97.5919 279.385H97.4897C97.2514 279.742 96.9683 280.051 96.6406 280.31C96.3128 280.57 95.9489 280.77 95.5488 280.911C95.1488 281.051 94.7231 281.121 94.272 281.121C93.5229 281.121 92.8355 280.936 92.2098 280.566C91.5884 280.191 91.0904 279.678 90.7158 279.027C90.3455 278.372 90.1604 277.623 90.1604 276.78C90.1604 275.98 90.3392 275.248 90.6967 274.584C91.0585 273.915 91.565 273.383 92.2162 272.988C92.8716 272.592 93.642 272.4 94.5273 272.413ZM94.5273 273.818C93.991 273.818 93.508 273.952 93.0781 274.22C92.6524 274.484 92.3141 274.841 92.0629 275.292C91.8161 275.739 91.6927 276.235 91.6927 276.78C91.6927 277.325 91.8118 277.821 92.0502 278.267C92.2928 278.71 92.6226 279.063 93.0398 279.327C93.4611 279.587 93.94 279.717 94.4763 279.717C94.8806 279.717 95.2573 279.638 95.6063 279.48C95.9553 279.319 96.2596 279.1 96.5193 278.823C96.7832 278.542 96.9896 278.225 97.1386 277.872C97.2875 277.514 97.362 277.142 97.362 276.754C97.362 276.244 97.2386 275.765 96.9917 275.318C96.7491 274.871 96.4129 274.509 95.983 274.232C95.5574 273.956 95.0721 273.818 94.5273 273.818ZM105.849 285.846C104.887 285.846 104.067 285.584 103.391 285.06C102.714 284.533 102.197 283.769 101.839 282.768C101.482 281.764 101.303 280.551 101.303 279.129C101.303 277.716 101.482 276.51 101.839 275.509C102.201 274.505 102.72 273.739 103.397 273.211C104.078 272.679 104.895 272.413 105.849 272.413C106.802 272.413 107.617 272.679 108.294 273.211C108.975 273.739 109.494 274.505 109.852 275.509C110.213 276.51 110.394 277.716 110.394 279.129C110.394 280.551 110.215 281.764 109.858 282.768C109.5 283.769 108.983 284.533 108.307 285.06C107.63 285.584 106.81 285.846 105.849 285.846ZM105.849 284.441C106.802 284.441 107.543 283.982 108.07 283.062C108.598 282.143 108.862 280.832 108.862 279.129C108.862 277.997 108.741 277.033 108.498 276.237C108.26 275.441 107.915 274.835 107.464 274.418C107.017 274.001 106.478 273.792 105.849 273.792C104.904 273.792 104.165 274.258 103.633 275.19C103.101 276.118 102.835 277.431 102.835 279.129C102.835 280.262 102.954 281.223 103.193 282.015C103.431 282.807 103.774 283.409 104.22 283.822C104.672 284.235 105.214 284.441 105.849 284.441ZM119.486 283.215V282.526C119.486 282.049 119.584 281.613 119.779 281.217C119.979 280.817 120.269 280.498 120.648 280.259C121.031 280.017 121.495 279.895 122.039 279.895C122.593 279.895 123.057 280.017 123.431 280.259C123.806 280.498 124.089 280.817 124.28 281.217C124.472 281.613 124.568 282.049 124.568 282.526V283.215C124.568 283.692 124.47 284.13 124.274 284.531C124.082 284.926 123.797 285.246 123.418 285.488C123.044 285.727 122.584 285.846 122.039 285.846C121.486 285.846 121.02 285.727 120.641 285.488C120.262 285.246 119.975 284.926 119.779 284.531C119.584 284.13 119.486 283.692 119.486 283.215ZM120.788 282.526V283.215C120.788 283.611 120.882 283.967 121.069 284.282C121.256 284.592 121.58 284.748 122.039 284.748C122.486 284.748 122.801 284.592 122.984 284.282C123.172 283.967 123.265 283.611 123.265 283.215V282.526C123.265 282.13 123.176 281.777 122.997 281.466C122.818 281.151 122.499 280.994 122.039 280.994C121.592 280.994 121.271 281.151 121.075 281.466C120.884 281.777 120.788 282.13 120.788 282.526ZM112.974 275.733V275.043C112.974 274.567 113.071 274.13 113.267 273.735C113.467 273.334 113.757 273.015 114.135 272.777C114.519 272.534 114.982 272.413 115.527 272.413C116.081 272.413 116.545 272.534 116.919 272.777C117.294 273.015 117.577 273.334 117.768 273.735C117.96 274.13 118.056 274.567 118.056 275.043V275.733C118.056 276.21 117.958 276.648 117.762 277.048C117.57 277.444 117.285 277.763 116.906 278.006C116.532 278.244 116.072 278.363 115.527 278.363C114.974 278.363 114.508 278.244 114.129 278.006C113.75 277.763 113.463 277.444 113.267 277.048C113.071 276.648 112.974 276.21 112.974 275.733ZM114.276 275.043V275.733C114.276 276.129 114.37 276.484 114.557 276.799C114.744 277.11 115.068 277.265 115.527 277.265C115.974 277.265 116.289 277.11 116.472 276.799C116.659 276.484 116.753 276.129 116.753 275.733V275.043C116.753 274.647 116.664 274.294 116.485 273.983C116.306 273.669 115.987 273.511 115.527 273.511C115.08 273.511 114.759 273.669 114.563 273.983C114.372 274.294 114.276 274.647 114.276 275.043ZM113.459 285.667L122.448 272.592H123.904L114.914 285.667H113.459Z" fill="black"/>
<rect x="0.5" y="316.922" width="50.059" height="50.059" fill="#1C8A00" stroke="black"/>
<path d="M64.9044 335.698C65.4407 335.702 65.977 335.804 66.5133 336.004C67.0495 336.204 67.539 336.536 67.9817 337C68.4243 337.46 68.7797 338.087 69.0479 338.883C69.316 339.679 69.4501 340.677 69.4501 341.878C69.4501 343.04 69.3394 344.072 69.1181 344.974C68.901 345.872 68.5861 346.63 68.1732 347.247C67.7646 347.864 67.2666 348.332 66.6793 348.652C66.0961 348.971 65.4364 349.13 64.7001 349.13C63.968 349.13 63.3147 348.986 62.7401 348.696C62.1697 348.403 61.7015 347.996 61.3355 347.477C60.9737 346.953 60.7417 346.347 60.6396 345.657H62.1974C62.3378 346.257 62.6166 346.753 63.0337 347.145C63.4551 347.532 64.0106 347.726 64.7001 347.726C65.7088 347.726 66.5047 347.285 67.0879 346.404C67.6752 345.523 67.9689 344.278 67.9689 342.669H67.8668C67.6284 343.027 67.3454 343.335 67.0176 343.595C66.6899 343.855 66.326 344.055 65.9259 344.195C65.5258 344.336 65.1002 344.406 64.649 344.406C63.8999 344.406 63.2125 344.221 62.5868 343.851C61.9654 343.476 61.4674 342.963 61.0929 342.312C60.7226 341.656 60.5374 340.907 60.5374 340.065C60.5374 339.264 60.7162 338.532 61.0737 337.868C61.4355 337.2 61.942 336.668 62.5932 336.272C63.2487 335.876 64.0191 335.685 64.9044 335.698ZM64.9044 337.102C64.3681 337.102 63.885 337.236 63.4551 337.504C63.0295 337.768 62.6911 338.126 62.44 338.577C62.1931 339.024 62.0697 339.52 62.0697 340.065C62.0697 340.609 62.1889 341.105 62.4272 341.552C62.6698 341.995 62.9997 342.348 63.4168 342.612C63.8382 342.872 64.317 343.001 64.8533 343.001C65.2577 343.001 65.6343 342.923 65.9833 342.765C66.3324 342.603 66.6367 342.384 66.8963 342.108C67.1602 341.827 67.3666 341.51 67.5156 341.156C67.6646 340.799 67.7391 340.426 67.7391 340.039C67.7391 339.528 67.6156 339.049 67.3688 338.603C67.1262 338.156 66.7899 337.794 66.36 337.517C65.9344 337.24 65.4492 337.102 64.9044 337.102ZM76.2256 349.13C75.2636 349.13 74.4443 348.869 73.7676 348.345C73.0908 347.817 72.5737 347.053 72.2161 346.053C71.8586 345.049 71.6799 343.836 71.6799 342.414C71.6799 341.001 71.8586 339.794 72.2161 338.794C72.5779 337.79 73.0972 337.023 73.7739 336.496C74.4549 335.964 75.2722 335.698 76.2256 335.698C77.179 335.698 77.994 335.964 78.6708 336.496C79.3518 337.023 79.8711 337.79 80.2286 338.794C80.5904 339.794 80.7713 341.001 80.7713 342.414C80.7713 343.836 80.5925 345.049 80.235 346.053C79.8774 347.053 79.3603 347.817 78.6836 348.345C78.0068 348.869 77.1875 349.13 76.2256 349.13ZM76.2256 347.726C77.179 347.726 77.9196 347.266 78.4473 346.347C78.9751 345.427 79.239 344.117 79.239 342.414C79.239 341.282 79.1177 340.318 78.8751 339.522C78.6367 338.726 78.292 338.119 77.8408 337.702C77.3939 337.285 76.8555 337.077 76.2256 337.077C75.2807 337.077 74.5422 337.543 74.0102 338.475C73.4781 339.403 73.2121 340.716 73.2121 342.414C73.2121 343.546 73.3313 344.508 73.5696 345.3C73.808 346.091 74.1506 346.694 74.5975 347.107C75.0487 347.519 75.5914 347.726 76.2256 347.726ZM88.8412 341.712V343.116H83.1207V341.712H88.8412ZM96.0636 335.876V348.952H94.4802V337.536H94.4036L91.2114 339.656V338.047L94.4802 335.876H96.0636ZM104.089 349.13C103.127 349.13 102.308 348.869 101.631 348.345C100.954 347.817 100.437 347.053 100.079 346.053C99.7218 345.049 99.5431 343.836 99.5431 342.414C99.5431 341.001 99.7218 339.794 100.079 338.794C100.441 337.79 100.96 337.023 101.637 336.496C102.318 335.964 103.135 335.698 104.089 335.698C105.042 335.698 105.857 335.964 106.534 336.496C107.215 337.023 107.734 337.79 108.092 338.794C108.454 339.794 108.634 341.001 108.634 342.414C108.634 343.836 108.456 345.049 108.098 346.053C107.741 347.053 107.224 347.817 106.547 348.345C105.87 348.869 105.051 349.13 104.089 349.13ZM104.089 347.726C105.042 347.726 105.783 347.266 106.311 346.347C106.838 345.427 107.102 344.117 107.102 342.414C107.102 341.282 106.981 340.318 106.738 339.522C106.5 338.726 106.155 338.119 105.704 337.702C105.257 337.285 104.719 337.077 104.089 337.077C103.144 337.077 102.405 337.543 101.873 338.475C101.341 339.403 101.075 340.716 101.075 342.414C101.075 343.546 101.195 344.508 101.433 345.3C101.671 346.091 102.014 346.694 102.461 347.107C102.912 347.519 103.455 347.726 104.089 347.726ZM115.325 349.13C114.363 349.13 113.544 348.869 112.867 348.345C112.191 347.817 111.673 347.053 111.316 346.053C110.958 345.049 110.78 343.836 110.78 342.414C110.78 341.001 110.958 339.794 111.316 338.794C111.678 337.79 112.197 337.023 112.874 336.496C113.555 335.964 114.372 335.698 115.325 335.698C116.279 335.698 117.094 335.964 117.771 336.496C118.452 337.023 118.971 337.79 119.328 338.794C119.69 339.794 119.871 341.001 119.871 342.414C119.871 343.836 119.692 345.049 119.335 346.053C118.977 347.053 118.46 347.817 117.783 348.345C117.107 348.869 116.287 349.13 115.325 349.13ZM115.325 347.726C116.279 347.726 117.019 347.266 117.547 346.347C118.075 345.427 118.339 344.117 118.339 342.414C118.339 341.282 118.218 340.318 117.975 339.522C117.737 338.726 117.392 338.119 116.941 337.702C116.494 337.285 115.955 337.077 115.325 337.077C114.38 337.077 113.642 337.543 113.11 338.475C112.578 339.403 112.312 340.716 112.312 342.414C112.312 343.546 112.431 344.508 112.669 345.3C112.908 346.091 113.25 346.694 113.697 347.107C114.148 347.519 114.691 347.726 115.325 347.726ZM128.962 346.5V345.811C128.962 345.334 129.06 344.898 129.256 344.502C129.456 344.102 129.746 343.782 130.124 343.544C130.508 343.301 130.971 343.18 131.516 343.18C132.07 343.18 132.534 343.301 132.908 343.544C133.283 343.782 133.566 344.102 133.757 344.502C133.949 344.898 134.044 345.334 134.044 345.811V346.5C134.044 346.977 133.947 347.415 133.751 347.815C133.559 348.211 133.274 348.53 132.895 348.773C132.521 349.011 132.061 349.13 131.516 349.13C130.963 349.13 130.497 349.011 130.118 348.773C129.739 348.53 129.452 348.211 129.256 347.815C129.06 347.415 128.962 346.977 128.962 346.5ZM130.265 345.811V346.5C130.265 346.896 130.359 347.251 130.546 347.566C130.733 347.877 131.057 348.032 131.516 348.032C131.963 348.032 132.278 347.877 132.461 347.566C132.648 347.251 132.742 346.896 132.742 346.5V345.811C132.742 345.415 132.653 345.061 132.474 344.751C132.295 344.436 131.976 344.278 131.516 344.278C131.069 344.278 130.748 344.436 130.552 344.751C130.361 345.061 130.265 345.415 130.265 345.811ZM122.45 339.017V338.328C122.45 337.851 122.548 337.415 122.744 337.019C122.944 336.619 123.234 336.3 123.612 336.062C123.995 335.819 124.459 335.698 125.004 335.698C125.557 335.698 126.021 335.819 126.396 336.062C126.771 336.3 127.054 336.619 127.245 337.019C127.437 337.415 127.532 337.851 127.532 338.328V339.017C127.532 339.494 127.434 339.933 127.239 340.333C127.047 340.729 126.762 341.048 126.383 341.29C126.009 341.529 125.549 341.648 125.004 341.648C124.451 341.648 123.985 341.529 123.606 341.29C123.227 341.048 122.94 340.729 122.744 340.333C122.548 339.933 122.45 339.494 122.45 339.017ZM123.753 338.328V339.017C123.753 339.413 123.846 339.769 124.034 340.084C124.221 340.394 124.544 340.55 125.004 340.55C125.451 340.55 125.766 340.394 125.949 340.084C126.136 339.769 126.23 339.413 126.23 339.017V338.328C126.23 337.932 126.141 337.579 125.962 337.268C125.783 336.953 125.464 336.796 125.004 336.796C124.557 336.796 124.236 336.953 124.04 337.268C123.849 337.579 123.753 337.932 123.753 338.328ZM122.936 348.952L131.925 335.876H133.381L124.391 348.952H122.936Z" fill="black"/>
</svg>
