<svg width="541" height="340" viewBox="0 0 541 340" fill="none" xmlns="http://www.w3.org/2000/svg">
<path d="M171.976 0.449655C171.11 0.784178 167.853 1.58113 164.665 2.17639C160.743 2.84051 157.821 3.83916 155.759 5.16741L152.768 7.09583L151.971 19.1239C151.237 29.2235 150.908 31.4864 149.845 33.0115C149.112 34.0741 148.517 35.0038 148.517 35.1367C148.517 35.3384 150.18 36.5977 152.172 38.0588L155.828 40.6514V45.9693C155.828 48.8914 156.094 52.2809 156.428 53.4764C156.896 54.9374 156.827 56.2017 156.359 57.2643C155.828 58.5286 155.828 59.1239 156.492 59.9208C157.225 60.7867 157.225 61.2491 156.492 62.6462C155.828 63.7777 155.828 64.5058 156.29 64.9731C157.22 65.9029 161.476 66.8327 164.797 66.9015C166.259 66.9015 169.983 67.5656 173.108 68.2986C176.232 69.0956 181.083 69.7597 183.942 69.8286C189.059 69.8975 189.192 69.9614 191.184 72.2194C196.636 78.6 196.901 78.7328 199.362 75.0088C200.626 73.0164 200.956 71.9538 200.626 70.291C200.291 68.6971 200.493 67.9641 201.423 67.3C202.486 66.503 202.555 66.1685 201.822 64.5746C201.354 63.6448 201.157 62.5134 201.423 62.1838C202.023 61.1212 206.875 58.9271 208.533 58.9271C210.329 58.9271 210.993 57.0676 210.993 52.2809C210.993 50.6182 211.524 49.2899 212.587 48.0945C213.453 47.1647 214.516 44.7739 214.914 42.9094C215.711 39.3871 215.514 38.8558 213.384 38.1228C213.049 37.9899 213.118 37.2569 213.586 36.46C214.186 35.3974 214.186 34.6644 213.655 33.6018C213.187 32.8688 213.054 31.5406 213.256 30.6797C213.591 29.4842 213.187 28.7512 211.593 27.423C209.202 25.3617 207.406 25.2289 204.547 26.9556C202.156 28.4856 201.689 28.2199 201.689 25.3617C201.689 22.2379 200.36 20.9736 196.769 20.5751C194.176 20.2406 193.511 19.8421 192.714 18.3171C192.183 17.3184 191.716 15.3949 191.716 14.0618C191.716 12.2022 191.381 11.5381 189.989 10.9379C188.66 10.2738 187.996 10.3377 186.402 11.2724C184.276 12.5367 182.013 12.7335 181.418 11.7398C181.152 11.3413 179.824 10.4755 178.362 9.74741C176.104 8.55199 175.769 8.08464 175.705 5.89057C175.637 2.76672 174.908 0.243038 174.111 0.0413405C173.713 -0.0914845 172.783 0.110219 171.986 0.439822L171.976 0.449655Z" fill="#2FFF1C"/>
<path d="M227.14 34.807C225.945 35.9384 224.946 37.3306 224.946 37.9308C224.946 39.4608 222.555 40.4545 219.431 40.1888L216.705 39.9871L215.908 43.5095C215.44 45.5018 214.51 47.7648 213.782 48.4929C212.985 49.4226 212.321 51.415 212.055 53.8747C211.524 58.7253 210.658 60.452 209 59.9207C208.336 59.719 206.874 59.9896 205.876 60.5209C202.289 62.5133 202.22 62.5133 203.086 64.4417C203.75 65.9716 203.686 66.4341 202.618 67.6295C201.821 68.4953 201.487 69.7547 201.556 71.1518C201.688 72.7457 201.088 74.3396 198.963 77.4635L196.173 81.6499L197.703 84.4392L199.164 87.2286L197.437 89.7522C196.508 91.1494 195.71 92.6104 195.71 92.94C195.71 93.3385 196.773 94.6668 198.038 95.9311C199.435 97.3282 200.365 98.9221 200.365 99.8519C200.365 101.047 200.965 101.78 202.623 102.508C204.217 103.305 205.28 104.57 206.412 107.029L208.006 110.419L211.396 110.217C213.256 110.148 216.779 109.484 219.307 108.82C223.431 107.689 224.095 107.625 227.086 108.485C231.008 109.681 234.265 113.602 234.265 117.193C234.265 118.989 234.599 119.52 236.061 120.115C237.123 120.514 238.452 121.247 239.052 121.842C240.051 122.708 240.582 122.639 244.833 120.577C249.153 118.516 249.488 118.251 249.488 116.258C249.557 114.728 250.019 113.867 251.082 113.336C251.879 112.869 254.004 111.408 255.8 110.015C257.596 108.554 259.456 107.423 259.923 107.423C260.391 107.423 261.518 108.156 262.447 109.086C263.446 110.084 264.908 110.748 266.034 110.748C267.033 110.748 268.229 111.083 268.691 111.545C269.291 112.146 269.823 112.013 271.018 110.881C271.884 110.084 272.745 109.42 272.947 109.42C273.213 109.42 274.01 110.483 274.807 111.747C275.604 113.011 277.533 114.935 278.994 116.002C281.252 117.596 282.118 118.792 283.447 122.383C285.243 127.17 285.641 127.701 288.101 128.365C289.43 128.699 290.296 128.232 292.687 125.772C295.476 122.914 295.545 122.717 294.812 120.789C294.079 119.195 294.148 118 295.014 114.276C295.545 111.816 295.811 108.559 295.614 107.034C295.349 105.042 295.614 103.645 296.677 101.584C297.41 100.122 298.473 96.4673 299.004 93.5402C299.87 88.4879 300.136 87.8927 303.659 83.7702C305.784 81.3105 308.047 78.1866 308.776 76.7944L310.04 74.2019H308.18C307.181 74.2019 305.72 73.7345 304.992 73.2032C304.328 72.6719 302.665 72.2046 301.336 72.2046C299.673 72.2046 297.75 71.4716 295.353 69.8137C291.831 67.4868 291.767 67.4868 289.572 68.4855C286.581 69.9466 285.183 69.8137 281.73 67.8213C279.137 66.2914 278.472 66.1586 277.011 66.8227C274.817 67.8213 273.956 67.0884 272.091 62.5674C270.895 59.7092 270.098 58.7794 267.771 57.6479C265.178 56.3197 264.583 56.2508 261.06 56.9838C257.404 57.7168 257.006 57.6479 253.95 55.9852C251.889 54.9226 249.63 54.2584 247.835 54.2584C245.507 54.2584 244.445 53.7911 242.053 51.7348C240.459 50.3376 238.196 48.8126 237.069 48.4141C235.874 47.9468 234.078 47.2827 233.015 46.8842C231.288 46.284 230.89 45.6199 230.358 42.6977C229.96 40.8382 229.561 37.7783 229.492 35.9876L229.291 32.667L227.165 34.7922L227.14 34.807Z" fill="#8BFF26"/>
<path d="M143.193 38.3986C140.802 39.7957 137.21 41.4536 135.217 42.0537C133.225 42.585 128.969 44.3118 125.78 45.8417C120.663 48.2326 119.866 48.8327 118.936 51.0908C117.874 53.8161 118.203 55.2133 120.201 56.94C120.801 57.4073 121.264 58.0026 121.264 58.2043C121.264 59.6654 109.367 64.1175 107.905 63.1877C107.305 62.8532 101.125 62.0562 91.1572 61.1264L86.5716 60.728L84.2444 57.2056C81.9861 53.8161 81.9861 53.6833 83.1128 52.0205C84.5101 49.8265 84.0427 49.2952 80.8544 49.5608C79.526 49.6936 76.136 49.8265 73.4102 49.8953C68.8246 49.9642 68.4901 50.0282 69.4889 51.0268C70.1531 51.6909 70.4877 52.7535 70.2859 53.7522C69.7546 56.5415 71.2847 60.728 73.4102 62.2579C75.8703 64.0535 76.6674 66.71 77.1987 75.6831C77.5973 82.7277 77.5973 82.7917 79.4571 83.5935C81.9172 84.5922 81.9172 85.4531 79.3882 86.3829C76.9281 87.3126 76.8642 88.3113 79.1225 90.102C80.2739 91.0334 81.4038 91.0563 82.5125 90.1708C84.3723 88.7098 86.6996 88.8426 93.2138 90.6382C95.9396 91.3712 97.4698 91.4351 99.861 90.9727C107.438 89.3099 109.101 89.3788 111.561 91.504C114.085 93.762 116.545 94.0277 119.537 92.5027C122.262 91.0416 123.192 91.2384 123.591 93.2996C123.857 94.3622 124.255 95.6265 124.521 96.1578C124.988 97.1565 128.309 98.9471 131.099 99.8129C132.364 100.211 132.56 100.015 132.56 98.283C132.56 97.0187 133.225 95.8233 134.553 94.6279C137.013 92.4338 137.077 91.1055 134.888 88.1834C133.958 86.9191 133.225 85.8565 133.225 85.7925C133.225 85.7925 134.888 84.5971 136.88 83.2688C139.271 81.7389 141.269 80.878 142.73 80.878C145.653 80.878 147.449 78.8856 148.979 73.9662C149.712 71.5753 150.775 69.7109 151.636 69.0467C152.502 68.5154 153.166 67.7824 153.166 67.384C153.166 66.9855 153.766 65.3916 154.563 63.8616C155.626 61.6036 155.759 60.7378 155.164 59.6752C154.765 58.8094 154.696 57.8156 155.031 57.0826C155.296 56.4825 155.429 52.7634 155.296 48.7737L155.031 41.6651L151.242 38.743L147.454 35.8208L143.198 38.4133L143.193 38.3986Z" fill="#8BFF26"/>
<path d="M154.495 66.8426C154.495 67.5756 153.629 68.771 152.566 69.4991C150.042 71.2947 149.378 74.6153 151.105 76.4749C151.769 77.2718 152.502 79.1314 152.699 80.7302C153.033 83.5195 155.956 88.5718 159.941 93.3584C161.004 94.5538 161.801 95.951 161.801 96.4823C161.801 97.2792 162.8 97.4809 165.988 97.5449C171.705 97.6137 174.697 98.7403 174.963 100.998C175.164 102.725 175.297 102.794 179.75 102.794C186.062 102.794 186.397 102.592 186.397 98.8042C186.397 96.7217 187.238 95.5262 188.921 95.2179C190.249 95.0163 192.242 94.8195 193.241 94.8195C194.771 94.8195 195.037 94.5538 194.771 93.6241C194.505 92.8911 195.037 91.366 196.1 89.7672L197.895 87.1747L196.365 84.4493C195.101 82.0584 195.037 81.4583 195.834 80.194C196.567 78.9297 196.567 78.664 195.701 78.3344C195.17 78.1327 193.241 76.406 191.445 74.4136L188.188 70.8913H184.001C181.743 70.8913 177.354 70.2911 174.298 69.627C171.243 68.894 166.52 68.0971 163.799 67.8314C161.073 67.5658 158.018 66.9656 157.019 66.5031C154.691 65.3077 154.495 65.3077 154.495 66.8377V66.8426Z" fill="#1C8A00"/>
<path d="M148.91 77.2769C148.113 79.8694 145.254 82.1963 142.794 82.1963C140.334 82.1963 135.217 85.1185 135.217 86.4517C135.217 86.8501 135.685 87.7799 136.216 88.444C137.879 90.7021 137.48 93.6931 135.217 95.3558L133.288 96.8169L133.687 105.455L134.085 114.03L129.766 118.285C126.312 121.675 124.845 122.674 122.72 123.072C120.127 123.47 120.063 123.603 119.596 126.594C119.33 128.321 118.4 130.914 117.534 132.444C116.668 133.905 115.94 136.03 115.94 137.161C115.94 138.824 116.338 139.355 118.666 140.418C120.526 141.215 121.657 142.214 122.12 143.542C122.72 145.401 122.917 145.47 125.908 145.072C128.964 144.673 129.165 144.737 131.227 147.133C132.359 148.53 134.149 151.521 135.281 153.779C136.477 156.303 138.273 158.763 139.867 160.027C141.264 161.158 142.789 162.949 143.188 163.948C144.187 166.339 145.712 166.737 149.633 165.542C151.429 165.01 155.616 164.612 159.867 164.612H167.11L168.571 162.354C169.57 160.893 170.962 159.83 172.561 159.363C174.224 158.831 175.085 158.167 175.085 157.37C175.085 155.909 178.475 152.653 180.005 152.653C182.795 152.653 186.254 151.123 186.652 149.73C187.449 146.676 186.987 143.483 184.989 139.365C183.395 135.976 183.061 134.515 183.326 132.586C183.592 130.923 183.326 129.33 182.593 127.736C181.531 125.478 181.531 125.276 182.662 123.416C183.725 121.621 183.725 121.291 182.795 119.963C181.265 117.838 181.467 116.972 183.661 115.84C185.723 114.709 187.715 111.187 187.715 108.599C187.715 105.544 184.989 104.147 178.943 104.147H173.624L173.89 102.155C174.155 100.492 173.89 100.093 172.227 99.498C171.095 99.1635 168.305 98.8339 165.978 98.8339C161.791 98.8339 161.722 98.8339 160.792 96.6398C160.261 95.3755 159.395 93.9833 158.799 93.516C156.674 91.7204 151.955 83.682 151.488 81.0206C151.286 79.5595 150.691 77.8328 150.224 77.1637C149.358 76.0323 149.294 76.0323 148.895 77.2966L148.91 77.2769Z" fill="#2FFF1C"/>
<path d="M36.519 79.8643C36.1845 79.9971 34.1278 80.2628 32.0663 80.5284C28.3467 80.9269 28.2089 80.9958 28.2089 82.9193C28.2089 85.2462 27.1461 85.8414 24.6861 84.9116C23.2248 84.3115 22.8902 84.4443 22.5606 85.5118C22.0292 87.1746 21.4289 87.1746 19.9037 85.5118C19.2394 84.7788 18.0438 84.1836 17.1779 84.1836C15.6477 84.1836 7.27363 87.3074 2.88977 89.5654C0.100044 90.9626 -0.298508 91.6906 0.163987 94.6817L0.498554 96.9397L4.28708 96.4723C7.01285 96.1378 8.73982 96.3395 10.4668 97.0725C14.1225 98.5336 13.5222 99.4634 8.93663 99.4634C5.34984 99.4634 4.9464 99.5962 4.9464 100.86C4.9464 102.056 5.21209 102.189 6.67338 101.859C7.80501 101.525 9.00061 101.79 9.99448 102.459C12.6514 104.186 11.9232 105.185 7.60326 106.114C5.40887 106.582 3.41622 107.177 3.28338 107.512C3.08165 107.777 4.41501 108.909 6.14199 109.971C8.13465 111.167 9.72879 112.761 10.2651 114.025C10.7325 115.156 11.3967 116.086 11.7264 116.086C12.7891 116.086 15.1803 114.625 15.7806 113.695C16.7105 112.033 19.8348 112.633 21.365 114.694C22.5606 116.288 23.4265 116.622 26.7476 117.021C29.4734 117.355 31.0675 117.887 31.9334 118.816C34.5903 121.739 44.6275 125.394 50.079 125.394C51.9388 125.394 53.2672 125.861 54.6006 126.988L56.3965 128.582L59.5847 126.786C61.7102 125.591 63.0387 124.262 63.8407 122.531C64.4409 121.202 64.9723 120.071 65.0363 120.071C68.3574 119.869 73.3464 118.344 75.8704 116.814C77.7303 115.683 79.9935 114.753 80.9235 114.753C82.2519 114.753 83.1178 114.089 84.3774 112.096C85.4402 110.434 86.5718 109.44 87.3688 109.44C89.3615 109.44 89.5633 108.176 88.102 104.122C86.9064 100.865 86.9063 100.265 87.7674 99.0059C88.4316 97.8744 88.5644 96.4822 88.2988 93.8208C87.9002 90.5001 87.6985 90.1656 86.2372 90.1656C85.3073 90.1656 83.846 90.7658 82.9161 91.4939C80.9234 93.0238 79.5261 92.5565 77.2678 89.5015C76.0033 87.7059 75.408 87.5091 72.3476 87.5091C70.1532 87.5091 68.628 87.1746 68.0917 86.5105C67.4275 85.7135 67.0929 85.7135 65.7005 86.5793C64.5688 87.3763 63.3733 87.5091 61.6463 87.2435C56.5933 86.3137 54.4678 86.7122 51.0138 89.2358C49.5525 90.2984 49.4197 90.2345 47.3582 88.0404C46.1626 86.7761 44.101 84.587 42.8365 83.057C40.711 80.5333 38.2509 79.3379 36.524 79.8692L36.519 79.8643Z" fill="#2FFF1C"/>
<path d="M107.305 90.8295C105.578 91.8921 95.0739 92.2906 92.1514 91.4297C90.6212 90.9623 89.2288 90.7656 89.0959 90.8984C88.9631 91.0312 89.096 92.6251 89.3617 94.4847C89.7602 96.9444 89.6273 98.2038 88.8942 99.4681C88.0283 100.998 88.0283 101.46 89.2928 104.653C91.0197 108.972 91.0197 110.104 89.4256 110.104C87.0984 110.104 85.9716 110.901 84.6383 113.493C83.5755 115.687 83.0441 116.086 81.2483 116.086C80.1167 116.086 77.7944 116.883 76.1313 117.882C74.4683 118.88 71.4129 120.007 69.4202 120.405C66.232 121.069 65.5628 121.468 64.3672 123.662C63.5013 125.123 61.8432 126.717 60.0474 127.652C58.4532 128.517 56.4606 130.111 55.5946 131.238L54.0005 133.299L56.7262 135.026L59.3831 136.821L61.179 135.424C62.906 134.027 65.6317 133.629 67.6933 134.426C69.4202 135.09 68.8889 135.956 66.4288 136.418C64.1015 136.816 63.3045 137.481 62.5714 139.473C62.2368 140.339 62.7042 140.934 64.1016 141.667C65.6317 142.464 66.0942 143.128 66.0942 144.658C66.0942 145.721 65.6268 146.985 65.0954 147.58C63.6341 148.977 63.8309 149.573 66.5567 153.828C67.954 155.889 69.681 158.811 70.4141 160.272C71.5458 162.398 72.8053 163.396 76.7956 165.458C79.5213 166.855 83.0442 168.183 84.5743 168.38C87.0344 168.714 87.5658 168.581 88.4957 167.317L89.4945 165.856L90.9558 167.184C92.3531 168.512 92.4859 168.512 95.8759 167.45C98.9314 166.451 99.3299 166.122 99.0642 164.857C98.8625 164.124 98.4 161.335 98.0014 158.679C97.6029 155.687 96.6041 152.5 95.3446 150.173C93.1502 146.119 93.1502 144.658 95.2757 144.658C96.0088 144.658 97.534 143.792 98.6657 142.73C100.924 140.668 105.111 139.739 108.634 140.403C111.891 141.067 114.548 139.606 114.946 136.748C115.212 135.419 116.078 132.827 117.008 131.031C117.874 129.172 118.602 126.579 118.602 125.182C118.602 122.791 118.671 122.722 121.461 122.324C123.719 121.925 125.048 121.06 128.639 117.473L133.092 113.085L132.757 107.039L132.423 100.924L130.297 100.526C125.776 99.6599 122.587 96.8706 122.587 93.8156C122.587 92.5513 121.392 92.6202 119.266 93.8156C116.609 95.3456 114.346 95.011 111.158 92.5513C109.229 91.0902 107.901 90.4901 107.301 90.8246L107.305 90.8295Z" fill="#2FFF1C"/>
<path d="M187.725 99.0696C187.725 100.865 187.327 102.257 186.726 102.789C185.797 103.586 185.861 103.787 187.061 105.116C188.522 106.71 188.857 110.566 187.661 112.957C187.263 113.754 185.998 115.215 184.936 116.145L182.874 117.872L184.138 119.933C185.334 121.994 185.334 122.058 183.937 123.519C182.672 124.916 182.608 125.182 183.405 126.707C183.937 127.637 184.335 129.895 184.404 131.759C184.404 134.086 185.004 136.477 186.264 139.07C187.661 142.125 188.06 143.989 188.06 147.379C188.06 150.237 188.394 152.229 189.123 153.292C190.053 154.753 190.318 154.822 192.247 154.025C194.308 153.159 197.034 153.557 197.034 154.689C197.034 155.953 198.166 155.22 198.963 153.493L199.829 151.634L201.226 153.429C202.023 154.428 203.553 156.421 204.547 157.95C205.541 159.48 207.273 161.005 208.336 161.34C209.531 161.807 210.461 162.737 210.929 164.065C211.992 166.987 211.859 167.588 209.866 169.915C208.139 172.04 208.139 172.109 209.399 173.038C210.265 173.703 211.46 173.835 213.32 173.506C216.774 172.974 218.107 172.241 218.639 170.584C218.973 169.585 219.637 169.255 221.232 169.255C222.363 169.255 223.756 168.857 224.223 168.39C224.887 167.725 225.355 167.922 226.614 169.452L228.208 171.248L229.138 169.452C229.67 168.39 230.334 166.264 230.6 164.602C230.865 162.939 231.397 161.414 231.731 161.212C232.066 161.01 233.99 161.212 236.051 161.679C239.043 162.344 240.307 163.077 242.496 165.536C244.314 167.484 247.039 168.591 250.674 168.857L256.125 169.255L258.187 165.802C259.25 163.873 260.18 161.547 260.18 160.686C260.18 159.554 261.242 158.029 263.437 156.032C267.156 152.51 268.155 150.847 268.155 148.121C268.155 145.927 269.021 144.998 271.609 144.333C272.805 143.999 274.133 142.671 275.599 140.477C276.795 138.548 278.788 135.892 280.052 134.495L282.246 132.035H280.519C278.394 132.035 278.261 130.638 280.185 127.912C281.115 126.648 282.045 126.053 282.778 126.25C283.777 126.515 283.708 126.048 282.246 122.26C280.849 118.87 280.052 117.739 278.059 116.612C276.662 115.879 275.068 114.222 274.404 113.026C272.942 110.37 272.608 110.301 271.279 112.229C270.349 113.759 270.281 113.759 268.288 112.564C267.156 111.963 265.498 111.432 264.499 111.432C263.368 111.432 262.241 110.832 261.444 109.838L260.18 108.175L255.195 111.629C251.008 114.551 250.275 115.348 250.211 117.08C250.142 118.875 249.68 119.338 245.094 121.601C240.11 124.06 240.041 124.124 238.649 122.865C237.916 122.201 236.258 121.202 235.126 120.74C233.197 120.007 232.932 119.608 232.932 117.552C232.932 114.162 230.737 111.039 227.347 109.774C224.558 108.712 224.159 108.712 218.904 109.976C211.396 111.772 208.803 112.17 207.937 111.57C207.539 111.304 206.407 109.578 205.477 107.713C204.282 105.386 203.15 104.058 201.758 103.458C200.163 102.794 199.696 102.193 199.696 100.801C199.696 97.7463 197.039 96.1475 191.986 96.1475H187.73V99.0696H187.725Z" fill="#8BFF26"/>
<path d="M113.618 140.806C112.885 141.274 109.829 141.603 106.838 141.672C101.854 141.672 101.253 141.805 99.5265 143.468C98.5277 144.466 96.8696 145.396 95.9397 145.662L94.2127 146.06L96.4071 150.183C97.8684 152.972 98.7983 155.963 99.2658 159.353C99.6643 162.078 100.132 164.867 100.397 165.467C100.732 166.333 100.265 166.865 98.6015 167.529C94.9458 169.059 91.4919 169.521 90.3602 168.591C89.6271 167.991 89.0958 168.458 87.7034 171.317C85.9764 174.637 85.9764 174.903 86.9703 177.033C88.5644 180.423 88.3676 184.274 86.37 186.272C84.1756 188.466 84.9087 190.193 89.5583 193.38C91.6198 194.777 94.2767 197.503 95.6052 199.362C97.465 202.221 97.9963 203.682 98.3309 207.602C98.6655 210.992 98.5966 212.453 98.0652 212.453C97.6667 212.453 97.0664 211.789 96.7368 210.923C94.5424 205.408 93.5485 203.613 90.6899 200.823L87.5016 197.636L87.1031 200.558C85.509 214.18 84.7119 222.622 84.7119 225.677C84.7119 227.669 84.2445 233.184 83.7131 237.97C83.1817 242.757 82.3847 249.201 82.0501 252.325C81.7155 255.449 80.456 260.767 79.2604 264.22C77.4006 269.538 76.8003 270.665 74.9405 271.796C73.7449 272.46 72.7461 273.257 72.7461 273.523C72.7461 274.389 77.4006 276.248 79.4572 276.248C81.5138 276.248 81.5187 276.317 81.253 278.772C81.0513 280.1 80.7217 281.694 80.456 282.294C79.7918 283.824 81.9861 284.552 82.98 283.16C83.7131 282.23 84.1116 282.294 86.9703 284.09C88.6972 285.222 91.5559 286.481 93.4157 286.879C95.9397 287.48 97.1353 288.276 98.7344 290.269C100.53 292.596 101.062 292.861 103.718 292.861H106.641V289.605C106.641 287.278 107.108 285.817 108.304 284.154C114.218 275.914 114.882 270.399 110.164 267.541L107.906 266.144L108.107 260.427C108.309 255.11 108.442 254.711 110.169 253.383C111.699 252.251 112.23 252.187 113.293 252.852C115.02 253.914 115.286 253.85 115.286 252.65C115.286 252.05 115.95 251.386 116.816 251.056C118.745 250.323 125.854 248.995 128.049 248.995C129.18 248.995 130.642 248.065 132.501 246.004C135.158 243.145 135.291 242.816 134.893 240.022C134.425 237.232 134.494 237.099 136.29 236.898C138.086 236.696 138.219 236.499 138.017 234.305C137.815 232.377 138.283 231.314 140.408 228.658C141.869 226.862 143.798 224.668 144.797 223.807C146.061 222.612 146.524 221.549 146.524 219.754C146.524 214.834 152.241 212.512 155.429 216.231C156.959 217.958 156.959 218.027 159.351 216.895C160.615 216.295 162.14 215.764 162.741 215.764C164.005 215.764 165.132 213.771 165.132 211.312C165.132 208.321 169.122 202.339 171.976 200.878C173.905 199.948 174.367 199.417 174.037 198.551C173.772 197.951 173.506 195.629 173.437 193.366C173.437 190.507 173.039 188.913 172.242 187.984C170.711 186.321 170.78 186.055 173.437 183.133L175.695 180.609L174.367 175.759C173.634 173.102 172.64 170.775 172.242 170.643C171.774 170.51 170.313 169.246 168.984 167.853C166.524 165.261 166.46 165.261 161.338 165.261C158.48 165.261 154.096 165.728 151.503 166.259C144.792 167.721 143.995 167.588 142.662 165.197C142.061 164.065 140.403 162.009 138.942 160.676C137.545 159.348 135.488 156.489 134.42 154.295C133.289 152.101 131.631 149.312 130.701 148.18C129.17 146.119 128.841 145.986 125.382 146.188C121.928 146.321 121.662 146.188 121.259 144.658C121.057 143.66 119.798 142.4 118.267 141.534C115.212 139.808 115.345 139.808 113.613 140.801L113.618 140.806Z" fill="#2FFF1C"/>
<path d="M181.944 153.233C178.623 153.833 176.428 155.56 176.428 157.685C176.428 158.949 175.897 159.348 173.836 159.943C170.711 160.74 168.118 163.864 168.783 165.925C169.048 166.658 170.313 167.986 171.641 168.916C173.634 170.313 174.298 171.307 175.228 174.697C176.822 180.344 176.758 181.343 174.431 183.537C172.172 185.731 171.971 186.661 173.501 187.925C174.298 188.589 174.5 189.519 174.165 191.644C173.963 193.371 174.165 195.501 174.765 197.228C175.897 200.351 175.828 200.548 172.906 201.547C170.578 202.344 166.46 208.326 166.46 210.982C166.46 211.779 166.062 213.442 165.53 214.702C164.797 216.497 164.797 217.092 165.53 218.489C165.998 219.355 166.46 220.949 166.46 222.076C166.529 226.198 167.06 227.059 169.781 227.059C172.173 227.059 172.438 226.793 174.367 223.473C176.36 219.951 178.554 217.756 180.217 217.756C180.684 217.756 181.811 218.952 182.741 220.413C184.67 223.404 185.531 223.734 186.131 221.544C186.397 220.546 187.991 219.35 191.115 217.825C193.639 216.561 195.834 215.7 195.966 215.833C196.099 215.966 196.699 217.097 197.295 218.224C198.225 220.152 198.623 220.349 200.419 219.951C202.146 219.616 202.81 219.951 205.074 222.145C206.535 223.542 207.667 225.332 207.667 226.134C207.667 227.595 210.323 235.171 211.986 238.364C213.315 240.957 214.845 241.355 216.774 239.559L218.368 238.03L222.156 239.427C225.015 240.489 226.279 240.622 227.077 240.091C227.942 239.559 228.538 239.692 229.537 240.622C231.332 242.285 232.395 241.419 231.864 238.63C231.465 236.504 231.598 236.372 233.192 236.372C234.988 236.372 235.185 236.573 235.849 239.825C236.184 241.286 236.848 241.817 239.037 242.418C240.568 242.816 242.826 243.815 244.09 244.676C248.41 247.598 250.802 244.076 246.816 240.755C244.425 238.694 243.028 234.773 244.292 233.312C244.691 232.78 245.886 232.382 246.949 232.382C248.612 232.382 248.809 232.116 249.011 229.922C249.143 228.063 249.611 227.197 250.738 226.666C251.603 226.267 253.262 225.003 254.393 223.876C256.519 221.815 260.307 220.423 263.697 220.423C264.696 220.423 265.493 220.088 265.493 219.69C265.493 218.229 264.096 216.433 262.9 216.433C261.04 216.433 260.839 215.769 262.034 213.309C263.033 211.184 263.299 211.051 265.488 211.317C266.753 211.519 268.613 211.848 269.542 212.114C270.807 212.448 272.731 211.848 277.051 209.787C282.965 206.929 284.293 205.664 285.095 202.078C285.43 200.219 285.228 199.82 283.166 198.625C281.503 197.626 280.775 196.765 280.775 195.634C280.775 194.768 279.909 193.11 278.782 191.979C275.993 189.056 276.126 186.73 279.25 184.137C281.577 182.145 281.71 181.943 280.913 180.216C280.445 179.218 279.319 177.756 278.389 177.028C276.928 175.897 276.726 175.366 277.06 173.24C277.262 171.843 277.129 169.787 276.726 168.655C276.237 167.281 274.376 166.594 271.141 166.594H266.29L265.823 169.384C264.957 174.633 263.432 176.03 259.308 175.297L256.784 174.898L259.176 170.977C260.44 168.852 261.301 166.855 261.104 166.525C260.371 165.33 259.176 165.994 257.65 168.321C256.253 170.515 255.987 170.579 253.66 170.117C252.332 169.851 249.803 169.649 248.076 169.718C245.217 169.787 244.755 169.585 241.96 166.594C239.766 164.267 238.172 163.274 235.844 162.673C232.39 161.808 231.588 162.206 231.588 165.133C231.588 165.999 231.19 167.657 230.658 168.788C230.127 169.984 229.596 171.445 229.33 172.045C228.799 173.841 227.736 173.506 226.604 171.179C225.807 169.649 225.207 169.251 224.41 169.585C223.81 169.851 222.55 170.249 221.684 170.451C220.754 170.653 219.426 171.45 218.693 172.247C216.631 174.505 211.913 175.434 209.187 174.106C206.594 172.911 206.397 171.583 208.655 169.787C211.445 167.593 210.648 163.475 207.125 162.009C205.994 161.542 204.134 159.618 202.604 157.223L200.011 153.169L199.214 155.23C198.215 157.621 197.62 157.754 196.488 155.963C195.558 154.433 193.629 154.237 191.701 155.432C190.638 156.165 190.17 155.963 188.512 154.433C186.584 152.574 186.451 152.505 181.934 153.238L181.944 153.233Z" fill="#8BFF26"/>
<path d="M262.901 213.644C262.236 214.839 262.433 215.174 263.963 215.902C265.956 216.9 267.285 220.354 265.956 221.22C265.489 221.485 264.027 221.751 262.699 221.751C259.442 221.751 256.918 222.75 254.522 225.008C253.459 226.07 251.929 227.202 251.201 227.6C250.202 228.131 249.872 228.997 249.872 230.857C249.872 233.317 249.803 233.381 247.412 233.582C245.218 233.784 244.888 233.981 244.888 235.511C244.888 236.573 245.685 237.97 247.146 239.299C250.069 242.088 250.669 244.085 249.139 245.743C247.678 247.406 246.748 247.337 242.959 245.409C241.296 244.543 238.772 243.347 237.444 242.752C235.318 241.886 234.92 241.424 234.92 239.697C234.92 238.103 234.654 237.705 233.591 237.705C232.396 237.705 232.327 237.906 232.991 239.102C233.591 240.297 233.458 240.765 232.327 241.891C230.998 243.219 230.93 243.219 229.67 242.093C228.937 241.429 227.874 241.03 227.279 241.296C226.014 241.763 226.413 243.952 228.676 248.473C230.669 252.394 230.669 252.862 228.607 253.393C227.343 253.727 226.88 254.392 226.546 256.251C225.547 262.233 225.35 262.632 223.092 262.828C221.498 262.961 220.701 263.561 219.967 264.954C219.436 266.016 218.373 267.28 217.64 267.812C216.312 268.742 216.376 268.742 218.039 269.475C220.366 270.606 220.632 270.473 221.493 268.609C222.157 267.148 222.491 267.015 223.618 267.61C224.617 268.141 224.947 269.007 224.947 271.265C224.947 274.123 225.015 274.256 226.875 274.256C227.938 274.256 229.134 273.789 229.601 273.258C230.733 271.929 233.591 271.993 235.584 273.39C236.514 274.055 238.443 274.586 239.904 274.586C242.231 274.586 242.561 274.788 242.762 276.249C243.097 278.639 243.761 279.171 247.879 280.637C249.941 281.301 252.067 282.363 252.667 283.028C253.464 283.893 253.931 284.026 254.861 283.362C255.727 282.831 256.524 282.831 257.651 283.362C258.517 283.697 259.776 283.829 260.51 283.495C261.243 283.229 262.768 282.964 263.899 282.964C265.031 282.895 266.36 282.432 266.891 281.832C267.358 281.232 268.82 280.302 270.079 279.707C271.939 278.777 272.539 277.98 273.135 275.85C273.932 272.461 275.196 270.931 277.056 270.931C277.986 270.931 279.713 269.534 281.907 267.01C283.969 264.683 287.093 262.159 289.553 260.762C291.88 259.498 293.676 258.17 293.607 257.904C293.538 257.569 293.342 256.841 293.076 256.241C292.81 255.577 293.676 253.914 295.403 251.72C297.662 248.862 297.996 248.134 297.396 247.002C296.53 245.473 296.599 245.473 293.406 246.402C291.147 247.135 290.616 246.934 285.76 244.341C281.769 242.147 280.441 240.952 279.713 239.289C278.316 236.032 278.581 232.643 280.51 228.392C282.704 223.473 282.503 221.682 279.644 220.949C278.05 220.551 276.918 219.488 275.324 216.959C273.464 214.101 272.8 213.57 270.802 213.373C269.538 213.24 267.412 212.975 266.015 212.773C264.022 212.375 263.491 212.507 262.891 213.639L262.901 213.644Z" fill="#8BFF26"/>
<path d="M148.379 217.23C147.98 218.096 147.645 219.424 147.778 220.285C147.911 221.348 147.045 222.809 145.053 224.939C139.468 230.985 138.405 232.648 139.203 234.709C140.068 236.903 139.734 237.434 137.21 237.897C135.414 238.295 135.281 238.497 135.881 240.022C136.88 242.546 136.811 242.546 133.156 246.599C130.563 249.457 129.298 250.318 127.837 250.318C125.111 250.318 116.604 251.848 116.604 252.311C116.604 252.512 116.206 253.309 115.674 253.973C114.808 255.169 114.676 255.238 113.48 254.175C112.348 253.177 112.151 253.177 110.754 254.308C109.559 255.307 109.16 256.502 108.825 259.956L108.427 264.408L111.153 266.931C113.81 269.322 113.942 269.657 113.942 273.179C113.942 277.233 112.944 279.692 109.755 283.677C108.358 285.473 107.694 287.131 107.428 289.457C107.251 291.671 108.004 293.134 109.687 293.846C111.015 294.377 112.609 295.243 113.14 295.641C114.139 296.507 126.435 297.102 129.092 296.507C130.42 296.172 130.553 295.843 130.154 293.851C129.756 291.656 129.82 291.524 131.616 291.524C132.678 291.524 135.473 292.453 137.864 293.585C140.723 294.982 143.114 295.646 144.91 295.577C147.168 295.508 147.832 295.843 149.097 297.57C150.293 299.164 151.026 299.562 152.285 299.296C154.612 298.829 158.598 300.162 158.135 301.289C157.934 301.756 157.604 302.617 157.402 303.148C157.136 303.812 157.604 304.211 158.932 304.477C161.722 305.077 162.721 305.741 163.651 307.664L164.517 309.391L167.174 307.994C169.767 306.666 169.899 306.666 172.359 307.792C175.351 309.12 177.412 308.855 182.859 306.331C185.117 305.269 187.046 304.801 188.045 305.067C189.108 305.332 189.329 304.69 188.709 303.138C188.178 301.874 187.71 299.951 187.71 298.819C187.71 297.757 187.376 295.499 186.913 293.9C185.25 287.721 188.507 280.543 194.421 277.552C195.75 276.819 197.546 275.358 198.343 274.296C199.538 272.569 209.708 264.924 210.771 264.924C210.973 264.924 211.967 265.524 213.029 266.321C215.49 268.048 217.349 267.517 218.811 264.526C219.475 263.065 220.474 262.066 221.6 261.869C222.53 261.667 223.529 261.402 223.928 261.338C224.262 261.269 224.858 259.409 225.256 257.284C225.856 253.762 226.319 253.098 228.779 251.834C228.912 251.834 228.513 250.771 227.849 249.507C227.185 248.311 226.319 246.117 225.92 244.656C225.32 242.664 224.523 241.734 222.865 240.868C219.809 239.338 218.343 239.407 216.483 241.134L214.953 242.595L213.157 241.198C211.165 239.737 207.042 230.631 206.978 227.576C206.978 225.185 202.589 220.133 201.064 220.797C198.072 221.992 197.674 221.928 196.675 219.468C195.479 216.743 194.948 216.546 192.355 218.406C191.356 219.139 189.762 220 188.768 220.398C187.705 220.797 187.041 221.53 187.041 222.391C187.041 225.647 183.386 224.25 181.26 220.197L180.261 218.268L178.598 219.798C177.668 220.664 175.941 222.922 174.741 224.85C172.546 228.171 172.414 228.24 169.624 228.038C168.03 227.905 166.568 227.773 166.303 227.773C165.968 227.704 165.771 226.444 165.702 224.85C165.634 218.47 163.046 215.681 159.454 218.007C157.26 219.468 156.531 219.336 155.001 217.407C153.274 215.149 149.55 215.08 148.354 217.206L148.379 217.23Z" fill="#2FFF1C"/>
<path d="M318.995 283.023C318.729 283.224 318.528 285.615 318.528 288.341V293.191H316.466C315.334 293.191 312.412 294.254 309.952 295.518C304.633 298.307 302.173 301.766 302.773 305.485C302.975 306.882 302.773 308.141 302.242 308.938C300.781 310.798 301.046 313.789 302.975 316.249L304.702 318.507L303.172 319.968L301.578 321.429L304.102 321.63C305.43 321.763 306.562 321.965 306.562 322.098C306.562 322.231 305.897 323.495 305.1 324.823C303.703 327.214 303.703 327.347 304.835 328.011C305.499 328.409 306.695 329.206 307.492 329.871C308.82 330.869 308.82 331.002 307.693 332.197C306.296 333.791 306.232 334.392 307.56 334.392C309.022 334.392 314.739 337.383 315.871 338.711C316.604 339.641 316.869 339.311 317.932 336.251C318.596 334.323 319.462 332.197 319.861 331.533C320.259 330.933 320.727 328.542 320.924 326.215C321.125 323.957 321.922 320.169 322.72 317.774C324.383 312.456 324.447 299.764 322.788 295.046C322.257 293.452 321.859 290.392 321.922 288.134C321.991 285.876 321.854 283.746 321.588 283.347C321.056 282.482 319.659 282.285 318.995 283.013V283.023Z" fill="#F57E4D"/>
<path d="M527.213 269.359C527.07 269.875 526.923 270.391 526.779 270.911C526.075 270.915 525.375 270.923 524.671 270.923C523.505 270.923 523.039 271.49 523.286 272.63C523.286 272.816 523.294 272.999 523.298 273.185C523.063 274.189 523.421 275.341 521.865 275.849C520.413 276.321 519.585 275.599 518.69 274.9C517.162 273.705 518.774 272.526 518.822 271.332C520.552 271.018 521.336 269.347 522.785 268.577C523.461 268.22 523.473 267.132 522.661 266.557C521.28 265.58 519.84 264.862 518.109 265.862C516.864 266.58 515.551 266.922 514.182 266.076C513.462 265.632 512.634 265.81 511.85 265.798C509.133 265.755 506.535 265.362 504.271 263.655C503.908 263.381 503.264 263.464 502.743 263.421C500.594 263.242 498.457 263.957 496.289 263.457C495.147 263.195 494.431 264.016 493.905 264.882C493.452 265.628 492.811 266.191 492.015 266.088C491.18 265.981 490.862 265.096 490.603 264.354C490.086 262.885 489.974 261.325 489.509 259.821C489.039 258.3 490.126 257.05 491.482 256.328C492.771 255.641 493.989 254.728 495.378 256.621C496.181 257.717 497.996 257.665 499.432 257.844C499.953 257.907 500.503 257.931 501.016 257.844C502.225 257.642 503.825 258.57 504.549 256.907C505.357 255.054 505.448 252.406 504.219 251.481C501.895 249.735 501.175 248.258 502.329 245.599C502.711 244.722 499.536 242.463 498.461 242.709C498.016 242.812 497.582 242.991 497.16 243.17C495.875 243.713 495.008 244.968 493.273 244.785C489.537 244.388 486.449 242.979 483.353 240.768C480.918 239.026 479.677 236.362 477.266 234.735C475.901 233.814 476.068 232.008 475.654 230.638C475.197 229.114 475.101 227.411 475.654 225.645C476.132 224.129 475.988 222.414 474.305 221.013C472.988 219.913 471.822 218.489 470.625 217.179C467.808 214.087 468.89 209.708 472.813 208.299C473.247 208.145 473.748 207.994 473.923 207.529C475.069 204.421 477.687 205.199 479.959 205.354C480.986 205.426 481.921 206.077 482.884 206.601C486.254 208.434 489.234 210.951 492.795 212.4C494.833 213.229 496.269 214.773 497.98 215.92C500.375 217.528 500.873 220.636 503.67 221.851C504.684 222.291 505.07 224.188 506.825 223.859C506.893 224.415 506.893 225.018 507.692 225.038C508.206 226.098 507.832 227.606 509.3 228.178C508.974 229.626 510.323 230.226 510.971 231.099C511.584 231.921 511.699 232.365 510.987 233.056C510.708 233.326 510.569 233.735 510.291 234.008C509.364 234.925 508.803 236.045 509.531 237.188C510.299 238.387 511.273 239.53 513.044 239.296C514.835 239.057 515.718 240.081 515.591 241.713C515.443 243.642 516.581 244.69 517.93 245.507C518.889 246.091 519.625 246.666 519.932 247.766C520.031 248.123 520.286 248.512 520.584 248.734C523.556 250.953 524.137 254.319 524.678 257.606C524.865 258.741 525.017 259.991 525.689 260.702C527.945 263.099 527.066 265.846 526.935 268.529C526.919 268.887 526.863 269.164 527.201 269.371L527.213 269.359Z" fill="#FDCF7D"/>
<path d="M390.282 81.3499C393.593 81.2308 394.846 79.786 395.172 75.6778C395.22 75.0903 395.192 74.4949 395.188 73.9075C395.176 72.546 395.753 71.6926 397.21 71.9625C401.161 72.6969 404.025 70.4463 406.823 68.3505C409.353 66.4532 412.019 65.7903 415.087 66.0562C416.372 66.1674 417.693 66.3976 418.99 66.0086C419.388 66.0205 419.79 66.0364 420.188 66.0523C420.248 66.3936 420.383 66.6993 420.769 66.7509C422.977 67.0367 425.189 67.3105 427.402 67.5924C434.353 68.4775 441.463 68.8546 446.644 74.6616C447.372 75.4793 447.925 76.1223 448.132 77.2218C448.319 78.2102 448.347 79.1747 448.355 80.1551C448.363 81.2824 448.741 82.0763 449.966 82.243C450.097 82.374 450.233 82.505 450.364 82.632C450.925 83.8624 451.478 85.1009 452.739 85.8153C452.759 85.9265 452.775 86.0376 452.783 86.1488C452.66 87.5539 453.519 88.2088 454.693 88.6176C454.749 89.8918 455.366 90.5904 456.694 90.5507L457.144 90.9516C457.22 93.6189 458.903 94.9804 461.159 95.9013C464.31 97.1913 465.488 100.109 463.697 103.078C461.219 107.186 461.135 111.509 461.831 116.006C462.05 117.411 461.787 118.451 460.339 119.268C457.371 120.943 453.969 121.614 450.841 121.987C445.446 122.634 439.88 123.73 434.424 122.154C432.944 121.725 431.408 122.146 429.98 121.471C427.394 120.253 424.68 119.332 421.827 119.094C420.586 118.991 419.269 118.76 418.493 118.066C416.834 116.577 414.884 115.998 412.875 115.402C412.031 115.152 411.402 114.704 410.993 113.835C410.527 112.842 409.616 112.509 408.478 112.243C406.055 111.671 403.624 111.163 401.177 110.707C401.157 110.588 401.145 110.465 401.145 110.342C401.308 109.055 401.001 107.932 399.776 107.333C396.641 105.797 395.24 103.36 395.57 99.8745C395.793 97.5366 394.778 95.6711 392.984 94.254C392.443 93.8253 391.846 93.4205 391.786 92.7695C391.587 90.5269 390.111 90.3879 388.388 90.5586C387.72 90.4594 387.33 90.0863 387.23 89.4155C386.407 86.5655 386.136 83.7989 388.456 81.4293C389.069 81.4015 389.677 81.3777 390.29 81.3499H390.282Z" fill="#FED27B"/>
<path d="M427.414 136.44C427.489 136.388 427.545 136.321 427.581 136.237C429.658 135.892 431.524 136.682 433.235 137.611C435.761 138.98 438.463 139.044 441.189 139.183C441.455 139.199 441.722 139.214 441.988 139.23C442.752 139.957 443.727 139.973 444.69 140.044C445.116 140.187 445.546 140.326 445.971 140.469C448.108 140.933 449.552 142.592 451.379 143.601L451.43 143.648C451.458 143.886 451.59 143.993 451.828 143.97C452.047 144.057 452.262 144.144 452.481 144.232C455.019 146.403 457.279 149.027 460.94 149.396C461.127 149.416 461.334 149.725 461.437 149.947C461.843 150.833 462.647 151.055 463.487 151.241C463.534 151.293 463.59 151.333 463.658 151.349C464.517 151.968 465.17 152.992 466.463 152.742L466.479 152.774C466.658 153.714 466.264 154.849 467.41 155.453C467.438 156.167 467.151 156.941 467.863 157.807C468.333 156.898 468.297 156.175 468.134 155.437C468.428 154.869 468.126 153.829 469.288 153.952C470.187 154.044 470.804 154.568 470.875 155.441C471.027 157.267 472.069 158.708 472.913 160.192C473.899 161.931 474.039 163.237 472.029 164.221C471.727 164.368 471.532 164.646 471.62 165.027L471.496 165.003L471.413 165.102C471.011 165.261 470.836 165.543 470.919 165.975C470.768 166.233 470.613 166.495 470.462 166.753C470.056 166.753 469.733 166.876 469.602 167.305C469.531 167.337 469.479 167.38 469.435 167.444C468.062 167.9 467.637 169.226 466.801 170.195C464.955 172.334 463.932 175.148 461.358 176.708C460.61 177.161 459.906 177.955 459.838 178.911C459.746 180.233 458.971 181.198 458.417 182.301C457.415 184.313 455.672 186.032 455.791 188.517L455.767 188.553C454.339 189.168 454.001 190.934 452.584 191.561L452.493 191.629C451.514 191.819 450.547 192.125 449.787 192.752C448.88 193.498 448.12 194.435 446.807 194.443C446.417 194.328 446.027 194.217 445.637 194.102C445.585 193.748 445.359 193.359 445.064 193.415C443.469 193.705 442.112 193.53 441.157 192.002C440.934 191.649 440.333 191.577 439.888 191.823C438.161 192.768 436.299 192.748 434.421 192.621C434.178 192.562 433.935 192.498 433.692 192.439C431.675 190.771 431.281 190.664 429.061 192.581C427.577 193.868 425.739 194.149 424.099 194.971C423.845 194.903 423.594 194.832 423.339 194.765C422.929 194.344 422.524 194.423 422.118 194.765C421.732 194.749 421.346 194.737 420.96 194.721C420.208 193.74 418.907 193.923 417.968 193.308C416.48 192.335 416.575 191.764 417.924 190.692C421.624 187.751 424.521 184.266 423.646 179.126C423.427 177.832 424.636 177.49 424.656 176.522L424.688 176.49C425.158 176.542 425.472 176.379 425.552 175.883C425.623 175.732 425.691 175.581 425.762 175.426C427.855 173.291 427.923 171.524 425.997 169.679C425.814 169.504 425.579 169.274 425.563 169.059C425.464 167.456 424.171 167.42 423.073 167.115L423.033 167.087C422.046 165.503 420.753 164.181 420.427 162.121C420.271 161.145 420.096 159.958 419.615 158.966C418.29 156.235 419.05 153.194 418.322 150.368C418.19 149.864 418.584 149.237 418.688 148.657C419.002 146.899 420.809 146.006 421.214 144.303C421.565 144.077 421.915 143.855 422.265 143.628C423.876 143.124 424.923 141.981 425.742 140.576C426.423 140.322 426.884 139.865 427.04 139.143C427.41 138.881 427.35 138.603 427.071 138.317C427.052 137.932 427.028 137.547 427.004 137.162C427.358 137.035 427.441 136.761 427.406 136.424L427.414 136.44Z" fill="#D63027"/>
<path d="M379.742 188.798C379.961 188.83 380.184 188.858 380.403 188.89C380.411 193.446 379.535 194.859 376.074 195.546C375.055 195.749 373.973 195.677 372.922 195.641C371.021 195.578 369.676 194.085 369.652 192.192C369.628 190.168 370.682 188.552 371.788 187.072C372.918 185.559 376.078 185.778 376.734 187.357C377.375 188.898 378.393 189.032 379.738 188.794L379.742 188.798Z" fill="#FDCF7D"/>
<path d="M326.401 165.375C325.334 164.264 326.997 161.529 324.491 160.235C323.914 159.937 324.005 159.203 324.005 158.604C324.005 157.218 324.005 155.833 324.005 154.448C324.013 151.757 325.863 149.57 328.454 149.073C329.039 148.962 329.592 148.986 329.942 149.343C332.198 151.646 335.572 151.753 338.111 153.531C339.058 154.198 339.885 154.583 339.957 155.992C340.056 157.861 342.058 158.604 343.848 157.639C344.556 157.258 345.468 156.377 346.005 157.465C346.415 158.294 346.848 159.552 345.121 160.12C343.482 160.66 342.444 164.867 343.415 166.975C345.189 170.829 345.428 174.898 345.456 179.03C345.468 180.764 344.775 181.995 343.096 182.479C342.074 182.777 341.509 183.428 341.222 184.333C341.011 185.003 340.629 185.682 340.124 185.912C338.027 186.869 335.878 187.738 333.694 188.465C332.811 188.758 332.035 188.346 331.915 187.183C331.792 185.992 331.167 185.035 330.372 184.114C328.45 181.888 327.948 179.085 327.582 176.299C327.129 172.873 326.826 169.424 326.393 165.375H326.401Z" fill="#FDCF7D"/>
<path d="M352.312 146.557C352.276 146.283 352.244 146.009 352.208 145.735C352.244 145.025 352.085 144.497 351.317 144.175C349.701 143.497 349.367 142.083 349.797 140.607C350.851 136.971 353.764 134.196 357.468 136.058C359.271 136.963 360.962 139.23 360.958 141.246C360.958 142.302 360.918 143.358 360.958 144.409C361.105 148.668 363.46 151.201 367.726 151.272C371.41 151.336 373.686 153.467 375.855 155.98C376.611 156.853 376.245 157.393 375.477 157.881C374.216 158.683 372.715 159.076 371.335 159.012C367.63 158.846 364.575 160.342 361.427 161.974C359.207 163.125 356.657 163.01 354.146 162.823C351.532 162.628 350.052 161.021 348.782 159.064C348.09 158 348.054 156.857 348.615 155.678C348.894 155.095 349.049 154.44 349.176 153.801C349.435 152.499 349.522 151.399 351.341 150.955C353.191 150.502 353.493 148.24 352.316 146.557H352.312Z" fill="#FDCF7D"/>
<path d="M531.116 156.139C531.025 156.175 530.973 156.242 530.961 156.342C530.838 156.473 530.711 156.608 530.587 156.738L530.527 156.802C529.855 157.068 529.978 157.636 530.018 158.167C529.859 158.283 529.7 158.402 529.541 158.517C528.144 158.541 527.679 159.235 528.061 160.545C527.866 161.009 527.667 161.474 527.217 161.76C525.681 161.962 525.956 163.073 526.035 164.09C525.936 164.125 525.88 164.197 525.868 164.304C524.933 164.479 523.254 164.883 524.491 165.844C525.908 166.944 526.35 168.694 527.722 169.571C529.584 170.762 530.396 172.294 530.177 174.438C530.098 174.457 530.054 174.505 530.046 174.588C528.347 174.91 526.521 175.053 526.099 177.244C525.9 178.268 525.856 179.284 524.559 179.74C523.954 179.955 523.97 180.844 524.058 181.519L524.038 181.539C522.86 181.753 522.323 182.392 522.725 183.591C522.932 184.21 522.785 184.432 522.132 184.698C521.157 185.095 521.153 186.441 522.013 187.072C522.339 187.433 522.669 187.794 522.995 188.151C522.852 188.715 522.737 189.267 523.521 189.461L523.548 189.493C523.887 190.565 524.714 190.616 525.629 190.489C525.916 191.363 526.68 191.537 527.627 191.712C526.903 192.76 526.314 193.653 524.858 193.153C524.416 193.002 523.807 193.002 523.493 193.585C523.266 193.617 523.039 193.649 522.808 193.681C522.765 193.462 522.721 193.244 522.677 193.022C522.498 191.505 521.511 190.989 520.135 191.065C518.79 191.14 519.263 192.236 519.128 192.986C519.012 193.617 518.861 194.24 518.722 194.867C518.603 195.117 518.483 195.368 518.364 195.618C517.588 195.705 516.812 195.828 516.072 195.451C516 195.177 515.929 194.907 515.853 194.637C515.69 194.558 515.527 194.478 515.364 194.399C514.218 194.518 512.833 195.133 513.239 192.875C513.366 192.16 512.376 191.934 511.715 192.299C511.158 192.605 510.712 193.113 510.307 193.454C509.809 192.017 510.124 190.589 510.844 189.179C511.09 188.699 510.927 188.128 510.342 187.85C509.841 187.608 509.467 187.802 509.153 188.219C508.381 189.235 507.35 189.449 506.165 189.148C506.081 189.056 505.982 188.985 505.874 188.933C505.679 187.81 506.523 187.536 507.291 187.139C509.196 186.155 509.256 184.242 509.2 182.539C509.153 181.058 507.665 181.924 506.853 181.638C506.192 181.408 505.611 180.947 504.995 180.586C505.027 180.479 505.003 180.387 504.923 180.308C505.245 179.673 504.585 179.244 504.585 178.677C503.952 176.339 505.934 177.176 506.901 176.779C507.179 176.736 507.458 176.692 507.736 176.644C508.202 176.926 508.667 177.208 509.133 177.49C508.429 180.245 508.942 181.423 510.891 181.539C511.397 181.693 511.902 181.852 512.407 182.007C513.728 184.107 515.965 184.492 517.453 182.88L517.409 182.749L517.477 182.868C518.857 182.098 518.913 181.177 518.436 179.641C517.103 175.346 512.877 173.461 510.641 169.932C510.183 169.206 508.647 169.087 508.055 168.043C508.126 167.682 508.198 167.321 508.269 166.959C508.293 166.813 508.317 166.666 508.345 166.519C508.548 166.511 508.751 166.499 508.954 166.491C509.805 166.364 510.768 166.761 511.468 165.951L511.616 165.832C512.427 165.276 512.32 164.919 511.381 164.741L510.135 164.431C510.374 163.716 508.882 163.828 509.483 162.696C510.326 161.109 509.754 159.529 508.401 158.302C508.429 158.191 508.429 158.08 508.393 157.965C508.671 157.699 508.954 157.441 509.228 157.171C509.674 156.735 510.895 157.27 510.744 156.397C510.581 155.456 509.415 155.941 508.711 155.734C508.536 155.683 508.329 155.75 508.134 155.762L508.114 155.75C508.755 154.801 508.918 153.694 509.153 152.614C509.443 151.269 509.033 150.737 507.517 150.804C505.942 150.876 504.139 150.912 503.009 149.59C501.78 148.153 500.327 147.962 498.656 148.141L498.533 148.085L498.418 148.157C497.996 147.431 498.191 146.668 498.286 145.914L498.262 145.938C498.724 145.942 499.102 145.819 499.205 145.299L499.158 145.2L499.229 145.283C500.805 144.227 500.857 143.727 499.48 142.85C499.122 142.798 498.76 142.751 498.402 142.703C499.166 141.179 498.159 138.309 501.481 138.714C501.863 138.762 502.158 138.388 502.253 137.972C502.504 137.595 502.751 137.222 503.001 136.844C503.284 136.813 503.423 136.654 503.407 136.368C503.753 136.19 503.745 135.892 503.686 135.57C504.107 135.582 504.275 135.32 504.35 134.955C504.649 134.82 504.947 134.685 505.249 134.55C505.878 133.236 506.829 132.919 508.142 133.57C508.349 133.673 508.647 133.602 508.902 133.609H508.906C508.818 135.709 510.45 136.836 511.759 137.869C513.335 139.111 513.116 140.663 513.04 142.132C513.012 142.636 512.885 142.89 513.247 143.334C514.675 145.081 516.872 144.954 518.734 145.585C519.605 145.879 520.051 144.652 520.739 144.192C520.994 144.021 521.34 143.894 521.643 143.898C526.644 143.997 530.965 145.509 534.124 150.106C532.998 149.745 532.306 150.55 532.509 151.011C533.46 153.166 532.298 154.627 531.144 156.147L531.116 156.139Z" fill="#D63027"/>
<path d="M540.554 156.485C540.28 157.961 540.208 159.434 540.594 160.902C540.292 161.156 539.993 161.41 539.691 161.664C538.171 161.025 538.708 163.129 537.69 163.157C537.709 163.046 537.678 162.947 537.598 162.867C537.602 161.835 536.802 161.335 536.174 160.724C536.166 160.621 536.118 160.541 536.026 160.49C536.317 158.247 537.805 156.524 538.505 154.385C539.229 154.913 539.794 155.329 540.363 155.742C540.427 155.988 540.491 156.234 540.558 156.481L540.554 156.485Z" fill="#D63027"/>
</svg>
