<svg width="338" height="196" viewBox="0 0 338 196" fill="none" xmlns="http://www.w3.org/2000/svg">
<g clip-path="url(#clip0_44_70)">
<path d="M216 134.5L119 122.5L48 135L58.5 146L129.5 133.5L164 137L211 186.5L239 190L194 141L225 145.5L290.5 126.5L279 115.5L216 134.5Z" fill="#B4B4B4"/>
<path d="M129.5 133.5L58.5 146L106 195.5L177.5 182L211 186.5L164 137L129.5 133.5Z" fill="#4CA1C9"/>
<path d="M72 73L0 85.5L48 135L120 123L215.5 135L279.5 116L232 66.5L175 86L72 73Z" fill="#7EC94C"/>
<path d="M224.5 145.5L194 141L239 190L274 194.5L338 175.5L290 126.5L224.5 145.5Z" fill="#C9A14C"/>
<path d="M177.5 182.5C143.167 146.167 74 73.4 72 73L163 83.5L273.5 194.5L177.5 182.5Z" fill="#2D2D2D" fill-opacity="0.2"/>
<path d="M187 62.4286C182.643 62.4286 178.464 60.6977 175.383 57.6168C172.302 54.5358 170.571 50.3571 170.571 46C170.571 41.6429 172.302 37.4642 175.383 34.3832C178.464 31.3023 182.643 29.5714 187 29.5714C191.357 29.5714 195.536 31.3023 198.617 34.3832C201.698 37.4642 203.429 41.6429 203.429 46C203.429 48.1574 203.004 50.2937 202.178 52.2869C201.352 54.2802 200.142 56.0912 198.617 57.6168C197.091 59.1423 195.28 60.3524 193.287 61.178C191.294 62.0036 189.157 62.4286 187 62.4286ZM187 0C174.8 0 163.1 4.84641 154.473 13.4731C145.846 22.0998 141 33.8 141 46C141 80.5 187 131.429 187 131.429C187 131.429 233 80.5 233 46C233 33.8 228.154 22.0998 219.527 13.4731C210.9 4.84641 199.2 0 187 0Z" fill="#E10058"/>
</g>
<defs>
<clipPath id="clip0_44_70">
<rect width="338" height="195.5" fill="white"/>
</clipPath>
</defs>
</svg>
