<svg width="309" height="345" viewBox="0 0 409 445" fill="none" xmlns="http://www.w3.org/2000/svg">
<ellipse cx="204" cy="404" rx="158" ry="41" fill="#888888" fill-opacity="0.4"/>
<path d="M212.324 0.149707C240.365 1.22326 267.885 8.05643 293.171 20.224C318.458 32.3915 340.97 49.6331 359.306 70.8756C377.642 92.1182 391.41 116.907 399.753 143.7C408.096 170.493 410.835 198.716 407.801 226.613C404.767 254.51 396.023 281.484 382.115 305.857C368.207 330.229 349.431 351.478 326.957 368.282C304.483 385.086 278.79 397.084 251.479 403.531C224.168 409.977 195.822 410.734 168.206 405.754L183.403 321.486C199.456 324.381 215.933 323.941 231.809 320.194C247.684 316.447 262.619 309.472 275.683 299.704C288.747 289.937 299.661 277.585 307.745 263.417C315.83 249.25 320.913 233.57 322.676 217.354C324.44 201.138 322.848 184.732 317.998 169.158C313.148 153.583 305.145 139.174 294.487 126.826C283.828 114.478 270.742 104.455 256.044 97.3826C241.345 90.3097 225.348 86.3377 209.048 85.7137L212.324 0.149707Z" fill="#F18557"/>
<path d="M40.2018 82.7365C54.6892 63.1883 72.5489 46.3824 92.941 33.1091L139.652 104.873C127.798 112.588 117.417 122.357 108.995 133.72L40.2018 82.7365Z" fill="#38BDE2"/>
<path d="M91.9276 33.773C106.244 24.3334 121.69 16.7319 137.904 11.1476L165.788 92.1066C156.364 95.3527 147.385 99.7713 139.063 105.258L91.9276 33.773Z" fill="#5EBB9C"/>
<path d="M137.171 11.4015C149.178 7.215 161.549 4.15746 174.123 2.26866L186.842 86.9454C179.533 88.0433 172.342 89.8206 165.362 92.2542L137.171 11.4015Z" fill="#822082"/>
<path d="M173.633 2.3429C179.846 1.39429 186.099 0.732583 192.373 0.359889L197.451 85.8358C193.804 86.0525 190.169 86.4371 186.558 86.9885L173.633 2.3429Z" fill="#F7B498"/>
<path d="M192.649 0.343681C195.86 0.157281 199.075 0.0466657 202.291 0.0119271L203.216 85.6336C201.347 85.6538 199.478 85.7181 197.611 85.8264L192.649 0.343681Z" fill="#A0D3C8"/>
<path d="M202.469 0.0100903C205.781 -0.0228195 209.094 0.0247758 212.405 0.152834L209.095 85.7155C207.171 85.641 205.245 85.6134 203.319 85.6325L202.469 0.0100903Z" fill="#ECCBE2"/>
<path d="M169.124 405.917C134.712 399.873 102.422 385.113 75.3344 363.045C48.2469 340.977 27.2651 312.337 14.3904 279.856C1.51567 247.376 -2.82255 212.139 1.78953 177.505C6.40161 142.872 19.8102 109.998 40.7362 82.0187L109.306 133.303C97.142 149.567 89.3478 168.676 86.6669 188.808C83.9859 208.94 86.5077 229.423 93.9916 248.304C101.475 267.184 113.672 283.832 129.418 296.66C145.163 309.488 163.933 318.068 183.936 321.581L169.124 405.917Z" fill="#9584BD"/>
</svg>
