<svg width="877" height="543" viewBox="0 0 877 543" fill="none" xmlns="http://www.w3.org/2000/svg">
<g clip-path="url(#clip0_309_1087)">
<g clip-path="url(#clip1_309_1087)">
<path d="M746.5 203H664.5L621 246.5" stroke="black" stroke-width="3"/>
<path d="M664.657 172.512H668.662V194.359H675.252V198H664.657V172.512ZM677.65 187.15L672.808 172.512H677.068L679.798 181.87H679.871L682.602 172.512H686.498L681.655 187.15V198H677.65V187.15ZM693.306 198.364C691.388 198.364 689.92 197.818 688.9 196.726C687.905 195.633 687.408 194.092 687.408 192.101V178.411C687.408 176.42 687.905 174.879 688.9 173.787C689.92 172.694 691.388 172.148 693.306 172.148C695.224 172.148 696.68 172.694 697.675 173.787C698.695 174.879 699.205 176.42 699.205 178.411V181.105H695.418V178.156C695.418 176.578 694.75 175.789 693.415 175.789C692.08 175.789 691.413 176.578 691.413 178.156V192.393C691.413 193.946 692.08 194.723 693.415 194.723C694.75 194.723 695.418 193.946 695.418 192.393V188.497H699.205V192.101C699.205 194.092 698.695 195.633 697.675 196.726C696.68 197.818 695.224 198.364 693.306 198.364ZM701.601 172.512H712.524V176.153H705.606V182.889H711.104V186.531H705.606V194.359H712.524V198H701.601V172.512ZM707.427 166.614H711.796L707.9 170.801H704.878L707.427 166.614ZM714.828 172.512H725.752V176.153H718.833V182.889H724.332V186.531H718.833V194.359H725.752V198H714.828V172.512ZM728.056 172.512H733.08L736.976 187.769H737.049V172.512H740.617V198H736.503L731.697 179.394H731.624V198H728.056V172.512Z" fill="black"/>
</g>
<g clip-path="url(#clip2_309_1087)">
<path d="M83 308H197.343L258 247" stroke="black" stroke-width="3"/>
<path d="M91.8166 271.512H102.74V275.153H95.8218V281.889H101.32V285.531H95.8218V293.359H102.74V297H91.8166V271.512ZM108.175 275.153H103.988V271.512H116.368V275.153H112.181V297H108.175V275.153ZM124.133 297.364C122.191 297.364 120.71 296.818 119.691 295.726C118.671 294.609 118.161 293.019 118.161 290.956V271.512H122.167V291.247C122.167 292.121 122.336 292.752 122.676 293.14C123.04 293.529 123.55 293.723 124.206 293.723C124.861 293.723 125.359 293.529 125.698 293.14C126.062 292.752 126.245 292.121 126.245 291.247V271.512H130.104V290.956C130.104 293.019 129.594 294.609 128.575 295.726C127.555 296.818 126.075 297.364 124.133 297.364ZM132.957 271.512H139.074C141.064 271.512 142.557 272.046 143.552 273.114C144.547 274.183 145.045 275.748 145.045 277.811V290.701C145.045 292.764 144.547 294.33 143.552 295.398C142.557 296.466 141.064 297 139.074 297H132.957V271.512ZM139.001 293.359C139.656 293.359 140.154 293.165 140.494 292.776C140.858 292.388 141.04 291.757 141.04 290.883V277.629C141.04 276.756 140.858 276.124 140.494 275.736C140.154 275.348 139.656 275.153 139.001 275.153H136.962V293.359H139.001ZM147.749 271.512H151.754V297H147.749V271.512ZM157.848 271.512H163.274L167.424 297H163.419L162.691 291.939V292.012H158.14L157.411 297H153.697L157.848 271.512ZM162.218 288.553L160.433 275.955H160.361L158.613 288.553H162.218ZM169.368 271.512H174.392L178.288 286.769H178.361V271.512H181.929V297H177.815L173.009 278.394H172.936V297H169.368V271.512ZM188.037 275.153H183.85V271.512H196.23V275.153H192.043V297H188.037V275.153Z" fill="black"/>
</g>
<g clip-path="url(#clip3_309_1087)">
<path d="M161 80H243L286.5 123.5" stroke="black" stroke-width="3"/>
<path d="M166.094 49.5124H171.52L175.67 75H171.665L170.937 69.9389V70.0117H166.386L165.657 75H161.944L166.094 49.5124ZM170.464 66.5527L168.68 53.9545H168.607L166.859 66.5527H170.464ZM183.368 75.3641C181.426 75.3641 179.946 74.8179 178.926 73.7256C177.907 72.609 177.397 71.0191 177.397 68.9558V49.5124H181.402V69.2471C181.402 70.1209 181.572 70.7521 181.912 71.1404C182.276 71.5288 182.786 71.723 183.441 71.723C184.096 71.723 184.594 71.5288 184.934 71.1404C185.298 70.7521 185.48 70.1209 185.48 69.2471V49.5124H189.34V68.9558C189.34 71.0191 188.83 72.609 187.81 73.7256C186.791 74.8179 185.31 75.3641 183.368 75.3641ZM195.323 53.1535H191.136V49.5124H203.516V53.1535H199.329V75H195.323V53.1535ZM205.455 49.5124H211.39C213.453 49.5124 214.958 49.9979 215.905 50.9688C216.852 51.9155 217.325 53.3841 217.325 55.3745V56.9402C217.325 59.5861 216.451 61.261 214.703 61.9649V62.0377C215.674 62.329 216.354 62.9237 216.742 63.8219C217.155 64.72 217.361 65.9216 217.361 67.4265V71.9051C217.361 72.6333 217.386 73.228 217.434 73.6892C217.483 74.1261 217.604 74.5631 217.798 75H213.72C213.575 74.5873 213.478 74.199 213.429 73.8349C213.381 73.4707 213.356 72.8153 213.356 71.8687V67.2081C213.356 66.0429 213.162 65.2298 212.774 64.7685C212.41 64.3073 211.766 64.0767 210.844 64.0767H209.46V75H205.455V49.5124ZM210.917 60.4357C211.718 60.4357 212.312 60.2293 212.701 59.8167C213.114 59.404 213.32 58.7122 213.32 57.7413V55.7751C213.32 54.8527 213.15 54.1851 212.81 53.7725C212.495 53.3598 211.985 53.1535 211.281 53.1535H209.46V60.4357H210.917ZM220.14 49.5124H231.064V53.1535H224.146V59.8895H229.644V63.5306H224.146V71.3589H231.064V75H220.14V49.5124ZM238.646 75.3641C236.704 75.3641 235.235 74.8179 234.24 73.7256C233.245 72.609 232.747 71.0191 232.747 68.9558V67.4994H236.534V69.2471C236.534 70.8977 237.226 71.723 238.609 71.723C239.289 71.723 239.799 71.5288 240.138 71.1404C240.503 70.7278 240.685 70.0724 240.685 69.1743C240.685 68.1062 240.442 67.1717 239.956 66.3706C239.471 65.5453 238.573 64.5622 237.262 63.4213C235.611 61.9649 234.458 60.6541 233.803 59.489C233.148 58.2996 232.82 56.9645 232.82 55.4838C232.82 53.469 233.33 51.9155 234.349 50.8232C235.369 49.7066 236.849 49.1483 238.791 49.1483C240.709 49.1483 242.153 49.7066 243.124 50.8232C244.119 51.9155 244.617 53.4933 244.617 55.5566V56.6125H240.83V55.3017C240.83 54.4279 240.66 53.7967 240.32 53.4084C239.981 52.9957 239.483 52.7894 238.828 52.7894C237.493 52.7894 236.825 53.6025 236.825 55.2289C236.825 56.1513 237.068 57.013 237.553 57.8141C238.063 58.6151 238.973 59.5861 240.284 60.7269C241.959 62.1834 243.112 63.5063 243.743 64.6957C244.374 65.8851 244.69 67.2809 244.69 68.883C244.69 70.9705 244.168 72.5726 243.124 73.6892C242.105 74.8058 240.612 75.3641 238.646 75.3641Z" fill="black"/>
</g>
<ellipse cx="438" cy="453" rx="158" ry="41" fill="#888888" fill-opacity="0.4"/>
<path d="M446.324 49.1497C474.365 50.2233 501.885 57.0564 527.171 69.224C552.458 81.3915 574.97 98.6331 593.306 119.876C611.642 141.118 625.41 165.907 633.753 192.7C642.096 219.493 644.835 247.716 641.801 275.613C638.767 303.51 630.023 330.484 616.115 354.857C602.207 379.229 583.431 400.478 560.957 417.282C538.483 434.086 512.79 446.084 485.479 452.531C458.168 458.977 429.823 459.734 402.206 454.754L417.403 370.486C433.456 373.381 449.933 372.941 465.809 369.194C481.684 365.447 496.619 358.472 509.683 348.704C522.747 338.937 533.661 326.585 541.745 312.417C549.83 298.25 554.913 282.57 556.676 266.354C558.44 250.138 556.848 233.732 551.998 218.158C547.148 202.583 539.145 188.174 528.487 175.826C517.828 163.478 504.742 153.455 490.044 146.383C475.345 139.31 459.348 135.338 443.048 134.714L446.324 49.1497Z" fill="#65026E"/>
<path d="M274.202 131.737C294.177 104.784 320.476 83.1592 350.78 68.7691C381.085 54.3789 414.464 47.6651 447.976 49.2197L444.008 134.754C424.528 133.851 405.125 137.753 387.51 146.118C369.894 154.483 354.607 167.053 342.995 182.72L274.202 131.737Z" fill="#6F85FD"/>
<path d="M403.124 454.917C368.712 448.873 336.422 434.113 309.334 412.045C282.247 389.977 261.265 361.337 248.39 328.856C235.516 296.376 231.177 261.139 235.79 226.505C240.402 191.872 253.81 158.998 274.736 131.019L343.306 182.303C331.142 198.567 323.348 217.676 320.667 237.808C317.986 257.94 320.508 278.423 327.992 297.304C335.475 316.184 347.672 332.832 363.418 345.66C379.163 358.488 397.933 367.068 417.936 370.581L403.124 454.917Z" fill="#E70D98"/>
<g filter="url(#filter0_d_309_1087)">
<mask id="path-12-outside-1_309_1087" maskUnits="userSpaceOnUse" x="562" y="247" width="77" height="31" fill="black">
<rect fill="white" x="562" y="247" width="77" height="31"/>
<path d="M571.431 271.17H563.444V267.366L571.051 249.375H575.615V267.366H577.593V271.17H575.615V276H571.431V271.17ZM571.431 267.366V256.982H571.355L567.248 267.366H571.431ZM585.709 276.38C583.605 276.38 581.982 275.823 580.841 274.707C579.725 273.566 579.167 271.93 579.167 269.8V267.442C579.167 266.124 579.383 265.021 579.814 264.133C580.245 263.22 580.942 262.51 581.906 262.003V261.927C581.018 261.445 580.359 260.786 579.928 259.949C579.522 259.087 579.32 257.997 579.32 256.678V255.575C579.32 253.445 579.865 251.822 580.955 250.707C582.071 249.566 583.656 248.995 585.709 248.995C587.763 248.995 589.335 249.566 590.426 250.707C591.541 251.822 592.099 253.445 592.099 255.575V256.678C592.099 259.214 591.237 260.963 589.513 261.927V262.003C590.476 262.51 591.174 263.22 591.605 264.133C592.036 265.021 592.251 266.124 592.251 267.442V269.8C592.251 271.93 591.681 273.566 590.54 274.707C589.424 275.823 587.814 276.38 585.709 276.38ZM585.709 260.215C587.18 260.215 587.915 259.328 587.915 257.553V255.461C587.915 253.686 587.18 252.799 585.709 252.799C584.239 252.799 583.503 253.686 583.503 255.461V257.553C583.503 259.328 584.239 260.215 585.709 260.215ZM585.709 272.577C587.282 272.577 588.068 271.575 588.068 269.572V267.024C588.068 265.021 587.282 264.019 585.709 264.019C584.137 264.019 583.351 265.021 583.351 267.024V269.572C583.351 271.575 584.137 272.577 585.709 272.577ZM594.891 271.968H598.922V276H594.891V271.968ZM607.993 276.38C605.939 276.38 604.38 275.81 603.315 274.669C602.275 273.528 601.755 271.892 601.755 269.762V267.594H605.711V269.952C605.711 271.702 606.433 272.577 607.879 272.577C608.589 272.577 609.121 272.361 609.476 271.93C609.857 271.474 610.047 270.688 610.047 269.572V267.404C610.047 266.187 609.831 265.325 609.4 264.818C608.969 264.285 608.272 264.019 607.308 264.019H605.901V260.215H607.422C608.259 260.215 608.88 260 609.286 259.569C609.717 259.138 609.933 258.415 609.933 257.401V255.461C609.933 254.548 609.743 253.876 609.362 253.445C608.982 253.014 608.475 252.799 607.841 252.799C606.497 252.799 605.825 253.623 605.825 255.271V257.02H601.869V255.613C601.869 253.483 602.389 251.848 603.429 250.707C604.494 249.566 606.015 248.995 607.993 248.995C609.996 248.995 611.518 249.566 612.557 250.707C613.597 251.822 614.117 253.445 614.117 255.575V256.526C614.117 257.971 613.876 259.138 613.394 260.025C612.912 260.887 612.164 261.509 611.15 261.889V261.965C612.24 262.371 613.026 263.03 613.508 263.943C613.99 264.856 614.231 266.022 614.231 267.442V269.8C614.231 271.93 613.698 273.566 612.633 274.707C611.594 275.823 610.047 276.38 607.993 276.38ZM621.092 264.171C619.773 264.171 618.772 263.803 618.087 263.068C617.402 262.333 617.06 261.28 617.06 259.911V253.255C617.06 251.886 617.402 250.833 618.087 250.098C618.772 249.363 619.773 248.995 621.092 248.995C622.41 248.995 623.412 249.363 624.097 250.098C624.781 250.833 625.124 251.886 625.124 253.255V259.911C625.124 261.28 624.781 262.333 624.097 263.068C623.412 263.803 622.41 264.171 621.092 264.171ZM630.753 249.375H633.415L623.108 276H620.445L630.753 249.375ZM621.092 261.775C622.005 261.775 622.461 261.217 622.461 260.101V253.065C622.461 251.949 622.005 251.391 621.092 251.391C620.179 251.391 619.723 251.949 619.723 253.065V260.101C619.723 261.217 620.179 261.775 621.092 261.775ZM632.769 276.38C631.45 276.38 630.448 276.013 629.764 275.277C629.079 274.542 628.737 273.49 628.737 272.12V265.464C628.737 264.095 629.079 263.043 629.764 262.307C630.448 261.572 631.45 261.204 632.769 261.204C634.087 261.204 635.089 261.572 635.773 262.307C636.458 263.043 636.8 264.095 636.8 265.464V272.12C636.8 273.49 636.458 274.542 635.773 275.277C635.089 276.013 634.087 276.38 632.769 276.38ZM632.769 273.984C633.681 273.984 634.138 273.426 634.138 272.311V265.274C634.138 264.158 633.681 263.601 632.769 263.601C631.856 263.601 631.399 264.158 631.399 265.274V272.311C631.399 273.426 631.856 273.984 632.769 273.984Z"/>
</mask>
<path d="M571.431 271.17H563.444V267.366L571.051 249.375H575.615V267.366H577.593V271.17H575.615V276H571.431V271.17ZM571.431 267.366V256.982H571.355L567.248 267.366H571.431ZM585.709 276.38C583.605 276.38 581.982 275.823 580.841 274.707C579.725 273.566 579.167 271.93 579.167 269.8V267.442C579.167 266.124 579.383 265.021 579.814 264.133C580.245 263.22 580.942 262.51 581.906 262.003V261.927C581.018 261.445 580.359 260.786 579.928 259.949C579.522 259.087 579.32 257.997 579.32 256.678V255.575C579.32 253.445 579.865 251.822 580.955 250.707C582.071 249.566 583.656 248.995 585.709 248.995C587.763 248.995 589.335 249.566 590.426 250.707C591.541 251.822 592.099 253.445 592.099 255.575V256.678C592.099 259.214 591.237 260.963 589.513 261.927V262.003C590.476 262.51 591.174 263.22 591.605 264.133C592.036 265.021 592.251 266.124 592.251 267.442V269.8C592.251 271.93 591.681 273.566 590.54 274.707C589.424 275.823 587.814 276.38 585.709 276.38ZM585.709 260.215C587.18 260.215 587.915 259.328 587.915 257.553V255.461C587.915 253.686 587.18 252.799 585.709 252.799C584.239 252.799 583.503 253.686 583.503 255.461V257.553C583.503 259.328 584.239 260.215 585.709 260.215ZM585.709 272.577C587.282 272.577 588.068 271.575 588.068 269.572V267.024C588.068 265.021 587.282 264.019 585.709 264.019C584.137 264.019 583.351 265.021 583.351 267.024V269.572C583.351 271.575 584.137 272.577 585.709 272.577ZM594.891 271.968H598.922V276H594.891V271.968ZM607.993 276.38C605.939 276.38 604.38 275.81 603.315 274.669C602.275 273.528 601.755 271.892 601.755 269.762V267.594H605.711V269.952C605.711 271.702 606.433 272.577 607.879 272.577C608.589 272.577 609.121 272.361 609.476 271.93C609.857 271.474 610.047 270.688 610.047 269.572V267.404C610.047 266.187 609.831 265.325 609.4 264.818C608.969 264.285 608.272 264.019 607.308 264.019H605.901V260.215H607.422C608.259 260.215 608.88 260 609.286 259.569C609.717 259.138 609.933 258.415 609.933 257.401V255.461C609.933 254.548 609.743 253.876 609.362 253.445C608.982 253.014 608.475 252.799 607.841 252.799C606.497 252.799 605.825 253.623 605.825 255.271V257.02H601.869V255.613C601.869 253.483 602.389 251.848 603.429 250.707C604.494 249.566 606.015 248.995 607.993 248.995C609.996 248.995 611.518 249.566 612.557 250.707C613.597 251.822 614.117 253.445 614.117 255.575V256.526C614.117 257.971 613.876 259.138 613.394 260.025C612.912 260.887 612.164 261.509 611.15 261.889V261.965C612.24 262.371 613.026 263.03 613.508 263.943C613.99 264.856 614.231 266.022 614.231 267.442V269.8C614.231 271.93 613.698 273.566 612.633 274.707C611.594 275.823 610.047 276.38 607.993 276.38ZM621.092 264.171C619.773 264.171 618.772 263.803 618.087 263.068C617.402 262.333 617.06 261.28 617.06 259.911V253.255C617.06 251.886 617.402 250.833 618.087 250.098C618.772 249.363 619.773 248.995 621.092 248.995C622.41 248.995 623.412 249.363 624.097 250.098C624.781 250.833 625.124 251.886 625.124 253.255V259.911C625.124 261.28 624.781 262.333 624.097 263.068C623.412 263.803 622.41 264.171 621.092 264.171ZM630.753 249.375H633.415L623.108 276H620.445L630.753 249.375ZM621.092 261.775C622.005 261.775 622.461 261.217 622.461 260.101V253.065C622.461 251.949 622.005 251.391 621.092 251.391C620.179 251.391 619.723 251.949 619.723 253.065V260.101C619.723 261.217 620.179 261.775 621.092 261.775ZM632.769 276.38C631.45 276.38 630.448 276.013 629.764 275.277C629.079 274.542 628.737 273.49 628.737 272.12V265.464C628.737 264.095 629.079 263.043 629.764 262.307C630.448 261.572 631.45 261.204 632.769 261.204C634.087 261.204 635.089 261.572 635.773 262.307C636.458 263.043 636.8 264.095 636.8 265.464V272.12C636.8 273.49 636.458 274.542 635.773 275.277C635.089 276.013 634.087 276.38 632.769 276.38ZM632.769 273.984C633.681 273.984 634.138 273.426 634.138 272.311V265.274C634.138 264.158 633.681 263.601 632.769 263.601C631.856 263.601 631.399 264.158 631.399 265.274V272.311C631.399 273.426 631.856 273.984 632.769 273.984Z" fill="black"/>
<path d="M571.431 271.17H572.699V269.902H571.431V271.17ZM563.444 271.17H562.176V272.437H563.444V271.17ZM563.444 267.366L562.276 266.872L562.176 267.109V267.366H563.444ZM571.051 249.375V248.108H570.211L569.883 248.882L571.051 249.375ZM575.615 249.375H576.883V248.108H575.615V249.375ZM575.615 267.366H574.347V268.634H575.615V267.366ZM577.593 267.366H578.861V266.098H577.593V267.366ZM577.593 271.17V272.437H578.861V271.17H577.593ZM575.615 271.17V269.902H574.347V271.17H575.615ZM575.615 276V277.268H576.883V276H575.615ZM571.431 276H570.164V277.268H571.431V276ZM571.431 267.366V268.634H572.699V267.366H571.431ZM571.431 256.982H572.699V255.715H571.431V256.982ZM571.355 256.982V255.715H570.493L570.176 256.516L571.355 256.982ZM567.248 267.366L566.069 266.9L565.383 268.634H567.248V267.366ZM571.431 269.902H563.444V272.437H571.431V269.902ZM564.712 271.17V267.366H562.176V271.17H564.712ZM564.612 267.86L572.219 249.869L569.883 248.882L562.276 266.872L564.612 267.86ZM571.051 250.643H575.615V248.108H571.051V250.643ZM574.347 249.375V267.366H576.883V249.375H574.347ZM575.615 268.634H577.593V266.098H575.615V268.634ZM576.325 267.366V271.17H578.861V267.366H576.325ZM577.593 269.902H575.615V272.437H577.593V269.902ZM574.347 271.17V276H576.883V271.17H574.347ZM575.615 274.732H571.431V277.268H575.615V274.732ZM572.699 276V271.17H570.164V276H572.699ZM572.699 267.366V256.982H570.164V267.366H572.699ZM571.431 255.715H571.355V258.25H571.431V255.715ZM570.176 256.516L566.069 266.9L568.426 267.832L572.534 257.449L570.176 256.516ZM567.248 268.634H571.431V266.098H567.248V268.634ZM580.841 274.707L579.934 275.593L579.944 275.603L579.955 275.613L580.841 274.707ZM579.814 264.133L580.954 264.687L580.96 264.674L579.814 264.133ZM581.906 262.003L582.496 263.125L583.174 262.769V262.003H581.906ZM581.906 261.927H583.174V261.173L582.511 260.813L581.906 261.927ZM579.928 259.949L578.781 260.489L578.791 260.51L578.801 260.53L579.928 259.949ZM580.955 250.707L580.048 249.82L580.048 249.821L580.955 250.707ZM590.426 250.707L589.509 251.583L589.519 251.593L589.529 251.603L590.426 250.707ZM589.513 261.927L588.894 260.82L588.245 261.183V261.927H589.513ZM589.513 262.003H588.245V262.769L588.922 263.125L589.513 262.003ZM591.605 264.133L590.458 264.674L590.464 264.687L591.605 264.133ZM590.54 274.707L591.436 275.603L591.436 275.603L590.54 274.707ZM585.709 275.113C583.827 275.113 582.563 274.618 581.727 273.8L579.955 275.613C581.401 277.027 583.383 277.648 585.709 277.648V275.113ZM581.747 273.82C580.932 272.987 580.435 271.713 580.435 269.8H577.9C577.9 272.147 578.518 274.145 579.934 275.593L581.747 273.82ZM580.435 269.8V267.442H577.9V269.8H580.435ZM580.435 267.442C580.435 266.254 580.63 265.354 580.954 264.687L578.674 263.579C578.135 264.687 577.9 265.993 577.9 267.442H580.435ZM580.96 264.674C581.265 264.03 581.756 263.515 582.496 263.125L581.315 260.881C580.129 261.506 579.225 262.41 578.668 263.592L580.96 264.674ZM583.174 262.003V261.927H580.638V262.003H583.174ZM582.511 260.813C581.83 260.443 581.361 259.962 581.055 259.369L578.801 260.53C579.357 261.61 580.207 262.447 581.301 263.041L582.511 260.813ZM581.075 259.409C580.773 258.768 580.587 257.877 580.587 256.678H578.052C578.052 258.116 578.271 259.406 578.781 260.489L581.075 259.409ZM580.587 256.678V255.575H578.052V256.678H580.587ZM580.587 255.575C580.587 253.653 581.077 252.396 581.862 251.593L580.048 249.821C578.652 251.249 578.052 253.237 578.052 255.575H580.587ZM581.862 251.593C582.675 250.761 583.894 250.263 585.709 250.263V247.727C583.417 247.727 581.466 248.37 580.048 249.82L581.862 251.593ZM585.709 250.263C587.527 250.263 588.724 250.761 589.509 251.583L591.342 249.831C589.946 248.37 588 247.727 585.709 247.727V250.263ZM589.529 251.603C590.333 252.407 590.831 253.66 590.831 255.575H593.367C593.367 253.23 592.749 251.237 591.322 249.81L589.529 251.603ZM590.831 255.575V256.678H593.367V255.575H590.831ZM590.831 256.678C590.831 258.906 590.101 260.146 588.894 260.82L590.131 263.034C592.373 261.781 593.367 259.522 593.367 256.678H590.831ZM588.245 261.927V262.003H590.781V261.927H588.245ZM588.922 263.125C589.663 263.515 590.154 264.03 590.458 264.674L592.751 263.592C592.193 262.41 591.29 261.506 590.103 260.881L588.922 263.125ZM590.464 264.687C590.788 265.354 590.984 266.254 590.984 267.442H593.519C593.519 265.993 593.283 264.687 592.745 263.579L590.464 264.687ZM590.984 267.442V269.8H593.519V267.442H590.984ZM590.984 269.8C590.984 271.706 590.478 272.976 589.643 273.81L591.436 275.603C592.884 274.156 593.519 272.155 593.519 269.8H590.984ZM589.643 273.81C588.836 274.617 587.594 275.113 585.709 275.113V277.648C588.034 277.648 590.012 277.028 591.436 275.603L589.643 273.81ZM585.709 261.483C586.709 261.483 587.668 261.17 588.34 260.359C588.975 259.593 589.183 258.584 589.183 257.553H586.648C586.648 258.297 586.489 258.619 586.388 258.741C586.325 258.817 586.18 258.948 585.709 258.948V261.483ZM589.183 257.553V255.461H586.648V257.553H589.183ZM589.183 255.461C589.183 254.43 588.975 253.421 588.34 252.655C587.668 251.844 586.709 251.531 585.709 251.531V254.066C586.18 254.066 586.325 254.197 586.388 254.273C586.489 254.395 586.648 254.717 586.648 255.461H589.183ZM585.709 251.531C584.709 251.531 583.751 251.844 583.079 252.655C582.444 253.421 582.236 254.43 582.236 255.461H584.771C584.771 254.717 584.93 254.395 585.031 254.273C585.094 254.197 585.239 254.066 585.709 254.066V251.531ZM582.236 255.461V257.553H584.771V255.461H582.236ZM582.236 257.553C582.236 258.584 582.444 259.593 583.079 260.359C583.751 261.17 584.709 261.483 585.709 261.483V258.948C585.239 258.948 585.094 258.817 585.031 258.741C584.93 258.619 584.771 258.297 584.771 257.553H582.236ZM585.709 273.845C586.784 273.845 587.786 273.487 588.475 272.608C589.119 271.788 589.335 270.705 589.335 269.572H586.8C586.8 270.442 586.623 270.861 586.481 271.043C586.384 271.166 586.207 271.309 585.709 271.309V273.845ZM589.335 269.572V267.024H586.8V269.572H589.335ZM589.335 267.024C589.335 265.891 589.119 264.807 588.475 263.987C587.786 263.109 586.784 262.751 585.709 262.751V265.287C586.207 265.287 586.384 265.43 586.481 265.553C586.623 265.734 586.8 266.153 586.8 267.024H589.335ZM585.709 262.751C584.635 262.751 583.633 263.109 582.943 263.987C582.3 264.807 582.083 265.891 582.083 267.024H584.619C584.619 266.153 584.796 265.734 584.938 265.553C585.035 265.43 585.212 265.287 585.709 265.287V262.751ZM582.083 267.024V269.572H584.619V267.024H582.083ZM582.083 269.572C582.083 270.705 582.3 271.788 582.943 272.608C583.633 273.487 584.635 273.845 585.709 273.845V271.309C585.212 271.309 585.035 271.166 584.938 271.043C584.796 270.861 584.619 270.442 584.619 269.572H582.083ZM594.891 271.968V270.7H593.623V271.968H594.891ZM598.922 271.968H600.19V270.7H598.922V271.968ZM598.922 276V277.268H600.19V276H598.922ZM594.891 276H593.623V277.268H594.891V276ZM594.891 273.236H598.922V270.7H594.891V273.236ZM597.655 271.968V276H600.19V271.968H597.655ZM598.922 274.732H594.891V277.268H598.922V274.732ZM596.159 276V271.968H593.623V276H596.159ZM603.315 274.669L602.377 275.523L602.383 275.528L602.388 275.534L603.315 274.669ZM601.755 267.594V266.326H600.487V267.594H601.755ZM605.711 267.594H606.979V266.326H605.711V267.594ZM609.476 271.93L608.502 271.119L608.498 271.124L609.476 271.93ZM609.4 264.818L608.415 265.615L608.424 265.627L608.434 265.639L609.4 264.818ZM605.901 264.019H604.633V265.287H605.901V264.019ZM605.901 260.215V258.948H604.633V260.215H605.901ZM609.286 259.569L608.39 258.672L608.376 258.686L608.363 258.7L609.286 259.569ZM609.362 253.445L610.313 252.606L610.313 252.606L609.362 253.445ZM605.825 257.02V258.288H607.093V257.02H605.825ZM601.869 257.02H600.601V258.288H601.869V257.02ZM603.429 250.707L602.502 249.842L602.497 249.847L602.492 249.853L603.429 250.707ZM612.557 250.707L611.62 251.561L611.625 251.566L611.63 251.571L612.557 250.707ZM613.394 260.025L614.501 260.644L614.504 260.637L614.508 260.63L613.394 260.025ZM611.15 261.889L610.705 260.702L609.882 261.01V261.889H611.15ZM611.15 261.965H609.882V262.846L610.708 263.153L611.15 261.965ZM613.508 263.943L612.387 264.535L612.387 264.535L613.508 263.943ZM612.633 274.707L611.706 273.842L611.706 273.842L612.633 274.707ZM607.993 275.113C606.174 275.113 604.997 274.614 604.241 273.804L602.388 275.534C603.762 277.006 605.704 277.648 607.993 277.648V275.113ZM604.252 273.815C603.494 272.983 603.023 271.697 603.023 269.762H600.487C600.487 272.087 601.056 274.072 602.377 275.523L604.252 273.815ZM603.023 269.762V267.594H600.487V269.762H603.023ZM601.755 268.862H605.711V266.326H601.755V268.862ZM604.443 267.594V269.952H606.979V267.594H604.443ZM604.443 269.952C604.443 270.97 604.648 271.969 605.275 272.728C605.941 273.534 606.89 273.845 607.879 273.845V271.309C607.422 271.309 607.287 271.182 607.23 271.113C607.135 270.998 606.979 270.684 606.979 269.952H604.443ZM607.879 273.845C608.856 273.845 609.796 273.536 610.455 272.736L608.498 271.124C608.446 271.187 608.321 271.309 607.879 271.309V273.845ZM610.45 272.742C611.128 271.929 611.315 270.757 611.315 269.572H608.779C608.779 270.619 608.586 271.019 608.502 271.119L610.45 272.742ZM611.315 269.572V267.404H608.779V269.572H611.315ZM611.315 267.404C611.315 266.107 611.099 264.858 610.366 263.997L608.434 265.639C608.564 265.791 608.779 266.267 608.779 267.404H611.315ZM610.386 264.02C609.627 263.083 608.491 262.751 607.308 262.751V265.287C608.052 265.287 608.311 265.487 608.415 265.615L610.386 264.02ZM607.308 262.751H605.901V265.287H607.308V262.751ZM607.169 264.019V260.215H604.633V264.019H607.169ZM605.901 261.483H607.422V258.948H605.901V261.483ZM607.422 261.483C608.461 261.483 609.479 261.214 610.209 260.438L608.363 258.7C608.282 258.786 608.057 258.948 607.422 258.948V261.483ZM610.183 260.465C610.968 259.68 611.201 258.54 611.201 257.401H608.665C608.665 258.29 608.467 258.595 608.39 258.672L610.183 260.465ZM611.201 257.401V255.461H608.665V257.401H611.201ZM611.201 255.461C611.201 254.411 610.988 253.372 610.313 252.606L608.412 254.284C608.497 254.381 608.665 254.685 608.665 255.461H611.201ZM610.313 252.606C609.665 251.873 608.797 251.531 607.841 251.531V254.066C608.153 254.066 608.298 254.156 608.412 254.284L610.313 252.606ZM607.841 251.531C606.897 251.531 605.985 251.833 605.346 252.615C604.748 253.349 604.557 254.307 604.557 255.271H607.093C607.093 254.587 607.237 254.309 607.311 254.218C607.345 254.177 607.44 254.066 607.841 254.066V251.531ZM604.557 255.271V257.02H607.093V255.271H604.557ZM605.825 255.753H601.869V258.288H605.825V255.753ZM603.137 257.02V255.613H600.601V257.02H603.137ZM603.137 255.613C603.137 253.678 603.608 252.392 604.366 251.561L602.492 249.853C601.17 251.303 600.601 253.288 600.601 255.613H603.137ZM604.356 251.572C605.12 250.752 606.267 250.263 607.993 250.263V247.727C605.763 247.727 603.867 248.379 602.502 249.842L604.356 251.572ZM607.993 250.263C609.752 250.263 610.887 250.756 611.62 251.561L613.494 249.853C612.148 248.375 610.24 247.727 607.993 247.727V250.263ZM611.63 251.571C612.377 252.373 612.849 253.638 612.849 255.575H615.384C615.384 253.252 614.817 251.272 613.485 249.842L611.63 251.571ZM612.849 255.575V256.526H615.384V255.575H612.849ZM612.849 256.526C612.849 257.846 612.627 258.781 612.28 259.42L614.508 260.63C615.125 259.494 615.384 258.097 615.384 256.526H612.849ZM612.287 259.407C611.966 259.981 611.467 260.416 610.705 260.702L611.595 263.076C612.861 262.601 613.858 261.794 614.501 260.644L612.287 259.407ZM609.882 261.889V261.965H612.418V261.889H609.882ZM610.708 263.153C611.546 263.465 612.069 263.933 612.387 264.535L614.629 263.351C613.983 262.127 612.934 261.276 611.592 260.777L610.708 263.153ZM612.387 264.535C612.743 265.21 612.963 266.155 612.963 267.442H615.499C615.499 265.889 615.237 264.502 614.629 263.351L612.387 264.535ZM612.963 267.442V269.8H615.499V267.442H612.963ZM612.963 269.8C612.963 271.728 612.483 273.01 611.706 273.842L613.56 275.572C614.914 274.122 615.499 272.133 615.499 269.8H612.963ZM611.706 273.842C610.981 274.621 609.822 275.113 607.993 275.113V277.648C610.272 277.648 612.207 277.024 613.561 275.571L611.706 273.842ZM618.087 263.068L617.159 263.932L617.159 263.932L618.087 263.068ZM618.087 250.098L617.159 249.234L617.159 249.234L618.087 250.098ZM624.097 250.098L625.025 249.234L625.025 249.234L624.097 250.098ZM624.097 263.068L625.025 263.932L625.025 263.932L624.097 263.068ZM630.753 249.375V248.108H629.884L629.57 248.918L630.753 249.375ZM633.415 249.375L634.598 249.833L635.266 248.108H633.415V249.375ZM623.108 276V277.268H623.976L624.29 276.458L623.108 276ZM620.445 276L619.263 275.542L618.595 277.268H620.445V276ZM629.764 275.277L630.692 274.413L630.692 274.413L629.764 275.277ZM629.764 262.307L630.692 263.171L630.692 263.171L629.764 262.307ZM635.773 262.307L634.845 263.171L634.845 263.171L635.773 262.307ZM635.773 275.277L634.845 274.413L634.845 274.413L635.773 275.277ZM621.092 262.903C620.01 262.903 619.391 262.608 619.015 262.204L617.159 263.932C618.152 264.999 619.537 265.439 621.092 265.439V262.903ZM619.015 262.204C618.618 261.777 618.328 261.078 618.328 259.911H615.792C615.792 261.483 616.187 262.888 617.159 263.932L619.015 262.204ZM618.328 259.911V253.255H615.792V259.911H618.328ZM618.328 253.255C618.328 252.088 618.618 251.389 619.015 250.962L617.159 249.234C616.187 250.278 615.792 251.683 615.792 253.255H618.328ZM619.015 250.962C619.391 250.558 620.01 250.263 621.092 250.263V247.727C619.537 247.727 618.152 248.167 617.159 249.234L619.015 250.962ZM621.092 250.263C622.174 250.263 622.793 250.558 623.169 250.962L625.025 249.234C624.031 248.167 622.647 247.727 621.092 247.727V250.263ZM623.169 250.962C623.566 251.389 623.856 252.088 623.856 253.255H626.391C626.391 251.683 625.997 250.278 625.025 249.234L623.169 250.962ZM623.856 253.255V259.911H626.391V253.255H623.856ZM623.856 259.911C623.856 261.078 623.566 261.777 623.169 262.204L625.025 263.932C625.997 262.888 626.391 261.483 626.391 259.911H623.856ZM623.169 262.204C622.793 262.608 622.174 262.903 621.092 262.903V265.439C622.647 265.439 624.031 264.999 625.025 263.932L623.169 262.204ZM630.753 250.643H633.415V248.108H630.753V250.643ZM632.233 248.918L621.925 275.542L624.29 276.458L634.598 249.833L632.233 248.918ZM623.108 274.732H620.445V277.268H623.108V274.732ZM621.628 276.458L631.935 249.833L629.57 248.918L619.263 275.542L621.628 276.458ZM621.092 263.043C621.818 263.043 622.569 262.808 623.1 262.159C623.591 261.559 623.729 260.8 623.729 260.101H621.193C621.193 260.298 621.173 260.425 621.152 260.5C621.133 260.572 621.118 260.577 621.138 260.554C621.161 260.525 621.193 260.504 621.213 260.496C621.224 260.491 621.193 260.507 621.092 260.507V263.043ZM623.729 260.101V253.065H621.193V260.101H623.729ZM623.729 253.065C623.729 252.366 623.591 251.607 623.1 251.007C622.569 250.358 621.818 250.123 621.092 250.123V252.659C621.193 252.659 621.224 252.675 621.213 252.67C621.193 252.662 621.161 252.641 621.138 252.613C621.118 252.589 621.133 252.594 621.152 252.666C621.173 252.741 621.193 252.868 621.193 253.065H623.729ZM621.092 250.123C620.365 250.123 619.615 250.358 619.084 251.007C618.592 251.607 618.455 252.366 618.455 253.065H620.99C620.99 252.868 621.011 252.741 621.031 252.666C621.051 252.594 621.065 252.589 621.046 252.613C621.023 252.641 620.991 252.662 620.971 252.67C620.959 252.675 620.99 252.659 621.092 252.659V250.123ZM618.455 253.065V260.101H620.99V253.065H618.455ZM618.455 260.101C618.455 260.8 618.592 261.559 619.084 262.159C619.615 262.808 620.365 263.043 621.092 263.043V260.507C620.99 260.507 620.959 260.491 620.971 260.496C620.991 260.504 621.023 260.525 621.046 260.554C621.065 260.577 621.051 260.572 621.031 260.5C621.011 260.425 620.99 260.298 620.99 260.101H618.455ZM632.769 275.113C631.687 275.113 631.068 274.817 630.692 274.413L628.836 276.141C629.829 277.208 631.214 277.648 632.769 277.648V275.113ZM630.692 274.413C630.295 273.987 630.005 273.287 630.005 272.12H627.469C627.469 273.692 627.864 275.097 628.836 276.141L630.692 274.413ZM630.005 272.12V265.464H627.469V272.12H630.005ZM630.005 265.464C630.005 264.298 630.295 263.598 630.692 263.171L628.836 261.443C627.864 262.487 627.469 263.892 627.469 265.464H630.005ZM630.692 263.171C631.068 262.767 631.687 262.472 632.769 262.472V259.937C631.214 259.937 629.829 260.377 628.836 261.443L630.692 263.171ZM632.769 262.472C633.851 262.472 634.469 262.767 634.845 263.171L636.701 261.443C635.708 260.377 634.324 259.937 632.769 259.937V262.472ZM634.845 263.171C635.243 263.598 635.533 264.298 635.533 265.464H638.068C638.068 263.892 637.673 262.487 636.701 261.443L634.845 263.171ZM635.533 265.464V272.12H638.068V265.464H635.533ZM635.533 272.12C635.533 273.287 635.243 273.987 634.845 274.413L636.701 276.141C637.673 275.097 638.068 273.692 638.068 272.12H635.533ZM634.845 274.413C634.469 274.817 633.851 275.113 632.769 275.113V277.648C634.324 277.648 635.708 277.208 636.701 276.141L634.845 274.413ZM632.769 275.252C633.495 275.252 634.246 275.018 634.777 274.369C635.268 273.768 635.406 273.009 635.406 272.311H632.87C632.87 272.507 632.849 272.635 632.829 272.709C632.81 272.781 632.795 272.786 632.814 272.763C632.838 272.734 632.87 272.713 632.889 272.705C632.901 272.701 632.87 272.716 632.769 272.716V275.252ZM635.406 272.311V265.274H632.87V272.311H635.406ZM635.406 265.274C635.406 264.576 635.268 263.816 634.777 263.216C634.246 262.567 633.495 262.333 632.769 262.333V264.868C632.87 264.868 632.901 264.884 632.889 264.879C632.87 264.871 632.838 264.85 632.814 264.822C632.795 264.798 632.81 264.804 632.829 264.876C632.849 264.95 632.87 265.077 632.87 265.274H635.406ZM632.769 262.333C632.042 262.333 631.291 262.567 630.76 263.216C630.269 263.816 630.132 264.576 630.132 265.274H632.667C632.667 265.077 632.688 264.95 632.708 264.876C632.728 264.804 632.742 264.798 632.723 264.822C632.699 264.85 632.668 264.871 632.648 264.879C632.636 264.884 632.667 264.868 632.769 264.868V262.333ZM630.132 265.274V272.311H632.667V265.274H630.132ZM630.132 272.311C630.132 273.009 630.269 273.768 630.76 274.369C631.291 275.018 632.042 275.252 632.769 275.252V272.716C632.667 272.716 632.636 272.701 632.648 272.705C632.668 272.713 632.699 272.734 632.723 272.763C632.742 272.786 632.728 272.781 632.708 272.709C632.688 272.635 632.667 272.507 632.667 272.311H630.132Z" fill="#BFBFBF" mask="url(#path-12-outside-1_309_1087)"/>
</g>
<g filter="url(#filter1_d_309_1087)">
<mask id="path-14-outside-2_309_1087" maskUnits="userSpaceOnUse" x="252" y="297" width="77" height="31" fill="black">
<rect fill="white" x="252" y="297" width="77" height="31"/>
<path d="M260.366 326.38C258.312 326.38 256.753 325.81 255.688 324.669C254.648 323.528 254.129 321.892 254.129 319.762V317.594H258.084V319.952C258.084 321.702 258.807 322.577 260.252 322.577C260.962 322.577 261.495 322.361 261.85 321.93C262.23 321.474 262.42 320.688 262.42 319.572V317.404C262.42 316.187 262.205 315.325 261.774 314.818C261.343 314.285 260.645 314.019 259.682 314.019H258.274V310.215H259.796C260.633 310.215 261.254 310 261.66 309.569C262.091 309.138 262.306 308.415 262.306 307.401V305.461C262.306 304.548 262.116 303.876 261.736 303.445C261.355 303.014 260.848 302.799 260.214 302.799C258.87 302.799 258.198 303.623 258.198 305.271V307.02H254.243V305.613C254.243 303.483 254.763 301.848 255.802 300.707C256.867 299.566 258.389 298.995 260.366 298.995C262.37 298.995 263.891 299.566 264.931 300.707C265.97 301.822 266.49 303.445 266.49 305.575V306.526C266.49 307.971 266.249 309.138 265.767 310.025C265.286 310.887 264.538 311.509 263.523 311.889V311.965C264.614 312.371 265.4 313.03 265.881 313.943C266.363 314.856 266.604 316.022 266.604 317.442V319.8C266.604 321.93 266.072 323.566 265.007 324.707C263.967 325.823 262.42 326.38 260.366 326.38ZM275.709 326.38C273.605 326.38 271.982 325.823 270.841 324.707C269.725 323.566 269.167 321.93 269.167 319.8V317.442C269.167 316.124 269.383 315.021 269.814 314.133C270.245 313.22 270.942 312.51 271.906 312.003V311.927C271.018 311.445 270.359 310.786 269.928 309.949C269.522 309.087 269.32 307.997 269.32 306.678V305.575C269.32 303.445 269.865 301.822 270.955 300.707C272.071 299.566 273.656 298.995 275.709 298.995C277.763 298.995 279.335 299.566 280.426 300.707C281.541 301.822 282.099 303.445 282.099 305.575V306.678C282.099 309.214 281.237 310.963 279.513 311.927V312.003C280.476 312.51 281.174 313.22 281.605 314.133C282.036 315.021 282.251 316.124 282.251 317.442V319.8C282.251 321.93 281.681 323.566 280.54 324.707C279.424 325.823 277.814 326.38 275.709 326.38ZM275.709 310.215C277.18 310.215 277.915 309.328 277.915 307.553V305.461C277.915 303.686 277.18 302.799 275.709 302.799C274.239 302.799 273.503 303.686 273.503 305.461V307.553C273.503 309.328 274.239 310.215 275.709 310.215ZM275.709 322.577C277.282 322.577 278.068 321.575 278.068 319.572V317.024C278.068 315.021 277.282 314.019 275.709 314.019C274.137 314.019 273.351 315.021 273.351 317.024V319.572C273.351 321.575 274.137 322.577 275.709 322.577ZM284.891 321.968H288.922V326H284.891V321.968ZM298.107 326.38C296.002 326.38 294.38 325.823 293.239 324.707C292.123 323.566 291.565 321.93 291.565 319.8V317.442C291.565 316.124 291.781 315.021 292.212 314.133C292.643 313.22 293.34 312.51 294.304 312.003V311.927C293.416 311.445 292.757 310.786 292.326 309.949C291.92 309.087 291.717 307.997 291.717 306.678V305.575C291.717 303.445 292.262 301.822 293.353 300.707C294.468 299.566 296.053 298.995 298.107 298.995C300.161 298.995 301.733 299.566 302.823 300.707C303.939 301.822 304.497 303.445 304.497 305.575V306.678C304.497 309.214 303.635 310.963 301.911 311.927V312.003C302.874 312.51 303.571 313.22 304.002 314.133C304.434 315.021 304.649 316.124 304.649 317.442V319.8C304.649 321.93 304.079 323.566 302.937 324.707C301.822 325.823 300.212 326.38 298.107 326.38ZM298.107 310.215C299.578 310.215 300.313 309.328 300.313 307.553V305.461C300.313 303.686 299.578 302.799 298.107 302.799C296.636 302.799 295.901 303.686 295.901 305.461V307.553C295.901 309.328 296.636 310.215 298.107 310.215ZM298.107 322.577C299.679 322.577 300.465 321.575 300.465 319.572V317.024C300.465 315.021 299.679 314.019 298.107 314.019C296.535 314.019 295.749 315.021 295.749 317.024V319.572C295.749 321.575 296.535 322.577 298.107 322.577ZM311.092 314.171C309.773 314.171 308.772 313.803 308.087 313.068C307.402 312.333 307.06 311.28 307.06 309.911V303.255C307.06 301.886 307.402 300.833 308.087 300.098C308.772 299.363 309.773 298.995 311.092 298.995C312.41 298.995 313.412 299.363 314.097 300.098C314.781 300.833 315.124 301.886 315.124 303.255V309.911C315.124 311.28 314.781 312.333 314.097 313.068C313.412 313.803 312.41 314.171 311.092 314.171ZM320.753 299.375H323.415L313.108 326H310.445L320.753 299.375ZM311.092 311.775C312.005 311.775 312.461 311.217 312.461 310.101V303.065C312.461 301.949 312.005 301.391 311.092 301.391C310.179 301.391 309.723 301.949 309.723 303.065V310.101C309.723 311.217 310.179 311.775 311.092 311.775ZM322.769 326.38C321.45 326.38 320.448 326.013 319.764 325.277C319.079 324.542 318.737 323.49 318.737 322.12V315.464C318.737 314.095 319.079 313.043 319.764 312.307C320.448 311.572 321.45 311.204 322.769 311.204C324.087 311.204 325.089 311.572 325.773 312.307C326.458 313.043 326.8 314.095 326.8 315.464V322.12C326.8 323.49 326.458 324.542 325.773 325.277C325.089 326.013 324.087 326.38 322.769 326.38ZM322.769 323.984C323.681 323.984 324.138 323.426 324.138 322.311V315.274C324.138 314.158 323.681 313.601 322.769 313.601C321.856 313.601 321.399 314.158 321.399 315.274V322.311C321.399 323.426 321.856 323.984 322.769 323.984Z"/>
</mask>
<path d="M260.366 326.38C258.312 326.38 256.753 325.81 255.688 324.669C254.648 323.528 254.129 321.892 254.129 319.762V317.594H258.084V319.952C258.084 321.702 258.807 322.577 260.252 322.577C260.962 322.577 261.495 322.361 261.85 321.93C262.23 321.474 262.42 320.688 262.42 319.572V317.404C262.42 316.187 262.205 315.325 261.774 314.818C261.343 314.285 260.645 314.019 259.682 314.019H258.274V310.215H259.796C260.633 310.215 261.254 310 261.66 309.569C262.091 309.138 262.306 308.415 262.306 307.401V305.461C262.306 304.548 262.116 303.876 261.736 303.445C261.355 303.014 260.848 302.799 260.214 302.799C258.87 302.799 258.198 303.623 258.198 305.271V307.02H254.243V305.613C254.243 303.483 254.763 301.848 255.802 300.707C256.867 299.566 258.389 298.995 260.366 298.995C262.37 298.995 263.891 299.566 264.931 300.707C265.97 301.822 266.49 303.445 266.49 305.575V306.526C266.49 307.971 266.249 309.138 265.767 310.025C265.286 310.887 264.538 311.509 263.523 311.889V311.965C264.614 312.371 265.4 313.03 265.881 313.943C266.363 314.856 266.604 316.022 266.604 317.442V319.8C266.604 321.93 266.072 323.566 265.007 324.707C263.967 325.823 262.42 326.38 260.366 326.38ZM275.709 326.38C273.605 326.38 271.982 325.823 270.841 324.707C269.725 323.566 269.167 321.93 269.167 319.8V317.442C269.167 316.124 269.383 315.021 269.814 314.133C270.245 313.22 270.942 312.51 271.906 312.003V311.927C271.018 311.445 270.359 310.786 269.928 309.949C269.522 309.087 269.32 307.997 269.32 306.678V305.575C269.32 303.445 269.865 301.822 270.955 300.707C272.071 299.566 273.656 298.995 275.709 298.995C277.763 298.995 279.335 299.566 280.426 300.707C281.541 301.822 282.099 303.445 282.099 305.575V306.678C282.099 309.214 281.237 310.963 279.513 311.927V312.003C280.476 312.51 281.174 313.22 281.605 314.133C282.036 315.021 282.251 316.124 282.251 317.442V319.8C282.251 321.93 281.681 323.566 280.54 324.707C279.424 325.823 277.814 326.38 275.709 326.38ZM275.709 310.215C277.18 310.215 277.915 309.328 277.915 307.553V305.461C277.915 303.686 277.18 302.799 275.709 302.799C274.239 302.799 273.503 303.686 273.503 305.461V307.553C273.503 309.328 274.239 310.215 275.709 310.215ZM275.709 322.577C277.282 322.577 278.068 321.575 278.068 319.572V317.024C278.068 315.021 277.282 314.019 275.709 314.019C274.137 314.019 273.351 315.021 273.351 317.024V319.572C273.351 321.575 274.137 322.577 275.709 322.577ZM284.891 321.968H288.922V326H284.891V321.968ZM298.107 326.38C296.002 326.38 294.38 325.823 293.239 324.707C292.123 323.566 291.565 321.93 291.565 319.8V317.442C291.565 316.124 291.781 315.021 292.212 314.133C292.643 313.22 293.34 312.51 294.304 312.003V311.927C293.416 311.445 292.757 310.786 292.326 309.949C291.92 309.087 291.717 307.997 291.717 306.678V305.575C291.717 303.445 292.262 301.822 293.353 300.707C294.468 299.566 296.053 298.995 298.107 298.995C300.161 298.995 301.733 299.566 302.823 300.707C303.939 301.822 304.497 303.445 304.497 305.575V306.678C304.497 309.214 303.635 310.963 301.911 311.927V312.003C302.874 312.51 303.571 313.22 304.002 314.133C304.434 315.021 304.649 316.124 304.649 317.442V319.8C304.649 321.93 304.079 323.566 302.937 324.707C301.822 325.823 300.212 326.38 298.107 326.38ZM298.107 310.215C299.578 310.215 300.313 309.328 300.313 307.553V305.461C300.313 303.686 299.578 302.799 298.107 302.799C296.636 302.799 295.901 303.686 295.901 305.461V307.553C295.901 309.328 296.636 310.215 298.107 310.215ZM298.107 322.577C299.679 322.577 300.465 321.575 300.465 319.572V317.024C300.465 315.021 299.679 314.019 298.107 314.019C296.535 314.019 295.749 315.021 295.749 317.024V319.572C295.749 321.575 296.535 322.577 298.107 322.577ZM311.092 314.171C309.773 314.171 308.772 313.803 308.087 313.068C307.402 312.333 307.06 311.28 307.06 309.911V303.255C307.06 301.886 307.402 300.833 308.087 300.098C308.772 299.363 309.773 298.995 311.092 298.995C312.41 298.995 313.412 299.363 314.097 300.098C314.781 300.833 315.124 301.886 315.124 303.255V309.911C315.124 311.28 314.781 312.333 314.097 313.068C313.412 313.803 312.41 314.171 311.092 314.171ZM320.753 299.375H323.415L313.108 326H310.445L320.753 299.375ZM311.092 311.775C312.005 311.775 312.461 311.217 312.461 310.101V303.065C312.461 301.949 312.005 301.391 311.092 301.391C310.179 301.391 309.723 301.949 309.723 303.065V310.101C309.723 311.217 310.179 311.775 311.092 311.775ZM322.769 326.38C321.45 326.38 320.448 326.013 319.764 325.277C319.079 324.542 318.737 323.49 318.737 322.12V315.464C318.737 314.095 319.079 313.043 319.764 312.307C320.448 311.572 321.45 311.204 322.769 311.204C324.087 311.204 325.089 311.572 325.773 312.307C326.458 313.043 326.8 314.095 326.8 315.464V322.12C326.8 323.49 326.458 324.542 325.773 325.277C325.089 326.013 324.087 326.38 322.769 326.38ZM322.769 323.984C323.681 323.984 324.138 323.426 324.138 322.311V315.274C324.138 314.158 323.681 313.601 322.769 313.601C321.856 313.601 321.399 314.158 321.399 315.274V322.311C321.399 323.426 321.856 323.984 322.769 323.984Z" fill="black"/>
<path d="M255.688 324.669L254.751 325.523L254.756 325.528L254.761 325.534L255.688 324.669ZM254.129 317.594V316.326H252.861V317.594H254.129ZM258.084 317.594H259.352V316.326H258.084V317.594ZM261.85 321.93L260.876 321.119L260.871 321.124L261.85 321.93ZM261.774 314.818L260.788 315.615L260.798 315.627L260.808 315.639L261.774 314.818ZM258.274 314.019H257.007V315.287H258.274V314.019ZM258.274 310.215V308.948H257.007V310.215H258.274ZM261.66 309.569L260.763 308.672L260.75 308.686L260.736 308.7L261.66 309.569ZM261.736 303.445L262.686 302.606L262.686 302.606L261.736 303.445ZM258.198 307.02V308.288H259.466V307.02H258.198ZM254.243 307.02H252.975V308.288H254.243V307.02ZM255.802 300.707L254.875 299.842L254.87 299.847L254.865 299.853L255.802 300.707ZM264.931 300.707L263.993 301.561L263.998 301.566L264.003 301.571L264.931 300.707ZM265.767 310.025L266.874 310.644L266.878 310.637L266.882 310.63L265.767 310.025ZM263.523 311.889L263.078 310.702L262.255 311.01V311.889H263.523ZM263.523 311.965H262.255V312.846L263.081 313.153L263.523 311.965ZM265.881 313.943L264.76 314.535L264.76 314.535L265.881 313.943ZM265.007 324.707L264.08 323.842L264.079 323.842L265.007 324.707ZM260.366 325.113C258.547 325.113 257.371 324.614 256.615 323.804L254.761 325.534C256.135 327.006 258.078 327.648 260.366 327.648V325.113ZM256.625 323.815C255.868 322.983 255.396 321.697 255.396 319.762H252.861C252.861 322.087 253.429 324.072 254.751 325.523L256.625 323.815ZM255.396 319.762V317.594H252.861V319.762H255.396ZM254.129 318.862H258.084V316.326H254.129V318.862ZM256.816 317.594V319.952H259.352V317.594H256.816ZM256.816 319.952C256.816 320.97 257.022 321.969 257.649 322.728C258.314 323.534 259.264 323.845 260.252 323.845V321.309C259.796 321.309 259.661 321.182 259.604 321.113C259.508 320.998 259.352 320.684 259.352 319.952H256.816ZM260.252 323.845C261.23 323.845 262.17 323.536 262.828 322.736L260.871 321.124C260.82 321.187 260.695 321.309 260.252 321.309V323.845ZM262.824 322.742C263.501 321.929 263.688 320.757 263.688 319.572H261.152C261.152 320.619 260.959 321.019 260.876 321.119L262.824 322.742ZM263.688 319.572V317.404H261.152V319.572H263.688ZM263.688 317.404C263.688 316.107 263.472 314.858 262.74 313.997L260.808 315.639C260.937 315.791 261.152 316.267 261.152 317.404H263.688ZM262.759 314.02C262.001 313.083 260.865 312.751 259.682 312.751V315.287C260.426 315.287 260.685 315.487 260.788 315.615L262.759 314.02ZM259.682 312.751H258.274V315.287H259.682V312.751ZM259.542 314.019V310.215H257.007V314.019H259.542ZM258.274 311.483H259.796V308.948H258.274V311.483ZM259.796 311.483C260.835 311.483 261.852 311.214 262.583 310.438L260.736 308.7C260.655 308.786 260.431 308.948 259.796 308.948V311.483ZM262.556 310.465C263.341 309.68 263.574 308.54 263.574 307.401H261.038C261.038 308.29 260.84 308.595 260.763 308.672L262.556 310.465ZM263.574 307.401V305.461H261.038V307.401H263.574ZM263.574 305.461C263.574 304.411 263.362 303.372 262.686 302.606L260.785 304.284C260.87 304.381 261.038 304.685 261.038 305.461H263.574ZM262.686 302.606C262.039 301.873 261.17 301.531 260.214 301.531V304.066C260.526 304.066 260.672 304.156 260.785 304.284L262.686 302.606ZM260.214 301.531C259.271 301.531 258.358 301.833 257.72 302.615C257.122 303.349 256.931 304.307 256.931 305.271H259.466C259.466 304.587 259.611 304.309 259.685 304.218C259.719 304.177 259.814 304.066 260.214 304.066V301.531ZM256.931 305.271V307.02H259.466V305.271H256.931ZM258.198 305.753H254.243V308.288H258.198V305.753ZM255.511 307.02V305.613H252.975V307.02H255.511ZM255.511 305.613C255.511 303.678 255.982 302.392 256.739 301.561L254.865 299.853C253.543 301.303 252.975 303.288 252.975 305.613H255.511ZM256.729 301.572C257.494 300.752 258.64 300.263 260.366 300.263V297.727C258.137 297.727 256.241 298.379 254.875 299.842L256.729 301.572ZM260.366 300.263C262.125 300.263 263.261 300.756 263.993 301.561L265.868 299.853C264.521 298.375 262.614 297.727 260.366 297.727V300.263ZM264.003 301.571C264.75 302.373 265.222 303.638 265.222 305.575H267.758C267.758 303.252 267.19 301.272 265.858 299.842L264.003 301.571ZM265.222 305.575V306.526H267.758V305.575H265.222ZM265.222 306.526C265.222 307.846 265 308.781 264.653 309.42L266.882 310.63C267.498 309.494 267.758 308.097 267.758 306.526H265.222ZM264.661 309.407C264.34 309.981 263.841 310.416 263.078 310.702L263.968 313.076C265.234 312.601 266.232 311.794 266.874 310.644L264.661 309.407ZM262.255 311.889V311.965H264.791V311.889H262.255ZM263.081 313.153C263.919 313.465 264.443 313.933 264.76 314.535L267.003 313.351C266.357 312.127 265.308 311.276 263.965 310.777L263.081 313.153ZM264.76 314.535C265.116 315.21 265.336 316.155 265.336 317.442H267.872C267.872 315.889 267.61 314.502 267.003 313.351L264.76 314.535ZM265.336 317.442V319.8H267.872V317.442H265.336ZM265.336 319.8C265.336 321.728 264.856 323.01 264.08 323.842L265.934 325.572C267.287 324.122 267.872 322.133 267.872 319.8H265.336ZM264.079 323.842C263.354 324.621 262.196 325.113 260.366 325.113V327.648C262.645 327.648 264.58 327.024 265.934 325.571L264.079 323.842ZM270.841 324.707L269.934 325.593L269.944 325.603L269.955 325.613L270.841 324.707ZM269.814 314.133L270.954 314.687L270.96 314.674L269.814 314.133ZM271.906 312.003L272.496 313.125L273.174 312.769V312.003H271.906ZM271.906 311.927H273.174V311.173L272.511 310.813L271.906 311.927ZM269.928 309.949L268.781 310.489L268.791 310.51L268.801 310.53L269.928 309.949ZM270.955 300.707L270.048 299.82L270.048 299.821L270.955 300.707ZM280.426 300.707L279.509 301.583L279.519 301.593L279.529 301.603L280.426 300.707ZM279.513 311.927L278.894 310.82L278.245 311.183V311.927H279.513ZM279.513 312.003H278.245V312.769L278.922 313.125L279.513 312.003ZM281.605 314.133L280.458 314.674L280.464 314.687L281.605 314.133ZM280.54 324.707L281.436 325.603L281.436 325.603L280.54 324.707ZM275.709 325.113C273.827 325.113 272.563 324.618 271.727 323.8L269.955 325.613C271.401 327.027 273.383 327.648 275.709 327.648V325.113ZM271.747 323.82C270.932 322.987 270.435 321.713 270.435 319.8H267.9C267.9 322.147 268.518 324.145 269.934 325.593L271.747 323.82ZM270.435 319.8V317.442H267.9V319.8H270.435ZM270.435 317.442C270.435 316.254 270.63 315.354 270.954 314.687L268.674 313.579C268.135 314.687 267.9 315.993 267.9 317.442H270.435ZM270.96 314.674C271.265 314.03 271.756 313.515 272.496 313.125L271.315 310.881C270.129 311.506 269.225 312.41 268.668 313.592L270.96 314.674ZM273.174 312.003V311.927H270.638V312.003H273.174ZM272.511 310.813C271.83 310.443 271.361 309.962 271.055 309.369L268.801 310.53C269.357 311.61 270.207 312.447 271.301 313.041L272.511 310.813ZM271.075 309.409C270.773 308.768 270.587 307.877 270.587 306.678H268.052C268.052 308.116 268.271 309.406 268.781 310.489L271.075 309.409ZM270.587 306.678V305.575H268.052V306.678H270.587ZM270.587 305.575C270.587 303.653 271.077 302.396 271.862 301.593L270.048 299.821C268.652 301.249 268.052 303.237 268.052 305.575H270.587ZM271.862 301.593C272.675 300.761 273.894 300.263 275.709 300.263V297.727C273.417 297.727 271.466 298.37 270.048 299.82L271.862 301.593ZM275.709 300.263C277.527 300.263 278.724 300.761 279.509 301.583L281.342 299.831C279.946 298.37 278 297.727 275.709 297.727V300.263ZM279.529 301.603C280.333 302.407 280.831 303.66 280.831 305.575H283.367C283.367 303.23 282.749 301.237 281.322 299.81L279.529 301.603ZM280.831 305.575V306.678H283.367V305.575H280.831ZM280.831 306.678C280.831 308.906 280.101 310.146 278.894 310.82L280.131 313.034C282.373 311.781 283.367 309.522 283.367 306.678H280.831ZM278.245 311.927V312.003H280.781V311.927H278.245ZM278.922 313.125C279.663 313.515 280.154 314.03 280.458 314.674L282.751 313.592C282.193 312.41 281.29 311.506 280.103 310.881L278.922 313.125ZM280.464 314.687C280.788 315.354 280.984 316.254 280.984 317.442H283.519C283.519 315.993 283.283 314.687 282.745 313.579L280.464 314.687ZM280.984 317.442V319.8H283.519V317.442H280.984ZM280.984 319.8C280.984 321.706 280.478 322.976 279.643 323.81L281.436 325.603C282.884 324.156 283.519 322.155 283.519 319.8H280.984ZM279.643 323.81C278.836 324.617 277.594 325.113 275.709 325.113V327.648C278.034 327.648 280.012 327.028 281.436 325.603L279.643 323.81ZM275.709 311.483C276.709 311.483 277.668 311.17 278.34 310.359C278.975 309.593 279.183 308.584 279.183 307.553H276.648C276.648 308.297 276.489 308.619 276.388 308.741C276.325 308.817 276.18 308.948 275.709 308.948V311.483ZM279.183 307.553V305.461H276.648V307.553H279.183ZM279.183 305.461C279.183 304.43 278.975 303.421 278.34 302.655C277.668 301.844 276.709 301.531 275.709 301.531V304.066C276.18 304.066 276.325 304.197 276.388 304.273C276.489 304.395 276.648 304.717 276.648 305.461H279.183ZM275.709 301.531C274.709 301.531 273.751 301.844 273.079 302.655C272.444 303.421 272.236 304.43 272.236 305.461H274.771C274.771 304.717 274.93 304.395 275.031 304.273C275.094 304.197 275.239 304.066 275.709 304.066V301.531ZM272.236 305.461V307.553H274.771V305.461H272.236ZM272.236 307.553C272.236 308.584 272.444 309.593 273.079 310.359C273.751 311.17 274.709 311.483 275.709 311.483V308.948C275.239 308.948 275.094 308.817 275.031 308.741C274.93 308.619 274.771 308.297 274.771 307.553H272.236ZM275.709 323.845C276.784 323.845 277.786 323.487 278.475 322.608C279.119 321.788 279.335 320.705 279.335 319.572H276.8C276.8 320.442 276.623 320.861 276.481 321.043C276.384 321.166 276.207 321.309 275.709 321.309V323.845ZM279.335 319.572V317.024H276.8V319.572H279.335ZM279.335 317.024C279.335 315.891 279.119 314.807 278.475 313.987C277.786 313.109 276.784 312.751 275.709 312.751V315.287C276.207 315.287 276.384 315.43 276.481 315.553C276.623 315.734 276.8 316.153 276.8 317.024H279.335ZM275.709 312.751C274.635 312.751 273.633 313.109 272.943 313.987C272.3 314.807 272.083 315.891 272.083 317.024H274.619C274.619 316.153 274.796 315.734 274.938 315.553C275.035 315.43 275.212 315.287 275.709 315.287V312.751ZM272.083 317.024V319.572H274.619V317.024H272.083ZM272.083 319.572C272.083 320.705 272.3 321.788 272.943 322.608C273.633 323.487 274.635 323.845 275.709 323.845V321.309C275.212 321.309 275.035 321.166 274.938 321.043C274.796 320.861 274.619 320.442 274.619 319.572H272.083ZM284.891 321.968V320.7H283.623V321.968H284.891ZM288.922 321.968H290.19V320.7H288.922V321.968ZM288.922 326V327.268H290.19V326H288.922ZM284.891 326H283.623V327.268H284.891V326ZM284.891 323.236H288.922V320.7H284.891V323.236ZM287.655 321.968V326H290.19V321.968H287.655ZM288.922 324.732H284.891V327.268H288.922V324.732ZM286.159 326V321.968H283.623V326H286.159ZM293.239 324.707L292.332 325.593L292.342 325.603L292.352 325.613L293.239 324.707ZM292.212 314.133L293.352 314.687L293.358 314.674L292.212 314.133ZM294.304 312.003L294.894 313.125L295.571 312.769V312.003H294.304ZM294.304 311.927H295.571V311.173L294.908 310.813L294.304 311.927ZM292.326 309.949L291.179 310.489L291.188 310.51L291.199 310.53L292.326 309.949ZM293.353 300.707L292.446 299.82L292.446 299.821L293.353 300.707ZM302.823 300.707L301.907 301.583L301.917 301.593L301.927 301.603L302.823 300.707ZM301.911 311.927L301.292 310.82L300.643 311.183V311.927H301.911ZM301.911 312.003H300.643V312.769L301.32 313.125L301.911 312.003ZM304.002 314.133L302.856 314.674L302.862 314.687L304.002 314.133ZM302.937 324.707L303.834 325.603L303.834 325.603L302.937 324.707ZM298.107 325.113C296.225 325.113 294.961 324.618 294.125 323.8L292.352 325.613C293.798 327.027 295.78 327.648 298.107 327.648V325.113ZM294.145 323.82C293.33 322.987 292.833 321.713 292.833 319.8H290.297C290.297 322.147 290.916 324.145 292.332 325.593L294.145 323.82ZM292.833 319.8V317.442H290.297V319.8H292.833ZM292.833 317.442C292.833 316.254 293.028 315.354 293.352 314.687L291.071 313.579C290.533 314.687 290.297 315.993 290.297 317.442H292.833ZM293.358 314.674C293.662 314.03 294.154 313.515 294.894 313.125L293.713 310.881C292.526 311.506 291.623 312.41 291.065 313.592L293.358 314.674ZM295.571 312.003V311.927H293.036V312.003H295.571ZM294.908 310.813C294.227 310.443 293.759 309.962 293.453 309.369L291.199 310.53C291.755 311.61 292.605 312.447 293.699 313.041L294.908 310.813ZM293.473 309.409C293.171 308.768 292.985 307.877 292.985 306.678H290.449C290.449 308.116 290.669 309.406 291.179 310.489L293.473 309.409ZM292.985 306.678V305.575H290.449V306.678H292.985ZM292.985 305.575C292.985 303.653 293.474 302.396 294.259 301.593L292.446 299.821C291.05 301.249 290.449 303.237 290.449 305.575H292.985ZM294.259 301.593C295.073 300.761 296.292 300.263 298.107 300.263V297.727C295.815 297.727 293.864 298.37 292.446 299.82L294.259 301.593ZM298.107 300.263C299.924 300.263 301.122 300.761 301.907 301.583L303.74 299.831C302.344 298.37 300.398 297.727 298.107 297.727V300.263ZM301.927 301.603C302.731 302.407 303.229 303.66 303.229 305.575H305.765C305.765 303.23 305.147 301.237 303.72 299.81L301.927 301.603ZM303.229 305.575V306.678H305.765V305.575H303.229ZM303.229 306.678C303.229 308.906 302.499 310.146 301.292 310.82L302.529 313.034C304.771 311.781 305.765 309.522 305.765 306.678H303.229ZM300.643 311.927V312.003H303.178V311.927H300.643ZM301.32 313.125C302.061 313.515 302.552 314.03 302.856 314.674L305.149 313.592C304.591 312.41 303.688 311.506 302.501 310.881L301.32 313.125ZM302.862 314.687C303.186 315.354 303.381 316.254 303.381 317.442H305.917C305.917 315.993 305.681 314.687 305.143 313.579L302.862 314.687ZM303.381 317.442V319.8H305.917V317.442H303.381ZM303.381 319.8C303.381 321.706 302.876 322.976 302.041 323.81L303.834 325.603C305.281 324.156 305.917 322.155 305.917 319.8H303.381ZM302.041 323.81C301.234 324.617 299.991 325.113 298.107 325.113V327.648C300.432 327.648 302.409 327.028 303.834 325.603L302.041 323.81ZM298.107 311.483C299.107 311.483 300.066 311.17 300.738 310.359C301.372 309.593 301.581 308.584 301.581 307.553H299.045C299.045 308.297 298.886 308.619 298.785 308.741C298.722 308.817 298.578 308.948 298.107 308.948V311.483ZM301.581 307.553V305.461H299.045V307.553H301.581ZM301.581 305.461C301.581 304.43 301.372 303.421 300.738 302.655C300.066 301.844 299.107 301.531 298.107 301.531V304.066C298.578 304.066 298.722 304.197 298.785 304.273C298.886 304.395 299.045 304.717 299.045 305.461H301.581ZM298.107 301.531C297.107 301.531 296.148 301.844 295.476 302.655C294.842 303.421 294.633 304.43 294.633 305.461H297.169C297.169 304.717 297.328 304.395 297.429 304.273C297.492 304.197 297.636 304.066 298.107 304.066V301.531ZM294.633 305.461V307.553H297.169V305.461H294.633ZM294.633 307.553C294.633 308.584 294.842 309.593 295.476 310.359C296.148 311.17 297.107 311.483 298.107 311.483V308.948C297.636 308.948 297.492 308.817 297.429 308.741C297.328 308.619 297.169 308.297 297.169 307.553H294.633ZM298.107 323.845C299.181 323.845 300.184 323.487 300.873 322.608C301.517 321.788 301.733 320.705 301.733 319.572H299.197C299.197 320.442 299.021 320.861 298.878 321.043C298.782 321.166 298.605 321.309 298.107 321.309V323.845ZM301.733 319.572V317.024H299.197V319.572H301.733ZM301.733 317.024C301.733 315.891 301.517 314.807 300.873 313.987C300.184 313.109 299.181 312.751 298.107 312.751V315.287C298.605 315.287 298.782 315.43 298.878 315.553C299.021 315.734 299.197 316.153 299.197 317.024H301.733ZM298.107 312.751C297.033 312.751 296.031 313.109 295.341 313.987C294.697 314.807 294.481 315.891 294.481 317.024H297.017C297.017 316.153 297.193 315.734 297.336 315.553C297.432 315.43 297.609 315.287 298.107 315.287V312.751ZM294.481 317.024V319.572H297.017V317.024H294.481ZM294.481 319.572C294.481 320.705 294.697 321.788 295.341 322.608C296.031 323.487 297.033 323.845 298.107 323.845V321.309C297.609 321.309 297.432 321.166 297.336 321.043C297.193 320.861 297.017 320.442 297.017 319.572H294.481ZM308.087 313.068L307.159 313.932L307.159 313.932L308.087 313.068ZM308.087 300.098L307.159 299.234L307.159 299.234L308.087 300.098ZM314.097 300.098L315.025 299.234L315.025 299.234L314.097 300.098ZM314.097 313.068L315.025 313.932L315.025 313.932L314.097 313.068ZM320.753 299.375V298.108H319.884L319.57 298.918L320.753 299.375ZM323.415 299.375L324.598 299.833L325.266 298.108H323.415V299.375ZM313.108 326V327.268H313.976L314.29 326.458L313.108 326ZM310.445 326L309.263 325.542L308.595 327.268H310.445V326ZM319.764 325.277L320.692 324.413L320.692 324.413L319.764 325.277ZM319.764 312.307L320.692 313.171L320.692 313.171L319.764 312.307ZM325.773 312.307L324.845 313.171L324.845 313.171L325.773 312.307ZM325.773 325.277L324.845 324.413L324.845 324.413L325.773 325.277ZM311.092 312.903C310.01 312.903 309.391 312.608 309.015 312.204L307.159 313.932C308.152 314.999 309.537 315.439 311.092 315.439V312.903ZM309.015 312.204C308.618 311.777 308.328 311.078 308.328 309.911H305.792C305.792 311.483 306.187 312.888 307.159 313.932L309.015 312.204ZM308.328 309.911V303.255H305.792V309.911H308.328ZM308.328 303.255C308.328 302.088 308.618 301.389 309.015 300.962L307.159 299.234C306.187 300.278 305.792 301.683 305.792 303.255H308.328ZM309.015 300.962C309.391 300.558 310.01 300.263 311.092 300.263V297.727C309.537 297.727 308.152 298.167 307.159 299.234L309.015 300.962ZM311.092 300.263C312.174 300.263 312.793 300.558 313.169 300.962L315.025 299.234C314.031 298.167 312.647 297.727 311.092 297.727V300.263ZM313.169 300.962C313.566 301.389 313.856 302.088 313.856 303.255H316.391C316.391 301.683 315.997 300.278 315.025 299.234L313.169 300.962ZM313.856 303.255V309.911H316.391V303.255H313.856ZM313.856 309.911C313.856 311.078 313.566 311.777 313.169 312.204L315.025 313.932C315.997 312.888 316.391 311.483 316.391 309.911H313.856ZM313.169 312.204C312.793 312.608 312.174 312.903 311.092 312.903V315.439C312.647 315.439 314.031 314.999 315.025 313.932L313.169 312.204ZM320.753 300.643H323.415V298.108H320.753V300.643ZM322.233 298.918L311.925 325.542L314.29 326.458L324.598 299.833L322.233 298.918ZM313.108 324.732H310.445V327.268H313.108V324.732ZM311.628 326.458L321.935 299.833L319.57 298.918L309.263 325.542L311.628 326.458ZM311.092 313.043C311.818 313.043 312.569 312.808 313.1 312.159C313.591 311.559 313.729 310.8 313.729 310.101H311.193C311.193 310.298 311.173 310.425 311.152 310.5C311.133 310.572 311.118 310.577 311.138 310.554C311.161 310.525 311.193 310.504 311.213 310.496C311.224 310.491 311.193 310.507 311.092 310.507V313.043ZM313.729 310.101V303.065H311.193V310.101H313.729ZM313.729 303.065C313.729 302.366 313.591 301.607 313.1 301.007C312.569 300.358 311.818 300.123 311.092 300.123V302.659C311.193 302.659 311.224 302.675 311.213 302.67C311.193 302.662 311.161 302.641 311.138 302.613C311.118 302.589 311.133 302.594 311.152 302.666C311.173 302.741 311.193 302.868 311.193 303.065H313.729ZM311.092 300.123C310.365 300.123 309.615 300.358 309.084 301.007C308.592 301.607 308.455 302.366 308.455 303.065H310.99C310.99 302.868 311.011 302.741 311.031 302.666C311.051 302.594 311.065 302.589 311.046 302.613C311.023 302.641 310.991 302.662 310.971 302.67C310.959 302.675 310.99 302.659 311.092 302.659V300.123ZM308.455 303.065V310.101H310.99V303.065H308.455ZM308.455 310.101C308.455 310.8 308.592 311.559 309.084 312.159C309.615 312.808 310.365 313.043 311.092 313.043V310.507C310.99 310.507 310.959 310.491 310.971 310.496C310.991 310.504 311.023 310.525 311.046 310.554C311.065 310.577 311.051 310.572 311.031 310.5C311.011 310.425 310.99 310.298 310.99 310.101H308.455ZM322.769 325.113C321.687 325.113 321.068 324.817 320.692 324.413L318.836 326.141C319.829 327.208 321.214 327.648 322.769 327.648V325.113ZM320.692 324.413C320.295 323.987 320.005 323.287 320.005 322.12H317.469C317.469 323.692 317.864 325.097 318.836 326.141L320.692 324.413ZM320.005 322.12V315.464H317.469V322.12H320.005ZM320.005 315.464C320.005 314.298 320.295 313.598 320.692 313.171L318.836 311.443C317.864 312.487 317.469 313.892 317.469 315.464H320.005ZM320.692 313.171C321.068 312.767 321.687 312.472 322.769 312.472V309.937C321.214 309.937 319.829 310.377 318.836 311.443L320.692 313.171ZM322.769 312.472C323.851 312.472 324.469 312.767 324.845 313.171L326.701 311.443C325.708 310.377 324.324 309.937 322.769 309.937V312.472ZM324.845 313.171C325.243 313.598 325.533 314.298 325.533 315.464H328.068C328.068 313.892 327.673 312.487 326.701 311.443L324.845 313.171ZM325.533 315.464V322.12H328.068V315.464H325.533ZM325.533 322.12C325.533 323.287 325.243 323.987 324.845 324.413L326.701 326.141C327.673 325.097 328.068 323.692 328.068 322.12H325.533ZM324.845 324.413C324.469 324.817 323.851 325.113 322.769 325.113V327.648C324.324 327.648 325.708 327.208 326.701 326.141L324.845 324.413ZM322.769 325.252C323.495 325.252 324.246 325.018 324.777 324.369C325.268 323.768 325.406 323.009 325.406 322.311H322.87C322.87 322.507 322.849 322.635 322.829 322.709C322.81 322.781 322.795 322.786 322.814 322.763C322.838 322.734 322.87 322.713 322.889 322.705C322.901 322.701 322.87 322.716 322.769 322.716V325.252ZM325.406 322.311V315.274H322.87V322.311H325.406ZM325.406 315.274C325.406 314.576 325.268 313.816 324.777 313.216C324.246 312.567 323.495 312.333 322.769 312.333V314.868C322.87 314.868 322.901 314.884 322.889 314.879C322.87 314.871 322.838 314.85 322.814 314.822C322.795 314.798 322.81 314.804 322.829 314.876C322.849 314.95 322.87 315.077 322.87 315.274H325.406ZM322.769 312.333C322.042 312.333 321.291 312.567 320.76 313.216C320.269 313.816 320.132 314.576 320.132 315.274H322.667C322.667 315.077 322.688 314.95 322.708 314.876C322.728 314.804 322.742 314.798 322.723 314.822C322.699 314.85 322.668 314.871 322.648 314.879C322.636 314.884 322.667 314.868 322.769 314.868V312.333ZM320.132 315.274V322.311H322.667V315.274H320.132ZM320.132 322.311C320.132 323.009 320.269 323.768 320.76 324.369C321.291 325.018 322.042 325.252 322.769 325.252V322.716C322.667 322.716 322.636 322.701 322.648 322.705C322.668 322.713 322.699 322.734 322.723 322.763C322.742 322.786 322.728 322.781 322.708 322.709C322.688 322.635 322.667 322.507 322.667 322.311H320.132Z" fill="#BFBFBF" mask="url(#path-14-outside-2_309_1087)"/>
</g>
<g filter="url(#filter2_d_309_1087)">
<mask id="path-16-outside-3_309_1087" maskUnits="userSpaceOnUse" x="333" y="90" width="75" height="31" fill="black">
<rect fill="white" x="333" y="90" width="75" height="31"/>
<path d="M339.29 98.6893H334.916V95.7225C336.108 95.7225 337.059 95.6211 337.769 95.4182C338.504 95.2154 339.087 94.8857 339.519 94.4293C339.95 93.9475 340.33 93.2629 340.66 92.3754H343.474V119H339.29V98.6893ZM348.586 116.109C348.586 114.208 348.89 112.585 349.499 111.241C350.107 109.872 351.197 108.363 352.77 106.715C354.316 105.066 355.381 103.659 355.965 102.493C356.573 101.326 356.877 100.109 356.877 98.8414C356.877 97.7003 356.687 96.9143 356.307 96.4832C355.952 96.0268 355.419 95.7986 354.709 95.7986C353.264 95.7986 352.541 96.6734 352.541 98.423V101.276H348.586V98.6893C348.586 96.5339 349.118 94.8857 350.183 93.7447C351.248 92.5783 352.795 91.9951 354.824 91.9951C356.852 91.9951 358.399 92.5783 359.464 93.7447C360.529 94.8857 361.061 96.5339 361.061 98.6893C361.061 100.312 360.668 101.897 359.882 103.444C359.121 104.99 357.79 106.765 355.888 108.769C354.646 110.087 353.809 111.165 353.378 112.002C352.947 112.813 352.732 113.688 352.732 114.626V115.196H360.681V119H348.586V116.109ZM363.891 114.968H367.922V119H363.891V114.968ZM376.955 119.38C374.926 119.38 373.38 118.81 372.315 117.669C371.25 116.502 370.717 114.841 370.717 112.686V112.192H374.673V112.952C374.673 114.702 375.395 115.577 376.841 115.577C377.627 115.577 378.21 115.336 378.59 114.854C378.971 114.372 379.161 113.523 379.161 112.306V107.209H379.085C378.35 108.756 377.082 109.529 375.281 109.529C373.76 109.529 372.606 109.009 371.82 107.97C371.034 106.93 370.641 105.421 370.641 103.444V98.6893C370.641 96.5593 371.186 94.9111 372.277 93.7447C373.367 92.5783 374.939 91.9951 376.993 91.9951C379.047 91.9951 380.619 92.5783 381.709 93.7447C382.8 94.9111 383.345 96.5593 383.345 98.6893V112.458C383.345 117.073 381.215 119.38 376.955 119.38ZM376.993 105.726C378.438 105.726 379.161 104.851 379.161 103.101V98.385C379.161 96.6607 378.438 95.7986 376.993 95.7986C375.548 95.7986 374.825 96.6607 374.825 98.385V103.101C374.825 104.851 375.548 105.726 376.993 105.726ZM390.092 107.171C388.773 107.171 387.772 106.803 387.087 106.068C386.402 105.333 386.06 104.28 386.06 102.911V96.255C386.06 94.8857 386.402 93.8334 387.087 93.0981C387.772 92.3627 388.773 91.9951 390.092 91.9951C391.41 91.9951 392.412 92.3627 393.097 93.0981C393.781 93.8334 394.124 94.8857 394.124 96.255V102.911C394.124 104.28 393.781 105.333 393.097 106.068C392.412 106.803 391.41 107.171 390.092 107.171ZM399.753 92.3754H402.415L392.108 119H389.445L399.753 92.3754ZM390.092 104.775C391.005 104.775 391.461 104.217 391.461 103.101V96.0648C391.461 94.9491 391.005 94.3913 390.092 94.3913C389.179 94.3913 388.723 94.9491 388.723 96.0648V103.101C388.723 104.217 389.179 104.775 390.092 104.775ZM401.769 119.38C400.45 119.38 399.448 119.013 398.764 118.277C398.079 117.542 397.737 116.49 397.737 115.12V108.464C397.737 107.095 398.079 106.043 398.764 105.307C399.448 104.572 400.45 104.204 401.769 104.204C403.087 104.204 404.089 104.572 404.773 105.307C405.458 106.043 405.8 107.095 405.8 108.464V115.12C405.8 116.49 405.458 117.542 404.773 118.277C404.089 119.013 403.087 119.38 401.769 119.38ZM401.769 116.984C402.681 116.984 403.138 116.426 403.138 115.311V108.274C403.138 107.158 402.681 106.601 401.769 106.601C400.856 106.601 400.399 107.158 400.399 108.274V115.311C400.399 116.426 400.856 116.984 401.769 116.984Z"/>
</mask>
<path d="M339.29 98.6893H334.916V95.7225C336.108 95.7225 337.059 95.6211 337.769 95.4182C338.504 95.2154 339.087 94.8857 339.519 94.4293C339.95 93.9475 340.33 93.2629 340.66 92.3754H343.474V119H339.29V98.6893ZM348.586 116.109C348.586 114.208 348.89 112.585 349.499 111.241C350.107 109.872 351.197 108.363 352.77 106.715C354.316 105.066 355.381 103.659 355.965 102.493C356.573 101.326 356.877 100.109 356.877 98.8414C356.877 97.7003 356.687 96.9143 356.307 96.4832C355.952 96.0268 355.419 95.7986 354.709 95.7986C353.264 95.7986 352.541 96.6734 352.541 98.423V101.276H348.586V98.6893C348.586 96.5339 349.118 94.8857 350.183 93.7447C351.248 92.5783 352.795 91.9951 354.824 91.9951C356.852 91.9951 358.399 92.5783 359.464 93.7447C360.529 94.8857 361.061 96.5339 361.061 98.6893C361.061 100.312 360.668 101.897 359.882 103.444C359.121 104.99 357.79 106.765 355.888 108.769C354.646 110.087 353.809 111.165 353.378 112.002C352.947 112.813 352.732 113.688 352.732 114.626V115.196H360.681V119H348.586V116.109ZM363.891 114.968H367.922V119H363.891V114.968ZM376.955 119.38C374.926 119.38 373.38 118.81 372.315 117.669C371.25 116.502 370.717 114.841 370.717 112.686V112.192H374.673V112.952C374.673 114.702 375.395 115.577 376.841 115.577C377.627 115.577 378.21 115.336 378.59 114.854C378.971 114.372 379.161 113.523 379.161 112.306V107.209H379.085C378.35 108.756 377.082 109.529 375.281 109.529C373.76 109.529 372.606 109.009 371.82 107.97C371.034 106.93 370.641 105.421 370.641 103.444V98.6893C370.641 96.5593 371.186 94.9111 372.277 93.7447C373.367 92.5783 374.939 91.9951 376.993 91.9951C379.047 91.9951 380.619 92.5783 381.709 93.7447C382.8 94.9111 383.345 96.5593 383.345 98.6893V112.458C383.345 117.073 381.215 119.38 376.955 119.38ZM376.993 105.726C378.438 105.726 379.161 104.851 379.161 103.101V98.385C379.161 96.6607 378.438 95.7986 376.993 95.7986C375.548 95.7986 374.825 96.6607 374.825 98.385V103.101C374.825 104.851 375.548 105.726 376.993 105.726ZM390.092 107.171C388.773 107.171 387.772 106.803 387.087 106.068C386.402 105.333 386.06 104.28 386.06 102.911V96.255C386.06 94.8857 386.402 93.8334 387.087 93.0981C387.772 92.3627 388.773 91.9951 390.092 91.9951C391.41 91.9951 392.412 92.3627 393.097 93.0981C393.781 93.8334 394.124 94.8857 394.124 96.255V102.911C394.124 104.28 393.781 105.333 393.097 106.068C392.412 106.803 391.41 107.171 390.092 107.171ZM399.753 92.3754H402.415L392.108 119H389.445L399.753 92.3754ZM390.092 104.775C391.005 104.775 391.461 104.217 391.461 103.101V96.0648C391.461 94.9491 391.005 94.3913 390.092 94.3913C389.179 94.3913 388.723 94.9491 388.723 96.0648V103.101C388.723 104.217 389.179 104.775 390.092 104.775ZM401.769 119.38C400.45 119.38 399.448 119.013 398.764 118.277C398.079 117.542 397.737 116.49 397.737 115.12V108.464C397.737 107.095 398.079 106.043 398.764 105.307C399.448 104.572 400.45 104.204 401.769 104.204C403.087 104.204 404.089 104.572 404.773 105.307C405.458 106.043 405.8 107.095 405.8 108.464V115.12C405.8 116.49 405.458 117.542 404.773 118.277C404.089 119.013 403.087 119.38 401.769 119.38ZM401.769 116.984C402.681 116.984 403.138 116.426 403.138 115.311V108.274C403.138 107.158 402.681 106.601 401.769 106.601C400.856 106.601 400.399 107.158 400.399 108.274V115.311C400.399 116.426 400.856 116.984 401.769 116.984Z" fill="black"/>
<path d="M339.29 98.6893H340.558V97.4214H339.29V98.6893ZM334.916 98.6893H333.648V99.9571H334.916V98.6893ZM334.916 95.7225V94.4547H333.648V95.7225H334.916ZM337.769 95.4182L337.432 94.196L337.421 94.1992L337.769 95.4182ZM339.519 94.4293L340.44 95.2998L340.452 95.2874L340.463 95.2747L339.519 94.4293ZM340.66 92.3754V91.1076H339.778L339.471 91.934L340.66 92.3754ZM343.474 92.3754H344.742V91.1076H343.474V92.3754ZM343.474 119V120.268H344.742V119H343.474ZM339.29 119H338.022V120.268H339.29V119ZM339.29 97.4214H334.916V99.9571H339.29V97.4214ZM336.184 98.6893V95.7225H333.648V98.6893H336.184ZM334.916 96.9904C336.163 96.9904 337.246 96.8861 338.117 96.6373L337.421 94.1992C336.872 94.3561 336.053 94.4547 334.916 94.4547V96.9904ZM338.106 96.6404C339.017 96.3892 339.819 95.9576 340.44 95.2998L338.597 93.5588C338.356 93.8139 337.992 94.0415 337.432 94.1961L338.106 96.6404ZM340.463 95.2747C341.037 94.6333 341.487 93.7901 341.848 92.8169L339.471 91.934C339.173 92.7357 338.862 93.2618 338.574 93.5839L340.463 95.2747ZM340.66 93.6433H343.474V91.1076H340.66V93.6433ZM342.206 92.3754V119H344.742V92.3754H342.206ZM343.474 117.732H339.29V120.268H343.474V117.732ZM340.558 119V98.6893H338.022V119H340.558ZM349.499 111.241L350.654 111.764L350.657 111.756L349.499 111.241ZM352.77 106.715L353.687 107.59L353.694 107.582L352.77 106.715ZM355.965 102.493L354.841 101.906L354.835 101.916L354.831 101.926L355.965 102.493ZM356.307 96.4832L355.306 97.2616L355.33 97.2926L355.356 97.322L356.307 96.4832ZM352.541 101.276V102.543H353.809V101.276H352.541ZM348.586 101.276H347.318V102.543H348.586V101.276ZM350.183 93.7447L351.11 94.6098L351.119 94.5996L350.183 93.7447ZM359.464 93.7447L358.527 94.5996L358.537 94.6098L359.464 93.7447ZM359.882 103.444L358.752 102.869L358.748 102.877L358.744 102.884L359.882 103.444ZM355.888 108.769L354.969 107.896L354.966 107.899L355.888 108.769ZM353.378 112.002L354.498 112.596L354.502 112.589L354.505 112.582L353.378 112.002ZM352.732 115.196H351.464V116.464H352.732V115.196ZM360.681 115.196H361.949V113.929H360.681V115.196ZM360.681 119V120.268H361.949V119H360.681ZM348.586 119H347.318V120.268H348.586V119ZM349.854 116.109C349.854 114.338 350.138 112.903 350.654 111.764L348.344 110.718C347.642 112.266 347.318 114.077 347.318 116.109H349.854ZM350.657 111.756C351.184 110.57 352.169 109.182 353.687 107.59L351.852 105.84C350.226 107.544 349.03 109.173 348.34 110.726L350.657 111.756ZM353.694 107.582C355.273 105.9 356.435 104.388 357.099 103.06L354.831 101.926C354.328 102.931 353.36 104.233 351.845 105.847L353.694 107.582ZM357.089 103.079C357.788 101.739 358.145 100.321 358.145 98.8414H355.61C355.61 99.8972 355.358 100.914 354.841 101.906L357.089 103.079ZM358.145 98.8414C358.145 97.6519 357.966 96.4473 357.258 95.6444L355.356 97.322C355.408 97.3813 355.61 97.7488 355.61 98.8414H358.145ZM357.308 95.7048C356.658 94.8692 355.712 94.5308 354.709 94.5308V97.0664C355.127 97.0664 355.246 97.1844 355.306 97.2616L357.308 95.7048ZM354.709 94.5308C353.721 94.5308 352.771 94.8416 352.106 95.6472C351.479 96.4065 351.274 97.4054 351.274 98.423H353.809C353.809 97.691 353.965 97.3777 354.061 97.2622C354.118 97.193 354.253 97.0664 354.709 97.0664V94.5308ZM351.274 98.423V101.276H353.809V98.423H351.274ZM352.541 100.008H348.586V102.543H352.541V100.008ZM349.854 101.276V98.6893H347.318V101.276H349.854ZM349.854 98.6893C349.854 96.7316 350.336 95.4391 351.11 94.6098L349.256 92.8796C347.9 94.3324 347.318 96.3363 347.318 98.6893H349.854ZM351.119 94.5996C351.88 93.7664 353.044 93.2629 354.824 93.2629V90.7272C352.546 90.7272 350.616 91.3902 349.247 92.8898L351.119 94.5996ZM354.824 93.2629C356.603 93.2629 357.767 93.7664 358.528 94.5996L360.4 92.8898C359.031 91.3902 357.101 90.7272 354.824 90.7272V93.2629ZM358.537 94.6098C359.311 95.4391 359.793 96.7316 359.793 98.6893H362.329C362.329 96.3363 361.747 94.3324 360.391 92.8796L358.537 94.6098ZM359.793 98.6893C359.793 100.099 359.454 101.488 358.752 102.869L361.012 104.018C361.883 102.306 362.329 100.525 362.329 98.6893H359.793ZM358.744 102.884C358.064 104.268 356.829 105.937 354.969 107.896L356.808 109.641C358.752 107.594 360.179 105.713 361.02 104.003L358.744 102.884ZM354.966 107.899C353.702 109.24 352.766 110.422 352.251 111.421L354.505 112.582C354.853 111.908 355.59 110.934 356.811 109.638L354.966 107.899ZM352.259 111.407C351.728 112.405 351.464 113.485 351.464 114.626H353.999C353.999 113.891 354.166 113.221 354.498 112.596L352.259 111.407ZM351.464 114.626V115.196H353.999V114.626H351.464ZM352.732 116.464H360.681V113.929H352.732V116.464ZM359.413 115.196V119H361.949V115.196H359.413ZM360.681 117.732H348.586V120.268H360.681V117.732ZM349.854 119V116.109H347.318V119H349.854ZM363.891 114.968V113.7H362.623V114.968H363.891ZM367.922 114.968H369.19V113.7H367.922V114.968ZM367.922 119V120.268H369.19V119H367.922ZM363.891 119H362.623V120.268H363.891V119ZM363.891 116.236H367.922V113.7H363.891V116.236ZM366.655 114.968V119H369.19V114.968H366.655ZM367.922 117.732H363.891V120.268H367.922V117.732ZM365.159 119V114.968H362.623V119H365.159ZM372.315 117.669L371.378 118.524L371.388 118.534L372.315 117.669ZM370.717 112.192V110.924H369.449V112.192H370.717ZM374.673 112.192H375.941V110.924H374.673V112.192ZM379.161 107.209H380.429V105.941H379.161V107.209ZM379.085 107.209V105.941H378.284L377.94 106.665L379.085 107.209ZM372.277 93.7447L373.203 94.6105L373.203 94.6105L372.277 93.7447ZM381.709 93.7447L380.783 94.6105L380.783 94.6105L381.709 93.7447ZM376.955 118.113C375.167 118.113 374 117.617 373.241 116.804L371.388 118.534C372.759 120.003 374.686 120.648 376.955 120.648V118.113ZM373.251 116.814C372.467 115.955 371.985 114.642 371.985 112.686H369.449C369.449 115.041 370.033 117.05 371.378 118.524L373.251 116.814ZM371.985 112.686V112.192H369.449V112.686H371.985ZM370.717 113.46H374.673V110.924H370.717V113.46ZM373.405 112.192V112.952H375.941V112.192H373.405ZM373.405 112.952C373.405 113.97 373.61 114.969 374.237 115.728C374.903 116.534 375.852 116.845 376.841 116.845V114.309C376.384 114.309 376.249 114.182 376.192 114.113C376.097 113.998 375.941 113.684 375.941 112.952H373.405ZM376.841 116.845C377.896 116.845 378.9 116.508 379.585 115.64L377.595 114.069C377.52 114.163 377.357 114.309 376.841 114.309V116.845ZM379.585 115.64C380.248 114.801 380.429 113.571 380.429 112.306H377.893C377.893 113.475 377.694 113.944 377.595 114.069L379.585 115.64ZM380.429 112.306V107.209H377.893V112.306H380.429ZM379.161 105.941H379.085V108.477H379.161V105.941ZM377.94 106.665C377.661 107.25 377.315 107.627 376.922 107.867C376.526 108.109 375.998 108.261 375.281 108.261V110.797C376.365 110.797 377.371 110.563 378.243 110.032C379.118 109.498 379.773 108.715 380.23 107.753L377.94 106.665ZM375.281 108.261C374.082 108.261 373.336 107.872 372.831 107.205L370.809 108.734C371.877 110.147 373.438 110.797 375.281 110.797V108.261ZM372.831 107.205C372.278 106.474 371.909 105.281 371.909 103.444H369.373C369.373 105.562 369.79 107.387 370.809 108.734L372.831 107.205ZM371.909 103.444V98.6893H369.373V103.444H371.909ZM371.909 98.6893C371.909 96.771 372.397 95.4725 373.203 94.6105L371.35 92.8789C369.976 94.3497 369.373 96.3476 369.373 98.6893H371.909ZM373.203 94.6105C373.989 93.7691 375.184 93.2629 376.993 93.2629V90.7272C374.694 90.7272 372.745 91.3875 371.35 92.8789L373.203 94.6105ZM376.993 93.2629C378.802 93.2629 379.997 93.7691 380.783 94.6105L382.635 92.8789C381.241 91.3875 379.292 90.7272 376.993 90.7272V93.2629ZM380.783 94.6105C381.589 95.4725 382.077 96.771 382.077 98.6893H384.613C384.613 96.3476 384.01 94.3497 382.635 92.8789L380.783 94.6105ZM382.077 98.6893V112.458H384.613V98.6893H382.077ZM382.077 112.458C382.077 114.594 381.582 115.96 380.816 116.79C380.067 117.601 378.862 118.113 376.955 118.113V120.648C379.307 120.648 381.297 120.006 382.679 118.51C384.043 117.032 384.613 114.937 384.613 112.458H382.077ZM376.993 106.994C377.982 106.994 378.931 106.683 379.596 105.877C380.224 105.118 380.429 104.119 380.429 103.101H377.893C377.893 103.833 377.737 104.147 377.641 104.262C377.584 104.331 377.45 104.458 376.993 104.458V106.994ZM380.429 103.101V98.385H377.893V103.101H380.429ZM380.429 98.385C380.429 97.3766 380.222 96.3842 379.591 95.6307C378.923 94.8344 377.976 94.5308 376.993 94.5308V97.0664C377.456 97.0664 377.592 97.1938 377.647 97.2596C377.738 97.3683 377.893 97.6691 377.893 98.385H380.429ZM376.993 94.5308C376.01 94.5308 375.063 94.8344 374.395 95.6307C373.764 96.3842 373.557 97.3766 373.557 98.385H376.093C376.093 97.6691 376.247 97.3683 376.339 97.2596C376.394 97.1938 376.53 97.0664 376.993 97.0664V94.5308ZM373.557 98.385V103.101H376.093V98.385H373.557ZM373.557 103.101C373.557 104.119 373.762 105.118 374.389 105.877C375.055 106.683 376.004 106.994 376.993 106.994V104.458C376.536 104.458 376.402 104.331 376.344 104.262C376.249 104.147 376.093 103.833 376.093 103.101H373.557ZM387.087 106.068L386.159 106.932L386.159 106.932L387.087 106.068ZM387.087 93.0981L386.159 92.2342L386.159 92.2342L387.087 93.0981ZM393.097 93.0981L394.025 92.2342L394.025 92.2342L393.097 93.0981ZM393.097 106.068L394.025 106.932L394.025 106.932L393.097 106.068ZM399.753 92.3754V91.1076H398.884L398.57 91.9177L399.753 92.3754ZM402.415 92.3754L403.598 92.8332L404.266 91.1076H402.415V92.3754ZM392.108 119V120.268H392.976L393.29 119.458L392.108 119ZM389.445 119L388.263 118.542L387.595 120.268H389.445V119ZM398.764 118.277L399.692 117.413L399.692 117.413L398.764 118.277ZM398.764 105.307L399.692 106.171L399.692 106.171L398.764 105.307ZM404.773 105.307L403.845 106.171L403.845 106.171L404.773 105.307ZM404.773 118.277L403.845 117.413L403.845 117.413L404.773 118.277ZM390.092 105.903C389.01 105.903 388.391 105.608 388.015 105.204L386.159 106.932C387.152 107.999 388.537 108.439 390.092 108.439V105.903ZM388.015 105.204C387.618 104.777 387.328 104.078 387.328 102.911H384.792C384.792 104.483 385.187 105.888 386.159 106.932L388.015 105.204ZM387.328 102.911V96.255H384.792V102.911H387.328ZM387.328 96.255C387.328 95.0884 387.618 94.3887 388.015 93.962L386.159 92.2342C385.187 93.2782 384.792 94.6831 384.792 96.255H387.328ZM388.015 93.962C388.391 93.5581 389.01 93.2629 390.092 93.2629V90.7272C388.537 90.7272 387.152 91.1674 386.159 92.2342L388.015 93.962ZM390.092 93.2629C391.174 93.2629 391.793 93.5581 392.169 93.962L394.025 92.2342C393.031 91.1674 391.647 90.7272 390.092 90.7272V93.2629ZM392.169 93.962C392.566 94.3887 392.856 95.0884 392.856 96.255H395.391C395.391 94.6831 394.997 93.2782 394.025 92.2342L392.169 93.962ZM392.856 96.255V102.911H395.391V96.255H392.856ZM392.856 102.911C392.856 104.078 392.566 104.777 392.169 105.204L394.025 106.932C394.997 105.888 395.391 104.483 395.391 102.911H392.856ZM392.169 105.204C391.793 105.608 391.174 105.903 390.092 105.903V108.439C391.647 108.439 393.031 107.999 394.025 106.932L392.169 105.204ZM399.753 93.6433H402.415V91.1076H399.753V93.6433ZM401.233 91.9177L390.925 118.542L393.29 119.458L403.598 92.8332L401.233 91.9177ZM392.108 117.732H389.445V120.268H392.108V117.732ZM390.628 119.458L400.935 92.8332L398.57 91.9177L388.263 118.542L390.628 119.458ZM390.092 106.043C390.818 106.043 391.569 105.808 392.1 105.159C392.591 104.559 392.729 103.8 392.729 103.101H390.193C390.193 103.298 390.173 103.425 390.152 103.5C390.133 103.572 390.118 103.577 390.138 103.554C390.161 103.525 390.193 103.504 390.213 103.496C390.224 103.491 390.193 103.507 390.092 103.507V106.043ZM392.729 103.101V96.0648H390.193V103.101H392.729ZM392.729 96.0648C392.729 95.3664 392.591 94.6072 392.1 94.0068C391.569 93.3578 390.818 93.1235 390.092 93.1235V95.6591C390.193 95.6591 390.224 95.6748 390.213 95.67C390.193 95.662 390.161 95.6412 390.138 95.6125C390.118 95.5892 390.133 95.5945 390.152 95.6662C390.173 95.7409 390.193 95.8682 390.193 96.0648H392.729ZM390.092 93.1235C389.365 93.1235 388.615 93.3578 388.084 94.0068C387.592 94.6072 387.455 95.3664 387.455 96.0648H389.99C389.99 95.8682 390.011 95.7409 390.031 95.6662C390.051 95.5945 390.065 95.5892 390.046 95.6125C390.023 95.6412 389.991 95.662 389.971 95.67C389.959 95.6748 389.99 95.6591 390.092 95.6591V93.1235ZM387.455 96.0648V103.101H389.99V96.0648H387.455ZM387.455 103.101C387.455 103.8 387.592 104.559 388.084 105.159C388.615 105.808 389.365 106.043 390.092 106.043V103.507C389.99 103.507 389.959 103.491 389.971 103.496C389.991 103.504 390.023 103.525 390.046 103.554C390.065 103.577 390.051 103.572 390.031 103.5C390.011 103.425 389.99 103.298 389.99 103.101H387.455ZM401.769 118.113C400.687 118.113 400.068 117.817 399.692 117.413L397.836 119.141C398.829 120.208 400.214 120.648 401.769 120.648V118.113ZM399.692 117.413C399.295 116.987 399.005 116.287 399.005 115.12H396.469C396.469 116.692 396.864 118.097 397.836 119.141L399.692 117.413ZM399.005 115.12V108.464H396.469V115.12H399.005ZM399.005 108.464C399.005 107.298 399.295 106.598 399.692 106.171L397.836 104.443C396.864 105.487 396.469 106.892 396.469 108.464H399.005ZM399.692 106.171C400.068 105.767 400.687 105.472 401.769 105.472V102.937C400.214 102.937 398.829 103.377 397.836 104.443L399.692 106.171ZM401.769 105.472C402.851 105.472 403.469 105.767 403.845 106.171L405.701 104.443C404.708 103.377 403.324 102.937 401.769 102.937V105.472ZM403.845 106.171C404.243 106.598 404.533 107.298 404.533 108.464H407.068C407.068 106.892 406.673 105.487 405.701 104.443L403.845 106.171ZM404.533 108.464V115.12H407.068V108.464H404.533ZM404.533 115.12C404.533 116.287 404.243 116.987 403.845 117.413L405.701 119.141C406.673 118.097 407.068 116.692 407.068 115.12H404.533ZM403.845 117.413C403.469 117.817 402.851 118.113 401.769 118.113V120.648C403.324 120.648 404.708 120.208 405.701 119.141L403.845 117.413ZM401.769 118.252C402.495 118.252 403.246 118.018 403.777 117.369C404.268 116.768 404.406 116.009 404.406 115.311H401.87C401.87 115.507 401.849 115.635 401.829 115.709C401.81 115.781 401.795 115.786 401.814 115.763C401.838 115.734 401.87 115.713 401.889 115.705C401.901 115.701 401.87 115.716 401.769 115.716V118.252ZM404.406 115.311V108.274H401.87V115.311H404.406ZM404.406 108.274C404.406 107.576 404.268 106.816 403.777 106.216C403.246 105.567 402.495 105.333 401.769 105.333V107.868C401.87 107.868 401.901 107.884 401.889 107.879C401.87 107.871 401.838 107.85 401.814 107.822C401.795 107.798 401.81 107.804 401.829 107.876C401.849 107.95 401.87 108.077 401.87 108.274H404.406ZM401.769 105.333C401.042 105.333 400.291 105.567 399.76 106.216C399.269 106.816 399.132 107.576 399.132 108.274H401.667C401.667 108.077 401.688 107.95 401.708 107.876C401.728 107.804 401.742 107.798 401.723 107.822C401.699 107.85 401.668 107.871 401.648 107.879C401.636 107.884 401.667 107.868 401.769 107.868V105.333ZM399.132 108.274V115.311H401.667V108.274H399.132ZM399.132 115.311C399.132 116.009 399.269 116.768 399.76 117.369C400.291 118.018 401.042 118.252 401.769 118.252V115.716C401.667 115.716 401.636 115.701 401.648 115.705C401.668 115.713 401.699 115.734 401.723 115.763C401.742 115.786 401.728 115.781 401.708 115.709C401.688 115.635 401.667 115.507 401.667 115.311H399.132Z" fill="#BFBFBF" mask="url(#path-16-outside-3_309_1087)"/>
</g>
</g>
<defs>
<filter id="filter0_d_309_1087" x="562.176" y="248.995" width="74.6242" height="29.0752" filterUnits="userSpaceOnUse" color-interpolation-filters="sRGB">
<feFlood flood-opacity="0" result="BackgroundImageFix"/>
<feColorMatrix in="SourceAlpha" type="matrix" values="0 0 0 0 0 0 0 0 0 0 0 0 0 0 0 0 0 0 127 0" result="hardAlpha"/>
<feOffset dx="-1.26784" dy="1.69045"/>
<feComposite in2="hardAlpha" operator="out"/>
<feColorMatrix type="matrix" values="0 0 0 0 0 0 0 0 0 0 0 0 0 0 0 0 0 0 1 0"/>
<feBlend mode="normal" in2="BackgroundImageFix" result="effect1_dropShadow_309_1087"/>
<feBlend mode="normal" in="SourceGraphic" in2="effect1_dropShadow_309_1087" result="shape"/>
</filter>
<filter id="filter1_d_309_1087" x="252.861" y="298.995" width="73.9396" height="29.0752" filterUnits="userSpaceOnUse" color-interpolation-filters="sRGB">
<feFlood flood-opacity="0" result="BackgroundImageFix"/>
<feColorMatrix in="SourceAlpha" type="matrix" values="0 0 0 0 0 0 0 0 0 0 0 0 0 0 0 0 0 0 127 0" result="hardAlpha"/>
<feOffset dx="-1.26784" dy="1.69045"/>
<feComposite in2="hardAlpha" operator="out"/>
<feColorMatrix type="matrix" values="0 0 0 0 0 0 0 0 0 0 0 0 0 0 0 0 0 0 1 0"/>
<feBlend mode="normal" in2="BackgroundImageFix" result="effect1_dropShadow_309_1087"/>
<feBlend mode="normal" in="SourceGraphic" in2="effect1_dropShadow_309_1087" result="shape"/>
</filter>
<filter id="filter2_d_309_1087" x="333.648" y="91.9951" width="72.1519" height="29.0752" filterUnits="userSpaceOnUse" color-interpolation-filters="sRGB">
<feFlood flood-opacity="0" result="BackgroundImageFix"/>
<feColorMatrix in="SourceAlpha" type="matrix" values="0 0 0 0 0 0 0 0 0 0 0 0 0 0 0 0 0 0 127 0" result="hardAlpha"/>
<feOffset dx="-1.26784" dy="1.69045"/>
<feComposite in2="hardAlpha" operator="out"/>
<feColorMatrix type="matrix" values="0 0 0 0 0 0 0 0 0 0 0 0 0 0 0 0 0 0 1 0"/>
<feBlend mode="normal" in2="BackgroundImageFix" result="effect1_dropShadow_309_1087"/>
<feBlend mode="normal" in="SourceGraphic" in2="effect1_dropShadow_309_1087" result="shape"/>
</filter>
<clipPath id="clip0_309_1087">
<rect width="877" height="543" fill="white"/>
</clipPath>
<clipPath id="clip1_309_1087">
<rect width="144.265" height="92.5" fill="white" transform="translate(621 154)"/>
</clipPath>
<clipPath id="clip2_309_1087">
<rect width="187" height="72" fill="white" transform="translate(71 247)"/>
</clipPath>
<clipPath id="clip3_309_1087">
<rect width="155.5" height="92.5" fill="white" transform="translate(131 31)"/>
</clipPath>
</defs>
</svg>
