<svg width="800" height="800" viewBox="0 0 800 800" fill="none" xmlns="http://www.w3.org/2000/svg">
<path d="M600 75H300C286.744 75.0152 274.035 80.2879 264.661 89.6614C255.288 99.0349 250.015 111.744 250 125V175H200C186.744 175.015 174.035 180.288 164.661 189.661C155.288 199.035 150.015 211.744 150 225V700C150 704.594 151.266 709.098 153.658 713.02C156.05 716.941 159.477 720.128 163.561 722.229C167.646 724.331 172.23 725.267 176.812 724.934C181.393 724.602 185.795 723.013 189.532 720.343L349.979 605.722L510.471 720.343C514.208 723.013 518.609 724.602 523.191 724.934C527.772 725.267 532.356 724.331 536.441 722.229C540.525 720.127 543.951 716.941 546.343 713.019C548.735 709.098 550 704.593 550 700V577.155L610.471 620.343C614.208 623.013 618.609 624.602 623.191 624.934C627.772 625.267 632.356 624.331 636.441 622.229C640.525 620.127 643.951 616.941 646.343 613.019C648.735 609.098 650 604.593 650 600V125C649.985 111.744 644.712 99.0349 635.339 89.6614C625.965 80.2879 613.256 75.0152 600 75ZM600 551.422L550 515.714V225C549.985 211.744 544.712 199.035 535.339 189.661C525.965 180.288 513.256 175.015 500 175H300V125H600V551.422Z" fill="#EF59FF"/>
</svg>
