<svg width="268" height="534" viewBox="0 0 268 534" fill="none" xmlns="http://www.w3.org/2000/svg">
<rect x="1.17207" y="0.871781" width="72.6153" height="72.6153" fill="#EAC9E1" stroke="black" stroke-width="1.45059"/>
<path d="M93.2685 46.4385C91.8732 46.4385 90.6846 46.0588 89.703 45.2994C88.7213 44.5338 87.9711 43.4255 87.4525 41.9746C86.9339 40.5175 86.6745 38.7579 86.6745 36.6957C86.6745 34.6459 86.9339 32.8956 87.4525 31.4446C87.9773 29.9875 88.7305 28.8762 89.7122 28.1106C90.7001 27.3388 91.8855 26.953 93.2685 26.953C94.6515 26.953 95.8339 27.3388 96.8156 28.1106C97.8034 28.8762 98.5567 29.9875 99.0753 31.4446C99.6001 32.8956 99.8625 34.6459 99.8625 36.6957C99.8625 38.7579 99.6032 40.5175 99.0845 41.9746C98.5659 43.4255 97.8158 44.5338 96.8341 45.2994C95.8524 46.0588 94.6639 46.4385 93.2685 46.4385ZM93.2685 44.401C94.6515 44.401 95.7258 43.7342 96.4914 42.4006C97.257 41.067 97.6398 39.1654 97.6398 36.6957C97.6398 35.0534 97.4638 33.655 97.1119 32.5004C96.7662 31.3458 96.2661 30.466 95.6116 29.861C94.9633 29.2559 94.1823 28.9534 93.2685 28.9534C91.8979 28.9534 90.8266 29.6294 90.0549 30.9816C89.2831 32.3275 88.8972 34.2323 88.8972 36.6957C88.8972 38.3381 89.0701 39.7334 89.4159 40.8818C89.7616 42.0302 90.2586 42.9038 90.9069 43.5027C91.5614 44.1016 92.3486 44.401 93.2685 44.401ZM111.569 35.677V37.7145H103.271V35.677H111.569ZM121.48 46.4385C120.258 46.4385 119.168 46.2286 118.211 45.8088C117.26 45.3889 116.504 44.8055 115.942 44.0584C115.387 43.3051 115.084 42.4315 115.035 41.4375H117.368C117.418 42.0487 117.628 42.5766 117.998 43.0211C118.369 43.4595 118.853 43.7991 119.452 44.0399C120.051 44.2807 120.715 44.401 121.443 44.401C122.258 44.401 122.981 44.259 123.611 43.975C124.24 43.691 124.734 43.2959 125.092 42.7896C125.45 42.2833 125.629 41.6968 125.629 41.03C125.629 40.3323 125.457 39.718 125.111 39.187C124.765 38.6498 124.259 38.23 123.592 37.9275C122.925 37.6249 122.11 37.4737 121.147 37.4737H119.628V35.4362H121.147C121.9 35.4362 122.561 35.3004 123.129 35.0287C123.703 34.7571 124.151 34.3743 124.472 33.8803C124.799 33.3864 124.963 32.806 124.963 32.1392C124.963 31.4971 124.821 30.9384 124.537 30.4629C124.253 29.9875 123.851 29.6171 123.333 29.3516C122.82 29.0861 122.215 28.9534 121.517 28.9534C120.863 28.9534 120.246 29.0738 119.665 29.3146C119.091 29.5492 118.622 29.8918 118.258 30.3426C117.893 30.7871 117.696 31.3242 117.665 31.954H115.442C115.479 30.96 115.779 30.0894 116.34 29.3423C116.902 28.5891 117.637 28.0026 118.545 27.5827C119.458 27.1629 120.462 26.953 121.555 26.953C122.728 26.953 123.734 27.1907 124.574 27.6661C125.413 28.1353 126.059 28.7558 126.509 29.5276C126.96 30.2993 127.185 31.1328 127.185 32.0281C127.185 33.0962 126.904 34.0069 126.343 34.7601C125.787 35.5134 125.031 36.0351 124.074 36.3253V36.4735C125.271 36.671 126.207 37.1804 126.88 38.0016C127.553 38.8165 127.889 39.826 127.889 41.03C127.889 42.0611 127.608 42.9872 127.046 43.8083C126.491 44.6233 125.731 45.2654 124.768 45.7347C123.805 46.2039 122.709 46.4385 121.48 46.4385ZM137.604 46.4385C136.518 46.4385 135.539 46.2224 134.668 45.7902C133.798 45.358 133.1 44.7653 132.575 44.0121C132.051 43.2588 131.763 42.4006 131.714 41.4375H133.937C134.023 42.2957 134.412 43.0057 135.104 43.5675C135.801 44.1232 136.635 44.401 137.604 44.401C138.382 44.401 139.074 44.2189 139.679 43.8546C140.29 43.4904 140.768 42.9903 141.114 42.3543C141.466 41.7122 141.642 40.9868 141.642 40.1779C141.642 39.3506 141.46 38.6128 141.096 37.9645C140.738 37.3101 140.244 36.7945 139.614 36.4179C138.984 36.0413 138.265 35.8499 137.456 35.8437C136.876 35.8375 136.28 35.9271 135.669 36.1123C135.057 36.2913 134.554 36.5229 134.159 36.8069L132.01 36.5476L133.159 27.2123H143.013V29.2497H135.085L134.418 34.8435H134.529C134.918 34.5348 135.406 34.2786 135.993 34.0748C136.579 33.8711 137.191 33.7692 137.826 33.7692C138.987 33.7692 140.021 34.047 140.929 34.6027C141.843 35.1522 142.559 35.9054 143.078 36.8624C143.602 37.8194 143.865 38.9122 143.865 40.1409C143.865 41.351 143.593 42.4315 143.05 43.3823C142.513 44.327 141.772 45.074 140.827 45.6235C139.882 46.1669 138.808 46.4385 137.604 46.4385ZM157.212 42.6229V41.6227C157.212 40.9312 157.354 40.2983 157.638 39.7241C157.929 39.1438 158.349 38.6807 158.898 38.335C159.454 37.983 160.127 37.8071 160.917 37.8071C161.72 37.8071 162.393 37.983 162.936 38.335C163.479 38.6807 163.89 39.1438 164.168 39.7241C164.445 40.2983 164.584 40.9312 164.584 41.6227V42.6229C164.584 43.3144 164.442 43.9503 164.158 44.5307C163.881 45.1049 163.467 45.568 162.917 45.9199C162.374 46.2656 161.707 46.4385 160.917 46.4385C160.114 46.4385 159.438 46.2656 158.889 45.9199C158.339 45.568 157.922 45.1049 157.638 44.5307C157.354 43.9503 157.212 43.3144 157.212 42.6229ZM159.102 41.6227V42.6229C159.102 43.1971 159.238 43.7126 159.509 44.1695C159.781 44.6202 160.25 44.8456 160.917 44.8456C161.565 44.8456 162.022 44.6202 162.288 44.1695C162.559 43.7126 162.695 43.1971 162.695 42.6229V41.6227C162.695 41.0485 162.565 40.536 162.306 40.0853C162.047 39.6284 161.584 39.4 160.917 39.4C160.269 39.4 159.803 39.6284 159.518 40.0853C159.241 40.536 159.102 41.0485 159.102 41.6227ZM147.766 31.7688V30.7686C147.766 30.0771 147.908 29.4442 148.192 28.87C148.482 28.2897 148.902 27.8266 149.452 27.4808C150.007 27.1289 150.68 26.953 151.471 26.953C152.273 26.953 152.946 27.1289 153.489 27.4808C154.033 27.8266 154.443 28.2897 154.721 28.87C154.999 29.4442 155.138 30.0771 155.138 30.7686V31.7688C155.138 32.4603 154.996 33.0962 154.712 33.6766C154.434 34.2508 154.02 34.7138 153.471 35.0658C152.928 35.4115 152.261 35.5844 151.471 35.5844C150.668 35.5844 149.992 35.4115 149.442 35.0658C148.893 34.7138 148.476 34.2508 148.192 33.6766C147.908 33.0962 147.766 32.4603 147.766 31.7688ZM149.655 30.7686V31.7688C149.655 32.343 149.791 32.8585 150.063 33.3154C150.334 33.7661 150.804 33.9915 151.471 33.9915C152.119 33.9915 152.576 33.7661 152.841 33.3154C153.113 32.8585 153.249 32.343 153.249 31.7688V30.7686C153.249 30.1944 153.119 29.6819 152.86 29.2312C152.6 28.7743 152.137 28.5459 151.471 28.5459C150.822 28.5459 150.356 28.7743 150.072 29.2312C149.794 29.6819 149.655 30.1944 149.655 30.7686ZM148.47 46.1792L161.51 27.2123H163.621L150.581 46.1792H148.47Z" fill="black"/>
<rect x="1.17207" y="92.6716" width="72.6153" height="72.6153" fill="#D160B4" stroke="black" stroke-width="1.45059"/>
<path d="M92.3616 138.238C91.1392 138.238 90.0494 138.028 89.0924 137.609C88.1416 137.189 87.3853 136.605 86.8234 135.858C86.2678 135.105 85.9652 134.231 85.9158 133.237H88.2497C88.2991 133.849 88.509 134.376 88.8794 134.821C89.2499 135.259 89.7345 135.599 90.3334 135.84C90.9323 136.08 91.596 136.201 92.3246 136.201C93.1396 136.201 93.8619 136.059 94.4917 135.775C95.1215 135.491 95.6154 135.096 95.9735 134.589C96.3316 134.083 96.5106 133.497 96.5106 132.83C96.5106 132.132 96.3378 131.518 95.992 130.987C95.6463 130.45 95.14 130.03 94.4732 129.727C93.8064 129.425 92.9914 129.273 92.0282 129.273H90.5094V127.236H92.0282C92.7815 127.236 93.4421 127.1 94.0101 126.829C94.5843 126.557 95.0319 126.174 95.353 125.68C95.6802 125.186 95.8438 124.606 95.8438 123.939C95.8438 123.297 95.7018 122.738 95.4178 122.263C95.1338 121.787 94.7325 121.417 94.2139 121.151C93.7014 120.886 93.0964 120.753 92.3987 120.753C91.7442 120.753 91.1268 120.874 90.5464 121.114C89.9722 121.349 89.503 121.692 89.1387 122.142C88.7745 122.587 88.5769 123.124 88.546 123.754H86.3233C86.3604 122.76 86.6598 121.889 87.2217 121.142C87.7835 120.389 88.5182 119.802 89.4258 119.383C90.3396 118.963 91.3429 118.753 92.4357 118.753C93.6088 118.753 94.6152 118.99 95.4549 119.466C96.2946 119.935 96.9397 120.556 97.3905 121.327C97.8412 122.099 98.0665 122.933 98.0665 123.828C98.0665 124.896 97.7856 125.807 97.2238 126.56C96.6681 127.313 95.9118 127.835 94.9548 128.125V128.273C96.1525 128.471 97.0879 128.98 97.7609 129.801C98.4339 130.616 98.7704 131.626 98.7704 132.83C98.7704 133.861 98.4895 134.787 97.9276 135.608C97.3719 136.423 96.6125 137.065 95.6494 137.534C94.6862 138.004 93.5903 138.238 92.3616 138.238ZM108.485 138.238C107.399 138.238 106.42 138.022 105.55 137.59C104.679 137.158 103.981 136.565 103.457 135.812C102.932 135.059 102.645 134.2 102.595 133.237H104.818C104.904 134.095 105.293 134.805 105.985 135.367C106.683 135.923 107.516 136.201 108.485 136.201C109.263 136.201 109.955 136.019 110.56 135.654C111.171 135.29 111.65 134.79 111.995 134.154C112.347 133.512 112.523 132.787 112.523 131.978C112.523 131.15 112.341 130.413 111.977 129.764C111.619 129.11 111.125 128.594 110.495 128.218C109.865 127.841 109.146 127.65 108.337 127.644C107.757 127.637 107.161 127.727 106.55 127.912C105.939 128.091 105.435 128.323 105.04 128.607L102.892 128.347L104.04 119.012H113.894V121.05H105.966L105.3 126.643H105.411C105.8 126.335 106.287 126.078 106.874 125.875C107.46 125.671 108.072 125.569 108.708 125.569C109.868 125.569 110.903 125.847 111.81 126.403C112.724 126.952 113.44 127.705 113.959 128.662C114.484 129.619 114.746 130.712 114.746 131.941C114.746 133.151 114.474 134.231 113.931 135.182C113.394 136.127 112.653 136.874 111.708 137.423C110.764 137.967 109.689 138.238 108.485 138.238ZM126.612 127.477V129.514H118.314V127.477H126.612ZM136.348 138.238C135.261 138.238 134.282 138.022 133.412 137.59C132.541 137.158 131.844 136.565 131.319 135.812C130.794 135.059 130.507 134.2 130.458 133.237H132.68C132.767 134.095 133.156 134.805 133.847 135.367C134.545 135.923 135.378 136.201 136.348 136.201C137.126 136.201 137.817 136.019 138.422 135.654C139.033 135.29 139.512 134.79 139.858 134.154C140.21 133.512 140.386 132.787 140.386 131.978C140.386 131.15 140.203 130.413 139.839 129.764C139.481 129.11 138.987 128.594 138.357 128.218C137.728 127.841 137.008 127.65 136.2 127.644C135.619 127.637 135.023 127.727 134.412 127.912C133.801 128.091 133.298 128.323 132.903 128.607L130.754 128.347L131.902 119.012H141.756V121.05H133.829L133.162 126.643H133.273C133.662 126.335 134.15 126.078 134.736 125.875C135.323 125.671 135.934 125.569 136.57 125.569C137.731 125.569 138.765 125.847 139.672 126.403C140.586 126.952 141.302 127.705 141.821 128.662C142.346 129.619 142.608 130.712 142.608 131.941C142.608 133.151 142.337 134.231 141.793 135.182C141.256 136.127 140.515 136.874 139.571 137.423C138.626 137.967 137.552 138.238 136.348 138.238ZM152.474 138.238C151.078 138.238 149.89 137.859 148.908 137.099C147.927 136.334 147.176 135.225 146.658 133.774C146.139 132.317 145.88 130.558 145.88 128.496C145.88 126.446 146.139 124.695 146.658 123.244C147.183 121.787 147.936 120.676 148.917 119.91C149.905 119.139 151.091 118.753 152.474 118.753C153.857 118.753 155.039 119.139 156.021 119.91C157.009 120.676 157.762 121.787 158.281 123.244C158.805 124.695 159.068 126.446 159.068 128.496C159.068 130.558 158.808 132.317 158.29 133.774C157.771 135.225 157.021 136.334 156.039 137.099C155.058 137.859 153.869 138.238 152.474 138.238ZM152.474 136.201C153.857 136.201 154.931 135.534 155.697 134.2C156.462 132.867 156.845 130.965 156.845 128.496C156.845 126.853 156.669 125.455 156.317 124.3C155.971 123.146 155.471 122.266 154.817 121.661C154.169 121.056 153.388 120.753 152.474 120.753C151.103 120.753 150.032 121.429 149.26 122.781C148.488 124.127 148.102 126.032 148.102 128.496C148.102 130.138 148.275 131.533 148.621 132.682C148.967 133.83 149.464 134.704 150.112 135.303C150.767 135.901 151.554 136.201 152.474 136.201ZM172.256 134.423V133.422C172.256 132.731 172.398 132.098 172.682 131.524C172.972 130.944 173.392 130.481 173.941 130.135C174.497 129.783 175.17 129.607 175.96 129.607C176.763 129.607 177.436 129.783 177.979 130.135C178.522 130.481 178.933 130.944 179.211 131.524C179.489 132.098 179.628 132.731 179.628 133.422V134.423C179.628 135.114 179.486 135.75 179.202 136.331C178.924 136.905 178.51 137.368 177.961 137.72C177.417 138.065 176.75 138.238 175.96 138.238C175.158 138.238 174.481 138.065 173.932 137.72C173.382 137.368 172.966 136.905 172.682 136.331C172.398 135.75 172.256 135.114 172.256 134.423ZM174.145 133.422V134.423C174.145 134.997 174.281 135.512 174.552 135.969C174.824 136.42 175.293 136.645 175.96 136.645C176.608 136.645 177.065 136.42 177.331 135.969C177.602 135.512 177.738 134.997 177.738 134.423V133.422C177.738 132.848 177.609 132.336 177.349 131.885C177.09 131.428 176.627 131.2 175.96 131.2C175.312 131.2 174.846 131.428 174.562 131.885C174.284 132.336 174.145 132.848 174.145 133.422ZM162.809 123.569V122.568C162.809 121.877 162.951 121.244 163.235 120.67C163.525 120.089 163.945 119.626 164.495 119.281C165.05 118.929 165.723 118.753 166.514 118.753C167.316 118.753 167.989 118.929 168.533 119.281C169.076 119.626 169.487 120.089 169.764 120.67C170.042 121.244 170.181 121.877 170.181 122.568V123.569C170.181 124.26 170.039 124.896 169.755 125.476C169.477 126.051 169.064 126.514 168.514 126.866C167.971 127.211 167.304 127.384 166.514 127.384C165.711 127.384 165.035 127.211 164.486 126.866C163.936 126.514 163.519 126.051 163.235 125.476C162.951 124.896 162.809 124.26 162.809 123.569ZM164.699 122.568V123.569C164.699 124.143 164.834 124.658 165.106 125.115C165.378 125.566 165.847 125.791 166.514 125.791C167.162 125.791 167.619 125.566 167.884 125.115C168.156 124.658 168.292 124.143 168.292 123.569V122.568C168.292 121.994 168.162 121.482 167.903 121.031C167.644 120.574 167.181 120.346 166.514 120.346C165.865 120.346 165.399 120.574 165.115 121.031C164.837 121.482 164.699 121.994 164.699 122.568ZM163.513 137.979L176.553 119.012H178.664L165.625 137.979H163.513Z" fill="black"/>
<rect x="1.17207" y="184.472" width="72.6153" height="72.6153" fill="#EF59FF" stroke="black" stroke-width="1.45059"/>
<path d="M92.8721 230.039C91.7854 230.039 90.8068 229.823 89.9363 229.39C89.0657 228.958 88.368 228.365 87.8432 227.612C87.3184 226.859 87.0313 226.001 86.982 225.038H89.2046C89.2911 225.896 89.6801 226.606 90.3716 227.168C91.0692 227.723 91.9027 228.001 92.8721 228.001C93.65 228.001 94.3415 227.819 94.9466 227.455C95.5578 227.09 96.0363 226.59 96.3821 225.954C96.734 225.312 96.91 224.587 96.91 223.778C96.91 222.951 96.7278 222.213 96.3636 221.565C96.0055 220.91 95.5115 220.395 94.8818 220.018C94.252 219.641 93.5327 219.45 92.7239 219.444C92.1435 219.438 91.5477 219.527 90.9365 219.712C90.3252 219.891 89.8221 220.123 89.4269 220.407L87.2783 220.148L88.4267 210.812H98.2806V212.85H90.353L89.6862 218.444H89.7974C90.1863 218.135 90.6741 217.879 91.2606 217.675C91.8472 217.471 92.4584 217.369 93.0943 217.369C94.2551 217.369 95.2893 217.647 96.1968 218.203C97.1106 218.752 97.8268 219.506 98.3454 220.463C98.8702 221.42 99.1326 222.512 99.1326 223.741C99.1326 224.951 98.861 226.032 98.3177 226.982C97.7805 227.927 97.0396 228.674 96.095 229.224C95.1503 229.767 94.076 230.039 92.8721 230.039ZM108.998 230.039C107.603 230.039 106.414 229.659 105.433 228.899C104.451 228.134 103.701 227.026 103.182 225.575C102.663 224.118 102.404 222.358 102.404 220.296C102.404 218.246 102.663 216.496 103.182 215.045C103.707 213.588 104.46 212.476 105.442 211.711C106.43 210.939 107.615 210.553 108.998 210.553C110.381 210.553 111.563 210.939 112.545 211.711C113.533 212.476 114.286 213.588 114.805 215.045C115.33 216.496 115.592 218.246 115.592 220.296C115.592 222.358 115.333 224.118 114.814 225.575C114.296 227.026 113.545 228.134 112.564 228.899C111.582 229.659 110.393 230.039 108.998 230.039ZM108.998 228.001C110.381 228.001 111.455 227.334 112.221 226.001C112.987 224.667 113.369 222.765 113.369 220.296C113.369 218.654 113.193 217.255 112.842 216.101C112.496 214.946 111.996 214.066 111.341 213.461C110.693 212.856 109.912 212.553 108.998 212.553C107.627 212.553 106.556 213.23 105.785 214.582C105.013 215.928 104.627 217.832 104.627 220.296C104.627 221.938 104.8 223.334 105.145 224.482C105.491 225.63 105.988 226.504 106.637 227.103C107.291 227.702 108.078 228.001 108.998 228.001ZM127.298 219.277V221.315H119V219.277H127.298ZM137.405 230.039C136.627 230.026 135.849 229.878 135.071 229.594C134.293 229.31 133.583 228.832 132.941 228.159C132.299 227.479 131.783 226.563 131.394 225.408C131.005 224.247 130.811 222.79 130.811 221.037C130.811 219.357 130.968 217.869 131.283 216.573C131.598 215.27 132.055 214.174 132.654 213.285C133.252 212.39 133.975 211.711 134.821 211.248C135.673 210.785 136.633 210.553 137.701 210.553C138.763 210.553 139.708 210.766 140.535 211.192C141.368 211.612 142.047 212.198 142.572 212.952C143.097 213.705 143.437 214.572 143.591 215.554H141.331C141.121 214.702 140.714 213.995 140.109 213.433C139.504 212.871 138.701 212.591 137.701 212.591C136.231 212.591 135.074 213.23 134.228 214.508C133.388 215.786 132.965 217.579 132.959 219.888H133.107C133.453 219.364 133.864 218.916 134.339 218.545C134.821 218.169 135.352 217.879 135.932 217.675C136.512 217.471 137.127 217.369 137.775 217.369C138.862 217.369 139.856 217.641 140.757 218.184C141.659 218.721 142.381 219.465 142.924 220.416C143.468 221.361 143.739 222.444 143.739 223.667C143.739 224.84 143.477 225.914 142.952 226.89C142.427 227.859 141.689 228.631 140.739 229.205C139.794 229.773 138.683 230.051 137.405 230.039ZM137.405 228.001C138.182 228.001 138.88 227.807 139.498 227.418C140.121 227.029 140.612 226.507 140.97 225.853C141.334 225.198 141.517 224.47 141.517 223.667C141.517 222.883 141.341 222.17 140.989 221.528C140.643 220.879 140.164 220.364 139.553 219.981C138.948 219.598 138.257 219.407 137.479 219.407C136.892 219.407 136.346 219.524 135.839 219.759C135.333 219.987 134.889 220.302 134.506 220.703C134.129 221.105 133.833 221.565 133.617 222.083C133.401 222.596 133.293 223.136 133.293 223.704C133.293 224.457 133.469 225.161 133.82 225.816C134.179 226.47 134.666 226.998 135.284 227.399C135.907 227.8 136.614 228.001 137.405 228.001ZM153.568 230.039C152.172 230.039 150.984 229.659 150.002 228.899C149.02 228.134 148.27 227.026 147.752 225.575C147.233 224.118 146.974 222.358 146.974 220.296C146.974 218.246 147.233 216.496 147.752 215.045C148.276 213.588 149.03 212.476 150.011 211.711C150.999 210.939 152.185 210.553 153.568 210.553C154.951 210.553 156.133 210.939 157.115 211.711C158.103 212.476 158.856 213.588 159.374 215.045C159.899 216.496 160.162 218.246 160.162 220.296C160.162 222.358 159.902 224.118 159.384 225.575C158.865 227.026 158.115 228.134 157.133 228.899C156.152 229.659 154.963 230.039 153.568 230.039ZM153.568 228.001C154.951 228.001 156.025 227.334 156.791 226.001C157.556 224.667 157.939 222.765 157.939 220.296C157.939 218.654 157.763 217.255 157.411 216.101C157.065 214.946 156.565 214.066 155.911 213.461C155.262 212.856 154.481 212.553 153.568 212.553C152.197 212.553 151.126 213.23 150.354 214.582C149.582 215.928 149.196 217.832 149.196 220.296C149.196 221.938 149.369 223.334 149.715 224.482C150.061 225.63 150.558 226.504 151.206 227.103C151.861 227.702 152.648 228.001 153.568 228.001ZM173.35 226.223V225.223C173.35 224.531 173.492 223.898 173.776 223.324C174.066 222.744 174.486 222.281 175.035 221.935C175.591 221.583 176.264 221.407 177.054 221.407C177.857 221.407 178.53 221.583 179.073 221.935C179.616 222.281 180.027 222.744 180.305 223.324C180.583 223.898 180.721 224.531 180.721 225.223V226.223C180.721 226.914 180.579 227.55 180.295 228.131C180.018 228.705 179.604 229.168 179.054 229.52C178.511 229.866 177.844 230.039 177.054 230.039C176.251 230.039 175.575 229.866 175.026 229.52C174.476 229.168 174.06 228.705 173.776 228.131C173.492 227.55 173.35 226.914 173.35 226.223ZM175.239 225.223V226.223C175.239 226.797 175.375 227.313 175.646 227.77C175.918 228.22 176.387 228.446 177.054 228.446C177.702 228.446 178.159 228.22 178.425 227.77C178.696 227.313 178.832 226.797 178.832 226.223V225.223C178.832 224.649 178.703 224.136 178.443 223.685C178.184 223.229 177.721 223 177.054 223C176.406 223 175.94 223.229 175.656 223.685C175.378 224.136 175.239 224.649 175.239 225.223ZM163.903 215.369V214.369C163.903 213.677 164.045 213.044 164.329 212.47C164.619 211.89 165.039 211.427 165.589 211.081C166.144 210.729 166.817 210.553 167.608 210.553C168.41 210.553 169.083 210.729 169.627 211.081C170.17 211.427 170.58 211.89 170.858 212.47C171.136 213.044 171.275 213.677 171.275 214.369V215.369C171.275 216.06 171.133 216.696 170.849 217.277C170.571 217.851 170.158 218.314 169.608 218.666C169.065 219.012 168.398 219.184 167.608 219.184C166.805 219.184 166.129 219.012 165.579 218.666C165.03 218.314 164.613 217.851 164.329 217.277C164.045 216.696 163.903 216.06 163.903 215.369ZM165.792 214.369V215.369C165.792 215.943 165.928 216.459 166.2 216.915C166.472 217.366 166.941 217.592 167.608 217.592C168.256 217.592 168.713 217.366 168.978 216.915C169.25 216.459 169.386 215.943 169.386 215.369V214.369C169.386 213.794 169.256 213.282 168.997 212.831C168.738 212.374 168.274 212.146 167.608 212.146C166.959 212.146 166.493 212.374 166.209 212.831C165.931 213.282 165.792 213.794 165.792 214.369ZM164.607 229.779L177.647 210.812H179.758L166.719 229.779H164.607Z" fill="black"/>
<rect x="1.17207" y="276.272" width="72.6153" height="72.6153" fill="#9800A8" stroke="black" stroke-width="1.45059"/>
<path d="M87.8271 321.579L96.3104 304.798V304.65H86.5306V302.612H98.6813V304.761L90.2351 321.579H87.8271ZM107.912 321.838C106.517 321.838 105.328 321.459 104.347 320.699C103.365 319.934 102.615 318.825 102.096 317.375C101.578 315.917 101.318 314.158 101.318 312.096C101.318 310.046 101.578 308.295 102.096 306.845C102.621 305.387 103.374 304.276 104.356 303.511C105.344 302.739 106.529 302.353 107.912 302.353C109.295 302.353 110.478 302.739 111.459 303.511C112.447 304.276 113.201 305.387 113.719 306.845C114.244 308.295 114.506 310.046 114.506 312.096C114.506 314.158 114.247 315.917 113.728 317.375C113.21 318.825 112.46 319.934 111.478 320.699C110.496 321.459 109.308 321.838 107.912 321.838ZM107.912 319.801C109.295 319.801 110.37 319.134 111.135 317.801C111.901 316.467 112.284 314.565 112.284 312.096C112.284 310.453 112.108 309.055 111.756 307.9C111.41 306.746 110.91 305.866 110.255 305.261C109.607 304.656 108.826 304.353 107.912 304.353C106.542 304.353 105.471 305.029 104.699 306.381C103.927 307.727 103.541 309.632 103.541 312.096C103.541 313.738 103.714 315.133 104.06 316.282C104.405 317.43 104.902 318.304 105.551 318.903C106.205 319.502 106.992 319.801 107.912 319.801ZM126.212 311.077V313.114H117.914V311.077H126.212ZM136.097 321.838C134.825 321.838 133.701 321.613 132.725 321.162C131.756 320.705 131 320.079 130.456 319.282C129.913 318.48 129.645 317.566 129.651 316.541C129.645 315.738 129.802 314.997 130.123 314.318C130.444 313.633 130.882 313.062 131.438 312.605C132 312.142 132.627 311.849 133.318 311.725V311.614C132.411 311.379 131.688 310.87 131.151 310.086C130.614 309.296 130.348 308.397 130.355 307.391C130.348 306.428 130.592 305.566 131.086 304.807C131.58 304.048 132.259 303.449 133.124 303.01C133.994 302.572 134.985 302.353 136.097 302.353C137.196 302.353 138.177 302.572 139.042 303.01C139.906 303.449 140.585 304.048 141.079 304.807C141.579 305.566 141.832 306.428 141.838 307.391C141.832 308.397 141.558 309.296 141.014 310.086C140.477 310.87 139.764 311.379 138.875 311.614V311.725C139.56 311.849 140.178 312.142 140.727 312.605C141.277 313.062 141.715 313.633 142.042 314.318C142.369 314.997 142.536 315.738 142.542 316.541C142.536 317.566 142.258 318.48 141.709 319.282C141.165 320.079 140.409 320.705 139.44 321.162C138.477 321.613 137.362 321.838 136.097 321.838ZM136.097 319.801C136.955 319.801 137.696 319.662 138.319 319.384C138.943 319.106 139.424 318.714 139.764 318.208C140.104 317.702 140.276 317.109 140.283 316.43C140.276 315.714 140.091 315.081 139.727 314.531C139.363 313.982 138.866 313.55 138.236 313.235C137.612 312.92 136.899 312.762 136.097 312.762C135.288 312.762 134.565 312.92 133.929 313.235C133.3 313.55 132.803 313.982 132.438 314.531C132.08 315.081 131.904 315.714 131.91 316.43C131.904 317.109 132.068 317.702 132.401 318.208C132.741 318.714 133.226 319.106 133.855 319.384C134.485 319.662 135.232 319.801 136.097 319.801ZM136.097 310.799C136.776 310.799 137.378 310.663 137.902 310.392C138.433 310.12 138.85 309.74 139.153 309.252C139.455 308.765 139.61 308.194 139.616 307.539C139.61 306.897 139.458 306.338 139.162 305.863C138.866 305.381 138.455 305.011 137.93 304.752C137.405 304.486 136.794 304.353 136.097 304.353C135.386 304.353 134.766 304.486 134.235 304.752C133.704 305.011 133.293 305.381 133.003 305.863C132.713 306.338 132.571 306.897 132.577 307.539C132.571 308.194 132.716 308.765 133.013 309.252C133.315 309.74 133.732 310.12 134.263 310.392C134.794 310.663 135.405 310.799 136.097 310.799ZM152.278 321.838C150.883 321.838 149.694 321.459 148.713 320.699C147.731 319.934 146.981 318.825 146.462 317.375C145.943 315.917 145.684 314.158 145.684 312.096C145.684 310.046 145.943 308.295 146.462 306.845C146.987 305.387 147.74 304.276 148.722 303.511C149.71 302.739 150.895 302.353 152.278 302.353C153.661 302.353 154.843 302.739 155.825 303.511C156.813 304.276 157.566 305.387 158.085 306.845C158.61 308.295 158.872 310.046 158.872 312.096C158.872 314.158 158.613 315.917 158.094 317.375C157.576 318.825 156.825 319.934 155.844 320.699C154.862 321.459 153.673 321.838 152.278 321.838ZM152.278 319.801C153.661 319.801 154.735 319.134 155.501 317.801C156.267 316.467 156.649 314.565 156.649 312.096C156.649 310.453 156.473 309.055 156.122 307.9C155.776 306.746 155.276 305.866 154.621 305.261C153.973 304.656 153.192 304.353 152.278 304.353C150.907 304.353 149.836 305.029 149.065 306.381C148.293 307.727 147.907 309.632 147.907 312.096C147.907 313.738 148.08 315.133 148.425 316.282C148.771 317.43 149.268 318.304 149.917 318.903C150.571 319.502 151.358 319.801 152.278 319.801ZM172.06 318.023V317.023C172.06 316.331 172.202 315.698 172.486 315.124C172.776 314.544 173.196 314.081 173.746 313.735C174.301 313.383 174.974 313.207 175.765 313.207C176.567 313.207 177.24 313.383 177.783 313.735C178.327 314.081 178.737 314.544 179.015 315.124C179.293 315.698 179.432 316.331 179.432 317.023V318.023C179.432 318.714 179.29 319.35 179.006 319.931C178.728 320.505 178.314 320.968 177.765 321.32C177.222 321.666 176.555 321.838 175.765 321.838C174.962 321.838 174.286 321.666 173.736 321.32C173.187 320.968 172.77 320.505 172.486 319.931C172.202 319.35 172.06 318.714 172.06 318.023ZM173.949 317.023V318.023C173.949 318.597 174.085 319.113 174.357 319.569C174.628 320.02 175.098 320.245 175.765 320.245C176.413 320.245 176.87 320.02 177.135 319.569C177.407 319.113 177.543 318.597 177.543 318.023V317.023C177.543 316.448 177.413 315.936 177.154 315.485C176.894 315.028 176.431 314.8 175.765 314.8C175.116 314.8 174.65 315.028 174.366 315.485C174.088 315.936 173.949 316.448 173.949 317.023ZM162.614 307.169V306.168C162.614 305.477 162.756 304.844 163.04 304.27C163.33 303.69 163.75 303.226 164.299 302.881C164.855 302.529 165.528 302.353 166.318 302.353C167.121 302.353 167.794 302.529 168.337 302.881C168.88 303.226 169.291 303.69 169.569 304.27C169.847 304.844 169.986 305.477 169.986 306.168V307.169C169.986 307.86 169.844 308.496 169.56 309.076C169.282 309.651 168.868 310.114 168.319 310.466C167.775 310.811 167.108 310.984 166.318 310.984C165.515 310.984 164.839 310.811 164.29 310.466C163.74 310.114 163.324 309.651 163.04 309.076C162.756 308.496 162.614 307.86 162.614 307.169ZM164.503 306.168V307.169C164.503 307.743 164.639 308.258 164.91 308.715C165.182 309.166 165.651 309.391 166.318 309.391C166.966 309.391 167.423 309.166 167.689 308.715C167.96 308.258 168.096 307.743 168.096 307.169V306.168C168.096 305.594 167.967 305.082 167.707 304.631C167.448 304.174 166.985 303.946 166.318 303.946C165.67 303.946 165.204 304.174 164.92 304.631C164.642 305.082 164.503 305.594 164.503 306.168ZM163.317 321.579L176.357 302.612H178.469L165.429 321.579H163.317Z" fill="black"/>
<rect x="1.17207" y="368.071" width="72.6153" height="72.6153" fill="#5F0068" stroke="black" stroke-width="1.45059"/>
<path d="M93.4184 413.638C92.1465 413.638 91.0228 413.413 90.0473 412.962C89.078 412.505 88.3216 411.879 87.7783 411.082C87.235 410.279 86.9664 409.366 86.9726 408.341C86.9664 407.538 87.1239 406.797 87.4449 406.118C87.766 405.433 88.2043 404.862 88.76 404.405C89.3218 403.942 89.9485 403.648 90.64 403.525V403.414C89.7324 403.179 89.0101 402.67 88.4729 401.886C87.9358 401.095 87.6703 400.197 87.6764 399.191C87.6703 398.228 87.9141 397.366 88.4081 396.607C88.902 395.847 89.5812 395.249 90.4455 394.81C91.3161 394.372 92.307 394.153 93.4184 394.153C94.5174 394.153 95.4991 394.372 96.3634 394.81C97.2278 395.249 97.907 395.847 98.4009 396.607C98.901 397.366 99.1542 398.228 99.1603 399.191C99.1542 400.197 98.8794 401.095 98.3361 401.886C97.7989 402.67 97.0858 403.179 96.1967 403.414V403.525C96.8821 403.648 97.4995 403.942 98.049 404.405C98.5985 404.862 99.0368 405.433 99.3641 406.118C99.6913 406.797 99.858 407.538 99.8642 408.341C99.858 409.366 99.5802 410.279 99.0307 411.082C98.4873 411.879 97.731 412.505 96.7617 412.962C95.7985 413.413 94.6841 413.638 93.4184 413.638ZM93.4184 411.601C94.2766 411.601 95.0175 411.462 95.6411 411.184C96.2647 410.906 96.7462 410.514 97.0858 410.008C97.4254 409.502 97.5983 408.909 97.6044 408.23C97.5983 407.513 97.413 406.881 97.0488 406.331C96.6845 405.782 96.1875 405.349 95.5577 405.035C94.9341 404.72 94.221 404.562 93.4184 404.562C92.6096 404.562 91.8872 404.72 91.2513 405.035C90.6215 405.349 90.1245 405.782 89.7602 406.331C89.4021 406.881 89.2261 407.513 89.2323 408.23C89.2261 408.909 89.3898 409.502 89.7232 410.008C90.0627 410.514 90.5474 410.906 91.1772 411.184C91.8069 411.462 92.554 411.601 93.4184 411.601ZM93.4184 402.599C94.0975 402.599 94.6995 402.463 95.2243 402.191C95.7553 401.92 96.172 401.54 96.4746 401.052C96.7771 400.564 96.9315 399.993 96.9376 399.339C96.9315 398.697 96.7802 398.138 96.4838 397.663C96.1875 397.181 95.7769 396.811 95.2521 396.551C94.7273 396.286 94.1161 396.153 93.4184 396.153C92.7084 396.153 92.0879 396.286 91.5569 396.551C91.0259 396.811 90.6153 397.181 90.3251 397.663C90.035 398.138 89.893 398.697 89.8991 399.339C89.893 399.993 90.038 400.564 90.3344 401.052C90.6369 401.54 91.0537 401.92 91.5847 402.191C92.1156 402.463 92.7269 402.599 93.4184 402.599ZM109.6 413.638C108.205 413.638 107.016 413.259 106.034 412.499C105.053 411.733 104.303 410.625 103.784 409.174C103.265 407.717 103.006 405.958 103.006 403.895C103.006 401.846 103.265 400.095 103.784 398.644C104.309 397.187 105.062 396.076 106.044 395.31C107.032 394.539 108.217 394.153 109.6 394.153C110.983 394.153 112.165 394.539 113.147 395.31C114.135 396.076 114.888 397.187 115.407 398.644C115.932 400.095 116.194 401.846 116.194 403.895C116.194 405.958 115.935 407.717 115.416 409.174C114.897 410.625 114.147 411.733 113.166 412.499C112.184 413.259 110.995 413.638 109.6 413.638ZM109.6 411.601C110.983 411.601 112.057 410.934 112.823 409.6C113.589 408.267 113.971 406.365 113.971 403.895C113.971 402.253 113.795 400.855 113.443 399.7C113.098 398.546 112.598 397.666 111.943 397.061C111.295 396.456 110.514 396.153 109.6 396.153C108.229 396.153 107.158 396.829 106.386 398.181C105.615 399.527 105.229 401.432 105.229 403.895C105.229 405.538 105.402 406.933 105.747 408.082C106.093 409.23 106.59 410.104 107.238 410.702C107.893 411.301 108.68 411.601 109.6 411.601ZM127.9 402.877V404.914H119.602V402.877H127.9ZM137.747 394.153C138.525 394.159 139.303 394.307 140.081 394.597C140.859 394.887 141.569 395.369 142.211 396.042C142.853 396.709 143.369 397.619 143.758 398.774C144.147 399.929 144.341 401.376 144.341 403.117C144.341 404.803 144.181 406.3 143.86 407.609C143.545 408.912 143.088 410.011 142.489 410.906C141.896 411.801 141.174 412.481 140.322 412.944C139.476 413.407 138.519 413.638 137.451 413.638C136.389 413.638 135.441 413.428 134.608 413.008C133.78 412.582 133.101 411.993 132.57 411.24C132.045 410.48 131.709 409.6 131.561 408.6H133.82C134.024 409.471 134.429 410.19 135.034 410.758C135.645 411.32 136.451 411.601 137.451 411.601C138.914 411.601 140.069 410.962 140.914 409.684C141.766 408.406 142.192 406.6 142.192 404.266H142.044C141.699 404.785 141.288 405.232 140.813 405.609C140.337 405.985 139.809 406.276 139.229 406.479C138.649 406.683 138.031 406.785 137.377 406.785C136.29 406.785 135.293 406.516 134.385 405.979C133.484 405.436 132.761 404.692 132.218 403.747C131.681 402.796 131.412 401.71 131.412 400.487C131.412 399.327 131.672 398.265 132.19 397.301C132.715 396.332 133.45 395.56 134.395 394.986C135.345 394.412 136.463 394.134 137.747 394.153ZM137.747 396.19C136.969 396.19 136.268 396.385 135.645 396.774C135.027 397.156 134.537 397.675 134.172 398.329C133.814 398.978 133.635 399.697 133.635 400.487C133.635 401.278 133.808 401.997 134.154 402.645C134.506 403.287 134.984 403.8 135.589 404.183C136.2 404.559 136.895 404.747 137.673 404.747C138.26 404.747 138.806 404.633 139.312 404.405C139.819 404.17 140.26 403.852 140.637 403.451C141.019 403.043 141.319 402.583 141.535 402.071C141.751 401.552 141.859 401.012 141.859 400.45C141.859 399.709 141.68 399.015 141.322 398.367C140.97 397.718 140.482 397.193 139.859 396.792C139.241 396.391 138.537 396.19 137.747 396.19ZM154.17 413.638C152.774 413.638 151.586 413.259 150.604 412.499C149.622 411.733 148.872 410.625 148.353 409.174C147.835 407.717 147.576 405.958 147.576 403.895C147.576 401.846 147.835 400.095 148.353 398.644C148.878 397.187 149.632 396.076 150.613 395.31C151.601 394.539 152.787 394.153 154.17 394.153C155.553 394.153 156.735 394.539 157.717 395.31C158.704 396.076 159.458 397.187 159.976 398.644C160.501 400.095 160.764 401.846 160.764 403.895C160.764 405.958 160.504 407.717 159.986 409.174C159.467 410.625 158.717 411.733 157.735 412.499C156.753 413.259 155.565 413.638 154.17 413.638ZM154.17 411.601C155.553 411.601 156.627 410.934 157.392 409.6C158.158 408.267 158.541 406.365 158.541 403.895C158.541 402.253 158.365 400.855 158.013 399.7C157.667 398.546 157.167 397.666 156.513 397.061C155.864 396.456 155.083 396.153 154.17 396.153C152.799 396.153 151.728 396.829 150.956 398.181C150.184 399.527 149.798 401.432 149.798 403.895C149.798 405.538 149.971 406.933 150.317 408.082C150.663 409.23 151.16 410.104 151.808 410.702C152.462 411.301 153.25 411.601 154.17 411.601ZM173.951 409.823V408.822C173.951 408.131 174.093 407.498 174.377 406.924C174.668 406.343 175.087 405.88 175.637 405.535C176.193 405.183 176.866 405.007 177.656 405.007C178.459 405.007 179.132 405.183 179.675 405.535C180.218 405.88 180.629 406.343 180.907 406.924C181.184 407.498 181.323 408.131 181.323 408.822V409.823C181.323 410.514 181.181 411.15 180.897 411.73C180.62 412.305 180.206 412.768 179.656 413.12C179.113 413.465 178.446 413.638 177.656 413.638C176.853 413.638 176.177 413.465 175.628 413.12C175.078 412.768 174.661 412.305 174.377 411.73C174.093 411.15 173.951 410.514 173.951 409.823ZM175.841 408.822V409.823C175.841 410.397 175.977 410.912 176.248 411.369C176.52 411.82 176.989 412.045 177.656 412.045C178.304 412.045 178.761 411.82 179.027 411.369C179.298 410.912 179.434 410.397 179.434 409.823V408.822C179.434 408.248 179.304 407.736 179.045 407.285C178.786 406.828 178.323 406.6 177.656 406.6C177.008 406.6 176.541 406.828 176.257 407.285C175.98 407.736 175.841 408.248 175.841 408.822ZM164.505 398.968V397.968C164.505 397.277 164.647 396.644 164.931 396.07C165.221 395.489 165.641 395.026 166.191 394.681C166.746 394.329 167.419 394.153 168.21 394.153C169.012 394.153 169.685 394.329 170.228 394.681C170.772 395.026 171.182 395.489 171.46 396.07C171.738 396.644 171.877 397.277 171.877 397.968V398.968C171.877 399.66 171.735 400.296 171.451 400.876C171.173 401.45 170.759 401.914 170.21 402.265C169.667 402.611 169 402.784 168.21 402.784C167.407 402.784 166.731 402.611 166.181 402.265C165.632 401.914 165.215 401.45 164.931 400.876C164.647 400.296 164.505 399.66 164.505 398.968ZM166.394 397.968V398.968C166.394 399.543 166.53 400.058 166.802 400.515C167.073 400.966 167.543 401.191 168.21 401.191C168.858 401.191 169.315 400.966 169.58 400.515C169.852 400.058 169.988 399.543 169.988 398.968V397.968C169.988 397.394 169.858 396.882 169.599 396.431C169.339 395.974 168.876 395.746 168.21 395.746C167.561 395.746 167.095 395.974 166.811 396.431C166.533 396.882 166.394 397.394 166.394 397.968ZM165.209 413.379L178.249 394.412H180.36L167.32 413.379H165.209Z" fill="black"/>
<rect x="1.17207" y="459.872" width="72.6153" height="72.6153" fill="#350039" stroke="black" stroke-width="1.45059"/>
<path d="M94.2487 485.953C95.0267 485.959 95.8046 486.107 96.5826 486.397C97.3605 486.688 98.0705 487.169 98.7126 487.842C99.3547 488.509 99.8703 489.42 100.259 490.574C100.648 491.729 100.843 493.177 100.843 494.918C100.843 496.603 100.682 498.101 100.361 499.409C100.046 500.712 99.5894 501.811 98.9905 502.706C98.3978 503.602 97.6754 504.281 96.8233 504.744C95.9775 505.207 95.0205 505.439 93.9524 505.439C92.8904 505.439 91.9427 505.229 91.1092 504.809C90.2819 504.383 89.6027 503.793 89.0717 503.04C88.5469 502.28 88.2104 501.401 88.0623 500.4H90.322C90.5257 501.271 90.9301 501.99 91.5352 502.558C92.1464 503.12 92.9522 503.401 93.9524 503.401C95.4156 503.401 96.5702 502.762 97.4161 501.484C98.2681 500.206 98.6941 498.4 98.6941 496.066H98.5459C98.2002 496.585 97.7896 497.032 97.3142 497.409C96.8388 497.786 96.3109 498.076 95.7305 498.28C95.1502 498.483 94.5327 498.585 93.8783 498.585C92.7916 498.585 91.7945 498.317 90.8869 497.78C89.9855 497.236 89.2631 496.492 88.7198 495.548C88.1826 494.597 87.9141 493.51 87.9141 492.288C87.9141 491.127 88.1734 490.065 88.692 489.102C89.2168 488.132 89.9515 487.361 90.8962 486.786C91.847 486.212 92.9645 485.934 94.2487 485.953ZM94.2487 487.99C93.4708 487.99 92.77 488.185 92.1464 488.574C91.529 488.957 91.0382 489.475 90.6739 490.13C90.3158 490.778 90.1368 491.497 90.1368 492.288C90.1368 493.078 90.3096 493.797 90.6554 494.445C91.0073 495.088 91.4858 495.6 92.0909 495.983C92.7021 496.359 93.3967 496.548 94.1746 496.548C94.7612 496.548 95.3076 496.434 95.8139 496.205C96.3202 495.97 96.7616 495.653 97.1382 495.251C97.521 494.844 97.8205 494.384 98.0366 493.871C98.2527 493.353 98.3607 492.812 98.3607 492.251C98.3607 491.51 98.1817 490.815 97.8236 490.167C97.4716 489.519 96.9839 488.994 96.3603 488.592C95.7429 488.191 95.039 487.99 94.2487 487.99ZM110.671 505.439C109.276 505.439 108.087 505.059 107.106 504.299C106.124 503.534 105.374 502.426 104.855 500.975C104.336 499.518 104.077 497.758 104.077 495.696C104.077 493.646 104.336 491.896 104.855 490.445C105.38 488.988 106.133 487.876 107.115 487.111C108.103 486.339 109.288 485.953 110.671 485.953C112.054 485.953 113.237 486.339 114.218 487.111C115.206 487.876 115.959 488.988 116.478 490.445C117.003 491.896 117.265 493.646 117.265 495.696C117.265 497.758 117.006 499.518 116.487 500.975C115.969 502.426 115.218 503.534 114.237 504.299C113.255 505.059 112.067 505.439 110.671 505.439ZM110.671 503.401C112.054 503.401 113.128 502.734 113.894 501.401C114.66 500.067 115.042 498.165 115.042 495.696C115.042 494.053 114.866 492.655 114.515 491.5C114.169 490.346 113.669 489.466 113.014 488.861C112.366 488.256 111.585 487.953 110.671 487.953C109.3 487.953 108.229 488.629 107.458 489.982C106.686 491.328 106.3 493.232 106.3 495.696C106.3 497.338 106.473 498.733 106.818 499.882C107.164 501.03 107.661 501.904 108.31 502.503C108.964 503.102 109.751 503.401 110.671 503.401ZM128.971 494.677V496.714H120.673V494.677H128.971ZM139.448 486.212V505.179H137.151V488.62H137.04L132.41 491.695V489.361L137.151 486.212H139.448ZM151.089 505.439C149.694 505.439 148.505 505.059 147.524 504.299C146.542 503.534 145.792 502.426 145.273 500.975C144.755 499.518 144.495 497.758 144.495 495.696C144.495 493.646 144.755 491.896 145.273 490.445C145.798 488.988 146.551 487.876 147.533 487.111C148.521 486.339 149.706 485.953 151.089 485.953C152.472 485.953 153.655 486.339 154.636 487.111C155.624 487.876 156.377 488.988 156.896 490.445C157.421 491.896 157.683 493.646 157.683 495.696C157.683 497.758 157.424 499.518 156.905 500.975C156.387 502.426 155.637 503.534 154.655 504.299C153.673 505.059 152.485 505.439 151.089 505.439ZM151.089 503.401C152.472 503.401 153.547 502.734 154.312 501.401C155.078 500.067 155.461 498.165 155.461 495.696C155.461 494.053 155.285 492.655 154.933 491.5C154.587 490.346 154.087 489.466 153.432 488.861C152.784 488.256 152.003 487.953 151.089 487.953C149.719 487.953 148.647 488.629 147.876 489.982C147.104 491.328 146.718 493.232 146.718 495.696C146.718 497.338 146.891 498.733 147.237 499.882C147.582 501.03 148.079 501.904 148.728 502.503C149.382 503.102 150.169 503.401 151.089 503.401ZM167.389 505.439C165.994 505.439 164.805 505.059 163.823 504.299C162.842 503.534 162.092 502.426 161.573 500.975C161.054 499.518 160.795 497.758 160.795 495.696C160.795 493.646 161.054 491.896 161.573 490.445C162.098 488.988 162.851 487.876 163.833 487.111C164.821 486.339 166.006 485.953 167.389 485.953C168.772 485.953 169.954 486.339 170.936 487.111C171.924 487.876 172.677 488.988 173.196 490.445C173.721 491.896 173.983 493.646 173.983 495.696C173.983 497.758 173.724 499.518 173.205 500.975C172.686 502.426 171.936 503.534 170.955 504.299C169.973 505.059 168.784 505.439 167.389 505.439ZM167.389 503.401C168.772 503.401 169.846 502.734 170.612 501.401C171.378 500.067 171.76 498.165 171.76 495.696C171.76 494.053 171.584 492.655 171.232 491.5C170.887 490.346 170.387 489.466 169.732 488.861C169.084 488.256 168.303 487.953 167.389 487.953C166.018 487.953 164.947 488.629 164.175 489.982C163.404 491.328 163.018 493.232 163.018 495.696C163.018 497.338 163.191 498.733 163.536 499.882C163.882 501.03 164.379 501.904 165.027 502.503C165.682 503.102 166.469 503.401 167.389 503.401ZM187.171 501.623V500.623C187.171 499.931 187.313 499.298 187.597 498.724C187.887 498.144 188.307 497.681 188.857 497.335C189.412 496.983 190.085 496.807 190.875 496.807C191.678 496.807 192.351 496.983 192.894 497.335C193.438 497.681 193.848 498.144 194.126 498.724C194.404 499.298 194.543 499.931 194.543 500.623V501.623C194.543 502.314 194.401 502.95 194.117 503.531C193.839 504.105 193.425 504.568 192.876 504.92C192.333 505.266 191.666 505.439 190.875 505.439C190.073 505.439 189.397 505.266 188.847 504.92C188.298 504.568 187.881 504.105 187.597 503.531C187.313 502.95 187.171 502.314 187.171 501.623ZM189.06 500.623V501.623C189.06 502.197 189.196 502.713 189.468 503.17C189.739 503.62 190.209 503.846 190.875 503.846C191.524 503.846 191.981 503.62 192.246 503.17C192.518 502.713 192.654 502.197 192.654 501.623V500.623C192.654 500.048 192.524 499.536 192.265 499.085C192.005 498.628 191.542 498.4 190.875 498.4C190.227 498.4 189.761 498.628 189.477 499.085C189.199 499.536 189.06 500.048 189.06 500.623ZM177.725 490.769V489.769C177.725 489.077 177.867 488.444 178.151 487.87C178.441 487.29 178.861 486.827 179.41 486.481C179.966 486.129 180.639 485.953 181.429 485.953C182.232 485.953 182.905 486.129 183.448 486.481C183.991 486.827 184.402 487.29 184.68 487.87C184.958 488.444 185.096 489.077 185.096 489.769V490.769C185.096 491.46 184.954 492.096 184.67 492.677C184.393 493.251 183.979 493.714 183.429 494.066C182.886 494.412 182.219 494.584 181.429 494.584C180.626 494.584 179.95 494.412 179.401 494.066C178.851 493.714 178.435 493.251 178.151 492.677C177.867 492.096 177.725 491.46 177.725 490.769ZM179.614 489.769V490.769C179.614 491.343 179.75 491.859 180.021 492.315C180.293 492.766 180.762 492.991 181.429 492.991C182.077 492.991 182.534 492.766 182.8 492.315C183.071 491.859 183.207 491.343 183.207 490.769V489.769C183.207 489.194 183.078 488.682 182.818 488.231C182.559 487.774 182.096 487.546 181.429 487.546C180.781 487.546 180.315 487.774 180.031 488.231C179.753 488.682 179.614 489.194 179.614 489.769ZM178.428 505.179L191.468 486.212H193.58L180.54 505.179H178.428Z" fill="black"/>
</svg>
