<svg width="800" height="800" viewBox="0 0 800 800" fill="none" xmlns="http://www.w3.org/2000/svg">
<g clip-path="url(#clip0_360_170)">
<path d="M783.612 468.427C753.662 468.427 729.312 444.552 728.532 414.979C728.788 413.53 728.934 412.05 728.934 411.009C728.934 402.968 722.524 396.369 714.367 396.369H706.429L759.658 370.923C763.219 369.218 766.111 366.102 767.146 362.267C768.442 358.486 768.144 354.371 766.184 350.883C764.924 348.49 763.548 346.786 762.623 346.061C756.401 332.626 755.768 317.59 760.882 303.692C766.105 289.959 776.265 278.983 788.574 273.224C792.689 272.147 796.287 269.31 798.137 265.402C800.134 261.487 800.134 256.928 798.283 252.946L717.958 78.5446C714.994 72.1892 707.652 68.7802 701.199 70.4847C699.793 70.9108 697.943 71.7813 696.384 72.7614C668.844 84.6443 636.702 72.5423 625.026 48.393C624.728 46.7981 624.022 43.9248 623.285 42.482C619.724 35.4935 611.463 32.3037 604.085 35.7918L49.6684 291.371C42.6799 294.634 40.9023 305.366 43.7574 312.574C49.9667 325.9 50.5754 340.857 45.4619 354.718C40.4762 368.561 30.2248 379.646 15.9921 385.795C14.1354 386.057 12.2848 386.458 10.4464 387.018C6.50166 388.206 3.09264 391.061 1.34551 394.877C-0.358997 398.621 -0.511186 402.956 1.22985 406.815L27.3454 467.015C23.6198 466.978 19.5594 467.611 16.3696 470.199C13.2588 472.944 11.4021 476.944 11.4021 481.241V676.146C11.4021 680.407 13.2588 684.413 16.3696 687.195C19.5594 689.892 23.6137 690.933 28.1429 690.634C28.7151 690.452 33.6825 689.192 34.2608 689.04C64.8385 689.04 89.7853 713.798 89.6392 744.047C89.3226 744.868 88.4947 748.387 88.3425 749.276C87.9164 753.391 89.1765 757.61 91.8976 760.726C94.7527 763.88 98.7705 765.621 102.867 765.621H715.438C715.511 765.621 715.657 765.621 715.809 765.621C715.809 765.621 715.956 765.621 716.144 765.621C724.265 765.621 730.785 759.065 730.785 751.017C730.785 748.241 730.006 745.568 728.484 743.42C729.08 713.323 753.546 689.04 781.05 688.784C790.315 690.86 799.988 683.926 799.988 674.764V482.696C799.775 474.655 791.697 468.427 783.612 468.427ZM72.8193 364.732C78.9312 347.736 79.6921 329.631 74.2621 312.057L603.464 68.1349C623.699 98.9196 662.288 113.505 697.176 103.181L765.971 252.624C751.075 262.376 739.837 276.603 733.579 293.654C726.572 312.355 726.572 332.523 733.244 351.145L642.278 394.628C641.578 394.999 641.462 395.925 640.72 396.332H580.636L691.1 345.459C698.363 342.123 701.626 333.43 698.253 326.088L599.203 110.979C595.788 103.735 587.155 100.101 579.85 103.863L110.848 319.842C107.433 321.474 104.584 324.347 103.306 328.036C102.046 331.689 102.192 335.67 103.75 339.195L130.067 396.338H103.598C95.5136 396.338 89.0669 402.937 89.0669 410.979C89.0669 412.014 89.213 413.499 89.5113 414.912C88.9148 436.224 75.8874 454.164 57.1865 462.656L34.133 409.688C52.0608 399.857 65.6847 384.103 72.8193 364.732ZM434.212 396.326L417.106 357.701L418.811 338.464L472.314 392.729L483.436 387.877L494.558 382.721L421.087 310.297L427.041 235.53L415.919 240.497L405.095 245.203L400.554 320.524L373.477 259.138L364.954 262.9L356.334 266.844L413.715 396.29H388.86C388.288 387.688 388.714 379.646 384.915 369.358L367.566 377.011C370.378 384.65 370.677 390.58 370.53 396.29H334.504C329.391 389.393 324.216 383.208 319.474 372.323C312.34 355.917 308.504 342.555 308.06 331.75C307.597 320.78 310.635 314.254 316.863 311.363C321.976 309.08 327.151 309.658 332.654 312.957C337.932 316.111 342.516 321.65 346.57 329.583L363.81 321.912C355.433 306.079 345.809 294.999 335.344 288.163C324.874 281.601 314.549 280.322 304.876 284.717C293.182 289.721 287.174 300.971 286.693 318.193C286.376 335.244 291.362 355.887 302.021 380.243C304.675 386.434 307.713 390.994 310.714 396.253H294.314L256.432 310.906L247.909 314.632L239.289 318.503L273.745 396.29H233.707L217.307 359.533L242.047 348.563L236.197 335.427L230.432 322.192L163.767 351.79L169.416 365.042L175.126 377.978L199.982 367.197L212.808 396.296H162.026L136.026 340.175L578.56 136.468L665.411 325.108L510.946 396.296V396.332H434.212V396.326ZM770.829 660.879C732.946 666.698 703.22 697.915 699.659 736.498H118.421C114.543 695.687 81.5549 663.143 40.4093 660.105V497.373C80.0757 494.378 112.194 464.202 117.806 425.498H700.14C705.406 461.609 733.762 490.3 770.719 496.113V660.848H770.835L770.829 660.879ZM663.664 447.924H147.416C139.283 447.924 132.867 454.487 132.867 462.528V699.431C132.867 707.473 139.283 714.005 147.416 714.005H663.664C671.821 714.005 678.231 707.479 678.231 699.431V462.528C678.231 454.487 671.821 447.924 663.664 447.924ZM649.206 684.79H161.983V477.102H649.206V684.79ZM207.731 531.701H180.465V517.286V502.907H253.54V517.286V531.701H226.481V664.963H217.216H207.725L207.731 531.701ZM272.448 664.927H263.256V502.858H272.448H281.865V664.921L272.448 664.927ZM306.642 646.427C299.251 631.378 295.52 610.699 295.52 584.784C295.52 558.279 299.245 537.375 306.642 521.845C314.038 506.31 324.028 498.53 336.665 498.53C347.325 498.53 356.219 503.79 362.964 514.023C370.098 524.585 374.238 538.525 375.498 556.471H356.742C356.146 547.535 354.051 540.638 350.442 535.676C346.734 530.374 342.357 527.854 336.818 527.854C329.981 527.854 324.606 532.821 320.582 542.908C316.637 552.727 314.616 566.662 314.616 584.608C314.616 601.988 316.637 615.52 320.582 625.346C324.436 635.019 329.835 640.023 336.818 640.023C342.363 640.023 346.844 637.022 350.442 631.305C354.051 625.79 356.152 618.034 356.742 608.252H375.498C374.402 626.892 370.378 641.873 363.28 652.843C356.298 663.819 347.489 669.377 336.665 669.377C324.028 669.371 314.038 661.773 306.642 646.427ZM400.627 664.927H391.064V502.858H400.445H409.698V569.949L444.324 502.858H456.237H468.059L432.471 568.951L470.579 664.884H458.349H446.132L418.963 593.715L409.661 610.468V664.884H400.633L400.627 664.927ZM548.384 664.927H480.027V502.858H546.089V517.237V531.658H498.783V566.096H542.595V580.073V594.007H498.783V636.157H548.378V650.536L548.384 664.927ZM582.785 531.701H555.792V517.286V502.907H628.672V517.286V531.701H601.613V664.963H592.348H582.791L582.785 531.701ZM503.421 378.867L437.901 230.709L498.265 204.057L504.085 217.2L509.905 230.283L466.573 249.537L480.55 280.846L520.734 263.204L526.365 276.14L532.039 288.674L491.709 306.486L508.651 345.112L554.173 325.187L559.847 338.178L565.484 351.467L503.421 378.867ZM512.979 213.323L507.123 200.07L573.958 170.771L579.771 183.749L585.372 197.002L560.644 207.972L614.616 329.85L606.094 333.43L597.376 337.563L543.556 215.685L518.792 226.49L512.979 213.323Z" fill="#65026E"/>
</g>
<defs>
<clipPath id="clip0_360_170">
<rect width="800" height="800" fill="white"/>
</clipPath>
</defs>
</svg>
