<svg width="394" height="371" viewBox="0 0 494 471" fill="none" xmlns="http://www.w3.org/2000/svg">
<rect x="25.25" y="60.25" width="14.5" height="14.5" fill="#9584BD" stroke="black" stroke-width="0.5"/>
<path d="M69.7853 75H62.219V61.4604H69.7853V62.9585H63.9257V67.1873H69.4439V68.6664H63.9257V73.5019H69.7853V75ZM75.9229 73.8243C76.1757 73.8243 76.4349 73.8053 76.7004 73.7674C76.9659 73.7168 77.1808 73.6663 77.3451 73.6157V74.8862C77.1681 74.9747 76.9153 75.0442 76.5866 75.0948C76.2579 75.158 75.9419 75.1896 75.6384 75.1896C75.1075 75.1896 74.6144 75.1011 74.1593 74.9241C73.7169 74.7345 73.3566 74.4121 73.0784 73.957C72.8003 73.5019 72.6613 72.8635 72.6613 72.0418V66.1253H71.2201V65.3289L72.6802 64.6652L73.3439 62.5034H74.33V64.8359H77.2693V66.1253H74.33V72.0039C74.33 72.6233 74.4754 73.0847 74.7661 73.3881C75.0696 73.6789 75.4551 73.8243 75.9229 73.8243ZM87.8758 64.8359V75H86.5104L86.2639 73.6536H86.1881C85.8594 74.1846 85.4043 74.5765 84.8227 74.8293C84.2412 75.0695 83.6218 75.1896 82.9644 75.1896C81.7381 75.1896 80.8152 74.8989 80.1958 74.3173C79.5763 73.7232 79.2666 72.7813 79.2666 71.4919V64.8359H80.9543V71.3781C80.9543 72.9962 81.7065 73.8053 83.2109 73.8053C84.336 73.8053 85.1135 73.4893 85.5433 72.8572C85.9858 72.2251 86.207 71.3149 86.207 70.1265V64.8359H87.8758ZM94.7056 75.1896C93.4414 75.1896 92.43 74.7535 91.6715 73.8812C90.913 72.9962 90.5337 71.6815 90.5337 69.9369C90.5337 68.1923 90.913 66.8775 91.6715 65.9926C92.4426 65.095 93.4603 64.6462 94.7245 64.6462C95.5083 64.6462 96.1467 64.7916 96.6398 65.0824C97.1455 65.3731 97.5563 65.7271 97.8724 66.1443H97.9861C97.9735 65.98 97.9482 65.7398 97.9103 65.4237C97.885 65.095 97.8724 64.8359 97.8724 64.6462V60.5881H99.5411V75H98.1947L97.9482 73.6347H97.8724C97.569 74.0645 97.1644 74.4311 96.6587 74.7345C96.1531 75.0379 95.502 75.1896 94.7056 75.1896ZM94.971 73.8053C96.0456 73.8053 96.7978 73.5146 97.2276 72.933C97.6701 72.3389 97.8913 71.4476 97.8913 70.2593V69.9559C97.8913 68.6917 97.6827 67.7245 97.2656 67.0545C96.8484 66.3719 96.0772 66.0305 94.9521 66.0305C94.0545 66.0305 93.3781 66.3908 92.923 67.1114C92.4806 67.8194 92.2593 68.7738 92.2593 69.9748C92.2593 71.1884 92.4806 72.1303 92.923 72.8003C93.3781 73.4703 94.0608 73.8053 94.971 73.8053ZM103.623 61.0243C103.875 61.0243 104.097 61.1128 104.286 61.2898C104.489 61.4541 104.59 61.7196 104.59 62.0862C104.59 62.4402 104.489 62.7057 104.286 62.8827C104.097 63.0597 103.875 63.1481 103.623 63.1481C103.344 63.1481 103.111 63.0597 102.921 62.8827C102.731 62.7057 102.637 62.4402 102.637 62.0862C102.637 61.7196 102.731 61.4541 102.921 61.2898C103.111 61.1128 103.344 61.0243 103.623 61.0243ZM104.438 64.8359V75H102.769V64.8359H104.438ZM111.508 64.6652C112.747 64.6652 113.663 64.937 114.257 65.4806C114.851 66.0242 115.149 66.8902 115.149 68.0785V75H113.935L113.613 73.5588H113.537C113.094 74.1151 112.626 74.5259 112.133 74.7914C111.653 75.0569 110.983 75.1896 110.123 75.1896C109.2 75.1896 108.436 74.9494 107.829 74.469C107.222 73.976 106.919 73.2112 106.919 72.1745C106.919 71.1632 107.317 70.3857 108.113 69.8421C108.91 69.2858 110.136 68.9824 111.792 68.9319L113.518 68.875V68.2681C113.518 67.4211 113.334 66.8333 112.968 66.5046C112.601 66.1759 112.083 66.0116 111.413 66.0116C110.882 66.0116 110.376 66.0937 109.896 66.2581C109.415 66.4098 108.967 66.5868 108.549 66.789L108.037 65.5375C108.48 65.2973 109.005 65.095 109.611 64.9307C110.218 64.7537 110.85 64.6652 111.508 64.6652ZM112.001 70.0886C110.736 70.1392 109.858 70.3414 109.365 70.6954C108.884 71.0494 108.644 71.5487 108.644 72.1935C108.644 72.7624 108.815 73.1796 109.156 73.445C109.51 73.7105 109.959 73.8433 110.503 73.8433C111.362 73.8433 112.077 73.6094 112.645 73.1416C113.214 72.6612 113.499 71.928 113.499 70.9419V70.0317L112.001 70.0886ZM123.18 64.6462C124.394 64.6462 125.31 64.9433 125.93 65.5375C126.549 66.119 126.859 67.0672 126.859 68.3819V75H125.209V68.4957C125.209 66.8649 124.451 66.0495 122.934 66.0495C121.809 66.0495 121.031 66.3655 120.601 66.9976C120.171 67.6297 119.957 68.54 119.957 69.7283V75H118.288V64.8359H119.634L119.881 66.2201H119.975C120.304 65.6892 120.759 65.2973 121.341 65.0444C121.922 64.779 122.535 64.6462 123.18 64.6462ZM133.404 73.8243C133.657 73.8243 133.916 73.8053 134.182 73.7674C134.447 73.7168 134.662 73.6663 134.827 73.6157V74.8862C134.65 74.9747 134.397 75.0442 134.068 75.0948C133.739 75.158 133.423 75.1896 133.12 75.1896C132.589 75.1896 132.096 75.1011 131.641 74.9241C131.198 74.7345 130.838 74.4121 130.56 73.957C130.282 73.5019 130.143 72.8635 130.143 72.0418V66.1253H128.702V65.3289L130.162 64.6652L130.825 62.5034H131.811V64.8359H134.751V66.1253H131.811V72.0039C131.811 72.6233 131.957 73.0847 132.248 73.3881C132.551 73.6789 132.937 73.8243 133.404 73.8243ZM141.541 65.8599C141.541 65.3795 141.655 65.0444 141.883 64.8548C142.11 64.6652 142.382 64.5704 142.698 64.5704C143.027 64.5704 143.305 64.6652 143.532 64.8548C143.773 65.0444 143.893 65.3795 143.893 65.8599C143.893 66.315 143.773 66.6437 143.532 66.8459C143.305 67.0482 143.027 67.1493 142.698 67.1493C142.382 67.1493 142.11 67.0482 141.883 66.8459C141.655 66.6437 141.541 66.315 141.541 65.8599ZM141.541 73.976C141.541 73.5082 141.655 73.1796 141.883 72.9899C142.11 72.8003 142.382 72.7055 142.698 72.7055C143.027 72.7055 143.305 72.8003 143.532 72.9899C143.773 73.1796 143.893 73.5082 143.893 73.976C143.893 74.4311 143.773 74.7598 143.532 74.9621C143.305 75.1643 143.027 75.2655 142.698 75.2655C142.382 75.2655 142.11 75.1643 141.883 74.9621C141.655 74.7598 141.541 74.4311 141.541 73.976ZM159.525 64.6273C159.525 65.5375 159.272 66.2644 158.766 66.808C158.26 67.339 157.578 67.6929 156.718 67.8699V67.9458C157.805 68.0722 158.614 68.4135 159.145 68.9698C159.676 69.526 159.942 70.2529 159.942 71.1505C159.942 71.9343 159.759 72.636 159.392 73.2554C159.025 73.8622 158.456 74.3363 157.685 74.6776C156.927 75.019 155.947 75.1896 154.746 75.1896C154.038 75.1896 153.381 75.1327 152.774 75.019C152.167 74.9178 151.586 74.7282 151.029 74.4501V72.8951C151.598 73.1732 152.211 73.3945 152.869 73.5588C153.526 73.7105 154.158 73.7864 154.765 73.7864C155.979 73.7864 156.851 73.5525 157.382 73.0847C157.925 72.6043 158.197 71.947 158.197 71.1126C158.197 70.2656 157.862 69.6588 157.192 69.2921C156.535 68.9129 155.606 68.7233 154.405 68.7233H153.096V67.301H154.424C155.536 67.301 156.377 67.0672 156.946 66.5994C157.527 66.1317 157.818 65.5122 157.818 64.741C157.818 64.0837 157.597 63.578 157.154 63.224C156.712 62.8574 156.111 62.6741 155.353 62.6741C154.62 62.6741 153.994 62.7815 153.475 62.9964C152.957 63.2114 152.445 63.4832 151.939 63.8119L151.105 62.6741C151.586 62.2948 152.18 61.9661 152.888 61.688C153.608 61.4099 154.424 61.2708 155.334 61.2708C156.75 61.2708 157.799 61.5869 158.482 62.219C159.177 62.8511 159.525 63.6538 159.525 64.6273ZM166.432 61.2708C167.621 61.2708 168.594 61.5489 169.353 62.1052C170.111 62.6614 170.49 63.4642 170.49 64.5135C170.49 65.0571 170.37 65.5312 170.13 65.9357C169.902 66.3402 169.593 66.7005 169.201 67.0166C168.809 67.32 168.379 67.5918 167.911 67.832C168.468 68.0975 168.973 68.4009 169.428 68.7422C169.883 69.0709 170.244 69.4565 170.509 69.899C170.787 70.3414 170.926 70.8724 170.926 71.4919C170.926 72.6296 170.522 73.5335 169.713 74.2036C168.916 74.8609 167.842 75.1896 166.489 75.1896C165.035 75.1896 163.916 74.8736 163.133 74.2415C162.349 73.5967 161.957 72.6992 161.957 71.5487C161.957 70.9293 162.083 70.392 162.336 69.9369C162.602 69.4818 162.949 69.0899 163.379 68.7612C163.809 68.4325 164.27 68.1544 164.763 67.9268C164.106 67.5476 163.544 67.0924 163.076 66.5615C162.621 66.0179 162.393 65.3289 162.393 64.4945C162.393 63.7992 162.57 63.2177 162.924 62.7499C163.278 62.2695 163.758 61.9029 164.365 61.6501C164.972 61.3972 165.661 61.2708 166.432 61.2708ZM166.413 62.6172C165.718 62.6172 165.143 62.7879 164.688 63.1292C164.245 63.4579 164.024 63.9383 164.024 64.5704C164.024 65.0381 164.131 65.43 164.346 65.7461C164.574 66.0621 164.877 66.3339 165.257 66.5615C165.636 66.7764 166.053 66.985 166.508 67.1873C167.165 66.9091 167.715 66.5741 168.158 66.1822C168.613 65.7903 168.841 65.253 168.841 64.5704C168.841 63.9383 168.619 63.4579 168.177 63.1292C167.734 62.7879 167.146 62.6172 166.413 62.6172ZM163.588 71.5677C163.588 72.2251 163.822 72.775 164.289 73.2175C164.757 73.6473 165.478 73.8622 166.451 73.8622C167.374 73.8622 168.076 73.6473 168.556 73.2175C169.049 72.775 169.296 72.2061 169.296 71.5108C169.296 70.8534 169.036 70.3098 168.518 69.88C168 69.4375 167.311 69.052 166.451 68.7233L166.148 68.6095C165.313 68.9635 164.675 69.3743 164.233 69.8421C163.803 70.2972 163.588 70.8724 163.588 71.5677ZM174.497 75.2655C174.079 75.2655 173.763 75.158 173.548 74.9431C173.346 74.7282 173.245 74.4311 173.245 74.0519C173.245 73.5462 173.384 73.1543 173.662 72.8761C173.94 72.598 174.294 72.459 174.724 72.459C175.091 72.459 175.388 72.5791 175.615 72.8193C175.843 73.0468 175.957 73.3755 175.957 73.8053C175.957 74.1972 175.824 74.5386 175.558 74.8293C175.293 75.1201 174.939 75.2655 174.497 75.2655ZM182.729 61.2708C183.917 61.2708 184.89 61.5489 185.649 62.1052C186.407 62.6614 186.787 63.4642 186.787 64.5135C186.787 65.0571 186.666 65.5312 186.426 65.9357C186.199 66.3402 185.889 66.7005 185.497 67.0166C185.105 67.32 184.675 67.5918 184.208 67.832C184.764 68.0975 185.27 68.4009 185.725 68.7422C186.18 69.0709 186.54 69.4565 186.806 69.899C187.084 70.3414 187.223 70.8724 187.223 71.4919C187.223 72.6296 186.818 73.5335 186.009 74.2036C185.213 74.8609 184.138 75.1896 182.785 75.1896C181.332 75.1896 180.213 74.8736 179.429 74.2415C178.645 73.5967 178.253 72.6992 178.253 71.5487C178.253 70.9293 178.38 70.392 178.633 69.9369C178.898 69.4818 179.246 69.0899 179.675 68.7612C180.105 68.4325 180.567 68.1544 181.06 67.9268C180.402 67.5476 179.84 67.0924 179.372 66.5615C178.917 66.0179 178.689 65.3289 178.689 64.4945C178.689 63.7992 178.866 63.2177 179.22 62.7499C179.574 62.2695 180.055 61.9029 180.662 61.6501C181.268 61.3972 181.957 61.2708 182.729 61.2708ZM182.71 62.6172C182.014 62.6172 181.439 62.7879 180.984 63.1292C180.541 63.4579 180.32 63.9383 180.32 64.5704C180.32 65.0381 180.428 65.43 180.643 65.7461C180.87 66.0621 181.174 66.3339 181.553 66.5615C181.932 66.7764 182.349 66.985 182.804 67.1873C183.462 66.9091 184.012 66.5741 184.454 66.1822C184.909 65.7903 185.137 65.253 185.137 64.5704C185.137 63.9383 184.916 63.4579 184.473 63.1292C184.031 62.7879 183.443 62.6172 182.71 62.6172ZM179.884 71.5677C179.884 72.2251 180.118 72.775 180.586 73.2175C181.053 73.6473 181.774 73.8622 182.747 73.8622C183.67 73.8622 184.372 73.6473 184.852 73.2175C185.345 72.775 185.592 72.2061 185.592 71.5108C185.592 70.8534 185.333 70.3098 184.814 69.88C184.296 69.4375 183.607 69.052 182.747 68.7233L182.444 68.6095C181.61 68.9635 180.971 69.3743 180.529 69.8421C180.099 70.2972 179.884 70.8724 179.884 71.5677ZM189.219 66.1633C189.219 65.2404 189.44 64.4756 189.883 63.8687C190.338 63.2619 191.039 62.9585 191.987 62.9585C192.923 62.9585 193.625 63.2619 194.092 63.8687C194.573 64.4756 194.813 65.2404 194.813 66.1633C194.813 67.0861 194.585 67.8573 194.13 68.4767C193.675 69.0836 192.961 69.387 191.987 69.387C191.09 69.387 190.401 69.0836 189.921 68.4767C189.453 67.8573 189.219 67.0861 189.219 66.1633ZM191.57 75L198.814 63.0533H200.388L193.144 75H191.57ZM190.622 66.1633C190.622 66.7448 190.723 67.2315 190.926 67.6234C191.14 68.0153 191.488 68.2113 191.969 68.2113C192.449 68.2113 192.809 68.0153 193.049 67.6234C193.29 67.2315 193.41 66.7448 193.41 66.1633C193.41 65.5944 193.29 65.1203 193.049 64.741C192.809 64.3491 192.449 64.1532 191.969 64.1532C191.501 64.1532 191.159 64.3491 190.945 64.741C190.73 65.1203 190.622 65.5944 190.622 66.1633ZM196.975 72.0039C196.975 71.081 197.196 70.3161 197.638 69.7093C198.094 69.1025 198.795 68.7991 199.743 68.7991C200.679 68.7991 201.38 69.1025 201.848 69.7093C202.329 70.3161 202.569 71.081 202.569 72.0039C202.569 72.9267 202.341 73.6979 201.886 74.3173C201.431 74.9241 200.717 75.2276 199.743 75.2276C198.846 75.2276 198.157 74.9241 197.676 74.3173C197.209 73.6979 196.975 72.9267 196.975 72.0039ZM198.378 72.0039C198.378 72.5854 198.479 73.0721 198.681 73.464C198.896 73.8559 199.244 74.0519 199.724 74.0519C200.205 74.0519 200.565 73.8559 200.805 73.464C201.045 73.0721 201.166 72.5854 201.166 72.0039C201.166 71.435 201.045 70.9609 200.805 70.5816C200.565 70.1897 200.205 69.9938 199.724 69.9938C199.257 69.9938 198.915 70.1897 198.7 70.5816C198.485 70.9609 198.378 71.435 198.378 72.0039Z" fill="black"/>
<path d="M25.25 108.25H39.75V122.75H25.25L25.25 108.25Z" fill="#F18557" stroke="black" stroke-width="0.5"/>
<path d="M62.1505 123V109.46H63.8572V121.483H69.7736V123H62.1505ZM70.2745 112.836H72.057L74.2567 118.62C74.4464 119.138 74.617 119.625 74.7687 120.08C74.9204 120.535 75.0342 120.971 75.1101 121.388H75.1859C75.2618 121.072 75.3819 120.661 75.5462 120.156C75.7106 119.637 75.8812 119.119 76.0582 118.601L78.1252 112.836H79.9267L75.5462 124.403C75.1796 125.364 74.7182 126.129 74.1619 126.698C73.6057 127.267 72.8345 127.551 71.8484 127.551C71.545 127.551 71.2796 127.532 71.052 127.494C70.8244 127.469 70.6285 127.437 70.4641 127.399V126.072C70.6032 126.097 70.7676 126.123 70.9572 126.148C71.1595 126.173 71.368 126.186 71.583 126.186C72.1645 126.186 72.6322 126.021 72.9862 125.693C73.3402 125.364 73.6246 124.928 73.8396 124.384L74.3705 123.038L70.2745 112.836ZM85.6111 123.19C84.7009 123.19 83.8981 123.006 83.2028 122.64C82.5075 122.273 81.9576 121.704 81.553 120.933C81.1611 120.162 80.9652 119.176 80.9652 117.975C80.9652 116.723 81.1675 115.706 81.572 114.922C81.9892 114.138 82.5581 113.563 83.2787 113.196C83.9993 112.83 84.8147 112.646 85.7249 112.646C86.2306 112.646 86.7236 112.703 87.204 112.817C87.697 112.918 88.0953 113.044 88.3987 113.196L87.8867 114.58C87.5833 114.467 87.2293 114.359 86.8247 114.258C86.4202 114.157 86.0409 114.106 85.687 114.106C83.6895 114.106 82.6908 115.39 82.6908 117.956C82.6908 119.182 82.931 120.124 83.4114 120.781C83.9044 121.426 84.6314 121.748 85.5921 121.748C86.1358 121.748 86.6225 121.692 87.0523 121.578C87.4821 121.464 87.874 121.325 88.228 121.161V122.64C87.8867 122.817 87.5074 122.949 87.0902 123.038C86.6857 123.139 86.1926 123.19 85.6111 123.19ZM94.5705 112.646C95.4302 112.646 96.1761 112.836 96.8082 113.215C97.4402 113.594 97.9206 114.132 98.2493 114.827C98.5907 115.51 98.7613 116.312 98.7613 117.235V118.24H91.8019C91.8272 119.391 92.118 120.269 92.6742 120.876C93.2431 121.47 94.0332 121.767 95.0446 121.767C95.6893 121.767 96.2582 121.711 96.7513 121.597C97.2569 121.47 97.7753 121.293 98.3062 121.066V122.526C97.7879 122.753 97.2759 122.918 96.7702 123.019C96.2645 123.133 95.6641 123.19 94.9687 123.19C93.9953 123.19 93.142 122.994 92.4087 122.602C91.6755 122.21 91.1003 121.628 90.6831 120.857C90.2786 120.086 90.0763 119.132 90.0763 117.994C90.0763 116.881 90.2596 115.927 90.6262 115.13C91.0055 114.334 91.5301 113.721 92.2001 113.291C92.8828 112.861 93.6729 112.646 94.5705 112.646ZM94.5516 114.012C93.7551 114.012 93.123 114.271 92.6553 114.789C92.2001 115.295 91.9283 116.003 91.8399 116.913H97.0167C97.0041 116.053 96.8018 115.358 96.4099 114.827C96.018 114.283 95.3986 114.012 94.5516 114.012ZM97.1116 108.474V108.664C96.9472 108.892 96.707 109.189 96.391 109.555C96.0876 109.909 95.7525 110.27 95.3859 110.636C95.032 110.99 94.7033 111.281 94.3999 111.508H93.3V111.281C93.477 111.053 93.6793 110.775 93.9068 110.447C94.1344 110.105 94.3556 109.764 94.5705 109.423C94.7854 109.069 94.9624 108.752 95.1015 108.474H97.1116ZM105.274 112.646C106.134 112.646 106.88 112.836 107.512 113.215C108.144 113.594 108.624 114.132 108.953 114.827C109.294 115.51 109.465 116.312 109.465 117.235V118.24H102.506C102.531 119.391 102.822 120.269 103.378 120.876C103.947 121.47 104.737 121.767 105.748 121.767C106.393 121.767 106.962 121.711 107.455 121.597C107.961 121.47 108.479 121.293 109.01 121.066V122.526C108.492 122.753 107.98 122.918 107.474 123.019C106.968 123.133 106.368 123.19 105.672 123.19C104.699 123.19 103.846 122.994 103.112 122.602C102.379 122.21 101.804 121.628 101.387 120.857C100.982 120.086 100.78 119.132 100.78 117.994C100.78 116.881 100.963 115.927 101.33 115.13C101.709 114.334 102.234 113.721 102.904 113.291C103.587 112.861 104.377 112.646 105.274 112.646ZM105.255 114.012C104.459 114.012 103.827 114.271 103.359 114.789C102.904 115.295 102.632 116.003 102.544 116.913H107.72C107.708 116.053 107.506 115.358 107.114 114.827C106.722 114.283 106.102 114.012 105.255 114.012ZM116.945 112.646C118.159 112.646 119.075 112.943 119.695 113.537C120.314 114.132 120.624 115.08 120.624 116.382V123H118.974V116.496C118.974 114.865 118.216 114.049 116.699 114.049C115.573 114.049 114.796 114.366 114.366 114.998C113.936 115.63 113.721 116.54 113.721 117.728V123H112.053V112.836H113.399L113.645 114.22H113.74C114.069 113.689 114.524 113.297 115.106 113.044C115.687 112.779 116.3 112.646 116.945 112.646ZM128.454 113.86C128.454 113.379 128.568 113.044 128.796 112.855C129.023 112.665 129.295 112.57 129.611 112.57C129.94 112.57 130.218 112.665 130.445 112.855C130.686 113.044 130.806 113.379 130.806 113.86C130.806 114.315 130.686 114.644 130.445 114.846C130.218 115.048 129.94 115.149 129.611 115.149C129.295 115.149 129.023 115.048 128.796 114.846C128.568 114.644 128.454 114.315 128.454 113.86ZM128.454 121.976C128.454 121.508 128.568 121.18 128.796 120.99C129.023 120.8 129.295 120.705 129.611 120.705C129.94 120.705 130.218 120.8 130.445 120.99C130.686 121.18 130.806 121.508 130.806 121.976C130.806 122.431 130.686 122.76 130.445 122.962C130.218 123.164 129.94 123.265 129.611 123.265C129.295 123.265 129.023 123.164 128.796 122.962C128.568 122.76 128.454 122.431 128.454 121.976ZM147.556 119.928H145.584V123H143.972V119.928H137.487V118.506L143.859 109.385H145.584V118.43H147.556V119.928ZM143.972 118.43V114.163C143.972 113.506 143.979 112.95 143.991 112.495C144.017 112.027 144.042 111.584 144.067 111.167H143.991C143.89 111.407 143.764 111.666 143.612 111.945C143.46 112.223 143.315 112.457 143.176 112.646L139.118 118.43H143.972ZM153.345 109.271C154.534 109.271 155.507 109.549 156.265 110.105C157.024 110.661 157.403 111.464 157.403 112.513C157.403 113.057 157.283 113.531 157.043 113.936C156.815 114.34 156.506 114.701 156.114 115.017C155.722 115.32 155.292 115.592 154.824 115.832C155.381 116.11 155.886 116.414 156.341 116.742C156.796 117.071 157.157 117.456 157.422 117.899C157.7 118.341 157.839 118.872 157.839 119.492C157.839 120.63 157.435 121.534 156.626 122.204C155.817 122.861 154.742 123.19 153.402 123.19C151.936 123.19 150.81 122.874 150.027 122.241C149.256 121.597 148.87 120.699 148.87 119.549C148.87 118.942 148.996 118.411 149.249 117.956C149.515 117.488 149.862 117.09 150.292 116.761C150.722 116.432 151.183 116.154 151.676 115.927C151.006 115.548 150.444 115.092 149.989 114.561C149.534 114.018 149.306 113.329 149.306 112.495C149.306 111.812 149.483 111.23 149.837 110.75C150.191 110.27 150.671 109.903 151.278 109.65C151.885 109.397 152.574 109.271 153.345 109.271ZM153.326 110.617C152.618 110.617 152.043 110.788 151.601 111.129C151.158 111.458 150.937 111.938 150.937 112.57C150.937 113.038 151.044 113.43 151.259 113.746C151.487 114.062 151.79 114.334 152.169 114.561C152.549 114.776 152.966 114.985 153.421 115.187C154.078 114.909 154.628 114.574 155.071 114.182C155.526 113.79 155.753 113.253 155.753 112.57C155.753 111.938 155.532 111.458 155.09 111.129C154.647 110.788 154.059 110.617 153.326 110.617ZM150.501 119.568C150.501 120.225 150.735 120.775 151.202 121.217C151.67 121.647 152.391 121.862 153.364 121.862C154.287 121.862 154.989 121.647 155.469 121.217C155.962 120.775 156.209 120.206 156.209 119.511C156.209 118.853 155.949 118.31 155.431 117.88C154.913 117.438 154.224 117.052 153.364 116.723L153.061 116.609C152.226 116.976 151.588 117.387 151.145 117.842C150.716 118.297 150.501 118.872 150.501 119.568ZM161.409 123.265C160.992 123.265 160.676 123.158 160.461 122.943C160.259 122.728 160.158 122.431 160.158 122.052C160.158 121.546 160.297 121.154 160.575 120.876C160.853 120.598 161.207 120.459 161.637 120.459C162.004 120.459 162.301 120.579 162.528 120.819C162.756 121.047 162.87 121.376 162.87 121.805C162.87 122.197 162.737 122.539 162.471 122.829C162.206 123.12 161.852 123.265 161.409 123.265ZM173.586 112.627C173.586 113.537 173.327 114.264 172.808 114.808C172.303 115.339 171.626 115.693 170.779 115.87V115.946C171.854 116.072 172.657 116.414 173.188 116.97C173.731 117.526 174.003 118.253 174.003 119.151C174.003 119.947 173.82 120.649 173.453 121.255C173.086 121.862 172.518 122.336 171.746 122.678C170.988 123.019 170.008 123.19 168.807 123.19C168.099 123.19 167.442 123.133 166.835 123.019C166.228 122.918 165.647 122.728 165.09 122.45V120.895C165.659 121.186 166.272 121.407 166.93 121.559C167.587 121.711 168.219 121.786 168.826 121.786C170.04 121.786 170.912 121.552 171.443 121.085C171.987 120.604 172.258 119.947 172.258 119.113C172.258 118.266 171.923 117.659 171.253 117.292C170.596 116.913 169.667 116.723 168.466 116.723H167.157V115.301H168.485C169.597 115.301 170.438 115.067 171.007 114.599C171.588 114.132 171.879 113.512 171.879 112.741C171.879 112.084 171.658 111.578 171.215 111.224C170.773 110.857 170.172 110.674 169.414 110.674C168.681 110.674 168.055 110.782 167.537 110.996C167.018 111.211 166.506 111.483 166.001 111.812L165.166 110.674C165.647 110.295 166.241 109.966 166.949 109.688C167.669 109.41 168.485 109.271 169.395 109.271C170.811 109.271 171.86 109.587 172.543 110.219C173.238 110.851 173.586 111.654 173.586 112.627ZM176.132 114.163C176.132 113.24 176.353 112.476 176.796 111.869C177.251 111.262 177.952 110.959 178.9 110.959C179.836 110.959 180.538 111.262 181.005 111.869C181.486 112.476 181.726 113.24 181.726 114.163C181.726 115.086 181.498 115.857 181.043 116.477C180.588 117.084 179.874 117.387 178.9 117.387C178.003 117.387 177.314 117.084 176.833 116.477C176.366 115.857 176.132 115.086 176.132 114.163ZM178.483 123L185.727 111.053H187.301L180.057 123H178.483ZM177.535 114.163C177.535 114.745 177.636 115.232 177.839 115.623C178.053 116.015 178.401 116.211 178.881 116.211C179.362 116.211 179.722 116.015 179.962 115.623C180.203 115.232 180.323 114.745 180.323 114.163C180.323 113.594 180.203 113.12 179.962 112.741C179.722 112.349 179.362 112.153 178.881 112.153C178.414 112.153 178.072 112.349 177.857 112.741C177.643 113.12 177.535 113.594 177.535 114.163ZM183.888 120.004C183.888 119.081 184.109 118.316 184.551 117.709C185.007 117.103 185.708 116.799 186.656 116.799C187.592 116.799 188.293 117.103 188.761 117.709C189.242 118.316 189.482 119.081 189.482 120.004C189.482 120.927 189.254 121.698 188.799 122.317C188.344 122.924 187.63 123.228 186.656 123.228C185.759 123.228 185.07 122.924 184.589 122.317C184.122 121.698 183.888 120.927 183.888 120.004ZM185.291 120.004C185.291 120.585 185.392 121.072 185.594 121.464C185.809 121.856 186.157 122.052 186.637 122.052C187.118 122.052 187.478 121.856 187.718 121.464C187.958 121.072 188.079 120.585 188.079 120.004C188.079 119.435 187.958 118.961 187.718 118.582C187.478 118.19 187.118 117.994 186.637 117.994C186.17 117.994 185.828 118.19 185.613 118.582C185.398 118.961 185.291 119.435 185.291 120.004Z" fill="black"/>
<rect x="25.25" y="156.25" width="14.5" height="14.5" fill="#38BDE2" stroke="black" stroke-width="0.5"/>
<path d="M70.5941 171L68.9633 166.809H63.5967L61.9849 171H60.2593L65.5499 157.404H67.0859L72.3576 171H70.5941ZM66.9342 161.196C66.8963 161.095 66.8331 160.912 66.7446 160.646C66.6561 160.381 66.5676 160.109 66.4791 159.831C66.4033 159.54 66.34 159.319 66.2895 159.167C66.201 159.559 66.0998 159.945 65.9861 160.324C65.8723 160.69 65.7775 160.981 65.7016 161.196L64.1656 165.292H68.4513L66.9342 161.196ZM78.8178 160.646C80.0693 160.646 81.0744 161.082 81.8329 161.955C82.604 162.827 82.9896 164.142 82.9896 165.899C82.9896 167.631 82.604 168.946 81.8329 169.843C81.0744 170.741 80.063 171.19 78.7988 171.19C78.015 171.19 77.3639 171.044 76.8456 170.753C76.3399 170.45 75.9417 170.102 75.651 169.711H75.5372C75.5625 169.925 75.5877 170.197 75.613 170.526C75.6383 170.855 75.651 171.139 75.651 171.379V175.551H73.9822V160.836H75.3476L75.5751 162.22H75.651C75.9544 161.778 76.3526 161.405 76.8456 161.101C77.3387 160.798 77.996 160.646 78.8178 160.646ZM78.5144 162.049C77.4777 162.049 76.7445 162.34 76.3147 162.922C75.8975 163.503 75.6762 164.388 75.651 165.577V165.899C75.651 167.151 75.8532 168.118 76.2578 168.8C76.675 169.47 77.4398 169.805 78.5523 169.805C79.1717 169.805 79.6774 169.635 80.0693 169.293C80.4739 168.952 80.771 168.491 80.9606 167.909C81.1629 167.315 81.264 166.639 81.264 165.88C81.264 164.717 81.0364 163.788 80.5813 163.092C80.1389 162.397 79.4499 162.049 78.5144 162.049ZM90.4844 160.646C91.736 160.646 92.741 161.082 93.4996 161.955C94.2707 162.827 94.6563 164.142 94.6563 165.899C94.6563 167.631 94.2707 168.946 93.4996 169.843C92.741 170.741 91.7297 171.19 90.4655 171.19C89.6817 171.19 89.0306 171.044 88.5123 170.753C88.0066 170.45 87.6084 170.102 87.3176 169.711H87.2038C87.2291 169.925 87.2544 170.197 87.2797 170.526C87.305 170.855 87.3176 171.139 87.3176 171.379V175.551H85.6489V160.836H87.0142L87.2418 162.22H87.3176C87.621 161.778 88.0193 161.405 88.5123 161.101C89.0053 160.798 89.6627 160.646 90.4844 160.646ZM90.181 162.049C89.1444 162.049 88.4112 162.34 87.9813 162.922C87.5641 163.503 87.3429 164.388 87.3176 165.577V165.899C87.3176 167.151 87.5199 168.118 87.9244 168.8C88.3416 169.47 89.1065 169.805 90.219 169.805C90.8384 169.805 91.3441 169.635 91.736 169.293C92.1405 168.952 92.4376 168.491 92.6273 167.909C92.8295 167.315 92.9307 166.639 92.9307 165.88C92.9307 164.717 92.7031 163.788 92.248 163.092C91.8055 162.397 91.1165 162.049 90.181 162.049ZM102.056 160.646C102.246 160.646 102.448 160.659 102.663 160.684C102.891 160.697 103.087 160.722 103.251 160.76L103.042 162.296C102.878 162.258 102.695 162.226 102.492 162.201C102.303 162.176 102.12 162.163 101.943 162.163C101.424 162.163 100.937 162.309 100.482 162.599C100.027 162.878 99.6606 163.276 99.3825 163.794C99.117 164.3 98.9843 164.894 98.9843 165.577V171H97.3156V160.836H98.6809L98.8705 162.694H98.9464C99.2751 162.138 99.6986 161.658 100.217 161.253C100.735 160.848 101.348 160.646 102.056 160.646ZM108.704 160.646C109.576 160.646 110.322 160.836 110.941 161.215C111.574 161.594 112.054 162.132 112.383 162.827C112.724 163.51 112.895 164.312 112.895 165.235V166.24H105.935C105.961 167.391 106.251 168.269 106.808 168.876C107.376 169.47 108.167 169.767 109.178 169.767C109.823 169.767 110.392 169.711 110.885 169.597C111.39 169.47 111.909 169.293 112.44 169.066V170.526C111.921 170.753 111.409 170.918 110.904 171.019C110.398 171.133 109.797 171.19 109.102 171.19C108.141 171.19 107.288 170.994 106.542 170.602C105.809 170.21 105.234 169.628 104.816 168.857C104.412 168.073 104.21 167.119 104.21 165.994C104.21 164.881 104.393 163.927 104.76 163.13C105.139 162.334 105.663 161.721 106.333 161.291C107.016 160.861 107.806 160.646 108.704 160.646ZM108.685 162.012C107.888 162.012 107.256 162.271 106.789 162.789C106.333 163.295 106.062 164.003 105.973 164.913H111.15C111.137 164.053 110.935 163.358 110.543 162.827C110.151 162.283 109.532 162.012 108.685 162.012ZM120.375 160.646C121.588 160.646 122.505 160.943 123.124 161.537C123.744 162.119 124.053 163.067 124.053 164.382V171H122.404V164.496C122.404 162.865 121.645 162.049 120.128 162.049C119.003 162.049 118.226 162.366 117.796 162.998C117.366 163.63 117.151 164.54 117.151 165.728V171H115.482V160.836H116.829L117.075 162.22H117.17C117.499 161.689 117.954 161.297 118.535 161.044C119.117 160.779 119.73 160.646 120.375 160.646ZM130.599 169.824C130.852 169.824 131.111 169.805 131.376 169.767C131.642 169.717 131.857 169.666 132.021 169.616V170.886C131.844 170.975 131.591 171.044 131.263 171.095C130.934 171.158 130.618 171.19 130.314 171.19C129.783 171.19 129.29 171.101 128.835 170.924C128.393 170.735 128.032 170.412 127.754 169.957C127.476 169.502 127.337 168.864 127.337 168.042V162.125H125.896V161.329L127.356 160.665L128.02 158.503H129.006V160.836H131.945V162.125H129.006V168.004C129.006 168.623 129.151 169.085 129.442 169.388C129.745 169.679 130.131 169.824 130.599 169.824ZM134.91 157.024C135.162 157.024 135.384 157.113 135.573 157.29C135.776 157.454 135.877 157.72 135.877 158.086C135.877 158.44 135.776 158.706 135.573 158.883C135.384 159.06 135.162 159.148 134.91 159.148C134.632 159.148 134.398 159.06 134.208 158.883C134.018 158.706 133.924 158.44 133.924 158.086C133.924 157.72 134.018 157.454 134.208 157.29C134.398 157.113 134.632 157.024 134.91 157.024ZM135.725 160.836V171H134.056V160.836H135.725ZM139.154 171H137.523L142.567 157.46H144.198L139.154 171ZM149.85 160.665C151.089 160.665 152.006 160.937 152.6 161.481C153.194 162.024 153.491 162.89 153.491 164.079V171H152.277L151.955 169.559H151.879C151.437 170.115 150.969 170.526 150.476 170.791C149.996 171.057 149.326 171.19 148.466 171.19C147.543 171.19 146.778 170.949 146.171 170.469C145.565 169.976 145.261 169.211 145.261 168.175C145.261 167.163 145.659 166.386 146.456 165.842C147.252 165.286 148.479 164.982 150.135 164.932L151.86 164.875V164.268C151.86 163.421 151.677 162.833 151.31 162.505C150.944 162.176 150.425 162.012 149.755 162.012C149.224 162.012 148.719 162.094 148.238 162.258C147.758 162.41 147.309 162.587 146.892 162.789L146.38 161.537C146.822 161.297 147.347 161.095 147.954 160.931C148.561 160.754 149.193 160.665 149.85 160.665ZM150.343 166.089C149.079 166.139 148.2 166.341 147.707 166.695C147.227 167.049 146.987 167.549 146.987 168.193C146.987 168.762 147.157 169.18 147.499 169.445C147.853 169.711 148.302 169.843 148.845 169.843C149.705 169.843 150.419 169.609 150.988 169.142C151.557 168.661 151.841 167.928 151.841 166.942V166.032L150.343 166.089ZM158.299 171H156.63V156.588H158.299V171ZM164.914 169.824C165.166 169.824 165.426 169.805 165.691 169.767C165.957 169.717 166.172 169.666 166.336 169.616V170.886C166.159 170.975 165.906 171.044 165.577 171.095C165.249 171.158 164.933 171.19 164.629 171.19C164.098 171.19 163.605 171.101 163.15 170.924C162.708 170.735 162.347 170.412 162.069 169.957C161.791 169.502 161.652 168.864 161.652 168.042V162.125H160.211V161.329L161.671 160.665L162.335 158.503H163.321V160.836H166.26V162.125H163.321V168.004C163.321 168.623 163.466 169.085 163.757 169.388C164.06 169.679 164.446 169.824 164.914 169.824ZM172.296 160.646C173.169 160.646 173.915 160.836 174.534 161.215C175.166 161.594 175.647 162.132 175.975 162.827C176.317 163.51 176.487 164.312 176.487 165.235V166.24H169.528C169.553 167.391 169.844 168.269 170.4 168.876C170.969 169.47 171.759 169.767 172.771 169.767C173.415 169.767 173.984 169.711 174.477 169.597C174.983 169.47 175.501 169.293 176.032 169.066V170.526C175.514 170.753 175.002 170.918 174.496 171.019C173.99 171.133 173.39 171.19 172.695 171.19C171.734 171.19 170.881 170.994 170.135 170.602C169.401 170.21 168.826 169.628 168.409 168.857C168.004 168.073 167.802 167.119 167.802 165.994C167.802 164.881 167.986 163.927 168.352 163.13C168.731 162.334 169.256 161.721 169.926 161.291C170.609 160.861 171.399 160.646 172.296 160.646ZM172.277 162.012C171.481 162.012 170.849 162.271 170.381 162.789C169.926 163.295 169.654 164.003 169.566 164.913H174.743C174.73 164.053 174.528 163.358 174.136 162.827C173.744 162.283 173.124 162.012 172.277 162.012ZM183.816 160.646C184.005 160.646 184.207 160.659 184.422 160.684C184.65 160.697 184.846 160.722 185.01 160.76L184.802 162.296C184.637 162.258 184.454 162.226 184.252 162.201C184.062 162.176 183.879 162.163 183.702 162.163C183.183 162.163 182.697 162.309 182.242 162.599C181.787 162.878 181.42 163.276 181.142 163.794C180.876 164.3 180.744 164.894 180.744 165.577V171H179.075V160.836H180.44L180.63 162.694H180.706C181.034 162.138 181.458 161.658 181.976 161.253C182.494 160.848 183.108 160.646 183.816 160.646ZM191.801 160.646C193.014 160.646 193.931 160.943 194.55 161.537C195.17 162.119 195.479 163.067 195.479 164.382V171H193.83V164.496C193.83 162.865 193.071 162.049 191.554 162.049C190.429 162.049 189.651 162.366 189.222 162.998C188.792 163.63 188.577 164.54 188.577 165.728V171H186.908V160.836H188.255L188.501 162.22H188.596C188.925 161.689 189.38 161.297 189.961 161.044C190.543 160.779 191.156 160.646 191.801 160.646ZM202.48 160.665C203.719 160.665 204.635 160.937 205.229 161.481C205.824 162.024 206.121 162.89 206.121 164.079V171H204.907L204.585 169.559H204.509C204.066 170.115 203.599 170.526 203.106 170.791C202.625 171.057 201.955 171.19 201.096 171.19C200.173 171.19 199.408 170.949 198.801 170.469C198.194 169.976 197.891 169.211 197.891 168.175C197.891 167.163 198.289 166.386 199.085 165.842C199.882 165.286 201.108 164.982 202.764 164.932L204.49 164.875V164.268C204.49 163.421 204.307 162.833 203.94 162.505C203.573 162.176 203.055 162.012 202.385 162.012C201.854 162.012 201.348 162.094 200.868 162.258C200.388 162.41 199.939 162.587 199.522 162.789L199.01 161.537C199.452 161.297 199.977 161.095 200.584 160.931C201.19 160.754 201.822 160.665 202.48 160.665ZM202.973 166.089C201.709 166.139 200.83 166.341 200.337 166.695C199.857 167.049 199.616 167.549 199.616 168.193C199.616 168.762 199.787 169.18 200.128 169.445C200.482 169.711 200.931 169.843 201.475 169.843C202.334 169.843 203.049 169.609 203.618 169.142C204.187 168.661 204.471 167.928 204.471 166.942V166.032L202.973 166.089ZM214.152 160.646C215.366 160.646 216.283 160.943 216.902 161.537C217.522 162.119 217.831 163.067 217.831 164.382V171H216.181V164.496C216.181 162.865 215.423 162.049 213.906 162.049C212.781 162.049 212.003 162.366 211.573 162.998C211.144 163.63 210.929 164.54 210.929 165.728V171H209.26V160.836H210.606L210.853 162.22H210.948C211.276 161.689 211.731 161.297 212.313 161.044C212.895 160.779 213.508 160.646 214.152 160.646ZM224.377 169.824C224.629 169.824 224.889 169.805 225.154 169.767C225.42 169.717 225.634 169.666 225.799 169.616V170.886C225.622 170.975 225.369 171.044 225.04 171.095C224.712 171.158 224.396 171.19 224.092 171.19C223.561 171.19 223.068 171.101 222.613 170.924C222.171 170.735 221.81 170.412 221.532 169.957C221.254 169.502 221.115 168.864 221.115 168.042V162.125H219.674V161.329L221.134 160.665L221.798 158.503H222.784V160.836H225.723V162.125H222.784V168.004C222.784 168.623 222.929 169.085 223.22 169.388C223.523 169.679 223.909 169.824 224.377 169.824ZM232.513 161.86C232.513 161.379 232.627 161.044 232.855 160.855C233.082 160.665 233.354 160.57 233.67 160.57C233.999 160.57 234.277 160.665 234.505 160.855C234.745 161.044 234.865 161.379 234.865 161.86C234.865 162.315 234.745 162.644 234.505 162.846C234.277 163.048 233.999 163.149 233.67 163.149C233.354 163.149 233.082 163.048 232.855 162.846C232.627 162.644 232.513 162.315 232.513 161.86ZM232.513 169.976C232.513 169.508 232.627 169.18 232.855 168.99C233.082 168.8 233.354 168.705 233.67 168.705C233.999 168.705 234.277 168.8 234.505 168.99C234.745 169.18 234.865 169.508 234.865 169.976C234.865 170.431 234.745 170.76 234.505 170.962C234.277 171.164 233.999 171.265 233.67 171.265C233.354 171.265 233.082 171.164 232.855 170.962C232.627 170.76 232.513 170.431 232.513 169.976ZM246.363 162.694C247.754 162.694 248.86 163.042 249.681 163.737C250.503 164.432 250.914 165.412 250.914 166.676C250.914 168.08 250.465 169.186 249.568 169.995C248.683 170.791 247.444 171.19 245.851 171.19C245.156 171.19 244.498 171.126 243.879 171C243.272 170.874 242.76 170.69 242.343 170.45V168.876C242.798 169.154 243.348 169.376 243.993 169.54C244.65 169.692 245.276 169.767 245.87 169.767C246.869 169.767 247.671 169.534 248.278 169.066C248.898 168.585 249.207 167.846 249.207 166.847C249.207 165.962 248.936 165.286 248.392 164.818C247.848 164.338 246.989 164.097 245.813 164.097C245.459 164.097 245.055 164.129 244.599 164.192C244.144 164.256 243.778 164.319 243.5 164.382L242.665 163.851L243.177 157.46H249.966V158.977H244.599L244.277 162.903C244.492 162.865 244.783 162.821 245.149 162.77C245.516 162.72 245.92 162.694 246.363 162.694ZM254.617 171.265C254.2 171.265 253.884 171.158 253.669 170.943C253.466 170.728 253.365 170.431 253.365 170.052C253.365 169.546 253.504 169.154 253.783 168.876C254.061 168.598 254.415 168.459 254.844 168.459C255.211 168.459 255.508 168.579 255.736 168.819C255.963 169.047 256.077 169.376 256.077 169.805C256.077 170.197 255.944 170.539 255.679 170.829C255.413 171.12 255.059 171.265 254.617 171.265ZM258.487 165.216C258.487 164.243 258.57 163.288 258.734 162.353C258.911 161.405 259.221 160.551 259.663 159.793C260.118 159.022 260.75 158.409 261.559 157.953C262.368 157.498 263.411 157.271 264.688 157.271C264.954 157.271 265.245 157.283 265.561 157.309C265.889 157.334 266.155 157.378 266.357 157.441V158.864C266.129 158.788 265.87 158.731 265.58 158.693C265.301 158.655 265.017 158.636 264.726 158.636C263.854 158.636 263.127 158.782 262.545 159.072C261.964 159.363 261.503 159.761 261.161 160.267C260.832 160.773 260.592 161.354 260.441 162.012C260.289 162.669 260.194 163.371 260.156 164.116H260.27C260.561 163.674 260.965 163.301 261.484 162.998C262.002 162.682 262.666 162.524 263.475 162.524C264.65 162.524 265.599 162.884 266.319 163.604C267.04 164.312 267.4 165.324 267.4 166.639C267.4 168.054 267.008 169.167 266.224 169.976C265.453 170.785 264.41 171.19 263.095 171.19C262.236 171.19 261.458 170.975 260.763 170.545C260.068 170.115 259.511 169.458 259.094 168.573C258.69 167.688 258.487 166.569 258.487 165.216ZM263.076 169.786C263.873 169.786 264.518 169.534 265.011 169.028C265.504 168.51 265.75 167.713 265.75 166.639C265.75 165.779 265.529 165.096 265.087 164.591C264.657 164.085 264.006 163.832 263.133 163.832C262.539 163.832 262.021 163.958 261.578 164.211C261.136 164.451 260.788 164.761 260.535 165.14C260.295 165.52 260.175 165.912 260.175 166.316C260.175 166.86 260.283 167.403 260.497 167.947C260.712 168.478 261.035 168.92 261.465 169.274C261.894 169.616 262.432 169.786 263.076 169.786ZM269.339 162.163C269.339 161.24 269.56 160.476 270.003 159.869C270.458 159.262 271.16 158.959 272.108 158.959C273.043 158.959 273.745 159.262 274.213 159.869C274.693 160.476 274.933 161.24 274.933 162.163C274.933 163.086 274.706 163.857 274.251 164.477C273.796 165.084 273.081 165.387 272.108 165.387C271.21 165.387 270.521 165.084 270.041 164.477C269.573 163.857 269.339 163.086 269.339 162.163ZM271.691 171L278.935 159.053H280.508L273.265 171H271.691ZM270.743 162.163C270.743 162.745 270.844 163.232 271.046 163.623C271.261 164.015 271.608 164.211 272.089 164.211C272.569 164.211 272.93 164.015 273.17 163.623C273.41 163.232 273.53 162.745 273.53 162.163C273.53 161.594 273.41 161.12 273.17 160.741C272.93 160.349 272.569 160.153 272.089 160.153C271.621 160.153 271.28 160.349 271.065 160.741C270.85 161.12 270.743 161.594 270.743 162.163ZM277.095 168.004C277.095 167.081 277.316 166.316 277.759 165.709C278.214 165.103 278.916 164.799 279.864 164.799C280.799 164.799 281.501 165.103 281.969 165.709C282.449 166.316 282.689 167.081 282.689 168.004C282.689 168.927 282.462 169.698 282.007 170.317C281.551 170.924 280.837 171.228 279.864 171.228C278.966 171.228 278.277 170.924 277.797 170.317C277.329 169.698 277.095 168.927 277.095 168.004ZM278.498 168.004C278.498 168.585 278.6 169.072 278.802 169.464C279.017 169.856 279.364 170.052 279.845 170.052C280.325 170.052 280.685 169.856 280.926 169.464C281.166 169.072 281.286 168.585 281.286 168.004C281.286 167.435 281.166 166.961 280.926 166.582C280.685 166.19 280.325 165.994 279.845 165.994C279.377 165.994 279.036 166.19 278.821 166.582C278.606 166.961 278.498 167.435 278.498 168.004Z" fill="black"/>
<rect x="25.25" y="204.25" width="14.5" height="14.5" fill="#5EBB9C" stroke="black" stroke-width="0.5"/>
<path d="M69.4199 206.769C67.966 206.769 66.8219 207.256 65.9876 208.229C65.1532 209.202 64.736 210.536 64.736 212.23C64.736 213.912 65.1216 215.245 65.8927 216.231C66.6765 217.205 67.8459 217.692 69.4009 217.692C69.9951 217.692 70.5576 217.641 71.0886 217.54C71.6196 217.439 72.1379 217.312 72.6436 217.161V218.64C72.1379 218.829 71.6132 218.968 71.0696 219.057C70.5387 219.145 69.9002 219.19 69.1544 219.19C67.7764 219.19 66.626 218.905 65.7031 218.336C64.7802 217.767 64.0849 216.958 63.6172 215.909C63.1621 214.86 62.9345 213.627 62.9345 212.211C62.9345 210.846 63.181 209.645 63.6741 208.608C64.1798 207.559 64.9193 206.744 65.8927 206.162C66.8662 205.568 68.0482 205.271 69.4388 205.271C70.8674 205.271 72.1126 205.536 73.1745 206.067L72.4919 207.508C72.0747 207.319 71.6069 207.148 71.0886 206.996C70.5829 206.845 70.0267 206.769 69.4199 206.769ZM84.2079 213.899C84.2079 215.58 83.778 216.882 82.9184 217.805C82.0714 218.728 80.9209 219.19 79.4671 219.19C78.5695 219.19 77.7668 218.987 77.0588 218.583C76.3635 218.166 75.8136 217.565 75.409 216.781C75.0045 215.985 74.8022 215.024 74.8022 213.899C74.8022 212.218 75.2257 210.922 76.0727 210.012C76.9198 209.101 78.0702 208.646 79.524 208.646C80.4469 208.646 81.256 208.855 81.9513 209.272C82.6592 209.677 83.2091 210.271 83.601 211.055C84.0056 211.826 84.2079 212.774 84.2079 213.899ZM76.5279 213.899C76.5279 215.1 76.7617 216.054 77.2295 216.762C77.7099 217.458 78.4684 217.805 79.505 217.805C80.529 217.805 81.2812 217.458 81.7616 216.762C82.242 216.054 82.4822 215.1 82.4822 213.899C82.4822 212.698 82.242 211.756 81.7616 211.073C81.2812 210.391 80.5227 210.049 79.4861 210.049C78.4494 210.049 77.6972 210.391 77.2295 211.073C76.7617 211.756 76.5279 212.698 76.5279 213.899ZM88.5213 219H86.8526V204.588H88.5213V219ZM93.4102 219H91.7415V204.588H93.4102V219ZM100.556 208.646C101.428 208.646 102.174 208.836 102.793 209.215C103.425 209.594 103.906 210.132 104.235 210.827C104.576 211.51 104.747 212.312 104.747 213.235V214.24H97.7871C97.8124 215.391 98.1032 216.269 98.6594 216.876C99.2283 217.47 100.018 217.767 101.03 217.767C101.675 217.767 102.243 217.711 102.736 217.597C103.242 217.47 103.76 217.293 104.291 217.066V218.526C103.773 218.753 103.261 218.918 102.755 219.019C102.25 219.133 101.649 219.19 100.954 219.19C99.9931 219.19 99.1398 218.994 98.3939 218.602C97.6607 218.21 97.0855 217.628 96.6683 216.857C96.2638 216.073 96.0615 215.119 96.0615 213.994C96.0615 212.881 96.2448 211.927 96.6114 211.13C96.9907 210.334 97.5153 209.721 98.1853 209.291C98.868 208.861 99.6581 208.646 100.556 208.646ZM100.537 210.012C99.7403 210.012 99.1082 210.271 98.6404 210.789C98.1853 211.295 97.9135 212.003 97.825 212.913H103.002C102.989 212.053 102.787 211.358 102.395 210.827C102.003 210.283 101.384 210.012 100.537 210.012ZM103.229 204.664C103.078 204.892 102.844 205.189 102.528 205.555C102.212 205.909 101.87 206.27 101.504 206.636C101.15 206.99 100.821 207.281 100.518 207.508H99.4179V207.281C99.6076 207.041 99.8098 206.756 100.025 206.428C100.252 206.099 100.474 205.764 100.688 205.423C100.903 205.069 101.08 204.752 101.219 204.474H103.229V204.664ZM110.937 208.646C111.607 208.646 112.208 208.773 112.739 209.025C113.282 209.278 113.744 209.664 114.123 210.182H114.218L114.445 208.836H115.773V219.171C115.773 220.624 115.4 221.718 114.654 222.451C113.921 223.184 112.776 223.551 111.221 223.551C109.73 223.551 108.51 223.336 107.562 222.906V221.37C108.56 221.901 109.812 222.167 111.316 222.167C112.189 222.167 112.871 221.908 113.364 221.389C113.87 220.884 114.123 220.188 114.123 219.303V218.905C114.123 218.753 114.129 218.539 114.142 218.26C114.154 217.97 114.167 217.767 114.18 217.654H114.104C113.421 218.678 112.372 219.19 110.956 219.19C109.641 219.19 108.611 218.728 107.865 217.805C107.132 216.882 106.765 215.593 106.765 213.937C106.765 212.319 107.132 211.036 107.865 210.087C108.611 209.127 109.635 208.646 110.937 208.646ZM111.165 210.049C110.318 210.049 109.66 210.391 109.192 211.073C108.725 211.744 108.491 212.704 108.491 213.956C108.491 215.207 108.718 216.168 109.173 216.838C109.641 217.496 110.318 217.824 111.203 217.824C112.227 217.824 112.972 217.552 113.44 217.009C113.908 216.453 114.142 215.561 114.142 214.335V213.937C114.142 212.546 113.902 211.554 113.421 210.96C112.941 210.353 112.189 210.049 111.165 210.049ZM119.854 205.024C120.107 205.024 120.328 205.113 120.518 205.29C120.72 205.454 120.821 205.72 120.821 206.086C120.821 206.44 120.72 206.706 120.518 206.883C120.328 207.06 120.107 207.148 119.854 207.148C119.576 207.148 119.342 207.06 119.152 206.883C118.963 206.706 118.868 206.44 118.868 206.086C118.868 205.72 118.963 205.454 119.152 205.29C119.342 205.113 119.576 205.024 119.854 205.024ZM120.669 208.836V219H119.001V208.836H120.669ZM127.815 208.646C128.687 208.646 129.433 208.836 130.053 209.215C130.685 209.594 131.165 210.132 131.494 210.827C131.835 211.51 132.006 212.312 132.006 213.235V214.24H125.046C125.072 215.391 125.362 216.269 125.919 216.876C126.488 217.47 127.278 217.767 128.289 217.767C128.934 217.767 129.503 217.711 129.996 217.597C130.501 217.47 131.02 217.293 131.551 217.066V218.526C131.032 218.753 130.52 218.918 130.015 219.019C129.509 219.133 128.908 219.19 128.213 219.19C127.252 219.19 126.399 218.994 125.653 218.602C124.92 218.21 124.345 217.628 123.928 216.857C123.523 216.073 123.321 215.119 123.321 213.994C123.321 212.881 123.504 211.927 123.871 211.13C124.25 210.334 124.775 209.721 125.445 209.291C126.127 208.861 126.917 208.646 127.815 208.646ZM127.796 210.012C127 210.012 126.367 210.271 125.9 210.789C125.445 211.295 125.173 212.003 125.084 212.913H130.261C130.249 212.053 130.046 211.358 129.654 210.827C129.262 210.283 128.643 210.012 127.796 210.012ZM139.486 208.646C140.699 208.646 141.616 208.943 142.235 209.537C142.855 210.119 143.165 211.067 143.165 212.382V219H141.515V212.496C141.515 210.865 140.756 210.049 139.239 210.049C138.114 210.049 137.337 210.366 136.907 210.998C136.477 211.63 136.262 212.54 136.262 213.728V219H134.593V208.836H135.94L136.186 210.22H136.281C136.61 209.689 137.065 209.297 137.646 209.044C138.228 208.779 138.841 208.646 139.486 208.646ZM150.995 209.86C150.995 209.379 151.109 209.044 151.336 208.855C151.564 208.665 151.836 208.57 152.152 208.57C152.48 208.57 152.759 208.665 152.986 208.855C153.226 209.044 153.346 209.379 153.346 209.86C153.346 210.315 153.226 210.644 152.986 210.846C152.759 211.048 152.48 211.149 152.152 211.149C151.836 211.149 151.564 211.048 151.336 210.846C151.109 210.644 150.995 210.315 150.995 209.86ZM150.995 217.976C150.995 217.508 151.109 217.18 151.336 216.99C151.564 216.8 151.836 216.705 152.152 216.705C152.48 216.705 152.759 216.8 152.986 216.99C153.226 217.18 153.346 217.508 153.346 217.976C153.346 218.431 153.226 218.76 152.986 218.962C152.759 219.164 152.48 219.265 152.152 219.265C151.836 219.265 151.564 219.164 151.336 218.962C151.109 218.76 150.995 218.431 150.995 217.976ZM169.49 219H160.54V217.616L164.086 214.032C164.769 213.349 165.344 212.742 165.812 212.211C166.279 211.68 166.633 211.162 166.873 210.656C167.114 210.138 167.234 209.575 167.234 208.969C167.234 208.223 167.013 207.66 166.57 207.281C166.128 206.889 165.552 206.693 164.844 206.693C164.187 206.693 163.606 206.807 163.1 207.034C162.607 207.262 162.101 207.578 161.583 207.983L160.692 206.864C161.223 206.421 161.829 206.048 162.512 205.745C163.207 205.429 163.985 205.271 164.844 205.271C166.109 205.271 167.107 205.593 167.841 206.238C168.574 206.87 168.94 207.749 168.94 208.874C168.94 209.582 168.795 210.245 168.504 210.865C168.214 211.484 167.809 212.097 167.291 212.704C166.772 213.298 166.166 213.937 165.47 214.62L162.645 217.407V217.483H169.49V219ZM173.098 219.265C172.681 219.265 172.365 219.158 172.15 218.943C171.948 218.728 171.847 218.431 171.847 218.052C171.847 217.546 171.986 217.154 172.264 216.876C172.542 216.598 172.896 216.459 173.326 216.459C173.693 216.459 173.99 216.579 174.217 216.819C174.445 217.047 174.559 217.376 174.559 217.805C174.559 218.197 174.426 218.539 174.16 218.829C173.895 219.12 173.541 219.265 173.098 219.265ZM185.787 219H176.836V217.616L180.382 214.032C181.065 213.349 181.64 212.742 182.108 212.211C182.576 211.68 182.93 211.162 183.17 210.656C183.41 210.138 183.53 209.575 183.53 208.969C183.53 208.223 183.309 207.66 182.866 207.281C182.424 206.889 181.849 206.693 181.141 206.693C180.483 206.693 179.902 206.807 179.396 207.034C178.903 207.262 178.397 207.578 177.879 207.983L176.988 206.864C177.519 206.421 178.126 206.048 178.808 205.745C179.504 205.429 180.281 205.271 181.141 205.271C182.405 205.271 183.404 205.593 184.137 206.238C184.87 206.87 185.237 207.749 185.237 208.874C185.237 209.582 185.091 210.245 184.801 210.865C184.51 211.484 184.105 212.097 183.587 212.704C183.069 213.298 182.462 213.937 181.767 214.62L178.941 217.407V217.483H185.787V219ZM187.821 210.163C187.821 209.24 188.042 208.476 188.484 207.869C188.94 207.262 189.641 206.959 190.589 206.959C191.525 206.959 192.226 207.262 192.694 207.869C193.175 208.476 193.415 209.24 193.415 210.163C193.415 211.086 193.187 211.857 192.732 212.477C192.277 213.084 191.563 213.387 190.589 213.387C189.692 213.387 189.003 213.084 188.522 212.477C188.055 211.857 187.821 211.086 187.821 210.163ZM190.172 219L197.416 207.053H198.99L191.746 219H190.172ZM189.224 210.163C189.224 210.745 189.325 211.232 189.527 211.623C189.742 212.015 190.09 212.211 190.57 212.211C191.051 212.211 191.411 212.015 191.651 211.623C191.891 211.232 192.012 210.745 192.012 210.163C192.012 209.594 191.891 209.12 191.651 208.741C191.411 208.349 191.051 208.153 190.57 208.153C190.103 208.153 189.761 208.349 189.546 208.741C189.331 209.12 189.224 209.594 189.224 210.163ZM195.577 216.004C195.577 215.081 195.798 214.316 196.24 213.709C196.695 213.103 197.397 212.799 198.345 212.799C199.281 212.799 199.982 213.103 200.45 213.709C200.93 214.316 201.171 215.081 201.171 216.004C201.171 216.927 200.943 217.698 200.488 218.317C200.033 218.924 199.319 219.228 198.345 219.228C197.448 219.228 196.759 218.924 196.278 218.317C195.81 217.698 195.577 216.927 195.577 216.004ZM196.98 216.004C196.98 216.585 197.081 217.072 197.283 217.464C197.498 217.856 197.846 218.052 198.326 218.052C198.807 218.052 199.167 217.856 199.407 217.464C199.647 217.072 199.767 216.585 199.767 216.004C199.767 215.435 199.647 214.961 199.407 214.582C199.167 214.19 198.807 213.994 198.326 213.994C197.858 213.994 197.517 214.19 197.302 214.582C197.087 214.961 196.98 215.435 196.98 216.004Z" fill="black"/>
<rect x="25.25" y="252.25" width="14.5" height="14.5" fill="#822082" stroke="black" stroke-width="0.5"/>
<path d="M68.2995 254.769C66.8457 254.769 65.7016 255.256 64.8672 256.229C64.0328 257.202 63.6156 258.536 63.6156 260.23C63.6156 261.912 64.0012 263.245 64.7724 264.231C65.5562 265.205 66.7256 265.692 68.2805 265.692C68.8747 265.692 69.4373 265.641 69.9682 265.54C70.4992 265.439 71.0175 265.312 71.5232 265.161V266.64C71.0175 266.829 70.4929 266.968 69.9493 267.057C69.4183 267.145 68.7799 267.19 68.034 267.19C66.656 267.19 65.5056 266.905 64.5827 266.336C63.6599 265.767 62.9646 264.958 62.4968 263.909C62.0417 262.86 61.8142 261.627 61.8142 260.211C61.8142 258.846 62.0607 257.645 62.5537 256.608C63.0594 255.559 63.7989 254.744 64.7724 254.162C65.7458 253.568 66.9278 253.271 68.3184 253.271C69.747 253.271 70.9922 253.536 72.0542 254.067L71.3715 255.508C70.9543 255.319 70.4865 255.148 69.9682 254.996C69.4625 254.845 68.9063 254.769 68.2995 254.769ZM75.9195 256.817C75.9195 257.323 75.8879 257.797 75.8247 258.239H75.9384C76.2671 257.721 76.7096 257.329 77.2659 257.063C77.8347 256.798 78.4479 256.665 79.1053 256.665C80.3442 256.665 81.2734 256.962 81.8928 257.556C82.5123 258.138 82.822 259.08 82.822 260.382V267H81.1722V260.496C81.1722 258.865 80.4137 258.049 78.8967 258.049C77.7589 258.049 76.9751 258.372 76.5453 259.017C76.1281 259.649 75.9195 260.559 75.9195 261.747V267H74.2507V252.588H75.9195V256.817ZM94.8097 261.899C94.8097 263.58 94.3799 264.882 93.5202 265.805C92.6732 266.728 91.5228 267.19 90.069 267.19C89.1714 267.19 88.3686 266.987 87.6607 266.583C86.9654 266.166 86.4154 265.565 86.0109 264.781C85.6063 263.985 85.4041 263.024 85.4041 261.899C85.4041 260.218 85.8276 258.922 86.6746 258.012C87.5216 257.101 88.672 256.646 90.1259 256.646C91.0487 256.646 91.8578 256.855 92.5531 257.272C93.2611 257.677 93.811 258.271 94.2029 259.055C94.6074 259.826 94.8097 260.774 94.8097 261.899ZM87.1297 261.899C87.1297 263.1 87.3636 264.054 87.8313 264.762C88.3117 265.458 89.0703 265.805 90.1069 265.805C91.1309 265.805 91.8831 265.458 92.3635 264.762C92.8439 264.054 93.0841 263.1 93.0841 261.899C93.0841 260.698 92.8439 259.756 92.3635 259.073C91.8831 258.391 91.1246 258.049 90.0879 258.049C89.0513 258.049 88.2991 258.391 87.8313 259.073C87.3636 259.756 87.1297 260.698 87.1297 261.899ZM90.9413 252.474C91.093 252.752 91.3079 253.069 91.586 253.423C91.8768 253.764 92.1739 254.105 92.4773 254.447C92.7933 254.775 93.0714 255.06 93.3116 255.3V255.508H92.1359C91.8072 255.306 91.4659 255.06 91.1119 254.769C90.758 254.465 90.4103 254.143 90.069 253.802C89.7276 254.143 89.3863 254.459 89.045 254.75C88.7036 255.041 88.3686 255.294 88.0399 255.508H86.9022V255.3C87.1423 255.047 87.4078 254.756 87.6986 254.428C88.002 254.099 88.2928 253.764 88.5709 253.423C88.849 253.069 89.0703 252.752 89.2346 252.474H90.9413ZM108.605 256.646C109.755 256.646 110.615 256.943 111.184 257.537C111.753 258.119 112.037 259.067 112.037 260.382V267H110.387V260.458C110.387 258.852 109.698 258.049 108.32 258.049C107.334 258.049 106.626 258.334 106.196 258.903C105.779 259.472 105.571 260.3 105.571 261.387V267H103.921V260.458C103.921 258.852 103.226 258.049 101.835 258.049C100.811 258.049 100.103 258.366 99.711 258.998C99.3191 259.63 99.1232 260.54 99.1232 261.728V267H97.4544V256.836H98.8008L99.0473 258.22H99.1421C99.4582 257.689 99.8817 257.297 100.413 257.044C100.956 256.779 101.531 256.646 102.138 256.646C103.731 256.646 104.768 257.215 105.248 258.353H105.343C105.684 257.771 106.146 257.342 106.727 257.063C107.322 256.785 107.947 256.646 108.605 256.646ZM119.102 256.646C119.974 256.646 120.72 256.836 121.34 257.215C121.972 257.594 122.452 258.132 122.781 258.827C123.122 259.51 123.293 260.312 123.293 261.235V262.24H116.333C116.359 263.391 116.649 264.269 117.206 264.876C117.775 265.47 118.565 265.767 119.576 265.767C120.221 265.767 120.79 265.711 121.283 265.597C121.788 265.47 122.307 265.293 122.838 265.066V266.526C122.319 266.753 121.807 266.918 121.302 267.019C120.796 267.133 120.196 267.19 119.5 267.19C118.539 267.19 117.686 266.994 116.94 266.602C116.207 266.21 115.632 265.628 115.215 264.857C114.81 264.073 114.608 263.119 114.608 261.994C114.608 260.881 114.791 259.927 115.158 259.13C115.537 258.334 116.062 257.721 116.732 257.291C117.414 256.861 118.204 256.646 119.102 256.646ZM119.083 258.012C118.287 258.012 117.654 258.271 117.187 258.789C116.732 259.295 116.46 260.003 116.371 260.913H121.548C121.536 260.053 121.333 259.358 120.941 258.827C120.55 258.283 119.93 258.012 119.083 258.012ZM134.376 256.836V267H133.01L132.764 265.654H132.688C132.359 266.185 131.904 266.576 131.323 266.829C130.741 267.07 130.122 267.19 129.464 267.19C128.238 267.19 127.315 266.899 126.696 266.317C126.076 265.723 125.767 264.781 125.767 263.492V256.836H127.454V263.378C127.454 264.996 128.206 265.805 129.711 265.805C130.836 265.805 131.614 265.489 132.043 264.857C132.486 264.225 132.707 263.315 132.707 262.127V256.836H134.376ZM142.343 256.646C142.533 256.646 142.735 256.659 142.95 256.684C143.178 256.697 143.374 256.722 143.538 256.76L143.329 258.296C143.165 258.258 142.982 258.226 142.779 258.201C142.59 258.176 142.407 258.163 142.23 258.163C141.711 258.163 141.225 258.309 140.769 258.599C140.314 258.878 139.948 259.276 139.67 259.794C139.404 260.3 139.271 260.894 139.271 261.577V267H137.603V256.836H138.968L139.158 258.694H139.233C139.562 258.138 139.986 257.658 140.504 257.253C141.022 256.848 141.635 256.646 142.343 256.646ZM150.115 257.86C150.115 257.379 150.229 257.044 150.457 256.855C150.684 256.665 150.956 256.57 151.272 256.57C151.601 256.57 151.879 256.665 152.106 256.855C152.347 257.044 152.467 257.379 152.467 257.86C152.467 258.315 152.347 258.644 152.106 258.846C151.879 259.048 151.601 259.149 151.272 259.149C150.956 259.149 150.684 259.048 150.457 258.846C150.229 258.644 150.115 258.315 150.115 257.86ZM150.115 265.976C150.115 265.508 150.229 265.18 150.457 264.99C150.684 264.8 150.956 264.705 151.272 264.705C151.601 264.705 151.879 264.8 152.106 264.99C152.347 265.18 152.467 265.508 152.467 265.976C152.467 266.431 152.347 266.76 152.106 266.962C151.879 267.164 151.601 267.265 151.272 267.265C150.956 267.265 150.684 267.164 150.457 266.962C150.229 266.76 150.115 266.431 150.115 265.976ZM165.482 267H163.851V257.537C163.851 256.994 163.857 256.558 163.87 256.229C163.883 255.9 163.902 255.559 163.927 255.205C163.725 255.407 163.541 255.578 163.377 255.717C163.213 255.856 163.004 256.033 162.751 256.248L161.31 257.424L160.438 256.305L164.098 253.46H165.482V267ZM172.219 267.265C171.802 267.265 171.486 267.158 171.271 266.943C171.068 266.728 170.967 266.431 170.967 266.052C170.967 265.546 171.106 265.154 171.384 264.876C171.662 264.598 172.016 264.459 172.446 264.459C172.813 264.459 173.11 264.579 173.338 264.819C173.565 265.047 173.679 265.376 173.679 265.805C173.679 266.197 173.546 266.539 173.281 266.829C173.015 267.12 172.661 267.265 172.219 267.265ZM184.907 259.244C184.907 260.218 184.819 261.178 184.642 262.127C184.477 263.062 184.167 263.915 183.712 264.687C183.27 265.445 182.638 266.052 181.816 266.507C181.007 266.962 179.964 267.19 178.687 267.19C178.434 267.19 178.137 267.171 177.796 267.133C177.467 267.107 177.195 267.063 176.981 267V265.578C177.474 265.742 178.03 265.824 178.649 265.824C179.534 265.824 180.261 265.679 180.83 265.388C181.412 265.097 181.873 264.705 182.214 264.212C182.556 263.707 182.802 263.125 182.954 262.468C183.106 261.798 183.194 261.096 183.219 260.363H183.106C182.827 260.793 182.423 261.166 181.892 261.482C181.374 261.785 180.704 261.937 179.882 261.937C178.719 261.937 177.777 261.583 177.056 260.875C176.348 260.154 175.994 259.143 175.994 257.841C175.994 256.893 176.171 256.077 176.525 255.395C176.892 254.712 177.398 254.187 178.042 253.821C178.687 253.454 179.446 253.271 180.318 253.271C181.178 253.271 181.955 253.492 182.65 253.935C183.346 254.364 183.896 255.022 184.3 255.907C184.705 256.779 184.907 257.891 184.907 259.244ZM180.318 254.674C179.534 254.674 178.889 254.933 178.384 255.452C177.891 255.97 177.644 256.76 177.644 257.822C177.644 258.694 177.853 259.383 178.27 259.889C178.7 260.382 179.357 260.628 180.242 260.628C180.849 260.628 181.374 260.508 181.816 260.268C182.259 260.015 182.6 259.699 182.84 259.32C183.093 258.941 183.219 258.549 183.219 258.144C183.219 257.601 183.112 257.063 182.897 256.532C182.682 256.001 182.36 255.559 181.93 255.205C181.5 254.851 180.963 254.674 180.318 254.674ZM186.941 258.163C186.941 257.24 187.162 256.476 187.605 255.869C188.06 255.262 188.762 254.959 189.71 254.959C190.645 254.959 191.347 255.262 191.815 255.869C192.295 256.476 192.535 257.24 192.535 258.163C192.535 259.086 192.308 259.857 191.853 260.477C191.397 261.084 190.683 261.387 189.71 261.387C188.812 261.387 188.123 261.084 187.643 260.477C187.175 259.857 186.941 259.086 186.941 258.163ZM189.293 267L196.536 255.053H198.11L190.866 267H189.293ZM188.344 258.163C188.344 258.745 188.446 259.232 188.648 259.623C188.863 260.015 189.21 260.211 189.691 260.211C190.171 260.211 190.531 260.015 190.772 259.623C191.012 259.232 191.132 258.745 191.132 258.163C191.132 257.594 191.012 257.12 190.772 256.741C190.531 256.349 190.171 256.153 189.691 256.153C189.223 256.153 188.882 256.349 188.667 256.741C188.452 257.12 188.344 257.594 188.344 258.163ZM194.697 264.004C194.697 263.081 194.918 262.316 195.361 261.709C195.816 261.103 196.517 260.799 197.466 260.799C198.401 260.799 199.103 261.103 199.57 261.709C200.051 262.316 200.291 263.081 200.291 264.004C200.291 264.927 200.063 265.698 199.608 266.317C199.153 266.924 198.439 267.228 197.466 267.228C196.568 267.228 195.879 266.924 195.399 266.317C194.931 265.698 194.697 264.927 194.697 264.004ZM196.1 264.004C196.1 264.585 196.201 265.072 196.404 265.464C196.619 265.856 196.966 266.052 197.447 266.052C197.927 266.052 198.287 265.856 198.527 265.464C198.768 265.072 198.888 264.585 198.888 264.004C198.888 263.435 198.768 262.961 198.527 262.582C198.287 262.19 197.927 261.994 197.447 261.994C196.979 261.994 196.638 262.19 196.423 262.582C196.208 262.961 196.1 263.435 196.1 264.004Z" fill="black"/>
<rect x="25.25" y="300.25" width="14.5" height="14.5" fill="#F7B498" stroke="black" stroke-width="0.5"/>
<path d="M70.9241 315H63.3579V301.46H70.9241V302.959H65.0646V307.187H70.5828V308.666H65.0646V313.502H70.9241V315ZM84.8176 304.646C85.968 304.646 86.8277 304.943 87.3966 305.537C87.9655 306.119 88.2499 307.067 88.2499 308.382V315H86.6001V308.458C86.6001 306.852 85.9112 306.049 84.5332 306.049C83.5471 306.049 82.8392 306.334 82.4093 306.903C81.9921 307.472 81.7836 308.3 81.7836 309.387V315H80.1338V308.458C80.1338 306.852 79.4385 306.049 78.0479 306.049C77.0239 306.049 76.3159 306.366 75.924 306.998C75.5321 307.63 75.3361 308.54 75.3361 309.728V315H73.6674V304.836H75.0138L75.2603 306.22H75.3551C75.6712 305.689 76.0947 305.297 76.6256 305.044C77.1692 304.779 77.7444 304.646 78.3513 304.646C79.9441 304.646 80.9808 305.215 81.4612 306.353H81.556C81.8973 305.771 82.3588 305.342 82.9403 305.063C83.5345 304.785 84.1602 304.646 84.8176 304.646ZM96.2252 304.646C97.4767 304.646 98.4818 305.082 99.2403 305.955C100.011 306.827 100.397 308.142 100.397 309.899C100.397 311.631 100.011 312.946 99.2403 313.843C98.4818 314.741 97.4704 315.19 96.2062 315.19C95.4224 315.19 94.7714 315.044 94.253 314.753C93.7474 314.45 93.3491 314.102 93.0584 313.711H92.9446C92.9699 313.925 92.9952 314.197 93.0204 314.526C93.0457 314.855 93.0584 315.139 93.0584 315.379V319.551H91.3896V304.836H92.755L92.9825 306.22H93.0584C93.3618 305.778 93.76 305.405 94.253 305.101C94.7461 304.798 95.4035 304.646 96.2252 304.646ZM95.9218 306.049C94.8851 306.049 94.1519 306.34 93.7221 306.922C93.3049 307.503 93.0837 308.388 93.0584 309.577V309.899C93.0584 311.151 93.2606 312.118 93.6652 312.8C94.0824 313.47 94.8472 313.805 95.9597 313.805C96.5792 313.805 97.0848 313.635 97.4767 313.293C97.8813 312.952 98.1784 312.491 98.368 311.909C98.5703 311.315 98.6714 310.639 98.6714 309.88C98.6714 308.717 98.4439 307.788 97.9887 307.092C97.5463 306.397 96.8573 306.049 95.9218 306.049ZM104.725 315H103.056V300.588H104.725V315ZM116.782 309.899C116.782 311.58 116.352 312.882 115.492 313.805C114.645 314.728 113.495 315.19 112.041 315.19C111.144 315.19 110.341 314.987 109.633 314.583C108.938 314.166 108.388 313.565 107.983 312.781C107.579 311.985 107.376 311.024 107.376 309.899C107.376 308.218 107.8 306.922 108.647 306.012C109.494 305.101 110.644 304.646 112.098 304.646C113.021 304.646 113.83 304.855 114.525 305.272C115.233 305.677 115.783 306.271 116.175 307.055C116.58 307.826 116.782 308.774 116.782 309.899ZM109.102 309.899C109.102 311.1 109.336 312.054 109.804 312.762C110.284 313.458 111.042 313.805 112.079 313.805C113.103 313.805 113.855 313.458 114.336 312.762C114.816 312.054 115.056 311.1 115.056 309.899C115.056 308.698 114.816 307.756 114.336 307.073C113.855 306.391 113.097 306.049 112.06 306.049C111.024 306.049 110.271 306.391 109.804 307.073C109.336 307.756 109.102 308.698 109.102 309.899ZM117.463 304.836H119.246L121.446 310.62C121.635 311.125 121.806 311.612 121.958 312.08C122.109 312.535 122.223 312.971 122.299 313.388H122.375C122.451 313.072 122.571 312.661 122.735 312.156C122.899 311.637 123.07 311.119 123.247 310.601L125.314 304.836H127.116L122.735 316.403C122.381 317.364 121.92 318.129 121.351 318.698C120.795 319.267 120.023 319.551 119.037 319.551C118.734 319.551 118.468 319.532 118.241 319.494C118.013 319.469 117.817 319.437 117.653 319.399V318.072C117.792 318.097 117.956 318.123 118.146 318.148C118.348 318.173 118.557 318.186 118.772 318.186C119.353 318.186 119.821 318.021 120.175 317.693C120.542 317.364 120.826 316.928 121.028 316.384L121.559 315.038L117.463 304.836ZM132.648 304.646C133.521 304.646 134.266 304.836 134.886 305.215C135.518 305.594 135.998 306.132 136.327 306.827C136.668 307.51 136.839 308.312 136.839 309.235V310.24H129.88C129.905 311.391 130.196 312.269 130.752 312.876C131.321 313.47 132.111 313.767 133.122 313.767C133.767 313.767 134.336 313.711 134.829 313.597C135.335 313.47 135.853 313.293 136.384 313.066V314.526C135.866 314.753 135.354 314.918 134.848 315.019C134.342 315.133 133.742 315.19 133.047 315.19C132.086 315.19 131.232 314.994 130.487 314.602C129.753 314.21 129.178 313.628 128.761 312.857C128.356 312.073 128.154 311.119 128.154 309.994C128.154 308.881 128.337 307.927 128.704 307.13C129.083 306.334 129.608 305.721 130.278 305.291C130.961 304.861 131.751 304.646 132.648 304.646ZM132.629 306.012C131.833 306.012 131.201 306.271 130.733 306.789C130.278 307.295 130.006 308.003 129.918 308.913H135.095C135.082 308.053 134.88 307.358 134.488 306.827C134.096 306.283 133.476 306.012 132.629 306.012ZM135.322 300.664C135.17 300.892 134.936 301.189 134.62 301.555C134.304 301.909 133.963 302.27 133.596 302.636C133.242 302.99 132.914 303.281 132.61 303.508H131.511V303.281C131.7 303.041 131.902 302.756 132.117 302.428C132.345 302.099 132.566 301.764 132.781 301.423C132.996 301.069 133.173 300.752 133.312 300.474H135.322V300.664ZM146.045 312.193C146.045 313.18 145.678 313.925 144.945 314.431C144.212 314.937 143.226 315.19 141.987 315.19C141.279 315.19 140.666 315.133 140.147 315.019C139.642 314.905 139.193 314.747 138.801 314.545V313.028C139.205 313.23 139.692 313.42 140.261 313.597C140.843 313.761 141.43 313.843 142.025 313.843C142.872 313.843 143.485 313.711 143.864 313.445C144.243 313.167 144.433 312.8 144.433 312.345C144.433 312.092 144.363 311.865 144.224 311.663C144.085 311.46 143.832 311.258 143.466 311.056C143.112 310.853 142.6 310.626 141.93 310.373C141.272 310.12 140.71 309.867 140.242 309.615C139.774 309.362 139.414 309.058 139.161 308.704C138.908 308.35 138.782 307.895 138.782 307.339C138.782 306.479 139.13 305.816 139.825 305.348C140.533 304.88 141.456 304.646 142.593 304.646C143.213 304.646 143.788 304.709 144.319 304.836C144.863 304.95 145.368 305.114 145.836 305.329L145.267 306.656C144.837 306.479 144.389 306.328 143.921 306.201C143.453 306.075 142.973 306.012 142.48 306.012C141.797 306.012 141.272 306.125 140.906 306.353C140.552 306.568 140.375 306.865 140.375 307.244C140.375 307.522 140.457 307.762 140.621 307.965C140.786 308.154 141.057 308.344 141.437 308.534C141.829 308.711 142.347 308.926 142.992 309.178C143.636 309.419 144.186 309.665 144.641 309.918C145.097 310.171 145.444 310.48 145.684 310.847C145.925 311.201 146.045 311.65 146.045 312.193ZM148.254 305.86C148.254 305.379 148.368 305.044 148.596 304.855C148.823 304.665 149.095 304.57 149.411 304.57C149.74 304.57 150.018 304.665 150.245 304.855C150.486 305.044 150.606 305.379 150.606 305.86C150.606 306.315 150.486 306.644 150.245 306.846C150.018 307.048 149.74 307.149 149.411 307.149C149.095 307.149 148.823 307.048 148.596 306.846C148.368 306.644 148.254 306.315 148.254 305.86ZM148.254 313.976C148.254 313.508 148.368 313.18 148.596 312.99C148.823 312.8 149.095 312.705 149.411 312.705C149.74 312.705 150.018 312.8 150.245 312.99C150.486 313.18 150.606 313.508 150.606 313.976C150.606 314.431 150.486 314.76 150.245 314.962C150.018 315.164 149.74 315.265 149.411 315.265C149.095 315.265 148.823 315.164 148.596 314.962C148.368 314.76 148.254 314.431 148.254 313.976ZM163.621 315H161.99V305.537C161.99 304.994 161.996 304.558 162.009 304.229C162.022 303.9 162.04 303.559 162.066 303.205C161.864 303.407 161.68 303.578 161.516 303.717C161.352 303.856 161.143 304.033 160.89 304.248L159.449 305.424L158.577 304.305L162.236 301.46H163.621V315ZM170.358 315.265C169.94 315.265 169.624 315.158 169.409 314.943C169.207 314.728 169.106 314.431 169.106 314.052C169.106 313.546 169.245 313.154 169.523 312.876C169.801 312.598 170.155 312.459 170.585 312.459C170.952 312.459 171.249 312.579 171.476 312.819C171.704 313.047 171.818 313.376 171.818 313.805C171.818 314.197 171.685 314.539 171.42 314.829C171.154 315.12 170.8 315.265 170.358 315.265ZM182.534 304.627C182.534 305.537 182.281 306.264 181.775 306.808C181.27 307.339 180.587 307.693 179.727 307.87V307.946C180.815 308.072 181.624 308.414 182.155 308.97C182.686 309.526 182.951 310.253 182.951 311.151C182.951 311.934 182.768 312.636 182.401 313.255C182.035 313.862 181.466 314.336 180.695 314.678C179.936 315.019 178.956 315.19 177.755 315.19C177.047 315.19 176.39 315.133 175.783 315.019C175.176 314.918 174.595 314.728 174.039 314.45V312.895C174.607 313.173 175.221 313.394 175.878 313.559C176.535 313.711 177.167 313.786 177.774 313.786C178.988 313.786 179.86 313.552 180.391 313.085C180.935 312.604 181.207 311.947 181.207 311.113C181.207 310.266 180.872 309.659 180.201 309.292C179.544 308.913 178.615 308.723 177.414 308.723H176.105V307.301H177.433C178.545 307.301 179.386 307.067 179.955 306.599C180.536 306.132 180.827 305.512 180.827 304.741C180.827 304.084 180.606 303.578 180.164 303.224C179.721 302.857 179.121 302.674 178.362 302.674C177.629 302.674 177.003 302.782 176.485 302.996C175.966 303.211 175.454 303.483 174.949 303.812L174.114 302.674C174.595 302.295 175.189 301.966 175.897 301.688C176.617 301.41 177.433 301.271 178.343 301.271C179.759 301.271 180.808 301.587 181.491 302.219C182.186 302.851 182.534 303.654 182.534 304.627ZM185.08 306.163C185.08 305.24 185.301 304.476 185.744 303.869C186.199 303.262 186.9 302.959 187.849 302.959C188.784 302.959 189.486 303.262 189.953 303.869C190.434 304.476 190.674 305.24 190.674 306.163C190.674 307.086 190.447 307.857 189.991 308.477C189.536 309.084 188.822 309.387 187.849 309.387C186.951 309.387 186.262 309.084 185.782 308.477C185.314 307.857 185.08 307.086 185.08 306.163ZM187.431 315L194.675 303.053H196.249L189.005 315H187.431ZM186.483 306.163C186.483 306.745 186.584 307.232 186.787 307.623C187.002 308.015 187.349 308.211 187.83 308.211C188.31 308.211 188.67 308.015 188.911 307.623C189.151 307.232 189.271 306.745 189.271 306.163C189.271 305.594 189.151 305.12 188.911 304.741C188.67 304.349 188.31 304.153 187.83 304.153C187.362 304.153 187.021 304.349 186.806 304.741C186.591 305.12 186.483 305.594 186.483 306.163ZM192.836 312.004C192.836 311.081 193.057 310.316 193.5 309.709C193.955 309.103 194.656 308.799 195.604 308.799C196.54 308.799 197.242 309.103 197.709 309.709C198.19 310.316 198.43 311.081 198.43 312.004C198.43 312.927 198.202 313.698 197.747 314.317C197.292 314.924 196.578 315.228 195.604 315.228C194.707 315.228 194.018 314.924 193.537 314.317C193.07 313.698 192.836 312.927 192.836 312.004ZM194.239 312.004C194.239 312.585 194.34 313.072 194.543 313.464C194.757 313.856 195.105 314.052 195.585 314.052C196.066 314.052 196.426 313.856 196.666 313.464C196.907 313.072 197.027 312.585 197.027 312.004C197.027 311.435 196.907 310.961 196.666 310.582C196.426 310.19 196.066 309.994 195.585 309.994C195.118 309.994 194.776 310.19 194.561 310.582C194.347 310.961 194.239 311.435 194.239 312.004Z" fill="black"/>
<rect x="25.25" y="348.25" width="14.5" height="14.5" fill="#A0D3C8" stroke="black" stroke-width="0.5"/>
<path d="M73.5196 356.097C73.5196 358.386 72.8938 360.111 71.6422 361.274C70.4033 362.425 68.6714 363 66.4464 363H62.6727V349.46H66.8446C68.2099 349.46 69.3919 349.713 70.3907 350.219C71.3894 350.725 72.1605 351.471 72.7041 352.457C73.2477 353.43 73.5196 354.644 73.5196 356.097ZM71.7181 356.154C71.7181 354.347 71.2693 353.025 70.3717 352.191C69.4868 351.344 68.2289 350.921 66.5981 350.921H64.3794V361.54H66.2188C69.885 361.54 71.7181 359.745 71.7181 356.154ZM80.2224 352.646C81.0947 352.646 81.8405 352.836 82.46 353.215C83.0921 353.594 83.5725 354.132 83.9012 354.827C84.2425 355.51 84.4132 356.312 84.4132 357.235V358.24H77.4538C77.4791 359.391 77.7698 360.269 78.3261 360.876C78.895 361.47 79.6851 361.767 80.6964 361.767C81.3412 361.767 81.9101 361.711 82.4031 361.597C82.9088 361.47 83.4271 361.293 83.9581 361.066V362.526C83.4397 362.753 82.9277 362.918 82.4221 363.019C81.9164 363.133 81.3159 363.19 80.6206 363.19C79.6598 363.19 78.8065 362.994 78.0606 362.602C77.3274 362.21 76.7521 361.628 76.335 360.857C75.9304 360.073 75.7281 359.119 75.7281 357.994C75.7281 356.881 75.9115 355.927 76.2781 355.13C76.6573 354.334 77.182 353.721 77.852 353.291C78.5347 352.861 79.3248 352.646 80.2224 352.646ZM80.2034 354.012C79.407 354.012 78.7749 354.271 78.3071 354.789C77.852 355.295 77.5802 356.003 77.4917 356.913H82.6686C82.6559 356.053 82.4537 355.358 82.0618 354.827C81.6699 354.283 81.0504 354.012 80.2034 354.012ZM98.151 352.646C99.3014 352.646 100.161 352.943 100.73 353.537C101.299 354.119 101.583 355.067 101.583 356.382V363H99.9335V356.458C99.9335 354.852 99.2445 354.049 97.8665 354.049C96.8804 354.049 96.1725 354.334 95.7427 354.903C95.3255 355.472 95.1169 356.3 95.1169 357.387V363H93.4671V356.458C93.4671 354.852 92.7718 354.049 91.3812 354.049C90.3572 354.049 89.6492 354.366 89.2573 354.998C88.8654 355.63 88.6695 356.54 88.6695 357.728V363H87.0007V352.836H88.3471L88.5936 354.22H88.6884C89.0045 353.689 89.428 353.297 89.959 353.044C90.5026 352.779 91.0778 352.646 91.6846 352.646C93.2775 352.646 94.3141 353.215 94.7945 354.353H94.8893C95.2307 353.771 95.6921 353.342 96.2736 353.063C96.8678 352.785 97.4936 352.646 98.151 352.646ZM108.572 352.665C109.811 352.665 110.728 352.937 111.322 353.481C111.916 354.024 112.213 354.89 112.213 356.079V363H111L110.677 361.559H110.601C110.159 362.115 109.691 362.526 109.198 362.791C108.718 363.057 108.048 363.19 107.188 363.19C106.265 363.19 105.5 362.949 104.894 362.469C104.287 361.976 103.983 361.211 103.983 360.175C103.983 359.163 104.382 358.386 105.178 357.842C105.975 357.286 107.201 356.982 108.857 356.932L110.583 356.875V356.268C110.583 355.421 110.399 354.833 110.033 354.505C109.666 354.176 109.148 354.012 108.478 354.012C107.947 354.012 107.441 354.094 106.961 354.258C106.48 354.41 106.031 354.587 105.614 354.789L105.102 353.537C105.545 353.297 106.069 353.095 106.676 352.931C107.283 352.754 107.915 352.665 108.572 352.665ZM109.065 358.089C107.801 358.139 106.923 358.341 106.43 358.695C105.949 359.049 105.709 359.549 105.709 360.193C105.709 360.762 105.88 361.18 106.221 361.445C106.575 361.711 107.024 361.843 107.567 361.843C108.427 361.843 109.141 361.609 109.71 361.142C110.279 360.661 110.564 359.928 110.564 358.942V358.032L109.065 358.089ZM120.245 352.646C121.459 352.646 122.375 352.943 122.995 353.537C123.614 354.119 123.924 355.067 123.924 356.382V363H122.274V356.496C122.274 354.865 121.516 354.049 119.999 354.049C118.873 354.049 118.096 354.366 117.666 354.998C117.236 355.63 117.021 356.54 117.021 357.728V363H115.353V352.836H116.699L116.945 354.22H117.04C117.369 353.689 117.824 353.297 118.406 353.044C118.987 352.779 119.6 352.646 120.245 352.646ZM130.678 363.19C129.414 363.19 128.402 362.753 127.644 361.881C126.885 360.996 126.506 359.681 126.506 357.937C126.506 356.192 126.885 354.878 127.644 353.993C128.415 353.095 129.433 352.646 130.697 352.646C131.481 352.646 132.119 352.792 132.612 353.082C133.118 353.373 133.529 353.727 133.845 354.144H133.958C133.946 353.98 133.92 353.74 133.883 353.424C133.857 353.095 133.845 352.836 133.845 352.646V348.588H135.513V363H134.167L133.92 361.635H133.845C133.541 362.064 133.137 362.431 132.631 362.735C132.125 363.038 131.474 363.19 130.678 363.19ZM130.943 361.805C132.018 361.805 132.77 361.515 133.2 360.933C133.642 360.339 133.864 359.448 133.864 358.259V357.956C133.864 356.692 133.655 355.725 133.238 355.055C132.821 354.372 132.049 354.031 130.924 354.031C130.027 354.031 129.35 354.391 128.895 355.111C128.453 355.819 128.232 356.774 128.232 357.975C128.232 359.188 128.453 360.13 128.895 360.8C129.35 361.47 130.033 361.805 130.943 361.805ZM142.667 352.646C143.539 352.646 144.285 352.836 144.904 353.215C145.537 353.594 146.017 354.132 146.346 354.827C146.687 355.51 146.858 356.312 146.858 357.235V358.24H139.898C139.924 359.391 140.214 360.269 140.771 360.876C141.339 361.47 142.13 361.767 143.141 361.767C143.786 361.767 144.355 361.711 144.848 361.597C145.353 361.47 145.872 361.293 146.403 361.066V362.526C145.884 362.753 145.372 362.918 144.867 363.019C144.361 363.133 143.76 363.19 143.065 363.19C142.104 363.19 141.251 362.994 140.505 362.602C139.772 362.21 139.197 361.628 138.779 360.857C138.375 360.073 138.173 359.119 138.173 357.994C138.173 356.881 138.356 355.927 138.723 355.13C139.102 354.334 139.626 353.721 140.296 353.291C140.979 352.861 141.769 352.646 142.667 352.646ZM142.648 354.012C141.851 354.012 141.219 354.271 140.752 354.789C140.296 355.295 140.025 356.003 139.936 356.913H145.113C145.1 356.053 144.898 355.358 144.506 354.827C144.114 354.283 143.495 354.012 142.648 354.012ZM157.941 352.836V363H156.575L156.329 361.654H156.253C155.924 362.185 155.469 362.576 154.888 362.829C154.306 363.07 153.687 363.19 153.029 363.19C151.803 363.19 150.88 362.899 150.261 362.317C149.641 361.723 149.331 360.781 149.331 359.492V352.836H151.019V359.378C151.019 360.996 151.771 361.805 153.276 361.805C154.401 361.805 155.178 361.489 155.608 360.857C156.051 360.225 156.272 359.315 156.272 358.127V352.836H157.941ZM165.908 352.646C166.098 352.646 166.3 352.659 166.515 352.684C166.743 352.697 166.938 352.722 167.103 352.76L166.894 354.296C166.73 354.258 166.547 354.226 166.344 354.201C166.155 354.176 165.971 354.163 165.794 354.163C165.276 354.163 164.789 354.309 164.334 354.599C163.879 354.878 163.512 355.276 163.234 355.794C162.969 356.3 162.836 356.894 162.836 357.577V363H161.167V352.836H162.533L162.722 354.694H162.798C163.127 354.138 163.55 353.658 164.069 353.253C164.587 352.848 165.2 352.646 165.908 352.646ZM177.53 363.19C176.265 363.19 175.254 362.753 174.496 361.881C173.737 360.996 173.358 359.681 173.358 357.937C173.358 356.192 173.737 354.878 174.496 353.993C175.267 353.095 176.284 352.646 177.549 352.646C178.332 352.646 178.971 352.792 179.464 353.082C179.97 353.373 180.38 353.727 180.696 354.144H180.81C180.798 353.98 180.772 353.74 180.734 353.424C180.709 353.095 180.696 352.836 180.696 352.646V348.588H182.365V363H181.019L180.772 361.635H180.696C180.393 362.064 179.988 362.431 179.483 362.735C178.977 363.038 178.326 363.19 177.53 363.19ZM177.795 361.805C178.87 361.805 179.622 361.515 180.052 360.933C180.494 360.339 180.715 359.448 180.715 358.259V357.956C180.715 356.692 180.507 355.725 180.09 355.055C179.672 354.372 178.901 354.031 177.776 354.031C176.879 354.031 176.202 354.391 175.747 355.111C175.305 355.819 175.083 356.774 175.083 357.975C175.083 359.188 175.305 360.13 175.747 360.8C176.202 361.47 176.885 361.805 177.795 361.805ZM184.209 354.106C184.335 353.626 184.456 353.114 184.569 352.57C184.696 352.014 184.81 351.471 184.911 350.94C185.012 350.396 185.094 349.903 185.157 349.46H186.94L187.072 349.669C186.908 350.326 186.668 351.066 186.352 351.888C186.048 352.697 185.745 353.436 185.442 354.106H184.209ZM192.833 352.646C193.706 352.646 194.452 352.836 195.071 353.215C195.703 353.594 196.184 354.132 196.512 354.827C196.854 355.51 197.024 356.312 197.024 357.235V358.24H190.065C190.09 359.391 190.381 360.269 190.937 360.876C191.506 361.47 192.296 361.767 193.308 361.767C193.952 361.767 194.521 361.711 195.014 361.597C195.52 361.47 196.038 361.293 196.569 361.066V362.526C196.051 362.753 195.539 362.918 195.033 363.019C194.528 363.133 193.927 363.19 193.232 363.19C192.271 363.19 191.418 362.994 190.672 362.602C189.938 362.21 189.363 361.628 188.946 360.857C188.542 360.073 188.339 359.119 188.339 357.994C188.339 356.881 188.523 355.927 188.889 355.13C189.268 354.334 189.793 353.721 190.463 353.291C191.146 352.861 191.936 352.646 192.833 352.646ZM192.815 354.012C192.018 354.012 191.386 354.271 190.918 354.789C190.463 355.295 190.191 356.003 190.103 356.913H195.28C195.267 356.053 195.065 355.358 194.673 354.827C194.281 354.283 193.662 354.012 192.815 354.012ZM210.762 352.646C211.912 352.646 212.772 352.943 213.341 353.537C213.91 354.119 214.194 355.067 214.194 356.382V363H212.545V356.458C212.545 354.852 211.856 354.049 210.478 354.049C209.492 354.049 208.784 354.334 208.354 354.903C207.937 355.472 207.728 356.3 207.728 357.387V363H206.078V356.458C206.078 354.852 205.383 354.049 203.992 354.049C202.968 354.049 202.26 354.366 201.868 354.998C201.477 355.63 201.281 356.54 201.281 357.728V363H199.612V352.836H200.958L201.205 354.22H201.3C201.616 353.689 202.039 353.297 202.57 353.044C203.114 352.779 203.689 352.646 204.296 352.646C205.889 352.646 206.925 353.215 207.406 354.353H207.5C207.842 353.771 208.303 353.342 208.885 353.063C209.479 352.785 210.105 352.646 210.762 352.646ZM222.17 352.646C223.421 352.646 224.426 353.082 225.185 353.955C225.956 354.827 226.341 356.142 226.341 357.899C226.341 359.631 225.956 360.946 225.185 361.843C224.426 362.741 223.415 363.19 222.151 363.19C221.367 363.19 220.716 363.044 220.197 362.753C219.692 362.45 219.294 362.102 219.003 361.711H218.889C218.914 361.925 218.94 362.197 218.965 362.526C218.99 362.855 219.003 363.139 219.003 363.379V367.551H217.334V352.836H218.699L218.927 354.22H219.003C219.306 353.778 219.704 353.405 220.197 353.101C220.691 352.798 221.348 352.646 222.17 352.646ZM221.866 354.049C220.83 354.049 220.096 354.34 219.667 354.922C219.249 355.503 219.028 356.388 219.003 357.577V357.899C219.003 359.151 219.205 360.118 219.61 360.8C220.027 361.47 220.792 361.805 221.904 361.805C222.524 361.805 223.029 361.635 223.421 361.293C223.826 360.952 224.123 360.491 224.312 359.909C224.515 359.315 224.616 358.639 224.616 357.88C224.616 356.717 224.388 355.788 223.933 355.092C223.491 354.397 222.802 354.049 221.866 354.049ZM230.669 363H229.001V348.588H230.669V363ZM242.726 357.899C242.726 359.58 242.297 360.882 241.437 361.805C240.59 362.728 239.439 363.19 237.986 363.19C237.088 363.19 236.285 362.987 235.577 362.583C234.882 362.166 234.332 361.565 233.928 360.781C233.523 359.985 233.321 359.024 233.321 357.899C233.321 356.218 233.744 354.922 234.591 354.012C235.438 353.101 236.589 352.646 238.043 352.646C238.965 352.646 239.774 352.855 240.47 353.272C241.178 353.677 241.728 354.271 242.12 355.055C242.524 355.826 242.726 356.774 242.726 357.899ZM235.046 357.899C235.046 359.1 235.28 360.054 235.748 360.762C236.228 361.458 236.987 361.805 238.024 361.805C239.048 361.805 239.8 361.458 240.28 360.762C240.761 360.054 241.001 359.1 241.001 357.899C241.001 356.698 240.761 355.756 240.28 355.073C239.8 354.391 239.041 354.049 238.005 354.049C236.968 354.049 236.216 354.391 235.748 355.073C235.28 355.756 235.046 356.698 235.046 357.899ZM246.224 349.024C246.477 349.024 246.699 349.113 246.888 349.29C247.09 349.454 247.192 349.72 247.192 350.086C247.192 350.44 247.09 350.706 246.888 350.883C246.699 351.06 246.477 351.148 246.224 351.148C245.946 351.148 245.712 351.06 245.523 350.883C245.333 350.706 245.238 350.44 245.238 350.086C245.238 349.72 245.333 349.454 245.523 349.29C245.712 349.113 245.946 349.024 246.224 349.024ZM247.04 352.836V363H245.371V352.836H247.04ZM254.939 353.86C254.939 353.379 255.053 353.044 255.281 352.855C255.508 352.665 255.78 352.57 256.096 352.57C256.425 352.57 256.703 352.665 256.931 352.855C257.171 353.044 257.291 353.379 257.291 353.86C257.291 354.315 257.171 354.644 256.931 354.846C256.703 355.048 256.425 355.149 256.096 355.149C255.78 355.149 255.508 355.048 255.281 354.846C255.053 354.644 254.939 354.315 254.939 353.86ZM254.939 361.976C254.939 361.508 255.053 361.18 255.281 360.99C255.508 360.8 255.78 360.705 256.096 360.705C256.425 360.705 256.703 360.8 256.931 360.99C257.171 361.18 257.291 361.508 257.291 361.976C257.291 362.431 257.171 362.76 256.931 362.962C256.703 363.164 256.425 363.265 256.096 363.265C255.78 363.265 255.508 363.164 255.281 362.962C255.053 362.76 254.939 362.431 254.939 361.976ZM273.492 356.211C273.492 357.665 273.34 358.917 273.037 359.966C272.733 361.003 272.253 361.799 271.595 362.355C270.938 362.912 270.066 363.19 268.979 363.19C267.449 363.19 266.317 362.576 265.584 361.35C264.864 360.111 264.503 358.398 264.503 356.211C264.503 354.745 264.649 353.493 264.939 352.457C265.243 351.42 265.723 350.63 266.381 350.086C267.038 349.53 267.904 349.252 268.979 349.252C270.496 349.252 271.627 349.865 272.373 351.091C273.119 352.305 273.492 354.012 273.492 356.211ZM266.172 356.211C266.172 358.07 266.381 359.46 266.798 360.383C267.228 361.306 267.955 361.767 268.979 361.767C269.99 361.767 270.71 361.312 271.14 360.402C271.583 359.479 271.804 358.082 271.804 356.211C271.804 354.366 271.583 352.981 271.14 352.058C270.71 351.136 269.99 350.674 268.979 350.674C267.955 350.674 267.228 351.136 266.798 352.058C266.381 352.981 266.172 354.366 266.172 356.211ZM277.043 363.265C276.626 363.265 276.31 363.158 276.095 362.943C275.892 362.728 275.791 362.431 275.791 362.052C275.791 361.546 275.93 361.154 276.208 360.876C276.487 360.598 276.841 360.459 277.27 360.459C277.637 360.459 277.934 360.579 278.162 360.819C278.389 361.047 278.503 361.376 278.503 361.805C278.503 362.197 278.37 362.539 278.105 362.829C277.839 363.12 277.485 363.265 277.043 363.265ZM285.275 349.271C286.463 349.271 287.437 349.549 288.195 350.105C288.954 350.661 289.333 351.464 289.333 352.513C289.333 353.057 289.213 353.531 288.973 353.936C288.745 354.34 288.435 354.701 288.043 355.017C287.652 355.32 287.222 355.592 286.754 355.832C287.31 356.097 287.816 356.401 288.271 356.742C288.726 357.071 289.086 357.456 289.352 357.899C289.63 358.341 289.769 358.872 289.769 359.492C289.769 360.63 289.365 361.534 288.555 362.204C287.759 362.861 286.684 363.19 285.332 363.19C283.878 363.19 282.759 362.874 281.975 362.241C281.191 361.597 280.8 360.699 280.8 359.549C280.8 358.929 280.926 358.392 281.179 357.937C281.444 357.482 281.792 357.09 282.222 356.761C282.652 356.432 283.113 356.154 283.606 355.927C282.949 355.548 282.386 355.092 281.918 354.561C281.463 354.018 281.236 353.329 281.236 352.495C281.236 351.799 281.413 351.218 281.767 350.75C282.121 350.27 282.601 349.903 283.208 349.65C283.815 349.397 284.504 349.271 285.275 349.271ZM285.256 350.617C284.561 350.617 283.985 350.788 283.53 351.129C283.088 351.458 282.867 351.938 282.867 352.57C282.867 353.038 282.974 353.43 283.189 353.746C283.416 354.062 283.72 354.334 284.099 354.561C284.478 354.776 284.896 354.985 285.351 355.187C286.008 354.909 286.558 354.574 287 354.182C287.456 353.79 287.683 353.253 287.683 352.57C287.683 351.938 287.462 351.458 287.019 351.129C286.577 350.788 285.989 350.617 285.256 350.617ZM282.43 359.568C282.43 360.225 282.664 360.775 283.132 361.217C283.6 361.647 284.32 361.862 285.294 361.862C286.217 361.862 286.918 361.647 287.399 361.217C287.892 360.775 288.138 360.206 288.138 359.511C288.138 358.853 287.879 358.31 287.361 357.88C286.842 357.438 286.153 357.052 285.294 356.723L284.99 356.609C284.156 356.963 283.518 357.374 283.075 357.842C282.645 358.297 282.43 358.872 282.43 359.568ZM291.765 354.163C291.765 353.24 291.986 352.476 292.429 351.869C292.884 351.262 293.586 350.959 294.534 350.959C295.469 350.959 296.171 351.262 296.639 351.869C297.119 352.476 297.359 353.24 297.359 354.163C297.359 355.086 297.132 355.857 296.677 356.477C296.221 357.084 295.507 357.387 294.534 357.387C293.636 357.387 292.947 357.084 292.467 356.477C291.999 355.857 291.765 355.086 291.765 354.163ZM294.117 363L301.36 351.053H302.934L295.691 363H294.117ZM293.168 354.163C293.168 354.745 293.27 355.232 293.472 355.623C293.687 356.015 294.034 356.211 294.515 356.211C294.995 356.211 295.355 356.015 295.596 355.623C295.836 355.232 295.956 354.745 295.956 354.163C295.956 353.594 295.836 353.12 295.596 352.741C295.355 352.349 294.995 352.153 294.515 352.153C294.047 352.153 293.706 352.349 293.491 352.741C293.276 353.12 293.168 353.594 293.168 354.163ZM299.521 360.004C299.521 359.081 299.742 358.316 300.185 357.709C300.64 357.103 301.341 356.799 302.29 356.799C303.225 356.799 303.927 357.103 304.395 357.709C304.875 358.316 305.115 359.081 305.115 360.004C305.115 360.927 304.888 361.698 304.432 362.317C303.977 362.924 303.263 363.228 302.29 363.228C301.392 363.228 300.703 362.924 300.223 362.317C299.755 361.698 299.521 360.927 299.521 360.004ZM300.924 360.004C300.924 360.585 301.025 361.072 301.228 361.464C301.443 361.856 301.79 362.052 302.271 362.052C302.751 362.052 303.111 361.856 303.352 361.464C303.592 361.072 303.712 360.585 303.712 360.004C303.712 359.435 303.592 358.961 303.352 358.582C303.111 358.19 302.751 357.994 302.271 357.994C301.803 357.994 301.462 358.19 301.247 358.582C301.032 358.961 300.924 359.435 300.924 360.004Z" fill="black"/>
<rect x="25.25" y="396.25" width="14.5" height="14.5" fill="#ECCBE2" stroke="black" stroke-width="0.5"/>
<path d="M66.8176 411H61.9252V410.014L63.5181 409.654V398.826L61.9252 398.447V397.46H66.8176V398.447L65.2247 398.826V409.654L66.8176 410.014V411ZM74.0969 400.646C75.3105 400.646 76.2271 400.943 76.8465 401.537C77.466 402.119 77.7757 403.067 77.7757 404.382V411H76.1259V404.496C76.1259 402.865 75.3674 402.049 73.8504 402.049C72.7252 402.049 71.9478 402.366 71.5179 402.998C71.0881 403.63 70.8732 404.54 70.8732 405.728V411H69.2044V400.836H70.5508L70.7973 402.22H70.8921C71.2208 401.689 71.676 401.297 72.2575 401.044C72.839 400.779 73.4522 400.646 74.0969 400.646ZM84.7761 400.665C86.0151 400.665 86.9316 400.937 87.5258 401.481C88.12 402.024 88.417 402.89 88.417 404.079V411H87.2034L86.881 409.559H86.8052C86.3627 410.115 85.895 410.526 85.4019 410.791C84.9215 411.057 84.2515 411.19 83.3919 411.19C82.469 411.19 81.7041 410.949 81.0973 410.469C80.4905 409.976 80.1871 409.211 80.1871 408.175C80.1871 407.163 80.5853 406.386 81.3818 405.842C82.1782 405.286 83.4045 404.982 85.0606 404.932L86.7862 404.875V404.268C86.7862 403.421 86.6029 402.833 86.2363 402.505C85.8697 402.176 85.3514 402.012 84.6813 402.012C84.1504 402.012 83.6447 402.094 83.1643 402.258C82.6839 402.41 82.2351 402.587 81.8179 402.789L81.3059 401.537C81.7484 401.297 82.273 401.095 82.8799 400.931C83.4867 400.754 84.1188 400.665 84.7761 400.665ZM85.2692 406.089C84.005 406.139 83.1264 406.341 82.6333 406.695C82.1529 407.049 81.9127 407.549 81.9127 408.193C81.9127 408.762 82.0834 409.18 82.4247 409.445C82.7787 409.711 83.2275 409.843 83.7711 409.843C84.6308 409.843 85.345 409.609 85.9139 409.142C86.4828 408.661 86.7673 407.928 86.7673 406.942V406.032L85.2692 406.089ZM95.6333 411.19C94.7358 411.19 93.933 411.006 93.225 410.64C92.5297 410.273 91.9798 409.704 91.5753 408.933C91.1834 408.162 90.9874 407.176 90.9874 405.975C90.9874 404.723 91.196 403.706 91.6132 402.922C92.0304 402.138 92.5929 401.563 93.3009 401.196C94.0215 400.83 94.8369 400.646 95.7471 400.646C96.2654 400.646 96.7648 400.703 97.2452 400.817C97.7256 400.918 98.1175 401.044 98.4209 401.196L97.9089 402.58C97.6055 402.467 97.2515 402.359 96.847 402.258C96.4424 402.157 96.0632 402.106 95.7092 402.106C93.7118 402.106 92.713 403.39 92.713 405.956C92.713 407.182 92.9532 408.124 93.4336 408.781C93.9267 409.426 94.6536 409.748 95.6144 409.748C96.1706 409.748 96.6573 409.692 97.0745 409.578C97.5043 409.464 97.8962 409.325 98.2502 409.161V410.64C97.9089 410.817 97.5296 410.949 97.1124 411.038C96.7079 411.139 96.2149 411.19 95.6333 411.19ZM104.062 409.824C104.315 409.824 104.574 409.805 104.839 409.767C105.105 409.717 105.32 409.666 105.484 409.616V410.886C105.307 410.975 105.054 411.044 104.725 411.095C104.397 411.158 104.081 411.19 103.777 411.19C103.246 411.19 102.753 411.101 102.298 410.924C101.856 410.735 101.495 410.412 101.217 409.957C100.939 409.502 100.8 408.864 100.8 408.042V402.125H99.359V401.329L100.819 400.665L101.483 398.503H102.469V400.836H105.408V402.125H102.469V408.004C102.469 408.623 102.614 409.085 102.905 409.388C103.208 409.679 103.594 409.824 104.062 409.824ZM108.373 397.024C108.625 397.024 108.847 397.113 109.036 397.29C109.239 397.454 109.34 397.72 109.34 398.086C109.34 398.44 109.239 398.706 109.036 398.883C108.847 399.06 108.625 399.148 108.373 399.148C108.094 399.148 107.861 399.06 107.671 398.883C107.481 398.706 107.387 398.44 107.387 398.086C107.387 397.72 107.481 397.454 107.671 397.29C107.861 397.113 108.094 397.024 108.373 397.024ZM109.188 400.836V411H107.519V400.836H109.188ZM117.092 402.125H114.532V411H112.863V402.125H111.081V401.348L112.863 400.779V400.191C112.863 398.876 113.154 397.935 113.736 397.366C114.317 396.784 115.126 396.493 116.163 396.493C116.567 396.493 116.934 396.531 117.263 396.607C117.604 396.67 117.895 396.746 118.135 396.835L117.699 398.143C117.497 398.08 117.263 398.017 116.997 397.953C116.732 397.89 116.46 397.859 116.182 397.859C115.626 397.859 115.208 398.048 114.93 398.428C114.665 398.794 114.532 399.376 114.532 400.172V400.836H117.092V402.125ZM123.606 401.86C123.606 401.379 123.72 401.044 123.947 400.855C124.175 400.665 124.447 400.57 124.763 400.57C125.092 400.57 125.37 400.665 125.597 400.855C125.837 401.044 125.957 401.379 125.957 401.86C125.957 402.315 125.837 402.644 125.597 402.846C125.37 403.048 125.092 403.149 124.763 403.149C124.447 403.149 124.175 403.048 123.947 402.846C123.72 402.644 123.606 402.315 123.606 401.86ZM123.606 409.976C123.606 409.508 123.72 409.18 123.947 408.99C124.175 408.8 124.447 408.705 124.763 408.705C125.092 408.705 125.37 408.8 125.597 408.99C125.837 409.18 125.957 409.508 125.957 409.976C125.957 410.431 125.837 410.76 125.597 410.962C125.37 411.164 125.092 411.265 124.763 411.265C124.447 411.265 124.175 411.164 123.947 410.962C123.72 410.76 123.606 410.431 123.606 409.976ZM142.158 404.211C142.158 405.665 142.007 406.917 141.703 407.966C141.4 409.003 140.919 409.799 140.262 410.355C139.605 410.912 138.732 411.19 137.645 411.19C136.116 411.19 134.984 410.576 134.251 409.35C133.53 408.111 133.17 406.398 133.17 404.211C133.17 402.745 133.315 401.493 133.606 400.457C133.909 399.42 134.39 398.63 135.047 398.086C135.705 397.53 136.571 397.252 137.645 397.252C139.162 397.252 140.294 397.865 141.04 399.091C141.785 400.305 142.158 402.012 142.158 404.211ZM134.839 404.211C134.839 406.07 135.047 407.46 135.464 408.383C135.894 409.306 136.621 409.767 137.645 409.767C138.657 409.767 139.377 409.312 139.807 408.402C140.249 407.479 140.471 406.082 140.471 404.211C140.471 402.366 140.249 400.981 139.807 400.058C139.377 399.136 138.657 398.674 137.645 398.674C136.621 398.674 135.894 399.136 135.464 400.058C135.047 400.981 134.839 402.366 134.839 404.211ZM145.709 411.265C145.292 411.265 144.976 411.158 144.761 410.943C144.559 410.728 144.458 410.431 144.458 410.052C144.458 409.546 144.597 409.154 144.875 408.876C145.153 408.598 145.507 408.459 145.937 408.459C146.304 408.459 146.601 408.579 146.828 408.819C147.056 409.047 147.17 409.376 147.17 409.805C147.17 410.197 147.037 410.539 146.771 410.829C146.506 411.12 146.152 411.265 145.709 411.265ZM153.752 402.694C155.142 402.694 156.249 403.042 157.07 403.737C157.892 404.432 158.303 405.412 158.303 406.676C158.303 408.08 157.854 409.186 156.957 409.995C156.072 410.791 154.833 411.19 153.24 411.19C152.545 411.19 151.887 411.126 151.268 411C150.661 410.874 150.149 410.69 149.732 410.45V408.876C150.187 409.154 150.737 409.376 151.381 409.54C152.039 409.692 152.665 409.767 153.259 409.767C154.258 409.767 155.06 409.534 155.667 409.066C156.287 408.585 156.596 407.846 156.596 406.847C156.596 405.962 156.324 405.286 155.781 404.818C155.237 404.338 154.378 404.097 153.202 404.097C152.848 404.097 152.443 404.129 151.988 404.192C151.533 404.256 151.167 404.319 150.888 404.382L150.054 403.851L150.566 397.46H157.355V398.977H151.988L151.666 402.903C151.881 402.865 152.172 402.821 152.538 402.77C152.905 402.72 153.309 402.694 153.752 402.694ZM160.432 402.163C160.432 401.24 160.653 400.476 161.096 399.869C161.551 399.262 162.252 398.959 163.2 398.959C164.136 398.959 164.838 399.262 165.305 399.869C165.786 400.476 166.026 401.24 166.026 402.163C166.026 403.086 165.798 403.857 165.343 404.477C164.888 405.084 164.174 405.387 163.2 405.387C162.303 405.387 161.614 405.084 161.133 404.477C160.666 403.857 160.432 403.086 160.432 402.163ZM162.783 411L170.027 399.053H171.601L164.357 411H162.783ZM161.835 402.163C161.835 402.745 161.936 403.232 162.139 403.623C162.353 404.015 162.701 404.211 163.181 404.211C163.662 404.211 164.022 404.015 164.262 403.623C164.503 403.232 164.623 402.745 164.623 402.163C164.623 401.594 164.503 401.12 164.262 400.741C164.022 400.349 163.662 400.153 163.181 400.153C162.714 400.153 162.372 400.349 162.157 400.741C161.943 401.12 161.835 401.594 161.835 402.163ZM168.188 408.004C168.188 407.081 168.409 406.316 168.851 405.709C169.307 405.103 170.008 404.799 170.956 404.799C171.892 404.799 172.593 405.103 173.061 405.709C173.542 406.316 173.782 407.081 173.782 408.004C173.782 408.927 173.554 409.698 173.099 410.317C172.644 410.924 171.93 411.228 170.956 411.228C170.059 411.228 169.37 410.924 168.889 410.317C168.422 409.698 168.188 408.927 168.188 408.004ZM169.591 408.004C169.591 408.585 169.692 409.072 169.894 409.464C170.109 409.856 170.457 410.052 170.937 410.052C171.418 410.052 171.778 409.856 172.018 409.464C172.258 409.072 172.379 408.585 172.379 408.004C172.379 407.435 172.258 406.961 172.018 406.582C171.778 406.19 171.418 405.994 170.937 405.994C170.47 405.994 170.128 406.19 169.913 406.582C169.698 406.961 169.591 407.435 169.591 408.004Z" fill="black"/>
</svg>
