<svg width="800" height="800" viewBox="0 0 800 800" fill="none" xmlns="http://www.w3.org/2000/svg">
<g clip-path="url(#clip0_360_193)">
<path d="M168.067 162.767V79.5737L41.4975 149.523C15.8941 163.673 0 190.617 0 219.87V405.579H84.4303V226.745C84.4303 217.578 89.2824 209.096 97.184 204.449L168.067 162.767Z" fill="black"/>
<path d="M631.933 162.767V79.5737L758.502 149.523C784.106 163.673 800 190.617 800 219.87V405.579H715.57V226.745C715.57 217.578 710.718 209.096 702.816 204.449L631.933 162.767Z" fill="black"/>
<path d="M715.126 434.991H700.42H685.714H400H113.445H98.7395H84.0336H0V449.697V464.402V720.426H224.059C272.81 720.426 317.332 692.746 338.903 649.027L353.434 619.573H400H446.565L461.097 649.027C482.667 692.746 527.19 720.426 575.94 720.426H800V464.402V449.697V434.991H799.16H715.126ZM289.48 577.953C289.48 620.266 255.179 654.566 212.866 654.566H123.268C80.9555 654.566 46.6546 620.266 46.6546 577.953V569.061C46.6546 526.749 80.9555 492.448 123.268 492.448H212.866C255.179 492.448 289.48 526.749 289.48 569.061V577.953ZM756.707 577.953C756.707 620.266 722.406 654.566 680.093 654.566H590.495C548.182 654.566 513.882 620.266 513.882 577.953V569.062C513.882 526.75 548.182 492.449 590.495 492.449H680.094C722.407 492.449 756.708 526.75 756.708 569.062L756.707 577.953Z" fill="black"/>
<path d="M212.866 521.859H123.268C97.2412 521.859 76.0664 543.034 76.0664 569.061V577.953C76.0664 603.98 97.2412 625.154 123.268 625.154H212.866C238.893 625.154 260.068 603.98 260.068 577.953V569.061C260.068 543.034 238.893 521.859 212.866 521.859Z" fill="black"/>
</g>
<defs>
<clipPath id="clip0_360_193">
<rect width="800" height="800" fill="white"/>
</clipPath>
</defs>
</svg>
